<?xml version="1.0" encoding="UTF-8" standalone="no"?>
<!-- Created with Inkscape (http://www.inkscape.org/) -->

<svg
   width="25.708mm"
   height="30.661mm"
   version="1.1"
   viewBox="0 0 25.708 30.661"
   xml:space="preserve"
   id="svg94"
   sodipodi:docname="tent_small.svg"
   inkscape:version="1.3 (0e150ed6c4, 2023-07-21)"
   xmlns:inkscape="http://www.inkscape.org/namespaces/inkscape"
   xmlns:sodipodi="http://sodipodi.sourceforge.net/DTD/sodipodi-0.dtd"
   xmlns="http://www.w3.org/2000/svg"
   xmlns:svg="http://www.w3.org/2000/svg"><defs
     id="defs94" /><sodipodi:namedview
     id="namedview94"
     pagecolor="#ffffff"
     bordercolor="#000000"
     borderopacity="0.25"
     inkscape:showpageshadow="2"
     inkscape:pageopacity="0.0"
     inkscape:pagecheckerboard="0"
     inkscape:deskcolor="#d1d1d1"
     inkscape:document-units="mm"
     inkscape:zoom="1.6352945"
     inkscape:cx="-82.553938"
     inkscape:cy="108.8489"
     inkscape:window-width="2400"
     inkscape:window-height="1261"
     inkscape:window-x="2391"
     inkscape:window-y="-9"
     inkscape:window-maximized="1"
     inkscape:current-layer="svg94" /><g
     transform="translate(-95.895,-79.922)"
     id="g19"><path
       d="m 105.4,110.2 -1.0157,-0.36216 -3.0754,-1.8983 h -0.36292 l -3.9527,-2.7325 -1.0286,-1.3076 v -1.7401 l 0.64065,-0.74791 0.64065,-0.7479 3.6135,-2.3513 1.7485,-1.9993 1.7485,-1.9993 5.704,-7.1438 0.29432,-0.36998 0.29433,-0.36998 0.26458,-6.5058 4.0969,3.348 -0.6573,0.52647 -2.1521,1.0837 -0.34257,0.41278 -0.34258,0.41278 0.151,0.59875 0.15099,0.59875 1.3503,1.5875 1.3503,1.5875 5.3866,7.1438 1.6961,1.8853 -0.31912,4.9256 -3.6479,2.3598 -0.82011,-0.28589 -0.8201,-0.2859 h -0.1856 v 1.803 l -4.4022,2.9595 -4.9905,-0.0232 z"
       fill="#cfcfd0"
       id="path1" /><path
       d="m 105.62,110.21 -1.0583,-0.34188 -5.5058,-3.2945 -2.2498,-1.6749 -0.84337,-1.4046 v -1.0906 l 1.6451,-1.8737 3.2593,-2.1078 2.6799,-3.0484 5.0001,-6.0854 2.2323,-2.8256 v -6.3025 h 0.33717 l 3.4993,2.9759 0.0737,0.18826 0.0737,0.18827 -2.0392,0.91956 -1.5297,1.2198 0.29734,0.62756 0.29735,0.62756 4.679,5.9057 4.9711,6.4725 -0.0556,2.103 -0.0556,2.103 -0.2392,0.61384 -3.1678,2.0441 -2.3454,-0.35171 -0.1658,1.9804 -4.1578,2.8095 -4.5734,-0.0354 z"
       fill="#98e0d3"
       id="path2" /><path
       d="m 105.62,110.21 -1.0583,-0.34188 -5.5058,-3.2945 -2.2498,-1.6749 -0.84337,-1.4046 v -1.0906 l 1.6451,-1.8737 3.2593,-2.1078 2.6799,-3.0484 5.0001,-6.0854 2.2323,-2.8256 v -6.3025 h 0.33717 l 3.4993,2.9759 0.0737,0.18826 0.0737,0.18827 -2.0392,0.91956 -1.5297,1.2198 0.29734,0.62756 0.29735,0.62756 4.679,5.9057 4.9711,6.4725 -0.0556,2.103 -0.0556,2.103 -0.2392,0.61384 -3.1678,2.0441 -2.3454,-0.35171 -0.1658,1.9804 -4.1578,2.8095 -4.5734,-0.0354 z m 7.0115,-1.5164 v -0.17889 l -0.66146,-0.28398 1.395,0.194 0.81925,-0.57234 0.81926,-0.57234 0.005,-1.2724 0.005,-1.2724 -0.52917,0.32704 v -0.8555 l -2.6076,1.4658 0.10768,0.17422 0.10768,0.17423 1.7308,0.35676 -0.9838,0.56396 -0.59007,-0.26885 -0.59006,-0.26885 -0.1136,3.1472 1.0869,-0.67877 z m 3.3942,-6.5124 0.97145,-0.60092 0.65842,-0.30882 -0.3433,-0.55548 0.28413,0.1756 0.28413,0.17561 0.70412,-0.66702 1.9405,-1.3024 -1.4113,-1.6747 -1.8521,-2.4684 -1.8521,-2.4684 -1.4349,-1.4984 0.112,-0.1433 -1.7196,-2.0853 0.79367,2.2939 0.79366,2.2939 v 0.57152 l -0.66146,-0.0017 -1.5129,-4.6914 0.3438,-1.0832 -0.43635,-0.26968 -0.1476,3.5324 -0.0251,0.39688 -0.025,0.39688 0.0417,6.4066 0.0417,6.4066 3.481,-2.2298 z m 0.30999,-7.8658 v -0.13229 h 0.26459 v 0.26458 h -0.26459 z m -3.7042,-0.79375 v -0.13229 h 0.26458 v 0.26458 h -0.26458 z m 1.0583,-1.5875 v -0.13229 h 0.26458 v 0.26458 h -0.26458 z m 5.0316,12.311 -0.25043,-0.46793 0.33416,-0.33416 h -0.61736 v 1.5709 l 0.78405,-0.30088 z m 1.9201,-2.3305 0.14384,-1.7789 -0.0908,-0.0929 -0.0908,-0.09287 -0.88237,0.67302 -0.88237,0.67301 0.0448,2.5685 0.19497,0.31548 0.19497,0.31547 1.224,-0.80201 z m -0.60168,1.6607 v -0.1323 h 0.26458 v 0.26459 h -0.26458 z m -2.0798,-0.65266 0.62462,-0.52036 -0.84403,-0.018 -0.47889,0.52917 -0.47889,0.52916 h 0.55256 z m -5.0726,-19.279 0.79785,-0.4852 -1.186,-1.0675 -0.55161,-0.30665 -0.0337,0.4471 -0.0337,0.4471 -0.1052,0.52434 0.0626,0.92604 h 0.25179 z"
       fill="#95d9cd"
       id="path3" /><path
       d="m 105.62,110.21 -1.0583,-0.34188 -5.5058,-3.2945 -2.2498,-1.6749 -0.84337,-1.4046 v -1.0906 l 1.6451,-1.8737 3.2593,-2.1078 2.6799,-3.0484 5.0001,-6.0854 2.2323,-2.8256 v -6.3025 h 0.33717 l 3.4993,2.9759 0.0737,0.18826 0.0737,0.18827 -2.0392,0.91956 -1.5297,1.2198 0.29734,0.62756 0.29735,0.62756 4.679,5.9057 4.9711,6.4725 -0.0556,2.103 -0.0556,2.103 -0.2392,0.61384 -3.1678,2.0441 -2.3454,-0.35171 -0.1658,1.9804 -4.1578,2.8095 -4.5734,-0.0354 z m 7.0778,-1.2807 0.8836,-0.59963 1.4313,-1.1259 v -2.1951 l -0.66146,-0.72327 -2.498,1.3504 0.14014,0.22676 0.14015,0.22676 h 0.73129 l 0.30444,0.4926 -0.4756,0.29394 -1.2942,-1.018 0.0648,0.57877 0.0648,0.57878 0.022,1.2568 0.0221,1.2568 h 0.24109 z m 7.9949,-6.9526 0.18738,-1.7498 -0.1313,-0.13131 -0.1313,-0.1313 -2.1866,1.447 0.55054,0.55054 v 1.2337 l -0.79375,0.30459 v 1.8209 l 2.3176,-1.5946 z m -3.7662,-0.31898 3.369,-2.2191 0.11787,-0.19071 0.11786,-0.19071 -3.6571,-4.7418 -4.8987,-6.2582 -0.28749,-0.2386 -0.28748,-0.2386 0.0568,5.9416 0.0579,5.7763 0.0579,5.7763 1.9844,-1.1974 z m -3.6399,-8.0699 -0.12201,-0.33073 -1.3269,-3.9291 v -0.8069 l 0.49928,0.50271 1.6174,4.5879 v 0.30694 h -0.54577 z m 1.7261,10.253 v -0.13229 h -0.26459 v 0.26458 h 0.26459 z m 2.9472,-0.91724 0.62462,-0.52036 -0.84403,-0.018 -0.47889,0.52917 -0.47889,0.52916 h 0.55256 z m -4.2895,-19.525 0.113,-0.06891 -1.5156,-1.582 h -0.36848 l -0.12644,0.66146 -0.12645,0.66146 0.24256,1.2688 1.6684,-0.87196 z"
       fill="#8ac5ba"
       id="path4" /><path
       d="m 105.62,110.21 -1.0583,-0.34188 -5.5058,-3.2945 -2.2498,-1.6749 -0.84337,-1.4046 v -1.0906 l 1.6451,-1.8737 3.2593,-2.1078 2.6799,-3.0484 5.0001,-6.0854 2.2323,-2.8256 v -6.3025 h 0.33717 l 3.4993,2.9759 0.0737,0.18826 0.0737,0.18827 -2.0392,0.91956 -1.5297,1.2198 0.29734,0.62756 0.29735,0.62756 4.679,5.9057 4.9711,6.4725 -0.0556,2.103 -0.0556,2.103 -0.2392,0.61384 -3.1678,2.0441 -2.3454,-0.35171 -0.1658,1.9804 -4.1578,2.8095 -4.5734,-0.0354 z m 7.8197,-1.7492 1.573,-1.0682 v -2.582 l -0.66146,-0.22263 0.39687,-0.50148 0.39688,-0.50148 -1.3229,0.82936 -2.5135,1.4608 v 2.0002 l 0.16536,0.82683 0.16537,0.82682 h 0.22747 z m -1.602,-2.2391 -0.32938,-0.39688 0.46167,0.018 0.66146,0.37812 0.66145,0.37812 -1.1258,0.018 z m 7.7331,-1.7859 1.2617,-0.85989 5.1e-4,-1.9309 5.1e-4,-1.9309 -2.3812,1.6383 v 0.24634 l 0.64246,1.0287 -1.0612,1.213 -0.0742,0.7276 -0.0742,0.72761 h 0.42382 z m -2.5227,-2.7785 2.9614,-1.9594 0.60775,-0.7323 -2.0772,-2.5334 -5.9114,-7.6729 -1.3174,-1.5875 0.002,8.3344 0.002,8.3344 0.32228,1.2029 2.4486,-1.4266 z m -4.2058,-9.5908 -0.7034,-1.9844 -0.36952,-1.5875 0.53824,0.52917 1.4124,4.1453 -0.1744,0.88175 z m 5.61,10.286 v -0.26153 l -1.5875,0.93776 v 0.71569 l 1.5875,-1.1304 z m -5.5404,-19.96 -1.006,-0.90885 h -0.31043 l 0.1702,1.9844 0.036,0.45877 0.0361,0.45877 1.0401,-0.54211 1.0401,-0.54211 z"
       fill="#98a6a4"
       id="path5" /><path
       d="m 106.35,110.32 -1.1235,-0.23685 -5.8657,-3.3352 -2.9827,-2.3906 -0.24289,-0.84689 -0.24288,-0.84689 0.44776,-0.68337 0.44776,-0.68336 3.2404,-2.2218 2.9573,-2.9104 4.488,-5.5189 2.3975,-2.9478 0.90981,-1.3084 v -6.2323 h 0.29337 l 1.822,1.5681 1.822,1.5681 -0.31502,0.25193 -0.31503,0.25193 -2.1521,1.0837 -0.66978,0.80703 0.3512,1.1065 4.5873,5.759 4.7625,6.1654 0.46728,0.65901 -0.1918,2.3025 -0.1918,2.3025 -3.1417,2.1335 -1.183,-0.17739 -1.183,-0.1774 v 1.8461 l -4.0569,2.8045 -4.0129,0.1444 z m 7.0911,-1.8621 1.573,-1.0682 v -2.582 l -0.66146,-0.22263 0.39687,-0.50148 0.39688,-0.50148 -1.3229,0.82936 -2.5135,1.4608 v 2.0002 l 0.16536,0.82683 0.16537,0.82682 h 0.22747 z m -1.602,-2.2391 -0.32938,-0.39688 0.46167,0.018 0.66146,0.37812 0.66145,0.37812 -1.1258,0.018 z m 7.7331,-1.7859 1.2617,-0.85989 5.1e-4,-1.9309 5.1e-4,-1.9309 -2.3812,1.6383 v 0.24634 l 0.64246,1.0287 -1.0612,1.213 -0.0742,0.7276 -0.0742,0.72761 h 0.42382 z m -2.5227,-2.7785 2.9614,-1.9594 0.60691,-0.73128 -0.81968,-1.0026 -0.81967,-1.0026 -6.7425,-8.6771 -0.45714,-0.55626 -0.45713,-0.55626 -0.002,8.3344 -0.002,8.3344 0.32228,1.2029 2.4486,-1.4266 z m -4.2058,-9.5908 -0.7034,-1.9844 -0.36952,-1.5875 0.53824,0.52917 1.4124,4.1453 -0.1744,0.88175 z m 5.61,10.379 v -0.35479 l -1.5875,0.93776 v 0.70957 l 0.79375,-0.46888 0.79375,-0.46887 z m -5.6328,-20.154 -1.1141,-1.0431 -0.1754,1.3762 0.16576,0.88358 0.16576,0.88358 2.0722,-1.0572 z"
       fill="#6e9e97"
       id="path6" /><path
       d="m 106.35,110.32 -1.1235,-0.23685 -5.8657,-3.3352 -2.9827,-2.3906 -0.24289,-0.84689 -0.24288,-0.84689 0.44776,-0.68337 0.44776,-0.68336 3.2404,-2.2218 2.9573,-2.9104 4.488,-5.5189 2.3975,-2.9478 0.90981,-1.3084 v -6.2323 h 0.29337 l 1.822,1.5681 1.822,1.5681 -0.31502,0.25193 -0.31503,0.25193 -2.1521,1.0837 -0.66978,0.80703 0.3512,1.1065 4.5873,5.759 4.7625,6.1654 0.46728,0.65901 -0.1918,2.3025 -0.1918,2.3025 -3.1417,2.1335 -1.183,-0.17739 -1.183,-0.1774 v 1.8461 l -4.0569,2.8045 -4.0129,0.1444 z m 6.4998,-1.3628 1.2383,-0.83344 1.1861,-1.0669 -0.0324,-1.4054 -0.0324,-1.4054 -0.59212,0.33059 0.33073,-0.35632 0.33073,-0.35631 v -0.41194 l -3.9688,2.4095 v 3.9291 h 0.30153 z m -0.73842,-2.5958 -0.38921,-0.24615 0.12504,-0.12505 0.12505,-0.12504 1.0264,0.75048 -0.49802,-0.008 z m 7.4596,-1.8429 1.2208,-0.77423 0.0877,-2.0045 0.0877,-2.0045 -0.31748,0.0012 -1.1642,0.83142 -1.1642,0.83141 -0.26018,0.22894 0.92164,0.51577 v 0.76297 l -1.0583,0.66094 v 1.7248 h 0.42557 z m -3.111,-2.4199 4.1104,-2.7194 v -0.45158 l -2.6333,-3.3931 -3.524,-4.6615 -1.3334,-1.5875 -1.3334,-1.5875 -0.2181,-0.25136 -0.21809,-0.25135 v 17.895 l 0.51978,-0.13593 0.51979,-0.13592 z m -3.6638,-10.336 -0.74281,-2.2127 -0.24562,-0.79375 0.25491,0.26458 0.2549,0.26458 1.4296,4.0654 -0.10409,0.31226 -0.10408,0.31226 z m 5.0054,11.515 0.65215,-0.4273 v -0.73289 h -0.2832 l -1.3043,0.85461 v 0.73289 h 0.2832 z m -3.9295,-20.056 -0.0779,-0.24243 -2.2196,-1.8326 0.008,2.0529 0.15181,0.56578 0.15182,0.56578 2.0645,-0.86698 z"
       fill="#777b80"
       id="path7" /><path
       d="m 106.74,110.32 -1.2694,-0.2288 -1.9591,-1.0474 -3.9848,-2.3002 -2.7778,-2.0409 -0.78932,-1.5264 0.33684,-1.3421 1.094,-0.88893 1.094,-0.88892 2.5002,-1.573 3.9673,-4.6308 5.4124,-6.687 0.38062,-0.76296 0.38061,-0.76296 -0.3601,-5.5698 0.47406,0.36605 0.47405,0.36605 3.0061,2.4568 -0.2992,0.2992 -0.29921,0.2992 h -0.50014 l -2.3035,1.4552 0.008,0.52917 0.008,0.52917 1.4376,1.9528 4.2333,5.3864 2.2,2.7805 2.2,2.7805 -0.18595,2.377 -0.18595,2.377 -3.2344,2.0656 -1.3229,-0.29823 -0.92604,-0.27512 v 2.0856 l -4.2233,2.7727 -3.3173,0.1732 z m 6.1165,-1.3671 1.2383,-0.83344 1.1861,-1.0669 -0.0324,-1.4054 -0.0324,-1.4054 -0.59212,0.33059 0.33073,-0.35632 0.33073,-0.35631 v -0.41194 l -3.9688,2.4095 v 3.9291 h 0.30153 z m -0.73842,-2.5958 -0.38921,-0.24615 0.12504,-0.12505 0.12505,-0.12504 1.0264,0.75048 -0.49802,-0.008 z m 7.4596,-1.8429 1.2208,-0.77423 0.0877,-2.0045 0.0877,-2.0045 -0.31748,0.0012 -1.1642,0.83142 -1.1642,0.83141 -0.26018,0.22894 0.92164,0.51577 v 0.76297 l -1.0583,0.66094 v 1.7248 h 0.42557 z m -3.111,-2.4199 4.1104,-2.7194 v -0.45158 l -2.6333,-3.3931 -3.524,-4.6615 -1.3334,-1.5875 -1.3334,-1.5875 -0.2181,-0.25136 -0.21809,-0.25135 v 17.895 l 0.51978,-0.13593 0.51979,-0.13592 z m -3.6638,-10.336 -0.74281,-2.2127 -0.24562,-0.79375 0.25491,0.26458 0.2549,0.26458 1.4296,4.0654 -0.10409,0.31226 -0.10408,0.31226 z m 5.0054,11.515 0.65215,-0.4273 v -0.73289 h -0.2832 l -1.3043,0.85461 v 0.73289 h 0.2832 z m -3.9295,-20.056 -0.0779,-0.24243 -2.2196,-1.8326 0.008,2.0529 0.15181,0.56578 0.15182,0.56578 2.0645,-0.86698 z"
       fill="#5b837c"
       id="path8" /><path
       d="m 106.74,110.32 -1.2694,-0.2288 -1.9591,-1.0474 -3.9848,-2.3002 -2.7778,-2.0409 -0.78932,-1.5264 0.33684,-1.3421 1.094,-0.88893 1.094,-0.88892 2.5002,-1.573 3.9673,-4.6308 5.4124,-6.687 0.38062,-0.76296 0.38061,-0.76296 -0.3601,-5.5698 0.47406,0.36605 0.47405,0.36605 3.0061,2.4568 -0.2992,0.2992 -0.29921,0.2992 h -0.50014 l -2.3035,1.4552 0.008,0.52917 0.008,0.52917 1.4376,1.9528 4.2333,5.3864 2.2,2.7805 2.2,2.7805 -0.18595,2.377 -0.18595,2.377 -3.2344,2.0656 -1.3229,-0.29823 -0.92604,-0.27512 v 2.0856 l -4.2233,2.7727 -3.3173,0.1732 z m 6.657,-1.7243 1.6366,-1.0583 0.14077,-0.5402 0.14077,-0.54019 -0.162,-2.9703 -3.7042,2.2571 -0.0777,2.0472 -0.0777,2.0472 0.23346,-0.0921 0.23347,-0.0921 z m -1.2866,-2.249 -0.39688,-0.25648 h 0.52917 l 0.39688,0.25648 0.39687,0.25648 h -0.52917 z m 2.6458,-1.9844 V 104.23 h 0.26459 v 0.26459 h -0.26459 z m 5.408,-0.25789 0.63734,-0.53586 0.1898,-3.8365 h -0.33478 l -1.1642,0.83142 -1.1642,0.83141 -0.26018,0.22894 0.92164,0.51577 v 0.76297 l -1.0583,0.66094 v 2.0193 l 1.5956,-0.94256 z m -2.965,-2.4477 3.369,-2.2254 0.21146,-0.36072 -2.3552,-3.0427 -2.3552,-3.0427 -4.7152,-5.9462 -0.1696,4.8879 0.158,13.397 2.4879,-1.4415 z m -4.4273,-10.127 -0.71609,-2.1502 0.11061,-0.11062 0.11062,-0.11062 1.4467,4.2859 -0.23578,0.23578 z m 5.0364,11.744 0.65215,-0.4273 v -0.73289 h -0.41142 l -1.3084,0.88286 -0.1852,0.1402 0.3488,0.56438 h 0.25197 z m -4.7032,-19.43 0.8623,-0.36919 -0.1664,-0.49932 -2.2196,-1.8326 v 2.4065 l 0.32978,0.85939 0.33168,-0.19558 z"
       fill="#4e6e6b"
       id="path9" /><path
       d="m 106.83,110.3 -1.4417,-0.25434 -5.7472,-3.2303 -3.0504,-2.2456 -0.33194,-0.80136 -0.33194,-0.80136 0.84559,-1.6352 3.8263,-2.5913 2.0252,-2.0456 5.3831,-6.562 2.9104,-3.723 -0.0598,-6.2558 2.441,1.9879 0.59532,0.51114 0.59531,0.51114 v 0.3488 l -1.4552,0.65109 -1.7162,1.1536 0.007,0.52917 0.007,0.52917 1.4376,1.9592 4.4639,5.7137 3.7265,4.7625 0.43396,0.31154 -0.18248,2.4172 -0.18247,2.4172 -3.3373,2.1744 -1.0857,-0.30893 -1.0583,-0.30024 v 2.0298 l -4.101,2.7652 -3.175,0.23652 z m 6.8927,-1.8715 1.5604,-1.0946 v -3.8921 h -0.2184 l -1.4098,0.92846 -1.4098,0.92845 -0.89726,0.28478 -0.0829,0.5828 -0.0829,0.58281 0.0906,1.5403 0.0906,1.5403 0.79894,-0.30658 z m 1.0313,-4.0606 v -0.1323 h 0.26459 v 0.26459 H 114.754 Z m 5.6622,-0.38298 0.35795,-0.41077 0.25924,-3.8365 h -0.51991 l -2.6982,1.9807 0.8625,0.1662 0.17202,0.44796 0.17201,0.44796 -0.54636,0.363 -0.54637,0.363 v 2.086 l 1.0646,-0.59835 1.0646,-0.59834 z m -7.592,0.55265 1.2684,-0.75637 2.8646,-1.9046 0.44269,0.2736 v -0.51395 l 3.4471,-2.4598 -0.66898,-0.91915 -5.282,-6.854 -3.5358,-4.3448 -0.37238,4.4703 0.3105,3.8432 0.008,4.9609 0.008,4.9609 h 0.2413 z m -0.024,-12.9 -0.42586,-1.2498 0.20352,-0.20352 0.85172,2.4997 -0.20352,0.20352 z m -0.69196,-2.0861 v -0.13229 h 0.26458 v 0.26458 h -0.26458 z m 5.9363,13.592 0.71601,-0.56321 -0.51918,-0.51918 -1.6352,0.96595 v 0.32688 l 0.17638,0.17639 0.17639,0.17639 h 0.36961 z m -1.0415,-0.7597 0.16352,-0.26458 h -0.26458 l -0.32704,0.52916 h 0.26458 z m -3.9777,-18.438 0.93502,-0.44588 v -0.36958 l -2.1182,-1.9137 h -0.26306 v 3.175 h 0.51122 z"
       fill="#4c5051"
       id="path10" /><path
       d="m 107.19,110.28 -1.3064,-0.1701 -1.5367,-0.60373 -2.9612,-1.7582 -3.0691,-1.7913 -1.0451,-1.0042 -1.0451,-1.0042 v -1.7917 l 1.5555,-1.5555 3.0747,-1.9866 1.0036,-1.0936 1.0036,-1.0936 5.4012,-6.5697 1.0869,-1.3587 1.0869,-1.3587 0.66818,-1.2485 0.22487,0.40183 0.22488,0.40183 -0.5064,1.7657 0.15545,8.3488 0.15546,8.3488 0.1468,0.1564 2.8422,-1.673 1.4516,-1.0304 0.42576,0.26313 0.76848,-0.54417 -0.92604,0.2979 v -0.22936 l 0.56109,-0.30029 0.5611,-0.30029 -0.17983,0.29098 -0.17984,0.29098 h 0.5604 v -0.7473 l 3.4498,-2.4617 -0.37636,-0.62744 0.43334,0.35124 0.43333,0.35124 -0.31968,4.5892 -1.0726,0.79375 -1.6218,0.96146 1.3056,-0.96146 0.57847,-0.52917 0.57848,-0.52916 0.13761,-2.0536 0.13762,-2.0536 -0.70743,0.41834 -0.70744,0.41834 -1.8521,1.5364 0.86943,0.014 0.1735,0.45215 0.17351,0.45215 -0.56571,0.42672 -0.56571,0.42671 0.1602,2.3433 -1.039,-0.0576 -1.4552,-0.3966 v 2.0611 l -4.0688,2.6265 -2.9757,0.26458 z m 6.5259,-1.8547 1.5604,-1.0946 v -3.9362 l -0.39688,0.1764 -3.5328,2.1167 -0.1854,1.0583 0.1974,3.0797 0.79673,-0.30573 z m 2.266,-4.3693 -0.17638,-0.17639 v 0.70555 l 0.17638,-0.17639 0.17639,-0.17639 z m 2.539,-1.5434 0.0251,-0.26458 -0.75612,-0.1282 -1.2164,0.94378 0.17709,0.46146 0.17708,0.46147 1.5681,-1.2093 z m -2.1862,0.79375 v -0.13229 h -0.26458 v 0.26458 h 0.26458 z m 3.4196,-5.6224 -0.64143,-0.7276 1.4552,1.2829 v 0.17234 h -0.1724 z m -2.262,-2.9104 -1.5443,-2.0505 -4.4319,-5.456 0.1972,-0.19726 2.6901,3.272 4.3763,5.8208 0.26508,0.33073 0.26507,0.33073 h -0.27333 z m -4.6989,-3.1394 -0.42586,-1.2498 0.20352,-0.20352 0.85172,2.4997 -0.20352,0.20352 z m -1.7168,-8.7412 -0.0439,-2.5103 0.98164,0.69878 1.2898,1.1406 1.2898,1.1406 -0.77268,0.48874 -0.52917,-0.008 0.92714,-0.53998 -2.5146,-2.1797 -0.0796,1.6631 -0.0796,1.6631 0.12276,0.12276 0.12275,0.12276 1.3688,-0.89689 v 0.25512 l -1.0196,0.67476 -1.0196,0.67476 z"
       fill="#106274"
       id="path11" /><path
       d="m 107.19,110.28 -1.3064,-0.1701 -1.5367,-0.60373 -2.9612,-1.7582 -3.0691,-1.7913 -1.0451,-1.0042 -1.0451,-1.0042 v -1.7917 l 1.5555,-1.5555 3.0747,-1.9866 1.0036,-1.0936 1.0036,-1.0936 5.4012,-6.5697 1.0869,-1.3587 1.0869,-1.3587 0.66818,-1.2485 0.22487,0.40183 0.22488,0.40183 -0.5064,1.7657 0.15545,8.3488 0.15546,8.3488 0.1468,0.1564 2.8422,-1.673 1.4516,-1.0304 0.42576,0.26313 0.76848,-0.54417 -0.92604,0.2979 v -0.22936 l 0.56109,-0.30029 0.5611,-0.30029 -0.17983,0.29098 -0.17984,0.29098 h 0.5604 v -0.7473 l 3.4498,-2.4617 -0.37636,-0.62744 0.43334,0.35124 0.43333,0.35124 -0.31968,4.5892 -1.0726,0.79375 -1.6218,0.96146 1.3056,-0.96146 0.57847,-0.52917 0.57848,-0.52916 0.13761,-2.0536 0.13762,-2.0536 -0.70743,0.41834 -0.70744,0.41834 -1.8521,1.5364 0.86943,0.014 0.1735,0.45215 0.17351,0.45215 -0.56571,0.42672 -0.56571,0.42671 0.1602,2.3433 -1.039,-0.0576 -1.4552,-0.3966 v 2.0611 l -4.0688,2.6265 -2.9757,0.26458 z m 6.5259,-1.8547 1.5604,-1.0946 v -3.9362 l -0.39688,0.1764 -3.5328,2.1167 -0.1854,1.0583 0.1974,3.0797 0.79673,-0.30573 z m -3.2327,-0.0257 -0.0307,-1.1245 -0.242,0.92604 h -1.2529 l -0.144,-0.23299 -0.14399,-0.23299 -0.71566,-0.1368 -0.71565,-0.13681 1.2833,0.96799 0.1728,-0.1728 1.3675,1.2674 h 0.4519 z m -0.4759,-1.4006 0.2161,-0.27609 -1.8921,0.2209 0.12104,-0.36352 0.12104,-0.36353 1.1002,-0.0578 0.47889,-0.18377 0.47889,-0.18376 -0.77892,-0.4926 -0.39687,-0.008 0.0661,0.29872 0.0662,0.29871 -1.1906,0.1078 v -1.4991 l -1.7198,-0.056 -1.423,0.0926 -0.1646,-2.1852 -2.1167,-1.1586 -0.19438,-0.26459 -0.19439,-0.26458 -0.008,0.26458 -0.008,0.26459 -0.55318,-0.79375 0.17664,0.89299 0.17664,0.893 -0.29288,-0.18101 -0.29287,-0.18101 v 0.51626 l 1.4542,1.0593 -0.16473,0.16474 -0.16473,0.16473 -1.654,-1.3917 v 1.0445 l 1.3043,0.85461 h 0.58195 l 1.2937,1.5375 1.5826,0.55168 v -0.50164 h 0.82498 l -0.29919,0.48411 2.5169,0.94302 0.4896,0.80824 0.12146,-0.39008 0.12145,-0.39008 z m -2.933,-0.91453 v -0.35278 l 0.17638,0.17639 0.17639,0.17639 -0.17639,0.17639 -0.17638,0.17639 z m -3.9688,-4.3656 v -0.13229 h 0.26458 v 0.26458 h -0.26458 z m 4.101,5.424 0.16352,-0.26458 h -0.26458 l -0.16353,0.26458 -0.16352,0.26458 h 0.26459 z m 3.4625,-10.15 -0.0229,-8.0329 -0.54098,1.0695 -0.54099,1.0695 -0.63782,0.21261 0.016,-0.70556 0.77692,-1.0272 v -0.42803 h -0.52917 v 0.79375 h -0.56039 l 0.13044,0.21107 0.13045,0.21107 -0.48614,0.76848 -0.004,-0.33994 -0.004,-0.33994 -1.5875,1.8081 v 0.88741 l -0.46921,-0.28999 -0.3607,0.44475 -0.36071,0.44475 0.66146,-0.39739 v 0.82498 h 0.52916 v 1.5875 h -1.5875 v 2.6297 l -0.52916,0.94214 -0.52917,0.94214 v 0.67814 l 0.78304,0.57892 0.78303,0.57893 h 0.29653 l 1.0629,0.67099 1.0629,0.67099 0.25661,-0.1586 0.25661,-0.15859 0.15873,0.41365 0.15873,0.41364 h 1.0837 l -1.0081,-1.1906 1.1981,1.0148 -0.32876,1.0358 0.58586,-0.36208 v 0.56039 h 0.1782 z m -2.8892,6.0044 -0.17639,-0.17639 v -0.40808 l 1.0002,0.0754 -0.26306,0.68552 h -0.38436 z m -0.70555,-10.672 v -0.26458 h 0.56039 l -0.32704,0.52917 h -0.23335 z m 0.61736,-0.70556 0.17639,-0.17639 0.17638,0.17639 0.17639,0.17639 h -0.70555 z m 8.2903,12.435 -0.17638,-0.17639 v 0.70555 l 0.17638,-0.17639 0.17639,-0.17639 z m -8.643,-0.20488 v -0.11667 l -0.26458,-0.16352 -0.26459,-0.16353 v 0.5604 h 0.52917 z m 11.182,-1.3385 0.0251,-0.26458 -0.75612,-0.1282 -1.2164,0.94378 0.17709,0.46146 0.17708,0.46147 1.5681,-1.2093 z m -11.976,0.79375 v -0.13229 h -0.26458 v 0.26458 h 0.26458 z m 9.7896,0 v -0.13229 h -0.26458 v 0.26458 h 0.26458 z m -15.169,-3.4837 -0.17639,-0.17639 v 0.70556 l 0.35278,-0.35278 z m 2.4225,-0.31377 0.0854,-0.581 -0.43536,0.0755 -0.81344,-0.06266 -0.0832,-1.1036 0.33999,0.13046 0.33998,0.13046 0.48118,-0.34792 0.65165,-0.92604 0.65166,-0.92604 -1.7089,1.3229 -1.6158,1.2688 0.59412,0.36718 -0.0801,0.28781 -0.0801,0.28781 0.52917,0.40659 0.52916,0.40659 0.52917,-0.1558 z m -1.5406,-0.96505 v -0.13229 h 0.26459 v 0.26458 h -0.26459 z m -0.52916,0.52917 v -0.13229 h -0.26459 v 0.26458 h 0.26459 z m 2.3812,-2.9104 0.6214,-0.66146 h -0.26458 l -1.2428,1.3229 h 0.26459 z m 1.3229,-1.5875 v -0.13229 h -0.26458 v 0.26458 h 0.26458 z m 4.7625,-5.8208 v -0.13229 h -0.26458 v 0.26458 h 0.26458 z m 9.7696,8.9297 -0.64143,-0.7276 1.4552,1.2829 v 0.17234 h -0.1724 z m -2.262,-2.9104 -1.5443,-2.0505 -4.4319,-5.456 0.1972,-0.19726 2.6901,3.272 4.3763,5.8208 0.26508,0.33073 0.26507,0.33073 h -0.27333 z m -4.6989,-3.1394 -0.42586,-1.2498 0.20352,-0.20352 0.85172,2.4997 -0.20352,0.20352 z m -1.7168,-8.7412 -0.0439,-2.5103 0.98164,0.69878 1.2898,1.1406 1.2898,1.1406 -0.77268,0.48874 -0.52917,-0.008 0.92714,-0.53998 -2.5146,-2.1797 -0.0796,1.6631 -0.0796,1.6631 0.12276,0.12276 0.12275,0.12276 1.3688,-0.89689 v 0.25512 l -1.0196,0.67476 -1.0196,0.67476 z"
       fill="#0e6274"
       id="path12" /><path
       d="m 107.19,110.28 -1.3064,-0.1701 -1.5367,-0.60373 -2.9612,-1.7582 -3.0691,-1.7913 -1.0451,-1.0042 -1.0451,-1.0042 v -1.7917 l 1.5555,-1.5555 3.0747,-1.9866 1.0036,-1.0936 1.0036,-1.0936 5.4012,-6.5697 1.0869,-1.3587 1.0869,-1.3587 0.66818,-1.2485 0.22487,0.40183 0.22488,0.40183 -0.5064,1.7657 0.15545,8.3488 0.15546,8.3488 0.1468,0.1564 2.8422,-1.673 1.4516,-1.0304 0.42576,0.26313 0.76848,-0.54417 -0.92604,0.2979 v -0.22936 l 0.56109,-0.30029 0.5611,-0.30029 -0.17983,0.29098 -0.17984,0.29098 h 0.5604 v -0.7473 l 3.4498,-2.4617 -0.37636,-0.62744 0.43334,0.35124 0.43333,0.35124 -0.31968,4.5892 -1.0726,0.79375 -1.6218,0.96146 1.3056,-0.96146 0.57847,-0.52917 0.57848,-0.52916 0.13761,-2.0536 0.13762,-2.0536 -0.70743,0.41834 -0.70744,0.41834 -1.8521,1.5364 0.86943,0.014 0.1735,0.45215 0.17351,0.45215 -0.56571,0.42672 -0.56571,0.42671 0.1602,2.3433 -1.039,-0.0576 -1.4552,-0.3966 v 2.0611 l -4.0688,2.6265 -2.9757,0.26458 z m 6.5259,-1.8547 1.5604,-1.0946 v -3.9362 l -0.39688,0.1764 -3.5328,2.1167 -0.1854,1.0583 0.1974,3.0797 0.79673,-0.30573 z m -2.9785,0.0404 -0.0624,-1.0583 h -0.42571 v 0.89959 l -0.64821,-0.64821 0.29506,-0.47248 0.29507,-0.47247 -1.4668,0.21527 -0.17924,-0.29001 -0.17924,-0.29002 h 0.79053 l 0.71636,-0.27236 0.71635,-0.27235 -3.118,-1.9052 -1.8521,-1.1005 -2.5032,-1.7378 -0.67178,-0.1358 -0.21449,-0.26458 -0.2145,-0.26458 0.16082,0.92604 0.16081,0.92604 -0.75672,-0.94244 -0.18691,0.99634 -0.18692,0.99634 1.2193,0.80184 3.1127,2.3812 3.2219,2.0118 1.357,1.0141 0.6829,0.016 z m 0.0336,-11.576 -0.007,-8.1359 -1.1994,2.345 -0.63782,0.21261 V 90.5048 l 0.47706,-0.29484 0.28674,-0.86038 0.28673,-0.86038 -1.0789,1.3229 -0.63307,0.79831 -2.6458,3.162 -0.19315,0.26879 -0.19314,0.26879 -2.0032,2.3398 -2.0032,2.3398 4.5806,3.1257 h 0.2087 l 4.6304,2.9015 0.1322,0.008 z m 5.2109,7.1658 -0.17638,-0.17639 v 0.70555 l 0.17638,-0.17639 0.17639,-0.17639 z m 2.539,-1.5434 0.0251,-0.26458 -0.75612,-0.1282 -1.2164,0.94378 0.17709,0.46146 0.17708,0.46147 1.5681,-1.2093 z m -2.1862,0.79375 v -0.13229 h -0.26458 v 0.26458 h 0.26458 z m -15.165,-3.3569 -0.13896,-0.34726 -0.0209,0.50711 -0.0209,0.50712 0.3197,-0.3197 z m 18.585,-2.2655 -0.64143,-0.7276 1.4552,1.2829 v 0.17234 h -0.1724 z m -2.262,-2.9104 -1.5443,-2.0505 -4.4319,-5.456 0.1972,-0.19726 2.6901,3.272 4.3763,5.8208 0.26508,0.33073 0.26507,0.33073 h -0.27333 z m -4.6989,-3.1394 -0.42586,-1.2498 0.20352,-0.20352 0.85172,2.4997 -0.20352,0.20352 z m -1.7168,-8.7412 -0.0439,-2.5103 0.98164,0.69878 1.2898,1.1406 1.2898,1.1406 -0.77268,0.48874 -0.52917,-0.008 0.92714,-0.53998 -2.5146,-2.1797 -0.0796,1.6631 -0.0796,1.6631 0.12276,0.12276 0.12275,0.12276 1.3688,-0.89689 v 0.25512 l -1.0196,0.67476 -1.0196,0.67476 z"
       fill="#125968"
       id="path13" /><path
       d="m 107.19,110.28 -1.3064,-0.1701 -1.5367,-0.60373 -2.9612,-1.7582 -3.0691,-1.7913 -1.0451,-1.0042 -1.0451,-1.0042 v -1.7917 l 1.5555,-1.5555 3.0747,-1.9866 1.0036,-1.0936 1.0036,-1.0936 5.4012,-6.5697 1.0869,-1.3587 1.0869,-1.3587 0.66818,-1.2485 0.22487,0.40183 0.22488,0.40183 -0.21194,0.76496 -0.21193,0.76496 -0.135,5.5562 -0.10972,0.11024 -0.10973,0.11024 -0.0304,-5.5122 -1.3518,2.9104 -0.11644,-0.3061 -0.11643,-0.3061 0.82838,-1.9826 -0.14185,-0.14185 -0.14185,-0.14185 -0.82883,1.1833 -3.0181,3.5473 -1.8112,2.3812 -3.081,3.4058 4.9149,3.1654 4.7625,2.8344 0.1506,-1.9973 0.21648,-3.8365 0.21649,-3.8365 0.0389,4.9609 0.0389,4.9609 h 0.2413 l 1.4007,-0.82445 1.4007,-0.82444 1.4516,-1.0304 0.42576,0.26313 0.76848,-0.54417 -0.92604,0.2979 v -0.22936 l 0.56109,-0.30029 0.5611,-0.30029 -0.17983,0.29098 -0.17984,0.29098 h 0.5604 v -0.7473 l 3.4498,-2.4617 -0.37636,-0.62744 0.43334,0.35124 0.43333,0.35124 -0.31968,4.5892 -1.0726,0.79375 -1.6218,0.96146 1.3056,-0.96146 0.57847,-0.52917 0.57848,-0.52916 0.13761,-2.0536 0.13762,-2.0536 -0.70743,0.41834 -0.70744,0.41834 -1.8521,1.5364 0.86943,0.014 0.1735,0.45215 0.17351,0.45215 -0.56571,0.42672 -0.56571,0.42671 0.1602,2.3433 -1.039,-0.0576 -1.4552,-0.3966 v 2.0611 l -4.0688,2.6265 -2.9757,0.26458 z m 3.8159,-1.8299 -0.0737,-1.0201 0.37532,-0.37532 v 2.7906 l 0.42393,-0.16268 0.42392,-0.16267 3.1209,-2.1892 v -3.9362 l -0.39688,0.1764 -3.5617,2.1167 -0.0134,0.39688 -0.0134,0.39687 -1.3333,1.5163 -0.30913,-0.30913 0.40162,-0.61296 0.40163,-0.61295 -1.9222,0.1406 1.6937,-0.5271 0.14311,-0.23155 0.14311,-0.23156 -3.832,-2.259 -2.1301,-1.4465 -2.831,-1.6692 0.33094,0.81914 0.18183,0.46302 0.18183,0.46303 -0.89282,-0.72626 v 1.1231 h -0.47963 l 0.2744,1.0493 4.5708,3.3723 3.7042,2.3727 1.047,0.57044 0.44475,-0.27488 z m 4.976,-4.3941 -0.17638,-0.17639 v 0.70555 l 0.17638,-0.17639 0.17639,-0.17639 z m 2.539,-1.5434 0.0251,-0.26458 -0.75612,-0.1282 -1.2164,0.94378 0.17709,0.46146 0.17708,0.46147 1.5681,-1.2093 z m -2.1862,0.79375 v -0.13229 h -0.26458 v 0.26458 h 0.26458 z m -15.165,-3.3569 -0.13896,-0.34726 -0.0209,0.50711 -0.0209,0.50712 0.3197,-0.3197 z m 9.0797,-11.724 v -0.13229 h -0.26459 v 0.26458 h 0.26459 z m 9.505,9.4589 -0.64143,-0.7276 1.4552,1.2829 v 0.17234 h -0.1724 z m -2.262,-2.9104 -1.5443,-2.0505 -4.4319,-5.456 0.1972,-0.19726 2.6901,3.272 4.3763,5.8208 0.26508,0.33073 0.26507,0.33073 h -0.27333 z m -4.6989,-3.1394 -0.42586,-1.2498 0.20352,-0.20352 0.85172,2.4997 -0.20352,0.20352 z m -1.7168,-8.7412 -0.0439,-2.5103 0.98164,0.69878 1.2898,1.1406 1.2898,1.1406 -0.77268,0.48874 -0.52917,-0.008 0.92714,-0.53998 -2.5146,-2.1797 -0.0796,1.6631 -0.0796,1.6631 0.12276,0.12276 0.12275,0.12276 1.3688,-0.89689 v 0.25512 l -1.0196,0.67476 -1.0196,0.67476 z"
       fill="#354c4d"
       id="path14" /><path
       d="m 105.13,109.79 -1.2862,-0.50238 -0.86728,-0.74648 -3.644,-1.9408 -2.1768,-1.6698 -0.91428,-1.0956 0.0058,-1.5875 0.90844,-1.0847 3.8834,-2.7265 3.0526,-3.3326 6.5578,-8.264 0.27293,-0.46574 0.27292,-0.46573 0.62186,1.3648 -0.38542,-0.1479 -0.38541,-0.1479 -0.1116,7.0681 -0.1944,-5.5562 -1.341,2.9104 -0.11644,-0.3061 -0.11643,-0.3061 0.82838,-1.9826 -0.14185,-0.14185 -0.14185,-0.14185 -0.82883,1.1833 -3.0181,3.5473 -1.8112,2.3812 -3.081,3.4058 4.9149,3.1654 4.7625,2.8324 0.0768,-2.1221 0.0768,-2.1221 h 0.50777 v 4.5545 l 0.46302,-0.16125 0.46302,-0.16124 -0.84904,0.66478 -0.17823,0.52815 -0.17822,0.52816 -1.0567,1.2656 -0.32303,-0.32303 0.40162,-0.61296 0.40163,-0.61295 -1.9222,0.1406 1.6937,-0.5271 0.14311,-0.23155 0.14311,-0.23156 -3.832,-2.259 -2.1301,-1.4465 -2.831,-1.6692 0.33094,0.81914 0.18183,0.46302 0.18183,0.46303 -0.89282,-0.72626 v 1.1231 h -0.47963 l 0.2744,1.0493 4.5708,3.3723 3.7042,2.3783 1.1985,0.63123 0.31584,-0.82306 -0.22794,-1.5531 0.21671,0.13393 0.21671,0.13394 v 2.0854 l 0.66146,0.008 -0.79375,0.51296 -4.7625,-0.016 z m -3.9571,-9.8412 -0.13896,-0.34726 -0.0209,0.50711 -0.0209,0.50712 0.3197,-0.3197 z m 9.0797,-11.724 v -0.13229 h -0.26459 v 0.26458 h 0.26459 z m 1.9844,21.299 0.16352,-0.26458 h 0.26459 l -0.16353,0.26458 -0.16352,0.26458 h -0.26458 z m 0.79375,-0.52917 0.16352,-0.26458 h 0.26459 l -0.16353,0.26458 -0.16352,0.26459 h -0.26458 z m 1.3914,-0.95807 0.86228,-0.76172 -0.004,-3.8365 h -0.2832 l -0.65215,0.42731 -0.65215,0.4273 v -0.28005 l 2.7781,-1.7647 0.52917,-0.1936 -1.0583,0.89768 0.44954,-0.14042 0.44955,-0.14042 -0.14226,0.37073 -0.14227,0.37073 0.16954,0.27432 0.16953,0.27431 1.163,-0.76261 -0.0384,1.3764 -0.0385,1.3764 -0.98142,-0.0576 -1.4204,-0.38785 -0.0836,0.98494 -0.0836,0.98495 -1.8521,1.322 z m 1.9158,-3.7888 v -0.24897 l -0.52916,-0.32704 v 0.82498 h 0.52916 z m 0,-0.92604 v -0.11668 l -0.61092,-0.37757 0.18878,0.30546 0.18879,0.30546 h 0.23335 z m 2.249,1.9688 0.16352,-0.26459 h 0.26459 l -0.32705,0.52917 h -0.26458 z m -6.2177,-0.37826 v -0.13229 l 1.0583,-0.5664 v 0.26458 l -1.0583,0.5664 z m 6.8792,0 v -0.13229 l 1.0583,-0.5664 v 0.26458 l -0.52916,0.2832 -0.52917,0.2832 z m 1.5875,-1.2092 v -0.35278 l 0.35278,0.35278 -0.35278,0.35278 z m -3.5101,-1.4138 0.19471,-0.30598 0.008,-0.35278 0.13229,-0.12766 0.13229,-0.12765 0.58197,0.63295 -0.62204,0.29356 -0.62204,0.29355 z m 1.3934,0.22318 v -0.13229 h 0.26459 v 0.26458 h -0.26459 z m 2.178,-0.66146 v -0.92604 l 0.242,0.92604 -0.121,0.46302 -0.121,0.46303 z m -2.7072,-0.62906 v -0.0999 l 0.46302,-0.36313 0.46302,-0.36312 -0.72625,0.92604 h -0.1998 z m 1.0583,-0.78641 v -0.11117 l 0.69403,-0.45475 0.69404,-0.45475 -0.1796,0.2906 -0.17961,0.2906 -1.0289,0.55064 z m 1.6562,-0.99262 -0.32819,-0.87521 0.41976,0.41976 0.41975,0.41976 -0.0916,0.45545 -0.0916,0.45546 z m -1.1608,-1.7591 -0.36313,-0.46302 0.92604,0.72625 v 0.19979 h -0.1998 z m -0.91756,-1.1654 -0.18879,-0.30546 0.30547,0.18879 0.30546,0.18879 v 0.23335 h -0.23335 z m -1.0583,-1.3229 -0.18879,-0.30546 0.61093,0.37757 v 0.23335 h -0.23336 z m -0.66995,-0.95131 -0.36312,-0.46302 0.92604,0.72625 v 0.1998 h -0.1998 z m -0.79375,-1.0583 -0.36312,-0.46302 0.92604,0.72625 v 0.19979 h -0.1998 z m -3.1412,-0.46302 v -0.13229 h 0.26459 v 0.26458 h -0.26459 z m 2.3475,-0.59531 -0.36312,-0.46302 0.92604,0.72625 v 0.19978 h -0.1998 z m -2.7117,-0.47325 -0.16497,-0.42993 0.008,-0.1768 0.008,-0.1768 0.56158,0.96573 -0.24772,0.24772 z m 1.7943,-0.71738 -0.50403,-0.59531 0.59532,0.50403 0.59531,0.50403 v 0.18256 h -0.1826 z m -2.2238,-0.59531 v -0.13229 h 0.26459 v 0.26458 h -0.26459 z m 1.1655,-0.7276 -0.50403,-0.59531 1.1906,1.0081 v 0.18256 h -0.1826 z m -1.1855,-1.4552 -0.64144,-0.7276 0.72761,0.64143 0.7276,0.64143 v 0.17234 h -0.1724 z m -1.2597,-5.2986 -0.0644,-2.5229 0.87302,0.72454 -0.22883,0.07628 -0.22884,0.07628 0.1104,3.2375 0.2434,0.2434 1.3688,-0.89689 v 0.25512 l -2.0091,1.3295 z m 2.6744,0.71021 0.46859,-0.2728 -0.17668,-0.31447 -0.17667,-0.31447 0.73467,0.68349 -0.78933,0.49903 -0.52917,-0.008 z m -0.88549,-1.497 -0.64143,-0.7276 1.4552,1.2829 v 0.17234 h -0.1724 z"
       fill="#134b54"
       id="path15" /><path
       d="m 105.13,109.79 -1.2862,-0.50238 -0.86728,-0.74648 -3.644,-1.9408 -2.1768,-1.6698 -0.91428,-1.0956 0.0058,-1.5875 0.90844,-1.0847 3.8527,-2.7049 1.6553,-1.8094 1.6553,-1.8094 6.0168,-7.5456 0.11451,0.11451 0.11452,0.11451 -4.9459,5.9937 -2.0652,2.5731 -0.77054,0.8301 -0.77055,0.8301 -0.99576,1.3699 5.6242,3.649 0.54895,0.29901 0.54895,0.29902 3.175,1.945 0.29688,-4.6516 0.1,4.6868 0.46302,-0.16125 0.46302,-0.16124 -0.92604,0.72109 v 0.70426 l -0.33073,-0.41059 -0.33073,-0.4106 -5.0271,-3.0568 -1.4552,-0.92533 -1.4552,-0.92534 -1.4338,-0.98705 h -0.50105 l 0.14423,0.55153 0.14422,0.55153 0.20116,-0.32548 0.20116,-0.32547 0.46448,0.89842 0.46448,0.89843 -0.87552,-0.72626 v 0.88978 l -0.26459,-0.16352 -0.26458,-0.16353 v 1.4992 l 4.3656,3.2222 4.4979,2.9159 1.159,0.35705 0.1019,-1.1373 0.10191,-1.1373 0.0462,1.1245 0.0462,1.1245 0.66146,0.008 -0.79375,0.51296 -4.7625,-0.016 z m 7.107,-0.26663 0.16352,-0.26458 h 0.26459 l -0.16353,0.26458 -0.16352,0.26458 h -0.26458 z m 0.79375,-0.52917 0.16352,-0.26458 h 0.26459 l -0.16353,0.26458 -0.16352,0.26459 h -0.26458 z m 1.3914,-0.95807 0.86228,-0.76172 -0.004,-3.8365 h -0.2832 l -0.65215,0.42731 -0.65215,0.4273 v -0.28005 l 2.7781,-1.7647 0.52917,-0.1936 -1.0583,0.89768 0.44954,-0.14042 0.44955,-0.14042 -0.14226,0.37073 -0.14227,0.37073 0.16954,0.27432 0.16953,0.27431 1.163,-0.76261 -0.0384,1.3764 -0.0385,1.3764 -0.98142,-0.0576 -1.4204,-0.38785 -0.0836,0.98494 -0.0836,0.98495 -1.8521,1.322 z m 1.9158,-3.7888 v -0.24897 l -0.52916,-0.32704 v 0.82498 h 0.52916 z m 0,-0.92604 v -0.11668 l -0.61092,-0.37757 0.18878,0.30546 0.18879,0.30546 h 0.23335 z m -6.2428,3.8593 0.50402,-0.56767 h 0.1826 v 0.51055 l -1.1906,0.62479 z m -0.50403,-0.93894 0.79375,-0.34741 0.1852,0.1544 -0.1744,0.28219 -0.1744,0.28218 -1.424,-0.0238 z m 8.9958,-0.95164 0.16352,-0.26459 h 0.26459 l -0.32705,0.52917 h -0.26458 z m -6.2177,-0.37826 v -0.13229 l 1.0583,-0.5664 v 0.26458 l -1.0583,0.5664 z m 6.8792,0 v -0.13229 l 1.0583,-0.5664 v 0.26458 l -0.52916,0.2832 -0.52917,0.2832 z m 1.5875,-1.2092 v -0.35278 l 0.35278,0.35278 -0.35278,0.35278 z m -3.5101,-1.4138 0.19471,-0.30598 0.008,-0.35278 0.13229,-0.12766 0.13229,-0.12765 0.58197,0.63295 -0.62204,0.29356 -0.62204,0.29355 z m 1.3934,0.22318 v -0.13229 h 0.26459 v 0.26458 h -0.26459 z m 2.178,-0.66146 v -0.92604 l 0.242,0.92604 -0.121,0.46302 -0.121,0.46303 z m -2.7072,-0.62906 v -0.0999 l 0.46302,-0.36313 0.46302,-0.36312 -0.72625,0.92604 h -0.1998 z m 1.0583,-0.78641 v -0.11117 l 0.69403,-0.45475 0.69404,-0.45475 -0.1796,0.2906 -0.17961,0.2906 -1.0289,0.55064 z m 1.6562,-0.99262 -0.32819,-0.87521 0.41976,0.41976 0.41975,0.41976 -0.0916,0.45545 -0.0916,0.45546 z m -1.1608,-1.7591 -0.36313,-0.46302 0.92604,0.72625 v 0.19979 h -0.1998 z m -0.91756,-1.1654 -0.18879,-0.30546 0.30547,0.18879 0.30546,0.18879 v 0.23335 h -0.23335 z m -1.0583,-1.3229 -0.18879,-0.30546 0.61093,0.37757 v 0.23335 h -0.23336 z m -0.66995,-0.95131 -0.36312,-0.46302 0.92604,0.72625 v 0.1998 h -0.1998 z m -0.79375,-1.0583 -0.36312,-0.46302 0.92604,0.72625 v 0.19979 h -0.1998 z m -3.1412,-0.46302 v -0.13229 h 0.26459 v 0.26458 h -0.26459 z m 2.3475,-0.59531 -0.36312,-0.46302 0.92604,0.72625 v 0.19978 h -0.1998 z m -2.7117,-0.47325 -0.16497,-0.42993 0.008,-0.1768 0.008,-0.1768 0.56158,0.96573 -0.24772,0.24772 z m 1.7943,-0.71738 -0.50403,-0.59531 0.59532,0.50403 0.59531,0.50403 v 0.18256 h -0.1826 z m -5.3988,-0.03322 v -0.09937 l 1.4229,-3.1086 0.0285,-0.59436 0.0284,-0.59436 0.54542,-0.54542 0.29886,0.65593 0.29887,0.65593 -0.38542,-0.1479 -0.38541,-0.1479 v 1.6441 h -0.50441 l -1.0533,2.3812 h -0.29434 z m 3.175,-0.56209 v -0.13229 h 0.26459 v 0.26458 h -0.26459 z m 1.1655,-0.7276 -0.50403,-0.59531 1.1906,1.0081 v 0.18256 h -0.1826 z m -1.1855,-1.4552 -0.64144,-0.7276 0.72761,0.64143 0.7276,0.64143 v 0.17234 h -0.1724 z m -1.2597,-5.2986 -0.0644,-2.5229 0.87302,0.72454 -0.22883,0.07628 -0.22884,0.07628 0.1104,3.2375 0.2434,0.2434 1.3688,-0.89689 v 0.25512 l -2.0091,1.3295 z m 2.6744,0.71021 0.46859,-0.2728 -0.17668,-0.31447 -0.17667,-0.31447 0.73467,0.68349 -0.78933,0.49903 -0.52917,-0.008 z m -0.88549,-1.497 -0.64143,-0.7276 1.4552,1.2829 v 0.17234 h -0.1724 z"
       fill="#163a44"
       id="path16" /><path
       d="m 105.13,109.79 -1.2862,-0.50238 -0.86728,-0.74648 -3.644,-1.9408 -2.1768,-1.6698 -0.91428,-1.0956 0.0058,-1.5875 0.90844,-1.0756 3.7042,-2.5947 3.3531,-3.4735 -1.6104,1.8484 -1.6104,1.8484 v 0.4011 l 4.6302,2.9936 5.2471,3.1398 0.67872,-0.12975 0.67871,-0.12974 -0.91598,0.66978 -0.008,0.36771 -0.008,0.3677 -0.25465,-0.43614 -0.25464,-0.43615 -5.1632,-3.0534 -3.175,-2.1128 -1.4338,-0.97292 h -0.28601 v 1.0271 l 0.50248,0.31055 -0.1493,1.2606 -0.1493,1.2606 4.1617,3.1462 3.175,2.0737 2.5368,1.5044 h 0.2413 l 0.036,-0.72761 0.036,-0.7276 0.22932,1.1906 0.62466,0.008 -0.79375,0.51296 -4.7625,-0.016 z m 7.107,-0.26663 0.16352,-0.26458 h 0.26459 l -0.16353,0.26458 -0.16352,0.26458 h -0.26458 z m 0.79375,-0.52917 0.16352,-0.26458 h 0.26459 l -0.16353,0.26458 -0.16352,0.26459 h -0.26458 z m 0.79375,-0.52916 0.16352,-0.26459 h 0.26459 l -0.32705,0.52917 h -0.26458 z m 0.99219,-0.68229 0.46302,-0.55 v -3.7948 h -0.2832 l -0.65215,0.42731 -0.65215,0.4273 v -0.28005 l 2.7781,-1.7647 0.52917,-0.1936 -1.0583,0.89768 0.44954,-0.14042 0.44955,-0.14042 -0.14226,0.37073 -0.14227,0.37073 0.16954,0.27432 0.16953,0.27431 1.163,-0.76261 -0.0384,1.3764 -0.0385,1.3764 -0.98142,-0.0576 -1.4552,-0.3966 v 1.8274 l -1.1906,1.0081 z m 1.5214,-3.5354 v -0.24897 l -0.52916,-0.32704 v 0.82498 h 0.52916 z m 0,-0.92604 v -0.11668 l -0.61092,-0.37757 0.18878,0.30546 0.18879,0.30546 h 0.23335 z m -6.35,3.9855 v -0.0999 l 0.92604,-0.72625 -0.36312,0.46302 -0.36313,0.46302 h -0.1998 z m -0.26458,-0.95844 0.39687,-0.25648 h 0.52917 l -0.39687,0.25648 -0.39688,0.25648 h -0.52917 z m 8.8635,-1.0583 0.16352,-0.26459 h 0.26459 l -0.32705,0.52917 h -0.26458 z m -7.4499,-2.249 0.002,-2.1167 0.10163,1.1315 0.10162,1.1315 -0.10337,0.98519 -0.10337,0.9852 z m 1.2322,1.8707 v -0.13229 l 1.0583,-0.5664 v 0.26458 l -1.0583,0.5664 z m 6.8792,0 v -0.13229 l 1.0583,-0.5664 v 0.26458 l -0.52916,0.2832 -0.52917,0.2832 z m 1.5875,-1.2092 v -0.35278 l 0.35278,0.35278 -0.35278,0.35278 z m -3.5101,-1.4138 0.19471,-0.30598 0.008,-0.35278 0.13229,-0.12766 0.13229,-0.12765 0.58197,0.63295 -0.62204,0.29356 -0.62204,0.29355 z m 1.3934,0.22318 v -0.13229 h 0.26459 v 0.26458 h -0.26459 z m 2.178,-0.66146 v -0.92604 l 0.242,0.92604 -0.121,0.46302 -0.121,0.46303 z m -19.376,-1.0583 -0.28321,-0.52917 h 0.26459 l 0.5664,1.0583 h -0.26458 z m 16.801,0.26458 0.16352,-0.26458 h 0.26458 l -0.16352,0.26458 -0.16352,0.26459 h -0.26458 z m 0.92604,-0.62172 v -0.11117 l 0.69403,-0.45475 0.69404,-0.45475 -0.1796,0.2906 -0.17961,0.2906 -1.0289,0.55064 z m 1.6562,-0.99262 -0.32819,-0.87521 0.41976,0.41976 0.41975,0.41976 -0.0916,0.45545 -0.0916,0.45546 z m -1.1608,-1.7591 -0.36313,-0.46302 0.92604,0.72625 v 0.19979 h -0.1998 z m -0.91756,-1.1654 -0.18879,-0.30546 0.30547,0.18879 0.30546,0.18879 v 0.23335 h -0.23335 z m -1.0583,-1.3229 -0.18879,-0.30546 0.61093,0.37757 v 0.23335 h -0.23336 z m -13.336,-0.58818 v -0.0999 l 0.92604,-0.72625 -0.36312,0.46302 -0.36313,0.46302 h -0.1998 z m 12.666,-0.36313 -0.36312,-0.46302 0.92604,0.72625 v 0.1998 h -0.1998 z m -0.79375,-1.0583 -0.36312,-0.46302 0.92604,0.72625 v 0.19979 h -0.1998 z m -10.417,-0.33073 0.16352,-0.26458 h 0.26459 l -0.16353,0.26458 -0.16352,0.26458 h -0.26458 z m 9.6235,-0.7276 -0.36312,-0.46302 0.92604,0.72625 v 0.19978 h -0.1998 z m -9.2267,0.09854 v -0.0999 l 0.92604,-0.72625 -0.72625,0.92604 h -0.1998 z m 6.6146,-0.42927 v -0.35277 l 0.17639,0.17639 0.17639,0.17639 -0.35278,0.35278 z m 1.6946,-0.8599 -0.50403,-0.59531 0.59532,0.50403 0.59531,0.50403 v 0.18256 h -0.1826 z m -1.9592,0.19844 v -0.13229 h 0.26458 v 0.26458 h -0.26458 z m -4.7625,-0.76135 v -0.0999 l 0.92604,-0.72625 -0.72625,0.92604 h -0.1998 z m 1.5875,-0.13346 v -0.26458 l 0.52916,-0.32704 v 0.52917 l -0.52916,0.32704 z m 4.0759,-0.62654 -0.50403,-0.59531 1.1906,1.0081 v 0.18256 h -0.1826 z m -3.9029,-1.4263 1.0176,-1.3602 0.27293,-0.45942 0.27292,-0.45942 0.62186,1.3648 -0.84256,-0.32332 -2.3603,2.5977 z m 0.49813,0.69871 0.18206,-0.66146 0.23044,-0.24694 0.23043,-0.24694 0.10057,0.11465 0.10056,0.11465 -1.0261,1.5875 z m 2.2192,-0.7276 -0.64144,-0.7276 0.72761,0.64143 0.7276,0.64143 v 0.17234 h -0.1724 z m -1.2597,-5.2986 -0.0644,-2.5229 0.87302,0.72454 -0.22883,0.07628 -0.22884,0.07628 0.1104,3.2375 0.2434,0.2434 1.3688,-0.89689 v 0.25512 l -2.0091,1.3295 z m 2.4263,0.82271 0.17639,-0.17639 0.35278,0.35278 h -0.70556 z m 0.59027,-0.5398 -0.18065,-0.47443 0.32877,0.32632 0.32876,0.32632 -0.29622,0.29622 z m -1.2277,-1.0697 -0.64143,-0.7276 1.4552,1.2829 v 0.17234 h -0.1724 z"
       fill="#293032"
       id="path17" /><path
       d="m 105.14,109.67 -1.5444,-0.635 -0.44002,-0.36364 -0.44001,-0.36364 -2.9104,-1.5208 -1.8521,-1.333 -1.7198,-1.5902 v -1.7074 l 2.7781,-2.3193 1.5875,-0.96509 1.5856,-1.3867 -0.64559,0.73306 -0.6456,0.73306 0.76395,0.71473 5.5562,3.4812 1.0583,0.8617 -2.6458,-1.4449 -3.175,-2.1216 -1.4338,-0.97292 h -0.28601 v 1.0271 l 0.50248,0.31055 -0.1493,1.2606 -0.1493,1.2606 4.1617,3.1462 3.175,2.0737 2.5368,1.5044 h 0.20615 l 0.11022,-0.72761 0.11022,-0.7276 0.0396,0.85989 0.0396,0.8599 -4.6302,-0.012 z m 6.4392,0.25068 v -0.1323 h 0.26459 v 0.26459 h -0.26459 z m 0.79375,-0.52917 v -0.13229 h 0.26459 v 0.26458 h -0.26459 z m 0.52917,-0.26458 v -0.1323 h 0.26458 v 0.26459 h -0.26458 z m 1.0583,-0.79375 v -0.1323 h 0.26459 v 0.26459 h -0.26459 z m 0.79375,-0.52917 v -0.13229 h 0.26459 v 0.26458 h -0.26459 z m -4.7625,-0.49677 v -0.0999 l 0.92604,-0.72625 -0.36312,0.46302 -0.36313,0.46302 h -0.1998 z m -0.26458,-0.95844 0.39687,-0.25648 h 0.52917 l -0.39687,0.25648 -0.39688,0.25648 h -0.52917 z m 6.6713,-0.62147 -1.1339,-0.27786 0.115,-2.2222 0.75105,0.2882 0.23382,-0.36928 0.23383,-0.36928 0.008,1.1906 h 0.29937 l 0.90074,-0.48206 -0.1974,2.0696 h 0.61598 l -0.16353,0.26458 -0.16352,0.26459 -0.36564,-0.079 z m -0.0567,-1.6275 v -0.39687 h -0.79375 v 0.79375 h 0.79375 z m -6.5268,0.97521 -1.1028,-0.71062 -0.44018,-0.46192 2.1167,1.082 1.0583,0.81834 -0.52917,-0.018 z m 1.3108,-1.2398 0.004,-1.3229 0.11058,0.73124 0.11057,0.73125 -0.11419,0.59167 -0.11418,0.59168 z m 1.2472,1.0583 v -0.13229 h 0.26459 v 0.26458 h -0.26459 z m 6.8792,0 v -0.13229 h 0.26458 v 0.26458 h -0.26458 z m -6.35,-0.26458 v -0.13229 h 0.26458 v 0.26458 h -0.26458 z m 6.8792,0 v -0.13229 h 0.26458 v 0.26458 h -0.26458 z m -5.2917,-1.0583 v -0.1323 h 0.26458 v 0.26459 h -0.26458 z m 3.0427,-1.4552 0.16352,-0.26459 h 0.26458 l -0.16352,0.26459 -0.16352,0.26458 h -0.26458 z m -16.007,-1.3229 -0.28321,-0.52917 h 0.26459 l 0.5664,1.0583 h -0.26458 z m 16.669,0.39688 v -0.1323 h 0.26458 v 0.26459 h -0.26458 z m 1.8521,-1.3229 v -0.13229 h 0.26458 v 0.26458 h -0.26458 z m 0.79375,-0.67707 v -0.2802 l 0.52917,0.32704 v 0.23335 h -0.52917 z m -1.0583,-1.4396 v -0.13229 h 0.26458 v 0.26458 h -0.26458 z m -16.801,-1.4552 1.0334,-1.0583 h 0.26458 l -1.0334,1.0583 -1.0334,1.0583 h -0.26458 z m 15.743,0.13229 v -0.13229 h 0.26459 v 0.26458 h -0.26459 z m -1.0583,-1.3229 v -0.13229 h 0.26458 v 0.26458 h -0.26458 z m -13.229,-0.49677 v -0.0999 l 0.92604,-0.72625 -0.36312,0.46302 -0.36313,0.46302 h -0.1998 z m 11.906,-1.3553 V 93.1197 h 0.26459 v 0.26458 h -0.26459 z m -10.451,-0.39688 0.16352,-0.26458 h 0.26459 l -0.16353,0.26458 -0.16352,0.26458 h -0.26458 z m 0.79375,-1.0583 0.16352,-0.26458 h 0.26459 l -0.16353,0.26458 -0.16352,0.26458 h -0.26458 z m 6.2177,0 v -0.35278 l 0.17639,0.17639 0.17639,0.17639 -0.35278,0.35278 z m 2.1167,-0.39688 v -0.13229 h 0.26458 v 0.26458 h -0.26458 z m -2.3812,-0.26458 v -0.13229 h 0.26458 v 0.26458 h -0.26458 z m -4.7625,-0.76135 v -0.0999 l 0.92604,-0.72625 -0.72625,0.92604 h -0.1998 z m 1.5875,-0.13346 v -0.26458 l 0.52916,-0.32704 v 0.52917 l -0.52916,0.32704 z m 0.67116,-1.3541 0.18206,-0.66146 0.23044,-0.24694 0.23043,-0.24694 0.10057,0.11465 0.10056,0.11465 -1.0261,1.5875 z m -0.80346,-0.26458 0.47889,-0.52917 h 0.26459 l -0.95778,1.0583 h -0.26459 z m 3.0427,-0.39688 v -0.13229 h 0.26459 v 0.26458 h -0.26459 z m -1.8892,-1.1097 0.30451,-0.58058 0.2102,-0.12991 0.21021,-0.12991 0.69731,1.1564 -0.69001,-0.65423 -1.0367,0.91882 z m 0.60593,-2.1843 0.10584,-0.3175 0.38364,0.03968 0.0199,0.19182 0.0198,0.19182 -0.635,0.21167 z m 1.0186,-0.4101 v -0.13229 h 0.26458 v 0.26458 h -0.26458 z m -0.79375,-0.52917 v -0.13229 h 0.26458 V 84.124 h -0.26458 z m -0.24599,-1.7859 -0.0186,-1.5214 h 0.49793 l 0.37758,0.61093 -0.69352,-0.42862 0.14043,0.90103 0.14044,0.90103 -0.21284,0.52917 -0.21283,0.52917 z m 3.1564,0.99219 v -0.13229 h 0.26458 v 0.26458 h -0.26458 z m -1.4805,-1.2315 -0.18879,-0.30546 0.30547,0.18879 0.30546,0.18879 v 0.23335 h -0.23335 z"
       fill="#152b2f"
       id="path18" /><path
       d="m 105.14,109.67 -1.5444,-0.635 -0.44002,-0.36364 -0.44001,-0.36364 -2.9104,-1.5208 -1.8521,-1.333 -1.7198,-1.5902 v -1.7074 l 2.7781,-2.3311 1.8946,-1.1371 -0.11562,1.3289 -0.11563,1.329 0.16809,1.1209 0.16808,1.1209 1.7784,1.3138 1.7784,1.3138 2.5136,1.6504 2.5135,1.6504 0.66146,0.008 v 0.49236 l 1.1906,0.22933 -2.3812,0.0298 -2.3812,0.0297 z m 6.4392,0.25068 v -0.1323 h 0.26459 v 0.26459 h -0.26459 z m 0.79375,-0.52917 v -0.13229 h 0.26459 v 0.26458 h -0.26459 z m 1.5875,-1.0583 v -0.1323 h 0.26459 v 0.26459 h -0.26459 z m 2.4379,-2.6058 -1.1339,-0.27786 0.114,-2.2013 1.0956,0.27607 0.19037,0.28779 0.19036,0.28779 0.94219,-0.58112 0.004,2.5655 -0.13426,-0.0395 -0.13425,-0.0395 z m -0.0567,-1.6275 v -0.39687 h -0.79375 v 0.79375 h 0.79375 z m -5.2917,1.5875 v -0.13229 h 0.26458 v 0.26458 h -0.26458 z m -1.8521,-1.0583 v -0.13229 h 0.26459 v 0.26458 h -0.26459 z m 10.583,0 v -0.13229 h 0.26458 v 0.26458 h -0.26458 z m -12.064,-0.96692 -0.18879,-0.30547 0.30547,0.18879 0.30546,0.18879 v 0.23335 h -0.23335 z m 6.7721,-0.0914 v -0.1323 h 0.26458 v 0.26459 h -0.26458 z m -7.4083,-0.26459 v -0.13229 h 0.26458 v 0.26458 h -0.26458 z m 9.2604,-0.26458 v -0.13229 h 0.26459 v 0.26458 h -0.26459 z m -10.583,-0.52918 v -0.13229 h 0.26458 v 0.26458 h -0.26458 z m -0.52917,-0.26458 v -0.13229 h 0.26459 v 0.26458 h -0.26459 z m 12.303,-0.13229 0.16352,-0.26459 h 0.26458 l -0.16352,0.26459 -0.16352,0.26458 h -0.26458 z m 0.66146,-0.92604 v -0.1323 h 0.26458 v 0.26459 h -0.26458 z m -16.033,-0.96693 -0.18879,-0.30546 0.61093,0.37757 v 0.23336 h -0.23335 z m -0.90078,-0.62057 v -0.13229 h 0.26459 v 0.26458 h -0.26459 z m 19.579,-0.41249 v -0.2802 l 0.52917,0.32704 v 0.23335 h -0.52917 z m -2.1167,-2.7625 v -0.13229 h 0.26459 v 0.26458 h -0.26459 z m -15.214,-0.66146 0.16352,-0.26458 h 0.26459 l -0.16353,0.26458 -0.16352,0.26458 h -0.26458 z m 6.7469,-7.276 v -0.13229 h 0.26458 v 0.26458 h -0.26458 z m 0.26458,-0.52917 v -0.13229 h 0.26458 v 0.26458 h -0.26458 z m -0.26458,-0.52917 v -0.13229 h 0.26458 v 0.26458 h -0.26458 z m 1.1978,-0.38532 -0.15638,-0.25303 -0.90909,0.34055 0.73686,-0.90562 0.0744,0.14508 0.35441,0.46302 0.3544,0.46302 h -0.29815 z m -0.36433,-2.115 0.10584,-0.3175 0.38364,0.03968 0.0199,0.19182 0.0198,0.19182 -0.635,0.21167 z m 1.0186,-0.4101 v -0.13229 h 0.26458 v 0.26458 h -0.26458 z m -1.0094,-2.3151 -0.0489,-1.5214 h 0.49793 l 0.37758,0.61093 -0.5828,-0.36019 -0.1948,2.792 z m 3.1261,0.99219 v -0.13229 h 0.26458 v 0.26458 h -0.26458 z m -1.3229,-1.0583 v -0.13229 h 0.26458 v 0.26458 h -0.26458 z"
       fill="#1b1b1b"
       id="path19" /></g></svg>
