<?xml version="1.0" encoding="UTF-8" standalone="no"?>
<!-- Created with Inkscape (http://www.inkscape.org/) -->

<svg
   width="36.323mm"
   height="31.044mm"
   version="1.1"
   viewBox="0 0 36.323 31.044"
   xml:space="preserve"
   id="svg94"
   sodipodi:docname="big_stage.svg"
   inkscape:version="1.3 (0e150ed6c4, 2023-07-21)"
   xmlns:inkscape="http://www.inkscape.org/namespaces/inkscape"
   xmlns:sodipodi="http://sodipodi.sourceforge.net/DTD/sodipodi-0.dtd"
   xmlns="http://www.w3.org/2000/svg"
   xmlns:svg="http://www.w3.org/2000/svg"><defs
     id="defs94" /><sodipodi:namedview
     id="namedview94"
     pagecolor="#ffffff"
     bordercolor="#000000"
     borderopacity="0.25"
     inkscape:showpageshadow="2"
     inkscape:pageopacity="0.0"
     inkscape:pagecheckerboard="0"
     inkscape:deskcolor="#d1d1d1"
     inkscape:document-units="mm"
     inkscape:zoom="1.6151193"
     inkscape:cx="-43.340453"
     inkscape:cy="78.012815"
     inkscape:window-width="2400"
     inkscape:window-height="1261"
     inkscape:window-x="2391"
     inkscape:window-y="-9"
     inkscape:window-maximized="1"
     inkscape:current-layer="svg94" /><g
     transform="translate(-172.288,-135.316)"
     id="g93"><path
       d="m 184.48,165.75 -1.7338,-0.59106 -2.0887,-1.6173 -2.3812,-1.3665 -3.3952,-2.7159 -1.235,-1.6739 v -0.86526 l -1.1906,0.042 -0.1668,-1.4485 0.6787,-0.62901 0.67871,-0.629 v -0.58229 l 0.84653,-2.532 1.5879,-1.474 0.50257,0.1595 0.50256,0.15951 v 0.42215 l -1.0255,1.3038 -0.35476,1.4134 h 0.48373 l 1.8226,-1.3471 0.16415,2.5918 0.16415,2.5918 -0.0611,-5.2917 -0.0611,-5.2917 0.12529,-1.0005 0.12528,-1.0005 0.5654,0.16799 0.56539,0.16799 -1.0583,-0.84887 0.39687,-0.24431 0.39688,-0.24431 3.0016,-2.2891 6.5234,-4.7931 0.7183,-0.44774 0.7183,-0.44773 0.41549,0.006 3.175,2.3381 1.0583,0.8479 2.7548,1.9678 4.2567,3.0546 v 0.35086 l -0.59531,0.65052 -0.59532,0.65052 1.4552,-0.93092 0.006,1.4195 0.006,1.4195 0.0404,4.868 0.0405,4.868 -1.6821,1.503 0.1136,0.40262 -0.36314,1.7198 h -1.0716 v -1.4288 l -0.635,0.635 h -0.42334 v -3.9823 l -0.74687,0.38622 -0.74688,0.38622 -0.35132,0.42333 -0.35133,0.42332 -0.0307,1.9645 -0.0307,1.9645 0.33511,0.45829 0.33511,0.4583 v 0.9738 l -0.87027,0.33395 -0.32164,-0.43986 -0.32163,-0.43987 -0.47083,0.012 -1.3229,1.0658 -2.2885,1.6209 -0.8865,0.1714 -0.19013,0.0203 -0.19014,0.0202 0.1523,0.39687 0.15229,0.39688 -3.8931,-0.014 z m 4.5119,-0.83486 v -0.11668 l -0.61093,-0.37757 0.18879,0.30546 0.18878,0.30546 h 0.23336 z m -1.3229,-1.074 v -0.13229 h -0.26458 v 0.26458 h 0.26458 z m -0.52917,-0.24897 v -0.11668 l -0.30546,-0.18878 -0.30546,-0.18879 0.37757,0.61093 h 0.23335 z m -3.175,-2.3812 v -0.11668 l -0.30546,-0.18878 -0.30546,-0.18879 0.37757,0.61093 h 0.23335 z m -0.79375,-0.52917 v -0.11667 l -0.61092,-0.37758 0.18878,0.30547 0.18879,0.30546 h 0.23335 z m -1.0583,-0.79375 v -0.11667 l -0.61093,-0.37758 0.18879,0.30547 0.18879,0.30546 h 0.23335 z m 8.4667,-1.1979 v -0.52087 l -0.39688,0.1523 -0.39687,0.15229 v 0.38436 l 0.17639,0.17639 0.17638,0.17639 h 0.44098 z m -9.7896,0.12398 v -0.13229 h -0.26458 v 0.26459 h 0.26458 z m -1.8521,-1.3229 v -0.13229 h -0.26458 v 0.26458 h 0.26458 z m 11.558,-2.2986 -0.13896,-0.34727 -0.0418,1.0142 0.15986,-0.15985 0.15985,-0.15985 z m -15.827,-0.97409 -0.0968,-0.28192 -0.66852,1.4261 0.43111,-0.43112 0.43112,-0.43111 z m 10.09,0.5451 v -0.21401 l -0.35648,-0.48753 -0.35649,-0.48752 -0.19613,0.31733 -0.19612,0.31734 0.14743,0.3842 0.14744,0.38421 h 0.81035 z m 12.027,-0.29687 0.15222,-0.2463 -0.5378,-0.33238 v 0.82498 h 0.23335 z m -6.2064,-1.7381 v -0.13229 h -0.26459 v 0.26458 h 0.26459 z m -0.52917,-0.26459 v -0.13229 h -0.26458 v 0.26459 h 0.26458 z m -1.0583,-0.79375 v -0.13229 h -0.26459 v 0.26459 h 0.26459 z m 3.3073,-0.13229 0.16352,-0.26458 h -0.26458 l -0.16353,0.26458 -0.16352,0.26459 h 0.26459 z m -6.9453,-2.5597 -0.59532,-0.41527 -0.0121,-0.29846 -0.0121,-0.29845 -2.4894,-1.1643 1.3562,1.186 0.17351,0.45216 0.17352,0.45217 h 1.0437 l 0.16352,0.26458 0.16352,0.26459 0.63023,-0.0278 z m 11.821,-0.98969 0.28788,-0.34687 -1.1952,0.24772 -1.2404,1.5434 1.8599,-1.0974 z m 1.3753,-1.147 0.36312,-0.46302 -0.92604,0.72625 v 0.1998 h 0.1998 z m -16.438,-0.18282 v -0.11668 l -0.61093,-0.37758 0.18879,0.30547 0.18879,0.30546 h 0.23335 z m 17.33,-0.41249 0.16352,-0.26459 h -0.26458 l -0.32705,0.52917 h 0.26459 z m -5.6885,-0.23219 v -0.23219 l -0.74664,-0.61965 -0.18975,0.30701 -0.18974,0.30701 0.36463,0.23095 0.36462,0.23095 0.39688,0.008 z m -12.7,-0.13229 v -0.0999 l -0.46302,-0.36312 -0.46302,-0.36313 0.72625,0.92604 h 0.1998 z m 19.348,-0.36313 0.36312,-0.46302 -0.46302,0.36313 -0.46302,0.36312 v 0.1998 h 0.1998 z m -9.5588,-1.5057 v -0.38126 l -0.27617,-0.17068 -0.27618,-0.17069 -0.38528,0.31976 -0.38529,0.31976 v 0.46437 h 1.3229 z m 12.621,12.914 -0.18553,-0.18554 v -0.86733 l 1.3166,-1.7846 0.15822,-0.8434 0.15823,-0.8434 -0.55196,-1.2116 -0.55195,-1.2116 v -0.32484 l 0.24199,0.14955 0.24198,0.14956 0.11775,-0.33238 0.11776,-0.33238 1.459,1.5492 0.91296,1.6258 0.18605,0.99215 0.18605,0.99214 1.3343,1.3343 -0.0838,0.58697 -0.0838,0.58698 -0.88642,0.1688 -0.7913,-1.751 -0.17115,-0.59531 -0.17116,-0.59531 h -0.72686 l -0.21406,0.32685 -0.21405,0.32685 -0.86116,2.1244 -0.75214,0.1506 z m 3.5186,-5.2567 v -0.13229 h 0.26459 v 0.26459 h -0.26459 z"
       fill="#fbf8d3"
       id="path75" /><path
       d="m 185.03,165.93 -1.4527,-0.39032 -5.4554,-3.5502 -3.1856,-2.4892 -1.026,-1.3044 -0.16731,-0.83655 -0.16731,-0.83656 -0.40108,0.64896 -0.84715,-0.32508 0.016,-1.2072 0.79004,-1.0451 0.94656,0.59114 1.6951,-1.5589 1.6951,-1.5589 h 0.65801 l 0.0865,2.5797 0.0865,2.5797 0.0554,-6.434 0.0554,-6.434 0.59532,0.17749 0.59531,0.17749 -1.0583,-0.84887 0.39687,-0.24431 0.39688,-0.24431 3.0016,-2.2891 6.5234,-4.7931 0.7183,-0.44774 0.7183,-0.44773 0.41549,0.006 3.175,2.3381 1.0583,0.8479 2.7548,1.9678 4.2567,3.0546 v 0.35086 l -0.59531,0.65052 -0.59532,0.65052 1.4552,-0.93092 v 12.745 l -0.79375,0.58685 -0.79375,0.58684 v 1.4447 l -0.1606,0.41851 -0.1606,0.41852 h -1.0017 v -1.4288 l -0.635,0.635 h -0.42334 v -3.9823 l -0.74687,0.38622 -0.74688,0.38622 -0.35817,0.43158 -0.35818,0.43157 -0.0309,1.901 -0.0309,1.901 0.72274,1.503 -0.14313,0.373 -0.14313,0.37299 h -0.82697 l -0.15229,-0.39687 -0.1523,-0.39688 h -0.52092 l -1.9822,1.4295 -1.9822,1.4295 -1.316,-0.1444 0.56631,0.56631 v 0.42333 l -3.5719,-0.0348 z m 3.9662,-1.0144 v -0.11668 l -0.61093,-0.37757 0.18879,0.30546 0.18878,0.30546 h 0.23336 z m -1.3229,-1.074 v -0.13229 h -0.26458 v 0.26458 h 0.26458 z m -0.52917,-0.23219 v -0.0999 l -0.92604,-0.72626 0.36313,0.46303 0.36312,0.46302 h 0.1998 z m -3.175,-2.398 v -0.11668 l -0.30546,-0.18878 -0.30546,-0.18879 0.37757,0.61093 h 0.23335 z m -0.79375,-0.52917 v -0.11667 l -0.61092,-0.37758 0.18878,0.30547 0.18879,0.30546 h 0.23335 z m -1.0583,-0.79375 v -0.11667 l -0.61093,-0.37758 0.18879,0.30547 0.18879,0.30546 h 0.23335 z m 8.4667,-1.1979 v -0.52087 l -0.39688,0.1523 -0.39687,0.15229 v 0.38436 l 0.17639,0.17639 0.17638,0.17639 h 0.44098 z m -9.7896,0.12398 v -0.13229 h -0.26458 v 0.26459 h 0.26458 z m -0.52916,-0.26458 v -0.13229 h -0.26459 v 0.26458 h 0.26459 z m -1.3229,-1.0583 v -0.13229 h -0.26458 v 0.26458 h 0.26458 z m 11.697,-3.8807 0.0775,-1.2349 -0.2022,0.2022 -1.121,-0.58755 0.46302,0.52235 0.46302,0.52236 0.036,1.4344 0.036,1.4344 0.1702,-1.0583 z m -5.876,1.1532 v -0.21401 l -0.35648,-0.48753 -0.35649,-0.48752 -0.19613,0.31733 -0.19612,0.31734 0.14743,0.3842 0.14744,0.38421 h 0.81035 z m 12.027,-0.29687 0.15222,-0.2463 -0.5378,-0.33238 v 0.82498 h 0.23335 z m -5.4127,-2.2672 v -0.13229 h -0.26459 v 0.26458 h 0.26459 z m -2.3812,-0.52917 v -0.13229 h -0.26459 v 0.26459 h 0.26459 z m 3.3073,-0.13229 0.16352,-0.26458 h -0.26458 l -0.16353,0.26458 -0.16352,0.26459 H 192.14 Z m -6.9453,-2.5597 -0.59532,-0.41527 -0.0121,-0.29846 -0.0121,-0.29845 -2.4894,-1.1643 1.3562,1.186 0.17351,0.45216 0.17352,0.45217 h 1.0437 l 0.16352,0.26458 0.16352,0.26459 0.63023,-0.0278 z m 11.821,-0.98969 0.28788,-0.34687 -1.1952,0.24772 -1.2404,1.5434 1.8599,-1.0974 z m 1.3753,-1.147 0.36312,-0.46302 -0.92604,0.72625 v 0.1998 h 0.1998 z m -16.438,-0.18282 v -0.11668 l -0.61093,-0.37758 0.18879,0.30547 0.18879,0.30546 h 0.23335 z m 17.33,-0.41249 0.16352,-0.26459 h -0.26458 l -0.32705,0.52917 h 0.26459 z m -5.6885,-0.23219 v -0.23219 l -0.74664,-0.61965 -0.18975,0.30701 -0.18974,0.30701 0.36463,0.23095 0.36462,0.23095 0.39688,0.008 z m -12.7,-0.13229 v -0.0999 l -0.46302,-0.36312 -0.46302,-0.36313 0.72625,0.92604 h 0.1998 z m 19.348,-0.36313 0.36312,-0.46302 -0.46302,0.36313 -0.46302,0.36312 v 0.1998 h 0.1998 z m -9.5588,-1.5057 v -0.38126 l -0.27617,-0.17068 -0.27618,-0.17069 -0.38528,0.31976 -0.38529,0.31976 v 0.46437 h 1.3229 z m 12.621,12.914 -0.18553,-0.18554 v -0.91151 l 0.51038,-0.62463 0.51039,-0.62462 0.6498,0.6387 -0.24936,0.86946 -0.24935,0.86946 -0.80079,0.1542 z m 3.692,-0.6748 -0.3719,-0.87775 0.76186,-0.79375 1.0493,1.2802 -0.0787,0.54782 -0.0787,0.54783 -0.90995,0.1734 z"
       fill="#d2c9d6"
       id="path76" /><path
       d="m 185.93,166.09 -1.083,-0.21472 -0.97948,-0.40925 -0.97949,-0.40926 -3.0188,-2.0429 -2.9104,-1.867 -1.3714,-1.2372 -1.3714,-1.2372 -0.6028,-1.8265 0.1611,-0.59947 0.16111,-0.59947 -0.84714,1.488 -0.6274,-0.20649 -0.1574,-1.0596 0.98146,-1.212 0.89569,0.89569 v -0.48912 l 3.5556,-2.9883 h 0.4132 v 5.2394 l 0.8599,0.53974 0.85989,0.53974 1.5616,1.2111 -0.18177,-0.29411 -0.18177,-0.2941 -2.6533,-2.0234 v -12.591 h 0.32598 l 1.3584,0.97834 1.3584,0.97834 0.91666,0.7832 0.91665,0.78321 0.0579,0.39478 0.058,0.39478 0.69664,0.44175 1.0681,0.008 2.4308,1.7198 2.3219,1.7541 0.58486,4.5959 0.0766,-4.3459 5.3697,-4.0152 0.36593,0.14041 0.36592,0.14042 0.28928,-0.63491 0.28929,-0.63491 2.4441,-1.7625 1.0603,-0.72279 1.0603,-0.72278 0.39687,-0.01 v 12.367 l -1.8121,1.2417 0.12515,0.20251 0.12516,0.2025 -0.17706,0.94379 -0.17705,0.9438 -0.83898,-0.1616 -0.15519,-0.65741 -0.15519,-0.6574 -0.20276,0.32806 -0.20275,0.32807 h -0.49794 v -3.9688 h -0.36843 l -2.0128,1.3949 v 4.0801 l 0.41458,0.83103 0.41457,0.83103 -0.16561,0.26795 -0.1656,0.26795 h -0.81206 l -0.13838,-0.52916 -0.13838,-0.52917 -0.33516,0.018 -1.9869,1.4376 -2.202,1.5875 -0.11507,-0.34476 -0.11507,-0.34475 -0.60801,0.8089 -3.8766,-2.9455 -0.12519,0.12518 -0.12518,0.12519 4.276,2.9962 -0.31247,0.50559 -2.7469,-0.058 z m 4.4023,-4.4909 -0.2106,-1.4541 -0.066,2.2057 0.16498,0.42993 0.16498,0.42992 0.1572,-0.1572 z m -6.3925,-0.47854 -0.63099,-0.47962 -1.7198,-1.1935 v 0.29547 l 2.5136,1.8441 0.46823,0.014 z m 7.0042,-2.4077 0.30225,-0.37375 -0.66145,-0.22263 -0.009,-0.44097 -0.009,-0.44098 -0.75625,1.3229 -0.009,-0.24253 -0.009,-0.24254 -0.26688,0.26688 0.91188,1.8057 0.10285,-0.52917 0.10284,-0.52916 z m -2.4759,-1.1981 v -0.11667 l -0.61093,-0.37758 0.18879,0.30547 0.18879,0.30546 h 0.23335 z m 3.9688,-0.0156 v -0.13229 h -0.26458 v 0.26458 h 0.26458 z m -6.8792,-2.1167 v -0.13229 h -0.26458 v 0.26458 h 0.26458 z m -0.62484,-0.52917 0.15229,-0.39687 -0.17097,-0.33073 -0.17098,-0.33073 -0.70379,-1.2193 -0.15921,0.47735 -0.15922,0.47735 -0.32306,0.44084 -0.32307,0.44084 0.69556,0.83811 h 1.0102 z m 12.101,-0.34336 0.13044,-0.21107 -0.24712,-0.38424 -0.24713,-0.38424 -0.52106,0.79375 -0.004,0.19843 -0.004,0.19844 h 0.76252 z m -12.887,-4.7278 -0.17639,-0.17639 v 0.70556 l 0.35278,-0.35278 z m 19.261,7.0396 -0.17339,-0.28055 0.32216,-0.77778 0.32217,-0.77778 h 1.0515 l -0.18224,0.72612 -0.18225,0.72612 -0.55142,0.66442 h -0.43314 z m 3.8398,-0.39813 -0.25804,-0.67868 v -0.7593 h 1.0066 l 0.26658,0.76471 0.26658,0.76472 -0.29361,0.29362 -0.29362,0.29361 h -0.43643 z m -18.264,-4.8539 -1.1763,-0.77012 -1.3229,-1.0253 -1.3229,-1.0253 -0.0845,-0.58579 -0.0846,-0.58579 h -1.2041 l -3.1248,-2.0427 -0.99545,-0.80439 -0.99544,-0.80439 10.181,-7.5933 0.85076,-0.50642 0.85077,-0.50641 4.0966,3.1295 1.6542,1.1906 1.6542,1.1906 2.01,1.4283 2.01,1.4283 -0.0942,0.29149 -0.0941,0.29148 -4.9661,3.605 -0.99075,-0.25909 0.13408,0.34941 0.13408,0.3494 -1.1524,1.0606 -4.1566,2.9645 h -0.63454 z m 5.2671,-5.3814 -0.30795,-0.59531 -0.18256,-0.3912 -0.18257,-0.39119 -0.89367,-0.18277 -0.89368,-0.18278 -0.0941,-0.28239 -0.0941,-0.28238 -0.95443,-1.1787 -1.4212,0.64755 0.1684,1.1855 1.8521,0.1736 0.46303,0.41719 0.46302,0.4172 v 0.70165 l 1.2928,0.32449 0.52268,-0.32304 0.16618,0.2689 0.16619,0.2689 h 0.23784 z m -5.5174,-1.2568 v -0.26458 h -0.23335 l -0.32704,0.52916 h 0.56039 z"
       fill="#c7b6d5"
       id="path77" /><path
       d="m 186.09,166.09 -1.1906,-0.20216 -2.0597,-0.86081 -2.4382,-1.7355 -2.9104,-1.7698 -1.5301,-1.3216 -1.5301,-1.3216 -0.27259,-0.50935 -0.2726,-0.50934 -0.0151,-1.0956 -0.0151,-1.0956 -0.73678,1.4062 -0.82629,-0.31708 0.16939,-0.69175 0.16938,-0.69174 0.68334,-0.69926 0.83892,0.83893 0.44665,-0.79813 1.5664,-1.3244 1.5664,-1.3244 h 0.41978 v 5.2308 l 1.4552,0.93402 1.9857,1.5038 1.9857,1.5038 1.3202,0.647 -0.56454,-0.47796 -0.56453,-0.47796 -5.3532,-3.9067 v -12.63 h 0.28718 l 1.5101,1.0962 1.5101,1.0962 1.4552,1.3462 v 0.93303 l 0.74284,0.42317 0.12172,0.66146 0.12171,0.66146 0.036,-0.7276 0.036,-0.72761 h 0.55544 l 1.6935,0.86601 1.7198,1.3382 1.7198,1.3382 0.0732,0.0294 0.18648,2.4038 0.18649,2.4039 -0.45723,0.45723 -0.45723,0.45722 0.5682,1.157 0.17395,2.8443 0.17394,2.8443 h -0.7304 l -3.5871,-2.7008 -0.12603,0.12603 -0.12603,0.12602 4.266,3.0716 -0.67342,0.4274 -2.1167,-0.0542 z m 2.3812,-8.5835 v -0.11667 l -0.61093,-0.37758 0.18879,0.30547 0.18879,0.30546 h 0.23335 z m -2.7371,-2.2193 -0.43788,-0.48385 v -1.0924 l -0.80646,-0.30946 -0.46196,-1.2024 -0.5824,1.3229 -0.64048,0.89506 0.51066,0.56427 0.51065,0.56427 0.5856,-0.11195 0.5856,-0.11194 0.69566,0.44114 0.47889,0.008 z m -1.5844,-3.9259 -0.17639,-0.17639 v 0.70556 l 0.35278,-0.35278 z m 6.3997,11.884 -0.0385,-2.0505 0.1316,-1.8521 0.55046,-1.033 -0.60504,-0.20168 v -5.1979 l 2.5135,-1.8477 1.4212,-1.0895 1.4212,-1.0895 0.32458,0.0703 0.32457,0.0704 1.4338,-1.7003 3.5178,-2.4591 0.66054,-0.25347 0.0139,6.2061 0.0139,6.2061 -1.7819,1.221 0.1111,0.42484 0.11109,0.42483 -0.28182,0.74126 -0.28183,0.74126 -0.64361,-0.21454 -0.15088,-0.63917 -0.15089,-0.63918 -0.20276,0.32806 -0.20275,0.32807 h -0.49794 v -4.2588 l -1.1906,0.81917 -1.1906,0.81917 v 4.4413 l 0.26459,0.16352 0.26458,0.16352 v 1.5563 h -0.84329 l -0.13838,-0.52916 -0.13838,-0.52917 h -0.22148 l -1.4366,0.91542 -2.561,1.995 h -0.48165 z m 2.0228,-5.887 0.16352,-0.26459 h -0.26458 l -0.16352,0.26459 -0.16352,0.26458 h 0.26458 z m 0.92604,-0.66146 v -0.13229 h -0.26458 v 0.26458 h 0.26458 z m 3.2857,-1.8804 0.41851,-0.1606 v -0.70591 l -0.60944,-0.37665 -0.71348,0.97573 v 0.42803 h 0.48589 z m 6.8041,1.9233 -0.31582,-0.38054 0.62974,-1.3821 h 1.0308 l -0.17838,0.7276 -0.17839,0.7276 -0.67209,0.68802 z m 3.662,-0.3247 -0.25804,-0.67868 v -0.7593 h 1.0482 l 0.16587,0.66086 0.16587,0.66087 -0.15252,0.39747 -0.15253,0.39746 h -0.55887 z m -18.087,-4.7415 -0.96916,-0.65769 -2.8328,-2.0927 -0.1615,-0.64346 -0.1615,-0.64347 -1.7135,-0.3427 -2.1298,-1.4334 -2.2669,-1.8095 0.1502,-0.40912 4.5041,-3.3489 5.0209,-3.6976 1.7774,-1.2203 1.3976,0.89548 3.175,2.4646 3.175,2.232 1.3386,0.98587 1.3386,0.98587 1.2701,0.92114 -0.50762,0.47867 -4.7534,3.5214 -0.57476,-0.14425 -0.57476,-0.14426 0.13077,0.50006 0.13076,0.50006 -3.8836,2.8443 -0.71829,0.4578 -0.7183,0.4578 h -0.47394 z m -3.333,-4.5078 0.33441,-0.40293 -0.8686,0.33331 v 0.47255 h 0.1998 z m 8.7747,-0.71273 -0.31309,-0.31309 v -0.77854 l -0.43788,-0.48385 -0.43788,-0.48386 h -1.0525 l -0.83486,-0.96578 -0.83485,-0.96579 -0.78069,0.25859 -0.78068,0.25858 -0.1778,1.5216 -0.44027,0.33485 -0.44028,0.33485 0.88195,0.016 0.1802,-0.5408 1.2892,0.43926 1.2892,0.43927 0.12486,0.47748 0.12487,0.47748 1.5208,0.33402 0.21753,-0.13444 0.21752,-0.13443 0.37658,0.23273 0.37658,0.23274 0.12232,-0.12231 0.12231,-0.12232 z m -7.1922,-0.60413 v -0.13229 h -0.26459 v 0.26458 h 0.26459 z"
       fill="#b4a3c8"
       id="path78" /><path
       d="m 186.48,166.06 -1.5875,-0.1651 -1.4872,-0.59491 -6.7149,-4.4214 -2.7781,-2.618 v -2.6845 l 2.5135,-2.4174 1.4064,-1.0888 h 0.31341 l 9.7e-4,2.5797 9.8e-4,2.5797 5.3843,3.9688 1.2283,0.67836 v -0.23641 l -2.7781,-1.986 -3.5719,-2.6608 v -12.596 l 0.39688,0.03 3.9688,3.0293 0.0811,0.6918 0.0811,0.69181 1.0285,0.93077 0.0106,0.42202 0.0106,0.42201 0.79146,-1.459 1.7009,0.86449 3.4923,2.802 0.16878,2.0712 0.16879,2.0712 -0.15988,0.59531 -0.15987,0.59532 h -0.79289 l 0.81918,1.2502 0.0895,2.9468 0.0895,2.9468 h -0.49336 l -3.9267,-2.9555 -0.26017,0.26017 4.1398,3.0287 0.22138,0.20018 0.22138,0.20019 -2.0303,0.1922 z m 2.1276,-8.6808 -0.1744,-0.28219 -0.89481,0.016 1.0197,0.77145 0.11196,-0.11195 0.11195,-0.11195 z m -1.3338,-0.81135 -0.16352,-0.26459 -0.63023,0.008 0.39688,0.25648 0.39687,0.25648 0.1636,0.008 z m -1.4067,-1.1157 -0.31309,-0.31309 v -1.3511 l -1.4737,-1.3909 -1.4367,1.4367 v 1.0645 l 1.044,0.94478 0.74724,-0.14945 0.74725,-0.14944 0.37675,0.23284 0.37675,0.23285 0.24463,-0.24463 z m -1.7198,-4.2256 -0.13896,-0.34727 -0.0418,1.0142 0.15986,-0.15985 0.15985,-0.15985 z m 6.4338,11.153 v -2.9197 l 0.4273,-0.65214 0.42731,-0.65215 h -0.89601 l 0.198,-5.3158 5.2298,-3.9502 0.83134,0.2435 1.0583,-1.6447 4.101,-2.8474 0.0156,0.0766 0.0157,0.0766 0.12897,6.0854 0.12897,6.0854 -1.6803,1.1504 -0.1164,1.9182 -0.2815,0.28151 -0.28151,0.2815 -0.31069,-0.19201 -0.31068,-0.19202 0.13057,-0.4993 0.13057,-0.49931 h -0.4484 l -0.16352,0.26458 -0.16352,0.26459 h -0.49794 v -4.2588 l -1.1906,0.81917 -1.1906,0.81917 v 4.4413 l 0.26459,0.16352 0.26458,0.16352 v 1.5563 h -0.84329 l -0.13838,-0.52916 -0.13838,-0.52917 h -0.39468 l -3.9092,2.8999 -0.39687,0.01 z m 1.9844,-5.0178 0.16352,-0.26459 h -0.56039 v 0.52917 h 0.23335 z m 0.92604,-0.66146 V 156.568 h -0.26458 v 0.26458 h 0.26458 z m 3.675,-2.0816 0.30024,-0.36178 -0.80028,-0.66416 -0.79375,0.65875 v 0.72896 h 0.99354 z m -0.50004,-1.8872 v -0.13229 h -0.26458 v 0.26458 h 0.26458 z m 0,-1.3229 v -0.13229 h -0.26458 v 0.26458 h 0.26458 z m -0.0882,-1.6316 -0.17639,-0.17639 v 0.70556 l 0.35278,-0.35278 z m -23.964,6.9529 -0.3048,-0.36726 0.62974,-1.3821 h 0.9734 v 0.28158 l -0.38338,0.91754 -0.38337,0.91754 h -0.22679 z m 31.01,0.0755 -0.29551,-0.29551 0.26659,-0.76472 0.26658,-0.76471 h 1.0639 l -0.17838,0.7276 -0.17839,0.7276 -0.64931,0.66524 z m 3.9768,0.0758 -0.28485,-0.18098 -0.18656,-0.8599 -0.18655,-0.85989 h 0.72996 l 0.635,0.635 v 1.1858 l -0.42214,0.2609 z m -17.952,-4.9033 -0.53535,-0.30479 -3.3301,-2.5715 -0.50578,-1.3303 0.93696,-0.68512 -0.19163,-0.19163 -0.19163,-0.19162 -0.68697,0.57013 -2.0043,-0.159 -3.6298,-2.4801 -0.66918,-0.80631 0.37343,-0.2308 0.37344,-0.2308 2.3941,-1.8494 4.4979,-3.2938 1.7945,-1.3664 2.097,-1.48 1.4001,0.9031 3.9688,2.9895 3.5413,2.6144 2.6645,1.8521 0.003,0.1323 0.003,0.13229 -4.7915,3.5719 h -1.5365 l 0.13939,0.36326 0.1394,0.36325 -1.4045,1.1934 -1.4045,1.1934 -2.6171,1.6492 -0.29328,-0.0518 z m 5.1764,-5.2946 -0.27543,-0.27543 v -1.1248 l -1.3343,-1.2535 -0.87526,-0.1284 -1.2684,-1.6207 h -1.3086 l -1.3353,1.3353 0.094,0.45684 0.094,0.45683 -0.81218,0.6182 0.21006,0.21005 0.21005,0.21006 1.0533,-0.65779 2.3622,1.0449 v 0.57597 l 1.1906,0.45207 2.2707,-0.024 z m -7.2799,-0.91225 -0.14811,-0.14811 -0.65264,0.65753 0.47443,-0.18066 0.47443,-0.18065 z"
       fill="#a694b8"
       id="path79" /><path
       d="m 184.52,165.64 -1.1658,-0.4118 -6.6964,-4.3631 -1.373,-1.3373 -1.373,-1.3373 v -2.5413 l 3.7355,-3.5903 0.52854,0.32665 -0.1044,4.749 2.4842,1.8742 2.4842,1.8742 0.8599,0.51484 0.85989,0.51485 v -0.28193 l -6.35,-4.6331 v -12.335 l 0.66146,0.01 3.7042,2.7879 -0.169,1.1906 0.79027,0.90007 0.79026,0.90007 0.38324,-0.57719 0.38324,-0.57718 0.7631,0.39173 0.76309,0.39174 1.763,1.403 1.763,1.403 0.1782,3.2847 -0.1878,1.9844 h -0.73817 v 0.49136 l 0.39687,0.39688 0.39688,0.39687 v 5.8586 h -0.32685 l -3.867,-2.9104 h -0.36882 l 0.32916,0.39661 0.32916,0.39662 1.7538,1.2311 1.7538,1.2311 0.25136,0.22437 0.25135,0.22438 -4.4715,-0.0418 z m 4.1425,-8.0792 -0.11012,-0.33073 -0.99764,-0.1934 0.35471,0.42739 0.3547,0.42739 h 0.50847 z m -1.5268,-1.1309 -0.33469,-0.40327 -0.30614,0.30614 0.77842,0.4923 0.0986,0.004 0.0985,0.004 z m -1.2252,-1.5811 -0.15306,-1.0583 -0.74909,-0.7276 -0.74908,-0.72761 h -0.23887 l -1.6419,1.4408 v 1.1845 l 0.55744,0.51933 0.55743,0.51933 2.5702,-0.092 z m -1.7638,-3.6215 -0.13896,-0.34727 -0.0418,1.0142 0.15986,-0.15985 0.15985,-0.15985 z m 6.4423,11.238 0.008,-2.8536 0.77692,-1.0272 v -0.42802 h -0.79375 v -2.3036 l 0.32858,-3.1437 1.6558,-1.148 1.7198,-1.3288 1.7198,-1.3288 0.8643,0.27318 0.52148,-0.86792 0.52147,-0.86793 4.0459,-2.783 0.0291,2.8467 0.029,2.8467 0.1104,6.5161 -1.5636,1.3157 -0.0562,0.92567 -0.0562,0.92568 -0.2815,0.28151 -0.28151,0.2815 -0.5968,-0.36884 0.16088,-0.5069 0.16089,-0.5069 -0.43254,0.008 -0.39687,0.25232 -0.39688,0.25231 -0.26458,-4.2583 -2.2857,1.6589 0.26008,4.6002 0.0868,0.76792 0.0868,0.76793 -0.69642,0.23969 -0.29134,-1.1141 h -0.23766 l -0.57791,0.30572 -0.57792,0.30571 -2.1167,1.6999 -0.59531,0.30887 -0.59531,0.30886 z m 2.1082,-5.1025 v -0.26459 h -0.49793 l -0.32705,0.52917 h 0.82498 z m 1.0583,-0.79375 v -0.26459 h -0.23336 l -0.16352,0.26459 -0.16352,0.26458 h 0.5604 z m 1.4552,-1.0583 0.16353,-0.26458 h -0.26459 l -0.16352,0.26458 -0.16352,0.26459 h 0.26458 z m 2.168,-0.9643 0.16698,-0.43514 -0.9686,-0.70826 -0.70488,0.585 v 0.99354 h 1.3395 z m -0.71275,-1.8138 v -0.13229 h -0.26458 v 0.26458 h 0.26458 z m 0,-1.3229 v -0.13229 h -0.26458 v 0.26458 h 0.26458 z m -0.0838,-1.5048 -0.13896,-0.34726 -0.0209,0.50712 -0.0209,0.50711 0.3197,-0.3197 z m 10.983,6.8582 -0.27329,-0.3293 -0.18225,-0.72612 -0.18224,-0.72612 h 0.74528 l 0.635,0.635 v 1.1858 l -0.46921,0.28999 z m -35.043,-0.0842 -0.15478,-0.15478 0.26886,-0.77126 0.26886,-0.77125 h 1.0632 l -0.19062,0.46302 -0.19061,0.46302 -0.13313,0.46302 -0.13314,0.46302 h -0.64384 z m 31.023,-0.35274 v -0.50753 l 0.3212,-0.83702 h 1.0017 v 0.49471 l -0.25804,0.67869 -0.25803,0.67868 h -0.80685 z m -13.937,-4.4809 -0.83104,-0.4355 -3.1125,-2.4268 0.0301,-0.68764 0.0301,-0.68763 0.64756,-0.78026 -3.175,0.2879 -2.5386,-1.66 -1.8487,-1.5455 0.1306,-0.10383 0.1306,-0.10382 7.4083,-5.4784 2.6458,-1.9576 1.3611,-0.86293 2.6267,1.9412 2.6267,1.9412 6.2408,4.6201 -2.5366,1.9846 -2.4827,1.7504 -1.3669,-0.2613 0.15154,0.47747 0.15155,0.47747 -3.4371,2.8107 -1.0107,0.56779 -1.0107,0.56779 z m 5.2616,-5.661 -0.11722,-0.8599 -1.3604,-1.4552 h -0.65871 l -0.5508,-0.77353 -0.55079,-0.77352 -0.74418,-0.16344 -0.74417,-0.16345 -1.3827,0.52569 -0.24387,0.47568 -0.24386,0.47569 -0.15247,0.99219 -0.15246,0.99219 h 2.1182 l 0.57792,0.30046 0.57791,0.30046 0.94666,0.98658 h 2.7982 z m -7.3248,-0.41192 -0.14811,-0.14811 -0.65264,0.65753 0.47443,-0.18066 0.47443,-0.18065 z"
       fill="#9986b0"
       id="path80" /><path
       d="m 184.16,165.45 -1.5266,-0.62777 -1.7654,-1.3465 -1.4272,-0.83939 -1.4272,-0.8394 -3.3602,-2.7181 -0.74082,-1.4289 v -2.004 l 3.7355,-3.5903 0.27418,0.16945 0.27418,0.16946 -0.1828,4.7232 6.35,4.7387 0.52917,-0.016 -1.3822,-1.1739 -5.1081,-3.7042 0.0701,-5.9978 0.0701,-5.9977 0.1803,-0.17978 0.18031,-0.17978 1.2749,0.94137 1.2749,0.94138 0.52205,0.37138 0.52206,0.37139 -0.0588,0.77185 -0.0588,0.77186 1.8061,1.7035 h 0.31016 v -0.74965 l 0.33073,-0.11762 0.33073,-0.11761 1.9885,0.99774 2.4718,2.3684 h 0.4345 l -0.0418,0.92604 -0.2669,-0.66146 h -0.84189 l 1.1506,1.2247 v 3.8336 l -0.4926,-0.30445 -0.17338,0.28054 -0.17338,0.28053 0.41968,0.64051 0.41968,0.64052 v 5.5749 h -0.28131 l -3.8668,-2.9104 h -0.41456 l 0.32916,0.39661 0.32916,0.39662 1.7538,1.2311 1.7538,1.2311 0.25136,0.22437 0.25135,0.22438 -4.4715,-0.012 z m 4.5094,-7.8737 -0.10398,-0.31194 -0.9764,-0.61795 -0.9764,-0.61796 v 0.55348 l 0.92604,0.34542 0.69146,0.96089 h 0.54326 z m -2.6335,-2.719 0.0174,-1.07 -0.31567,-0.4198 -0.31566,-0.41981 -0.6053,-0.32245 -0.60531,-0.32246 -0.94506,0.29995 -0.57581,0.53645 -0.57581,0.53644 v 1.1846 l 0.41623,0.59425 0.41623,0.59426 1.5357,-0.0606 1.5357,-0.0607 z m -1.8939,-3.6497 -0.13345,-0.33073 v 1.3229 l 0.2669,-0.66146 z m 6.4394,11.188 v -2.9197 h 0.46745 l 0.30094,-1.1508 -0.85196,-0.62297 0.34954,-3.3442 0.51955,-0.88057 0.51955,-0.88056 h -0.20894 l -0.83155,0.83154 v -0.50736 l 3.8365,-3.0578 0.66472,-0.50886 0.84076,-0.17196 0.84076,-0.17195 0.82876,-1.4439 3.9688,-2.8537 0.31074,11.985 -0.81465,0.78103 -0.81465,0.78102 0.147,0.86714 -0.5312,1.3972 -0.40347,-0.15482 -0.40346,-0.15483 0.17388,-0.69278 0.17388,-0.69279 -0.69424,0.45489 -0.69425,0.45488 -0.0768,-2.1066 -0.0768,-2.1066 -2.2452,1.4369 -0.004,4.1958 0.31768,0.87851 0.31767,0.87851 -0.65738,0.65738 -0.24927,-0.39466 -0.24926,-0.39467 -0.0831,-0.23637 -0.0831,-0.23638 -0.64881,0.34366 -0.64881,0.34365 -2.1167,1.6999 -0.59531,0.30887 -0.59531,0.30886 z m 2.249,-5.0364 0.16353,-0.26459 h -0.79375 l -0.32705,0.52917 h 0.79375 z m 1.1026,-0.96998 -0.10082,-0.10081 -0.86644,0.33248 0.15432,0.24971 0.15433,0.24971 0.37971,-0.31514 0.37972,-0.31513 z m 1.1514,-0.75587 0.3344,-0.40293 -0.86859,0.33331 v 0.47255 h 0.1998 z m 2.4179,-1.0051 0.17396,-0.2638 -0.12827,-0.33426 -0.12827,-0.33427 -0.37642,-0.14444 -0.37642,-0.14445 -0.39687,0.1523 -0.39688,0.15229 v 1.1781 l 0.14762,0.14761 0.14761,0.14762 0.57999,-0.14646 0.57999,-0.14645 z m -0.91926,-2.0812 -0.13896,-0.34727 -0.0418,1.0142 0.15985,-0.15986 0.15985,-0.15985 z m -0.004,-1.4497 -0.17639,-0.17639 v 0.70556 l 0.35278,-0.35278 z m 0.004,-1.1961 -0.13896,-0.34726 -0.0209,0.50712 -0.0209,0.50711 0.3197,-0.3197 z m -24.06,6.774 -0.15478,-0.15478 0.26886,-0.77126 0.26886,-0.77125 h 1.0632 l -0.19062,0.46302 -0.19061,0.46302 -0.13313,0.46302 -0.13314,0.46302 h -0.64384 z m 31.023,-0.35274 v -0.50753 l 0.3212,-0.83702 h 1.0017 v 0.50426 l -0.30706,0.67391 -0.30705,0.67391 h -0.70881 z m 3.6976,-0.17115 -0.25804,-0.67869 v -0.49471 h 0.68792 l 0.635,0.635 v 1.2171 h -0.80685 z m -17.627,-4.3464 -0.56773,-0.22908 -1.5489,-1.1781 -1.5489,-1.1781 0.006,-0.89118 0.006,-0.89119 0.19651,-0.31245 0.19652,-0.31244 -0.50124,-0.30978 -0.12989,0.21017 -0.1299,0.21018 -2.8854,-0.0444 -3.7705,-2.8755 v -0.40232 h 0.45619 l 1.161,-0.92186 1.161,-0.92185 7.8865,-5.8541 0.87237,-0.46688 6.0578,4.483 1.1906,0.86281 1.1906,0.86281 3.077,2.2636 -4.9291,3.6971 -1.4552,-0.28732 v 1.2743 l -2.249,1.8278 -2.6171,1.6472 -0.55786,-0.0336 z m 4.6115,-4.6604 0.80262,-0.16053 -0.0724,-0.9122 -0.0724,-0.91221 -0.74667,-0.77935 -0.74667,-0.77936 h -0.52392 l -1.4257,-1.7078 h -2.2409 l -1.2668,1.4727 v 2.0632 l 0.99219,0.15899 0.99219,0.159 1.7198,0.75576 v 0.49893 l 0.92604,0.242 0.8599,0.0614 z m -6.8296,-1.1521 0.38922,-0.24615 -0.14395,-0.14394 -0.14394,-0.14395 -0.50985,0.38573 -0.50986,0.38573 0.52917,0.008 z"
       fill="#bcb23d"
       id="path81" /><path
       d="m 184.16,165.45 -1.5266,-0.62777 -1.7654,-1.3465 -1.4272,-0.83939 -1.4272,-0.8394 -3.3602,-2.7181 -0.74082,-1.4289 v -2.004 l 3.7355,-3.5903 0.27418,0.16945 0.27418,0.16946 -0.1828,4.7232 6.35,4.7387 0.52917,-0.016 -1.3822,-1.1739 -5.1081,-3.7042 0.0701,-5.9978 0.0701,-5.9977 0.1803,-0.17978 0.18031,-0.17978 1.2749,0.94137 1.2749,0.94138 0.52205,0.37138 0.52206,0.37139 -0.0588,0.77185 -0.0588,0.77186 1.8061,1.7035 h 0.31016 v -0.74965 l 0.33073,-0.11762 0.33073,-0.11761 1.9885,0.99774 2.4718,2.3684 h 0.4345 l -0.0418,0.92604 -0.2669,-0.66146 h -0.84189 l 1.1506,1.2247 v 3.8336 l -0.4926,-0.30445 -0.17338,0.28054 -0.17338,0.28053 0.41968,0.64051 0.41968,0.64052 v 5.5749 h -0.28131 l -3.8668,-2.9104 h -0.41456 l 0.32916,0.39661 0.32916,0.39662 1.7538,1.2311 1.7538,1.2311 0.25136,0.22437 0.25135,0.22438 -4.4715,-0.012 z m 1.6082,-3.6128 -0.0948,-0.28443 h -0.50271 l -0.1896,0.56886 h 0.88194 z m 2.9012,-4.2608 -0.10398,-0.31194 -0.9764,-0.61795 -0.9764,-0.61796 v 0.55348 l 0.92604,0.34542 0.69146,0.96089 h 0.54326 z m -2.6335,-2.719 0.0174,-1.07 -0.31567,-0.4198 -0.31566,-0.41981 -0.6053,-0.32245 -0.60531,-0.32246 -0.94506,0.29995 -0.57581,0.53645 -0.57581,0.53644 v 1.1846 l 0.41623,0.59425 0.41623,0.59426 1.5357,-0.0606 1.5357,-0.0607 z m -9.2129,0.51745 v -0.39687 h -0.79375 v 0.44097 l 0.35278,0.35278 h 0.44097 z m 7.319,-4.1672 -0.13345,-0.33073 v 1.3229 l 0.2669,-0.66146 z m 6.4394,11.188 v -2.9197 h 0.46745 l 0.30094,-1.1508 -0.85196,-0.62297 0.34954,-3.3442 0.51955,-0.88057 0.51955,-0.88056 h -0.20894 l -0.83155,0.83154 v -0.50736 l 3.8365,-3.0578 0.66472,-0.50886 0.84076,-0.17196 0.84076,-0.17195 0.82876,-1.4439 3.9688,-2.8568 0.0812,0.082 0.1762,12.154 -2.2094,1.6046 -0.0162,0.35904 -0.0162,0.35903 0.79375,-0.30459 v 0.21353 l -0.51222,1.3473 -0.40347,-0.15482 -0.40346,-0.15483 0.17388,-0.69278 0.17388,-0.69279 -0.69424,0.45489 -0.69425,0.45488 -0.0768,-2.1066 -0.0768,-2.1066 -2.2452,1.4369 -0.002,2.1545 -0.002,2.1545 -0.88223,0.33855 0.63968,0.63968 0.47078,-0.76172 0.18401,0.73317 0.18402,0.73318 -0.61829,0.61829 -0.24927,-0.39466 -0.24926,-0.39467 -0.0831,-0.23637 -0.0831,-0.23638 -0.64881,0.34366 -0.64881,0.34365 -2.1167,1.6999 -0.59531,0.30887 -0.59531,0.30886 z m 2.249,-5.0364 0.16353,-0.26459 h -0.79375 l -0.32705,0.52917 h 0.79375 z m 1.1026,-0.96998 -0.10082,-0.10081 -0.86644,0.33248 0.15432,0.24971 0.15433,0.24971 0.37971,-0.31514 0.37972,-0.31513 z m 1.1514,-0.75587 0.3344,-0.40293 -0.86859,0.33331 v 0.47255 h 0.1998 z m 2.4179,-1.0051 0.17396,-0.2638 -0.12827,-0.33426 -0.12827,-0.33427 -0.37642,-0.14444 -0.37642,-0.14445 -0.39687,0.1523 -0.39688,0.15229 v 1.1781 l 0.14762,0.14761 0.14761,0.14762 0.57999,-0.14646 0.57999,-0.14645 z m -0.91926,-2.0812 -0.13896,-0.34727 -0.0418,1.0142 0.15985,-0.15986 0.15985,-0.15985 z m -0.004,-1.4497 -0.17639,-0.17639 v 0.70556 l 0.35278,-0.35278 z m 0.004,-1.1961 -0.13896,-0.34726 -0.0209,0.50712 -0.0209,0.50711 0.3197,-0.3197 z m -24.053,6.7812 -0.14761,-0.14762 0.13437,-0.51384 0.13438,-0.51385 h 0.1596 l 0.77856,0.29876 -0.13392,0.51208 -0.13391,0.51208 h -0.64384 z m 31.016,-0.46975 v -0.61736 l 0.32758,-0.32758 0.36462,0.36461 0.36461,0.36462 -0.15984,0.41654 -0.15984,0.41653 h -0.73713 z m 3.8025,0.22728 -0.14969,-0.39007 0.39107,-0.39108 0.39108,-0.39107 0.32758,0.32758 v 1.2347 h -0.81036 z m -17.732,-4.635 -0.56773,-0.22908 -1.5489,-1.1781 -1.5489,-1.1781 0.006,-0.89118 0.006,-0.89119 0.19651,-0.31245 0.19652,-0.31244 -0.50124,-0.30978 -0.12989,0.21017 -0.1299,0.21018 -2.8854,-0.0444 -3.7705,-2.8755 v -0.40232 h 0.45619 l 1.161,-0.92186 1.161,-0.92185 7.8865,-5.8541 0.87237,-0.46688 6.0578,4.483 1.1906,0.86281 1.1906,0.86281 3.077,2.2636 -4.9291,3.6971 -1.4552,-0.28732 v 1.2743 l -2.249,1.8278 -2.6171,1.6472 -0.55786,-0.0336 z m 4.6115,-4.6604 0.80262,-0.16053 -0.0724,-0.9122 -0.0724,-0.91221 -0.74667,-0.77935 -0.74667,-0.77936 h -0.52392 l -1.4257,-1.7078 h -2.2409 l -1.2668,1.4727 v 2.0632 l 0.99219,0.15899 0.99219,0.159 1.7198,0.75576 v 0.49893 l 0.92604,0.242 0.8599,0.0614 z m -6.8296,-1.1521 0.38922,-0.24615 -0.14395,-0.14394 -0.14394,-0.14395 -0.50985,0.38573 -0.50986,0.38573 0.52917,0.008 z"
       fill="#8b74a7"
       id="path82" /><path
       d="m 184.16,165.45 -1.5266,-0.62777 -1.7654,-1.3465 -1.4272,-0.83939 -1.4272,-0.8394 -3.3602,-2.7181 -0.74082,-1.4289 v -2.004 l 3.7355,-3.5903 0.27418,0.16945 0.27418,0.16946 -0.1828,4.7232 6.35,4.7387 0.19844,3.1e-4 0.19843,3.2e-4 -0.008,-0.19844 -0.008,-0.19843 -3.2905,-2.2324 -3.0302,-2.3957 0.10067,-5.9729 0.10066,-5.9729 0.22794,-0.22794 3.13,2.2198 0.18108,0.26715 0.18109,0.26715 -0.13229,0.67392 -0.13228,0.67392 2.151,2.0286 0.15692,-0.40894 0.15693,-0.40893 0.49473,-0.15703 0.49473,-0.15702 1.2106,0.63588 2.5421,2.1124 -0.14748,0.38431 -0.14747,0.38431 1.0602,1.4889 v 3.2256 h -0.79375 v 1.2966 l 0.40634,0.2274 0.40633,0.2274 -0.0756,2.8533 -0.0756,2.8533 -4.0513,-2.96 h -0.37916 l 0.32916,0.39661 0.32916,0.39662 1.7538,1.2311 1.7538,1.2311 0.25136,0.22437 0.25135,0.22438 -4.4715,-0.012 z m 1.6082,-3.6128 -0.0948,-0.28443 h -0.50271 l -0.1896,0.56886 h 0.88194 z m 2.9012,-4.2608 -0.10398,-0.31194 -0.9764,-0.61795 -0.9764,-0.61796 v 0.47208 l 0.79375,0.65876 v -0.44712 l 0.82375,1.1761 h 0.54326 z m -3.2224,-1.3992 0.81882,-0.19065 0.0904,-2.5513 -1.4024,-1.1031 h -0.779 l 0.27224,-0.70944 -0.45174,-0.73094 -0.35842,0.93404 0.3157,0.3157 -1.7049,0.8521 -0.36002,0.75797 -0.36003,0.75797 1.035,1.3945 0.63137,0.31967 0.63137,0.31968 0.40145,-0.0877 0.40146,-0.0877 z m -8.624,-0.8024 v -0.39687 h -0.79375 v 0.44097 l 0.35278,0.35278 h 0.44097 z m 13.758,7.1918 v -2.7613 l 0.39687,-0.32938 0.39688,-0.32937 v -1.2581 h -0.86683 l 0.18047,-1.7614 0.18046,-1.7614 0.48664,-0.68597 0.48664,-0.68596 0.1974,-1.038 3.6239,-2.7985 h 0.7384 l 0.036,0.72761 0.036,0.7276 0.22996,-1.3229 0.3983,-0.30848 0.39831,-0.30848 0.0697,-0.47529 0.0698,-0.47528 4.0789,-2.8609 0.097,0.0975 0.0971,0.0975 0.1518,11.833 -1.8266,1.5145 -0.39688,0.014 v 0.85036 l 0.79375,-0.30459 v 0.21353 l -0.51222,1.3473 -0.40347,-0.15482 -0.40346,-0.15483 0.33248,-1.3247 -0.5476,0.29307 -0.54761,0.29307 h -0.3428 l 0.082,-1.7859 0.082,-1.7859 -0.18664,-0.13229 -0.18663,-0.1323 -1.0643,0.65778 -1.0643,0.65777 v 4.3164 l -0.88223,0.33855 0.63968,0.63968 0.47078,-0.76172 0.17538,0.69876 0.17538,0.69877 -0.17282,0.27962 -0.17281,0.27962 h -0.46228 l -0.16795,-0.52916 -0.16795,-0.52917 h -0.57585 l -1.9,1.4552 -1.5895,1.0812 -0.66145,0.40527 z m 2.283,-5.3938 -0.14354,-0.14354 -0.81658,0.31335 v 0.56439 l 1.1037,-0.59066 z m 1.0421,-0.81002 -0.12727,-0.12727 -0.85011,0.32622 0.17261,0.2793 0.17262,0.2793 0.37971,-0.31514 0.37972,-0.31513 z m 1.1728,-0.72336 0.32938,-0.39687 h -0.52917 l -0.32937,0.39687 -0.32938,0.39688 h 0.52917 z m 2.3997,-0.81592 0.34778,-0.41906 -0.27807,-0.44084 -0.27808,-0.44084 h -1.2076 l -0.26938,0.42706 -0.26939,0.42705 0.3322,0.86568 h 1.2747 z m -0.896,-2.2764 -0.13896,-0.34727 -0.0418,1.0142 0.15985,-0.15986 0.15985,-0.15985 z m 0,-1.3229 -0.13896,-0.34727 -0.0418,1.0142 0.3197,-0.3197 z m -24.053,5.4582 -0.14761,-0.14762 0.13437,-0.51384 0.13438,-0.51385 h 0.1596 l 0.77856,0.29876 -0.13392,0.51208 -0.13391,0.51208 h -0.64384 z m 31.016,-0.46975 v -0.61736 l 0.32758,-0.32758 0.36462,0.36461 0.36461,0.36462 -0.15984,0.41654 -0.15984,0.41653 h -0.73713 z m 3.8025,0.22728 -0.14969,-0.39007 0.39107,-0.39108 0.39108,-0.39107 0.32758,0.32758 v 1.2347 h -0.81036 z m -17.561,-3.4464 v -0.13229 h 0.26458 v 0.26458 h -0.26458 z m 1.1906,-0.13229 0.16352,-0.26458 h 0.26459 l -0.16353,0.26458 -0.16352,0.26458 h -0.26458 z m -0.77623,-1.0867 0.18104,-0.29293 -0.51317,0.16288 -0.51317,0.16287 -3.1387,-2.4372 0.0634,-2.7502 -2.8054,0.0294 -0.18512,0.18513 -0.18512,0.18512 -1.0908,-0.75485 -1.0908,-0.75485 -0.99993,-0.79944 -0.99993,-0.79945 7.7262,-5.7341 2.4757,-1.8775 0.67213,-0.42005 0.67213,-0.42004 6.0641,4.4487 1.8104,1.4439 1.6389,1.0583 1.7101,1.2901 v 0.40939 l -4.3512,3.2722 -1.8665,0.0554 -0.009,0.56494 -0.009,0.56495 -0.7186,0.86585 -1.9694,1.3172 -1.9694,1.3172 h -0.78065 z m 0.90852,-0.6175 v -0.38126 l -0.27617,-0.17068 -0.27617,-0.17069 -0.39781,0.33016 -0.39781,0.33015 0.6865,0.43548 0.66146,0.008 z m 3.5435,-3.8212 0.50077,-0.19655 0.0966,-0.88283 0.0967,-0.88284 -1.8302,-1.8014 -1.8302,-1.8014 -1.4067,-0.35304 -1.6745,0.48025 -1.2385,1.835 0.14985,0.75264 0.14985,0.75265 -1.1874,0.99065 0.89975,0.018 0.25604,-0.45752 0.25604,-0.45751 1.0111,0.91503 h 1.9427 l 0.99219,0.99218 0.7276,0.28896 1.5875,0.004 z"
       fill="#896f8e"
       id="path83" /><path
       d="m 184.63,165.62 -1.3229,-0.46081 -5.0271,-3.2672 -3.6169,-2.7864 -0.37438,-0.72397 -0.37437,-0.72396 v -2.0008 l 3.4673,-3.3172 h 0.84525 l -0.16834,2.3716 -0.16834,2.3716 1.3123,0.94535 5.0969,3.8365 h 0.46278 l -0.008,-0.19844 -0.008,-0.19843 -3.2905,-2.2324 -3.0302,-2.3957 0.10067,-5.9729 0.10066,-5.9729 0.22794,-0.22794 3.13,2.2198 0.18108,0.26715 0.18109,0.26715 -0.13229,0.67392 -0.13228,0.67392 2.151,2.0286 0.15692,-0.40894 0.15693,-0.40893 0.49473,-0.15703 0.49473,-0.15702 1.2106,0.63588 2.4623,2.0457 -0.1341,0.51278 -0.13409,0.51277 1.1132,1.5633 v 2.961 h -0.79375 v 1.2966 l 0.40634,0.2274 0.40633,0.2274 -0.0756,2.8533 -0.0756,2.8533 -4.0513,-2.96 h -0.3456 l 0.16481,0.26667 0.16482,0.26667 1.9675,1.455 1.9675,1.455 v 0.2608 l -3.8365,-0.018 z m 1.1399,-3.7751 -0.0948,-0.28443 h -0.50271 l -0.1896,0.56886 h 0.88194 z m 0.84447,-1.4354 v -0.13229 h -0.26459 v 0.26459 h 0.26459 z m 0.92604,-1.4552 0.73342,-1.0583 h 0.51892 l -0.13838,-0.52916 -0.13838,-0.52917 0.61192,-0.008 -0.76849,-0.48615 -0.41608,0.25715 0.15086,-0.47676 0.15087,-0.47677 -0.82041,1.0046 -0.40515,-0.33624 -0.40514,-0.33624 v 0.52916 l 0.77691,0.64478 -1.3061,2.5774 v 0.28218 h 0.72178 z m -0.13229,-0.39688 v -0.13229 h 0.26458 v 0.26458 h -0.26458 z m -1.9593,-2.3726 0.81882,-0.19065 0.0904,-2.5513 -1.4024,-1.1031 h -0.779 l 0.27224,-0.70944 -0.45174,-0.73094 -0.35842,0.93404 0.3157,0.3157 -1.7049,0.8521 -0.36002,0.75797 -0.36003,0.75797 1.035,1.3945 0.63137,0.31967 0.63137,0.31968 0.40145,-0.0877 0.40146,-0.0877 z m 4.076,-0.27323 v -0.13229 h -0.26458 v 0.26458 h 0.26458 z m -12.7,-0.52917 v -0.39687 h -0.79375 v 0.44097 l 0.35278,0.35278 h 0.44097 z m 13.758,7.1918 v -2.7613 l 0.39687,-0.32938 0.39688,-0.32937 v -1.2581 h -0.86779 l 0.15446,-1.4965 0.15445,-1.4965 1.0603,-2.1663 0.25932,-0.88332 3.5515,-2.6886 h 0.71484 l 0.036,0.72761 0.036,0.7276 0.24284,-1.3229 1.008,-0.94665 v -0.70705 l 3.9229,-2.7119 h 0.3104 v 9.7076 l -1.0811,0.97839 0.18124,-0.51434 0.18125,-0.51433 -0.80569,0.79375 -0.14897,1.4552 -0.14896,1.4552 0.53984,-1.8178 0.22067,0.35706 0.22068,0.35706 0.32752,-1.0932 0.32751,-1.0932 0.4506,0.27849 v 1.1739 l -0.42432,0.60581 -0.42433,0.60582 -0.76633,-0.29407 0.3126,0.5058 -0.53943,0.33688 -0.53944,0.33688 v 0.72307 l 0.82836,-0.31786 -0.18247,0.59364 -0.18246,0.59365 -0.176,0.1976 -0.7755,-0.29758 0.15047,-0.57538 0.15046,-0.57538 -0.55048,0.29461 -0.55049,0.29461 h -0.3428 l 0.082,-1.7859 0.082,-1.7859 -0.18664,-0.13229 -0.18663,-0.1323 -1.0643,0.65778 -1.0643,0.65777 v 4.3164 l -0.88223,0.33855 0.63968,0.63968 0.47078,-0.76172 0.18401,0.73317 0.18402,0.73318 -0.27641,0.2764 -0.2764,0.27641 -0.6999,-1.1207 h -0.48422 l -1.9,1.4552 -1.5895,1.0812 -0.66145,0.40527 z m 4.7625,-1.6355 v -0.13229 h -0.26459 v 0.26458 h 0.26459 z m -0.52917,-1.0247 v -0.0987 l -1.1063,-2.501 0.13151,-0.50291 0.13152,-0.50292 h -0.74019 l -1.3269,1.1538 v 0.46497 l 0.52143,-0.32226 1.6971,2.4077 h 0.69189 z m -1.5875,-2.6795 v -0.13229 h 0.26458 v 0.26459 h -0.26458 z m 1.8521,-1.5875 0.32938,-0.39687 h -0.52917 l -0.32937,0.39687 -0.32938,0.39688 h 0.52917 z m 2.3997,-0.81592 0.34778,-0.41906 -0.27807,-0.44084 -0.27808,-0.44084 h -1.2076 l -0.26938,0.42706 -0.26939,0.42705 0.3322,0.86568 h 1.2747 z m -0.896,-2.2764 -0.13896,-0.34727 -0.0418,1.0142 0.15985,-0.15986 0.15985,-0.15985 z m 0,-1.3229 -0.13896,-0.34727 -0.0418,1.0142 0.3197,-0.3197 z m -24.053,5.4582 -0.14761,-0.14762 0.13437,-0.51384 0.13438,-0.51385 h 0.1596 l 0.77856,0.29876 -0.13392,0.51208 -0.13391,0.51208 h -0.64384 z m 31.016,-0.46975 v -0.61736 l 0.32758,-0.32758 0.36462,0.36461 0.36461,0.36462 -0.15984,0.41654 -0.15984,0.41653 h -0.73713 z m 3.8655,0.20083 -0.15984,-0.41654 0.37041,-0.37042 0.37042,-0.37041 0.15799,0.41171 0.15799,0.41172 v 0.75047 h -0.73714 z m -19.607,-5.8226 -1.5866,-1.1979 0.0638,-2.7731 -2.8054,0.0294 -0.3755,0.3755 -1.6472,-1.1547 -1.2462,-0.97523 -1.2462,-0.97523 7.6894,-5.7428 2.476,-1.8775 0.67213,-0.42005 0.67213,-0.42004 6.0641,4.4391 1.8521,1.4804 3.3073,2.2987 v 0.43224 l -4.3512,3.2722 -1.8665,0.0554 -0.008,1.3229 -3.696,2.778 -0.26458,-0.002 -0.41557,-0.99083 -0.41556,-0.99084 -1.164,2.249 -0.1216,-0.014 z m 6.8499,-3.2551 0.50077,-0.19655 0.0966,-0.88283 0.0967,-0.88284 -1.8302,-1.8014 -1.8302,-1.8014 -1.4067,-0.35304 -1.6745,0.48025 -1.2385,1.835 0.14985,0.75264 0.14985,0.75265 -1.1874,0.99065 0.89975,0.018 0.25604,-0.45752 0.25604,-0.45751 1.0111,0.91503 h 1.9427 l 0.99219,0.99218 0.7276,0.28896 1.5875,0.004 z"
       fill="#8b7373"
       id="path84" /><path
       d="m 185.01,165.73 -1.2095,-0.32611 -6.5768,-4.2059 -3.3073,-3.1987 v -2.1967 l 1.3266,-1.4847 0.60343,0.7276 0.60343,0.72761 h 0.37699 v -0.74966 l -0.45922,-0.1764 -0.16889,-0.54425 -0.16889,-0.54426 1.5478,-1.4828 0.31747,0.19621 0.31748,0.1962 -0.33256,4.5602 3.5771,2.5177 2.9104,2.0924 0.7276,0.17102 0.72761,0.17103 -0.001,-0.71882 2.4388,-3.5719 h 0.41118 l 0.12645,-0.66146 0.12645,-0.66145 -0.58808,-0.0626 -0.37783,0.0564 0.28874,-0.9197 -0.82041,1.0046 -0.40515,-0.33624 -0.40514,-0.33624 v 0.52916 l 0.74322,0.61682 -1.9338,4.1978 -0.32015,0.12628 -0.32016,0.12627 -4.1222,-2.9446 -1.118,-0.90896 -1.118,-0.90897 0.10043,-5.9595 0.10044,-5.9595 0.22794,-0.22794 3.13,2.2198 0.18108,0.26715 0.18109,0.26715 -0.13229,0.67392 -0.13228,0.67392 2.151,2.0286 0.15692,-0.40894 0.15693,-0.40893 0.49473,-0.15703 0.49473,-0.15702 1.2106,0.63588 2.4623,2.0457 -0.1341,0.51278 -0.13409,0.51277 1.1132,1.5633 v 2.961 h -0.79375 v 1.2966 l 0.40634,0.2274 0.40633,0.2274 -0.0756,2.8533 -0.0756,2.8533 -4.131,-3.0183 -0.16141,0.1614 -0.16141,0.16141 0.22048,0.1728 4.101,3.0491 v 0.21772 l -3.5719,-0.0358 z m 0.44082,-9.5514 0.81882,-0.19065 0.0904,-2.5513 -1.4024,-1.1031 h -0.779 l 0.27224,-0.70944 -0.45174,-0.73094 -0.35842,0.93404 0.3157,0.3157 -1.7049,0.8521 -0.36002,0.75797 -0.36003,0.75797 1.035,1.3945 0.63137,0.31967 0.63137,0.31968 0.40145,-0.0877 0.40146,-0.0877 z m 4.076,-0.27323 v -0.13229 h -0.26458 v 0.26458 h 0.26458 z m 1.0583,6.6626 v -2.7613 l 0.39687,-0.32938 0.39688,-0.32937 v -1.2581 h -0.86779 l 0.15446,-1.4965 0.15445,-1.4965 1.0603,-2.1663 0.25932,-0.88332 3.5515,-2.6886 h 0.71484 l 0.036,0.72761 0.036,0.7276 0.24284,-1.3229 1.008,-0.94665 v -0.70705 l 3.9229,-2.7119 h 0.3104 v 9.7076 l -1.0811,0.97839 0.18262,-0.51434 0.18262,-0.51433 -0.72891,0.67749 -0.32317,1.9102 -0.32318,1.9102 0.25182,0.0882 0.25181,0.0882 v 1.0142 h -0.79375 v -1.3415 l -0.51177,0.27389 -0.51178,0.27389 h -0.3428 l 0.082,-1.7859 0.082,-1.7859 -0.18664,-0.13229 -0.18663,-0.1323 -1.0643,0.65778 -1.0643,0.65777 v 4.373 h -0.41802 l -0.87002,-2.0232 -0.87001,-2.0232 0.12821,-0.49029 0.12822,-0.4903 h -0.74019 l -1.3269,1.1538 v 0.43374 l 0.59918,-0.1322 2.5758,3.6869 -0.006,0.81104 -1.7132,1.1696 -1.0583,0.75021 -1.0583,0.75021 -0.66145,0.40395 z m 4.4979,-6.9272 0.32938,-0.39687 h -0.52917 l -0.32937,0.39687 -0.32938,0.39688 h 0.52917 z m 2.3997,-0.81592 0.34778,-0.41906 -0.27807,-0.44084 -0.27808,-0.44084 h -1.2076 l -0.26938,0.42706 -0.26939,0.42705 0.3322,0.86568 h 1.2747 z m -0.896,-2.2764 -0.13896,-0.34727 -0.0418,1.0142 0.15985,-0.15986 0.15985,-0.15985 z m 0,-1.3229 -0.13896,-0.34727 -0.0418,1.0142 0.3197,-0.3197 z m -0.98853,11.665 -0.30518,-0.57023 0.69083,-0.42695 0.42214,0.2609 v 0.99587 l -0.25131,0.15532 -0.25131,0.15531 z m 5.6752,-6.4403 0.55651,-1.4165 0.19844,0.12065 0.19843,0.12065 v 1.0619 l -0.27064,0.50571 -0.27065,0.50571 -0.4843,0.25919 -0.48429,0.25918 z m -8.0424,0.77795 v -0.13229 h 0.26458 v 0.26459 h -0.26458 z m -20.638,-1.0583 v -0.66146 h 0.2213 l 0.77856,0.29876 -0.13392,0.51208 -0.13391,0.51208 h -0.73203 z m 30.956,0.17639 v -0.48507 l 0.31632,-0.31632 0.68354,0.2623 -0.13392,0.51208 -0.13391,0.51208 h -0.73203 z m 3.8558,0.0432 -0.16956,-0.44187 0.65412,-0.40426 0.42214,0.2609 v 1.0271 h -0.73714 z m -19.598,-5.7972 -1.5866,-1.1979 0.0638,-2.7731 -2.8054,0.0294 -0.3755,0.3755 -1.6472,-1.1547 -1.2462,-0.97523 -1.2462,-0.97523 7.6894,-5.7428 2.476,-1.8775 0.67213,-0.42005 0.67213,-0.42004 6.0641,4.4391 1.8521,1.4804 3.3073,2.2987 v 0.43224 l -4.3512,3.2722 -1.8665,0.0554 -0.008,1.3229 -3.696,2.778 -0.26458,-0.002 -0.41557,-0.99083 -0.41556,-0.99084 -1.164,2.249 -0.1216,-0.014 z m 6.8499,-3.2551 0.50077,-0.19655 0.0966,-0.88283 0.0967,-0.88284 -1.8302,-1.8014 -1.8302,-1.8014 -1.4067,-0.35304 -1.6745,0.48025 -1.2385,1.835 0.14985,0.75264 0.14985,0.75265 -1.1874,0.99065 0.89975,0.018 0.25604,-0.45752 0.25604,-0.45751 1.0111,0.91503 h 1.9427 l 0.99219,0.99218 0.7276,0.28896 1.5875,0.004 z"
       fill="#7c6292"
       id="path85" /><path
       d="m 185.01,165.73 -1.2095,-0.32611 -6.5768,-4.2059 -3.3073,-3.1987 v -2.1967 l 1.3266,-1.4847 0.60343,0.7276 0.60343,0.72761 h 0.37699 v -0.74966 l -0.45922,-0.1764 -0.16889,-0.54425 -0.16889,-0.54426 1.5478,-1.4828 0.31747,0.19621 0.31748,0.1962 -0.33256,4.5602 3.5771,2.5177 2.9104,2.0924 0.7276,0.17102 0.72761,0.17103 v -0.75554 l 1.0371,-1.4368 1.0371,-1.4368 0.83624,-0.92604 v -0.29266 l 1.3229,-1.9468 v 2.4424 l -1.0241,0.2678 0.14895,0.62456 0.14894,0.62456 0.37269,0.30076 0.37268,0.30076 -0.0757,2.6913 -0.0757,2.6913 -3.9294,-2.9414 h -0.43618 l 5.1e-4,0.19844 5.2e-4,0.19843 2.5125,1.7336 1.8521,1.5595 -3.7042,-0.0214 z m 5.5751,-3.314 v -2.6175 l 0.79375,-0.30459 v -1.5475 l -0.43267,-0.16603 -0.43266,-0.16603 0.17697,-1.5058 0.17698,-1.5058 0.43754,-0.28481 0.87291,-1.7038 -0.0688,-0.21241 -0.0688,-0.21242 2.1167,-1.8749 0.85809,-0.59463 0.85809,-0.59462 0.53278,0.32928 v 1.0583 l 0.56524,-0.34934 -0.14048,-0.36608 -0.14047,-0.36607 0.51931,-0.27793 0.51932,-0.27793 0.006,-0.586 0.006,-0.58601 3.9164,-2.7781 h 0.30423 v 1.8833 l -0.52917,-0.32704 v 1.3229 l 0.26459,0.16352 0.26458,0.16352 -0.008,5.1281 -0.41998,-0.66142 -0.8376,0.66142 -0.41277,2.9104 -0.41276,2.9104 0.50371,0.1764 v 1.0142 h -0.79375 v -1.3229 h -0.42333 l -0.28105,0.28105 -0.28106,0.28105 -0.16753,-1.0477 -0.16754,-1.0477 0.15774,-0.78873 0.15775,-0.78873 -0.2924,-0.18071 -0.29239,-0.18071 -1.0515,0.74394 -1.0515,0.74393 -0.006,2.1828 -0.006,2.1828 -0.39687,-0.004 -0.89104,-2.222 -0.89104,-2.222 0.3581,-0.57942 h -0.74004 l -0.60684,-1.3319 -1.5948,0.1216 0.008,0.40675 0.008,0.40674 0.77692,1.0272 v 0.95719 l 0.66146,0.01 2.5135,3.5093 v 0.92207 l -0.73774,0.2831 -1.5906,1.2097 -1.5906,1.2097 h -0.57893 z m 4.4979,-6.7752 0.32938,-0.39687 h -0.52917 l -0.32937,0.39687 -0.32938,0.39688 h 0.52917 z m 2.5992,-1.2764 0.0856,-0.74729 -1.0973,-0.28694 -0.0307,-0.56446 -0.0307,-0.56445 -0.25126,0.9741 -1.0224,1.0224 0.28822,0.53856 0.28823,0.53855 1.6846,-0.1632 z m -5.465,-0.7692 -0.27955,-0.27954 0.32772,1.2532 0.11569,-0.34705 0.11568,-0.34706 z m 4.3695,-2.3696 -0.13896,-0.34727 -0.0418,1.0142 0.3197,-0.3197 z m -0.98853,11.665 -0.30518,-0.57023 0.69083,-0.42695 0.42214,0.2609 v 0.99587 l -0.25131,0.15532 -0.25131,0.15531 z m -12.884,-2.836 -2.0882,-1.508 -1.0287,-0.82522 -1.0286,-0.82522 -0.0566,-2.7444 -0.0565,-2.7444 0.14792,-3.3557 0.14792,-3.3557 1.3825,0.86508 2.0119,1.547 -0.16366,0.74511 -0.16365,0.74511 0.55072,1.029 1.7823,1.0516 0.62241,-0.46949 0.62242,-0.46949 1.2536,0.47664 2.5518,2.1981 -0.39562,1.374 -1.1968,2.7781 -0.33172,-0.016 -1.015,-0.76804 0.53218,-1.1995 -0.2315,-0.8689 -0.23149,-0.86889 -0.89256,-0.42563 -0.89256,-0.42564 -0.27357,-0.55755 -0.27356,-0.55756 -0.33502,1.1123 -0.8794,0.41936 -0.8794,0.41935 -0.31441,0.9527 -0.31442,0.95269 0.69873,0.91608 0.69873,0.91609 h 2.7776 l 0.57652,-0.57652 0.6607,0.57447 0.66069,0.57447 -0.96218,2.0887 -0.96219,2.0887 -0.31158,0.12299 -0.31159,0.12299 z m 18.19,-2.5328 v -0.1034 l 0.97248,-2.1721 0.3408,0.3408 -0.16396,0.68833 -0.16396,0.68832 -0.26049,0.33073 -0.2605,0.33073 h -0.46437 z m -28.31,-1.3518 v -0.66146 h 0.2213 l 0.77856,0.29876 -0.13392,0.51208 -0.13391,0.51208 h -0.73203 z m 30.956,0.17639 v -0.48507 l 0.31632,-0.31632 0.68354,0.2623 -0.13392,0.51208 -0.13391,0.51208 h -0.73203 z m 3.8558,0.0432 -0.16956,-0.44187 0.65412,-0.40426 0.42214,0.2609 v 1.0271 h -0.73714 z m -18.408,-2.3363 V 153.921 h 0.26458 v 0.26459 h -0.26458 z m -1.2895,-3.5953 -1.3586,-1.0818 0.32132,-0.5199 -0.35018,-2.3352 -1.1595,-0.0302 -1.5875,-0.0728 -0.42846,0.19456 -0.42847,0.19456 -3.3387,-2.5629 -0.1578,-0.50988 8.8154,-6.6146 2.1527,-1.4529 0.5568,-0.002 8.9682,6.6357 1.9719,1.4341 0.006,0.18044 0.006,0.18043 -4.3132,3.211 h -1.9802 l -0.15229,0.39687 -0.1523,0.39688 0.14079,0.36689 0.14079,0.3669 -1.7534,1.2315 -0.0882,0.20799 -0.0882,0.208 h -0.66764 l -0.98306,1.0863 -0.57474,-1.1266 -0.57474,-1.1266 -0.56761,1.1126 -0.56762,1.1126 h -0.44929 z m 7.0281,-3.0913 0.57928,-0.45714 0.16975,-0.69868 0.16976,-0.69869 -3.267,-3.6297 -0.70301,-0.31879 -0.70301,-0.3188 -1.525,-0.0238 -0.85999,0.53151 -0.86,0.53151 -0.33808,0.81618 -0.33807,0.81619 0.4989,1.4056 -1.0756,0.95146 1.6694,-0.32098 0.17309,0.28008 0.1731,0.28007 h 2.35 l 0.99219,0.99219 0.3638,0.14447 0.3638,0.14448 1.5875,0.03 z"
       fill="#6c4f8b"
       id="path86" /><path
       d="m 185.01,165.73 -1.2095,-0.32611 -6.5768,-4.2059 -3.3073,-3.1987 v -2.1967 l 1.3266,-1.4847 0.60343,0.7276 0.60343,0.72761 h 0.37699 v -0.74966 l -0.45922,-0.1764 -0.16889,-0.54425 -0.16889,-0.54426 1.5478,-1.4828 0.31747,0.19621 0.31748,0.1962 -0.33256,4.5602 3.5771,2.5177 2.9104,2.0924 0.7276,0.17102 0.72761,0.17103 v -0.75177 l 2.5113,-3.4066 0.39909,-0.1764 0.01,-0.30869 0.01,-0.30868 1.3013,-1.5875 0.001,0.88364 0.001,0.88363 -0.56905,0.46079 -0.56906,0.46079 0.35444,1.4122 h 0.78367 v 5.6013 l -2.7781,-2.0093 -1.4487,-1.0409 -0.35928,0.35928 0.22048,0.1728 4.101,3.0491 v 0.21772 l -3.5719,-0.0358 z m 5.5751,-3.169 v -2.4725 l 0.52916,-0.47889 0.52917,-0.47889 v -0.97183 l -0.52917,-0.33047 -0.52916,-0.33047 v -1.429 l 0.21603,-0.13352 0.21604,-0.13352 0.9214,1.5598 -0.14459,0.23396 -0.1446,0.23396 0.9502,0.24848 1.2417,1.6518 1.2417,1.6518 v 0.70496 l -4.0351,2.9468 h -0.46285 z m 5.013,0.32963 -0.30518,-0.57023 0.69083,-0.42695 0.42214,0.2609 v 0.99587 l -0.25131,0.15532 -0.25131,0.15531 z m -13.862,-3.5966 -3.0574,-2.272 -0.0146,-1.2198 -0.0146,-1.2198 0.0288,-3.148 0.0288,-3.148 0.76552,-1.1126 0.76552,-1.1126 -0.63338,-0.6852 2.4961,1.6792 -0.29832,0.65475 -0.29833,0.65475 0.60972,1.3382 1.8017,1.063 -0.24948,0.95404 -1.9552,0.86261 -0.58686,1.5548 0.13161,0.68847 0.13161,0.68846 0.80924,0.68093 0.80924,0.68094 1.2099,-0.10774 1.2099,-0.10773 0.39688,-0.17178 0.39687,-0.17177 0.99858,0.75794 -0.87341,2.1155 -0.87341,2.1155 -0.67749,0.25998 z m 13.611,1.559 v -0.47625 l -0.44666,-0.50271 -0.59516,-1.5066 -0.59516,-1.5066 0.17264,-0.27934 0.17265,-0.27935 h -0.5792 l -1.0784,-2.5135 -0.13631,-0.67944 -0.13631,-0.67945 1.4057,-1.6705 2.3834,-1.6085 0.24559,0.15178 0.24558,0.15178 v 1.0271 h 0.52917 v -0.88438 l 0.83376,-0.92129 0.0536,-0.35394 0.0536,-0.35393 0.20853,-0.33384 0.20853,-0.33383 3.1774,-2.1105 h 0.333 l -0.635,0.635 0.004,1.614 0.79049,1.5157 -0.0348,1.0942 -0.0348,1.0942 -0.18326,-0.92604 -0.18327,-0.92605 -0.16836,0.66146 -0.16837,0.66146 -0.5466,2.9104 -0.76656,5.5562 0.49858,0.1764 v 1.0142 h -0.79375 v -1.3229 h -0.42333 l -0.635,0.635 -0.037,-1.0451 -0.037,-1.0451 0.1194,-1.9844 h -0.58602 l -2.1053,1.3932 v 4.4276 h -0.52916 z m -0.0584,-5.2276 0.5885,-0.41221 0.55832,0.34506 0.61723,-0.15492 0.61724,-0.15491 0.16747,-0.43644 0.16748,-0.43643 -0.31224,-0.98378 h -0.75809 v -1.0583 h -0.52917 v 0.67615 l -1.1066,0.94752 0.16147,0.64337 0.16148,0.64338 h -0.73904 l -0.32937,0.39687 -0.32938,0.39688 h 0.47622 z m 1.6459,-4.3659 v -0.24896 h -0.52917 v 0.82498 l 0.26458,-0.16353 0.26459,-0.16352 z m 3.9688,6.2899 v -0.0944 l 1.0372,-2.0789 0.0105,0.85059 0.0105,0.85058 -0.52917,0.28321 -0.52916,0.2832 z m -28.31,-1.3795 v -0.66146 h 0.2213 l 0.77856,0.29876 -0.13392,0.51208 -0.13391,0.51208 h -0.73203 z m 30.956,0.17639 v -0.48507 l 0.31632,-0.31632 0.68354,0.2623 -0.13392,0.51208 -0.13391,0.51208 h -0.73203 z m 3.8558,0.0432 -0.16956,-0.44187 0.65412,-0.40426 0.42214,0.2609 v 1.0271 h -0.73714 z m -20.563,-0.26442 -0.43569,-0.11573 0.38797,-0.77772 0.38798,-0.77772 -0.18114,-0.59721 -0.18113,-0.59721 -0.52385,-0.57292 -0.52384,-0.57293 -0.60476,-0.15178 -0.60475,-0.15179 -0.14052,-0.53735 -0.14052,-0.53736 0.75722,-0.39158 0.75723,-0.39158 0.42315,0.016 2.3485,2.0897 0.196,0.938 0.0248,0.26458 0.0248,0.26459 -1.2041,2.7781 -0.33172,-0.0614 z m 1.0998,-5.5645 -1.1879,-0.93835 0.0829,-0.63218 0.0828,-0.63218 -0.29407,-0.89105 -0.29408,-0.89105 -2.3566,-0.65979 -1.1726,0.77861 -1.6678,-0.984 -0.97086,-1.0728 0.51434,0.16052 0.51433,0.16052 -1.5875,-0.93826 -0.43621,0.124 0.33064,-0.53498 10.572,-7.9448 h 0.74339 l 3.8711,3.0706 3.175,2.2213 1.5875,1.1843 2.2679,1.7768 -4.3057,3.3648 -0.76637,-0.15327 -0.76636,-0.15328 -0.92736,0.70182 0.66146,-0.74177 -3.5e-4,-0.93927 -3.6e-4,-0.93927 -3.5712,-3.8916 -1.2193,-0.13488 -1.2193,-0.13489 -1.9503,0.92548 -0.83014,1.6053 0.311,2.2691 -0.51588,0.31883 v 0.5336 l 0.51594,-0.16376 0.51594,-0.16375 0.78828,0.40763 0.78827,0.40764 1.7043,-0.34087 0.339,0.46361 0.33899,0.46361 -0.13907,0.4373 -0.13908,0.4373 0.2234,-0.26458 0.22339,-0.26458 3.0427,-0.014 v 0.67479 h 0.5604 l -0.15317,0.24782 -0.15317,0.24783 -1.6583,0.82726 h -0.42381 l -1.3896,-1.3896 -0.62751,0.33584 -0.62751,0.33583 -0.26469,0.75931 -0.2647,0.7593 -0.86321,0.33125 0.70582,0.44742 -0.26458,-0.0164 -0.26458,-0.0163 z m 6.6119,-1.5344 v -0.13229 h -0.26459 v 0.26458 h 0.26459 z m -15.61,-3.9688 v -0.13229 h 0.26458 v 0.26458 h -0.26458 z"
       fill="#65556c"
       id="path87" /><path
       d="m 185.64,165.82 -1.1043,-0.21835 -1.6122,-0.8337 -5.4397,-3.5193 -2.8133,-2.3905 -0.37927,-0.73343 -0.37927,-0.73344 0.002,-1.2169 0.52428,-0.8599 0.52429,-0.85989 h 0.54829 l 0.60276,1.3229 h 0.77053 l -0.18451,-0.59532 -0.18451,-0.59531 -0.13455,-0.55753 -0.13456,-0.55753 1.5025,-1.1845 0.26458,5.0086 6.0506,4.5204 1.4213,0.28426 0.12856,0.49163 0.12857,0.49164 1.4272,0.96878 1.4272,0.96879 0.66146,0.53156 0.66146,0.53157 -3.175,-0.0462 z m 2.2288,-2.0325 -2.0505,-1.4902 0.005,-0.41561 0.005,-0.4156 2.9002,-3.8609 0.02,-0.37242 1.3013,-1.5875 0.001,0.88364 10e-4,0.88363 -0.56905,0.46079 -0.56906,0.46079 0.35444,1.4122 h 0.78367 v 5.5562 l -0.1322,-0.025 z m 2.712,-1.222 v -2.4725 l 0.52916,-0.47889 0.52917,-0.47889 v -0.97183 l -0.52917,-0.33047 -0.52916,-0.33047 v -1.429 l 0.21603,-0.13352 0.21604,-0.13352 0.9214,1.5598 -0.16318,0.26404 -0.16319,0.26404 h 0.77489 l 2.6959,3.6366 v 0.56038 l -4.0351,2.9468 h -0.46285 z m 4.9549,0.10837 -0.13392,-0.51208 0.73528,-0.28215 v 0.46928 l 0.1606,0.41851 0.16059,0.41852 h -0.78864 z m -13.782,-3.3592 -3.0791,-2.2881 -0.0146,-1.2198 -0.0146,-1.2198 0.0288,-3.148 0.0288,-3.148 0.76552,-1.1126 0.76552,-1.1126 -0.63338,-0.6852 2.4961,1.6792 -0.29832,0.65475 -0.29833,0.65475 0.60972,1.3382 1.8017,1.063 -0.24948,0.95404 -1.9552,0.86261 -0.58686,1.5548 0.13161,0.68847 0.13161,0.68846 0.80924,0.68093 0.80924,0.68094 1.2099,-0.10774 1.2099,-0.10773 0.39688,-0.17178 0.39687,-0.17177 0.49841,0.37832 0.4984,0.37832 -1.764,4.0139 -0.30758,0.25528 -0.30759,0.25527 z m 13.747,1.6223 -0.23923,-0.52917 -1.5213,-3.4146 0.13172,-0.34324 0.13171,-0.34324 h -0.53136 l -1.0784,-2.5135 -0.13631,-0.67944 -0.13631,-0.67945 1.4057,-1.6705 2.3834,-1.6085 0.24559,0.15178 0.24558,0.15178 v 1.0271 h 0.52917 v -0.88438 l 0.83376,-0.92129 0.0536,-0.35394 0.0536,-0.35393 0.20853,-0.33384 0.20853,-0.33383 3.1774,-2.1105 h 0.333 l -0.635,0.635 0.004,1.614 0.79049,1.5157 -0.0348,1.0942 -0.0348,1.0942 -0.18326,-0.92604 -0.18327,-0.92605 -0.3541,1.3229 -0.5309,3.0228 -0.53089,3.0228 v 1.5202 l -1.4059,1.3029 -0.11417,-0.11417 -0.11416,-0.11417 v -3.7457 h -0.49383 l -1.0428,0.69008 -1.0428,0.69008 -0.0761,2.2865 -0.0761,2.2865 z m -0.21594,-5.307 0.5885,-0.41221 0.55832,0.34506 0.61723,-0.15492 0.61724,-0.15491 0.16747,-0.43644 0.16748,-0.43643 -0.31224,-0.98378 h -0.75809 v -1.0583 h -0.52917 v 0.67615 l -1.1066,0.94752 0.16147,0.64337 0.16148,0.64338 h -0.73904 l -0.32937,0.39687 -0.32938,0.39688 h 0.47622 z m 1.6459,-4.3659 v -0.24896 h -0.52917 v 0.82498 l 0.26458,-0.16353 0.26459,-0.16352 z m 2.6458,8.5043 v -0.55121 h 0.83255 l -0.0855,0.44109 -0.0855,0.4411 -0.66146,0.22024 z m 1.76,-3.1282 0.4123,-0.99488 0.10448,-0.11024 0.10449,-0.11024 v 1.6571 l -1.0336,0.55316 z m -28.704,-0.37009 0.0884,-0.62479 0.26459,0.0661 0.26458,0.0661 v 0.88194 l -0.70599,0.23533 z m 31.071,0.34343 -0.187,-0.30257 0.43312,-0.77394 0.32691,0.20204 0.3269,0.20204 -0.35646,0.4875 -0.35647,0.4875 z m 3.7382,-0.28967 -0.13391,-0.51208 0.69148,-0.26534 0.15505,0.40404 0.15505,0.40405 -0.14877,0.2407 -0.14876,0.24071 h -0.43622 z m -20.604,-0.19421 -0.43569,-0.11573 0.38797,-0.77772 0.38798,-0.77772 -0.18114,-0.59721 -0.18113,-0.59721 -0.52385,-0.57292 -0.52384,-0.57293 -0.60476,-0.15178 -0.60475,-0.15179 -0.14052,-0.53735 -0.14052,-0.53736 0.75722,-0.39158 0.75723,-0.39158 0.42315,0.016 2.3485,2.0897 0.196,0.938 0.0248,0.26458 0.0248,0.26459 -1.2041,2.7781 -0.33172,-0.0614 z m 1.0998,-5.5645 -1.1879,-0.93835 0.0829,-0.63218 0.0828,-0.63218 -0.29407,-0.89105 -0.29408,-0.89105 -2.3566,-0.65979 -1.1726,0.77861 -1.6678,-0.984 -0.97086,-1.0728 0.51434,0.16052 0.51433,0.16052 -1.5875,-0.93826 -0.43621,0.124 0.33064,-0.53498 10.572,-7.9448 h 0.74339 l 3.8711,3.0706 3.175,2.2213 1.5875,1.1843 2.2679,1.7768 -4.3057,3.3648 -0.76637,-0.15327 -0.76636,-0.15328 -0.92736,0.70182 0.66146,-0.74177 -3.5e-4,-0.93927 -3.6e-4,-0.93927 -3.5712,-3.8916 -1.2193,-0.13488 -1.2193,-0.13489 -1.9503,0.92548 -0.83014,1.6053 0.311,2.2691 -0.51588,0.31883 v 0.5336 l 0.51594,-0.16376 0.51594,-0.16375 0.78828,0.40763 0.78827,0.40764 1.7043,-0.34087 0.339,0.46361 0.33899,0.46361 -0.13907,0.4373 -0.13908,0.4373 0.2234,-0.26458 0.22339,-0.26458 3.0427,-0.014 v 0.67479 h 0.5604 l -0.15317,0.24782 -0.15317,0.24783 -1.6583,0.82726 h -0.42381 l -1.3896,-1.3896 -0.62751,0.33584 -0.62751,0.33583 -0.26469,0.75931 -0.2647,0.7593 -0.86321,0.33125 0.70582,0.44742 -0.26458,-0.0164 -0.26458,-0.0163 z m 6.6119,-1.5344 v -0.13229 h -0.26459 v 0.26458 h 0.26459 z m -15.61,-3.9688 v -0.13229 h 0.26458 v 0.26458 h -0.26458 z"
       fill="#5a3883"
       id="path88" /><path
       d="m 185.64,165.82 -1.1043,-0.21835 -1.6122,-0.8337 -5.4397,-3.5193 -2.8133,-2.3905 -0.37927,-0.73343 -0.37927,-0.73344 0.002,-1.2169 0.52428,-0.8599 0.52429,-0.85989 h 0.54829 l 0.60276,1.3229 h 0.77053 l -0.18451,-0.59532 -0.18451,-0.59531 -0.13455,-0.55753 -0.13456,-0.55753 1.5025,-1.1845 0.26458,5.0086 6.0506,4.5204 1.4213,0.28426 0.12856,0.49163 0.12857,0.49164 1.4272,0.96878 1.4272,0.96879 0.66146,0.53156 0.66146,0.53157 -3.175,-0.0462 z m 2.2324,-2.0464 -2.0468,-1.5137 -0.008,-0.65022 2.7108,-3.7154 h 0.46415 l 0.004,-0.66146 1.0514,-1.5875 0.004,1.9487 -1.0583,0.3359 v 1.5218 l 0.92604,0.69146 0.16,5.1594 -0.16,-0.016 z m 2.7334,-1.1428 -0.004,-2.4527 0.51855,-0.36321 0.51855,-0.3632 v -1.3404 l -1.1256,-0.91142 0.19771,-0.62291 0.1977,-0.62292 0.93989,1.246 -0.26636,0.6941 h 0.80791 l 1.3442,1.848 1.3441,1.848 v 0.49481 l -3.7353,2.7169 -0.73354,0.28149 z m 4.9298,0.043 -0.13392,-0.51208 0.73528,-0.28215 v 0.46928 l 0.1606,0.41851 0.16059,0.41852 h -0.78864 z m -11.966,-2.05 -1.3229,-0.92049 -3.5719,-2.7066 v -8.6836 l 0.84478,-1.0964 0.84479,-1.0964 0.1166,-0.1746 0.64512,0.4227 0.64513,0.42271 -0.12778,1.3298 -0.12777,1.3298 0.99559,0.79518 1.423,0.54518 -0.1396,0.36381 -0.1396,0.3638 -1.7829,0.58842 -0.57559,0.93133 -0.5756,0.93134 0.31425,1.0489 0.31424,1.0489 0.84549,0.52768 0.84548,0.52768 2.3812,-0.21885 1.0583,-0.33954 0.33843,0.22225 0.33842,0.22225 -1.6531,3.928 -0.61128,0.60734 z m 11.934,0.31315 -0.23645,-0.52917 -0.71361,-1.7198 -0.7136,-1.7198 0.22452,-0.66146 h -0.49388 l -0.73754,-1.7354 -0.73753,-1.7354 0.73422,-1.3739 2.772,-2.0936 0.79986,0.30694 v 0.81036 h 0.52917 v -0.93104 l 1.0583,-0.66095 v -1.2556 l 1.8168,-1.3857 h 0.52131 l 0.5373,0.86936 0.53729,0.86936 -1.336,9.5061 -0.10917,0.56284 -0.10917,0.56285 -1.3291,0.87088 v -3.981 h -0.54052 l -1.0428,0.69008 -1.0428,0.69008 -0.0761,2.2865 -0.0761,2.2865 z m -0.19774,-5.2466 0.29196,-0.35179 1.6024,0.23518 0.7889,-0.65473 v -1.2281 l -0.48045,-0.34573 -0.48044,-0.34573 -0.44392,-1.0583 -0.2459,1.0528 -0.49756,0.34851 -0.49756,0.3485 v 1.1265 l -1.1506,1.2247 h 0.8212 z m 1.6249,-4.2628 v -0.38126 l -0.52917,-0.32705 v 1.0896 h 0.52917 z m 2.6458,8.3408 v -0.55121 h 0.83255 l -0.0855,0.44109 -0.0855,0.4411 -0.66146,0.22024 z m 1.7374,-2.9807 0.44657,-0.87779 0.0986,-0.11025 0.0986,-0.11024 v 1.3925 l -0.54522,0.2918 -0.54521,0.29179 z m -28.681,-0.51759 0.0884,-0.62479 0.26459,0.0661 0.26458,0.0661 v 0.88194 l -0.70599,0.23533 z m 31.071,0.34343 -0.187,-0.30257 0.43312,-0.77394 0.32691,0.20204 0.3269,0.20204 -0.35646,0.4875 -0.35647,0.4875 z m 3.7382,-0.28967 -0.13391,-0.51208 0.69148,-0.26534 0.15505,0.40404 0.15505,0.40405 -0.14877,0.2407 -0.14876,0.24071 h -0.43622 z m -20.406,-0.23801 -0.13654,-0.22093 0.59946,-1.9532 -0.53097,-0.7207 -0.53097,-0.72071 -1.9401,-1.0583 -7.2e-4,-0.31135 -7.1e-4,-0.31135 0.84258,-0.42034 0.84258,-0.42033 1.2741,1.3571 1.2741,1.3571 0.004,0.8659 -0.5969,1.3845 -0.59691,1.3846 -0.36565,0.01 z m 0.2376,-6.1291 -0.47888,-0.52916 h 0.81404 l 0.13838,0.52916 0.13838,0.52917 h -0.133 z m 7.4083,-1.0583 0.16352,-0.26458 h 0.23335 v 0.52916 h -0.56039 z m 7.0115,0.13229 v -0.13229 h 0.26458 v 0.26458 h -0.26458 z m -14.426,-1.0343 -0.42802,-0.90199 -0.98218,-0.88886 -0.91057,-0.20536 -0.91057,-0.20537 -1.5816,0.665 -1.6624,-1.0526 0.18125,-0.30494 0.18126,-0.30495 1.5658,-1.9698 -0.33813,-0.40741 -0.33812,-0.40741 -0.72354,0.60048 v -0.5583 l 0.59531,-0.20199 0.59532,-0.20199 0.79375,0.1258 -0.34114,-0.23151 -0.34113,-0.23152 6.2385,-4.759 1.6826,-0.97759 4.0969,3.1348 2.9518,2.0038 1.3689,1.4358 0.35623,0.0823 0.35622,0.0823 2.0197,1.5996 v 0.25578 l -1.1384,-0.36131 0.14228,0.37077 0.14228,0.37078 -1.9004,-0.22186 0.90696,0.90695 -0.22592,0.36554 -1.1462,0.79827 -1.1462,0.79826 -1.1247,-0.1808 -0.13464,-1.0038 -0.13464,-1.0038 -1.6487,-1.6866 v -0.73043 l -2.5844,-1.8972 h -2.1951 l -1.7462,0.72962 -0.57094,0.72584 -0.57094,0.72583 0.0478,1.8287 0.0478,1.8287 0.3295,-0.12645 0.3295,-0.12644 1.3079,1.0288 h 0.53389 l 0.22844,0.66146 -1.375,0.92255 -0.37204,0.004 z m 11.516,-4.8905 v -0.50086 l -0.39688,-0.15229 -0.39687,-0.1523 v 0.95353 l 0.35278,0.35278 h 0.44097 z m 0.79375,-0.40956 v -0.11668 l -0.61093,-0.37758 0.18879,0.30547 0.18879,0.30546 h 0.23335 z m -9.6097,5.4242 -0.38804,-0.77786 0.29636,-0.29636 h 1.2035 l 0.2996,0.48476 -0.25993,0.68366 -0.25992,0.68366 h -0.50351 z"
       fill="#4e2d78"
       id="path89" /><path
       d="m 185.64,165.82 -1.1043,-0.21835 -1.6122,-0.8337 -5.4397,-3.5193 -2.8133,-2.3905 -0.37927,-0.73343 -0.37927,-0.73344 0.002,-1.2169 0.52428,-0.8599 0.52429,-0.85989 h 0.54829 l 0.60276,1.3229 h 0.77053 l -0.18451,-0.59532 -0.18451,-0.59531 -0.13455,-0.55753 -0.13456,-0.55753 1.5025,-1.1845 0.26458,5.0086 6.0506,4.5204 1.4213,0.28426 0.12856,0.49163 0.12857,0.49164 1.4272,0.96878 1.4272,0.96879 0.66146,0.53156 0.66146,0.53157 -3.175,-0.0462 z m 2.2476,-2.0497 -2.0316,-1.5104 -0.0189,-0.28106 -0.0189,-0.28105 1.2505,-1.7033 1.2505,-1.7033 0.33696,-0.21159 0.33697,-0.21158 v -0.49008 l 0.52817,-0.8663 0.52818,-0.86629 0.002,1.9844 h -0.77513 l -0.30111,0.56263 -0.30112,0.56264 0.28613,0.62799 0.28614,0.62799 0.6728,8.9e-4 0.1378,5.2908 -0.1378,-0.0218 z m 2.9444,1.0849 -0.0132,-0.21405 -0.10887,-2.144 -0.10886,-2.144 1.3025,-1.1325 v -0.79725 l -1.0583,-1.0583 v -1.3815 l 0.99759,1.232 -0.13023,0.33937 -0.13023,0.33936 0.71808,0.0218 2.5344,3.429 0.14259,0.37158 0.14259,0.37159 -0.74835,0.4766 -0.74836,0.4766 -0.26458,0.27982 -1.8521,1.3574 -0.33073,0.19531 -0.33073,0.1953 z m 4.7035,-2.1813 -0.13392,-0.51208 0.73528,-0.28215 v 0.46928 l 0.1606,0.41851 0.16059,0.41852 h -0.78864 z m -13.75,-3.4076 -3.107,-2.298 -0.002,-4.2481 -0.002,-4.2481 0.67935,-0.9113 0.67936,-0.9113 0.41696,-0.72372 1.389,0.9101 -0.51884,0.96946 v 1.5752 l 0.81405,0.68497 0.81405,0.68498 h 0.75315 v 0.79375 h -1.2822 l -0.8141,0.81411 -0.81411,0.8141 0.004,0.97183 0.004,0.97184 0.66834,1.3229 1.8374,0.90063 1.3906,0.0254 0.91853,-0.38379 0.91852,-0.38378 0.275,0.27499 0.27499,0.27499 -0.85956,1.9767 -0.85956,1.9767 -0.2355,0.23166 -0.2355,0.23165 z m 13.057,-0.0592 -0.84042,-2.1268 0.0754,-0.45292 0.0754,-0.45293 -0.2858,0.0512 -0.28581,0.0512 -0.68449,-1.7419 -0.68448,-1.7419 1.0824,-1.6512 1.1869,-0.91113 1.1869,-0.91112 0.37715,0.51578 0.37714,0.51577 -0.0766,0.63968 -0.0766,0.63967 0.7071,0.23778 -0.1042,-1.2499 0.0293,-0.56445 0.0293,-0.56446 1.0583,-0.27676 v -1.5651 l 2.1308,-1.4767 0.7758,1.0078 0.17455,0.64184 0.17455,0.64185 -0.71329,5.0467 -0.7133,5.0467 -1.1677,0.89863 -0.144,-3.5445 -0.12483,-0.3483 -0.12483,-0.34829 -1.1922,0.85617 -1.1922,0.85616 -0.0497,0.81505 -0.0497,0.81504 0.0724,1.3891 0.0724,1.3891 h -0.23529 z m 0.49122,-3.5499 0.31955,-0.38502 0.98055,0.61236 1.3468,-0.72079 0.15133,-0.47681 0.15134,-0.47681 -0.5771,-1.0783 h -0.71342 l -0.16738,-0.59531 -0.16737,-0.59531 -0.58042,0.98575 -1.0476,1.0476 0.13496,0.51607 0.13495,0.51608 -1.0147,0.63371 v 0.40188 h 0.72896 z m 4.2432,4.1112 v -0.55121 h 0.83255 l -0.0855,0.44109 -0.0855,0.4411 -0.66146,0.22024 z m 1.8102,-2.8723 0.23495,-0.45707 0.14716,-0.39687 0.14715,-0.39688 0.0418,1.3986 -0.806,0.30929 z m -28.754,-0.62603 0.0884,-0.62479 0.26459,0.0661 0.26458,0.0661 v 0.88194 l -0.70599,0.23533 z m 31.071,0.34343 -0.187,-0.30257 0.43312,-0.77394 0.32691,0.20204 0.3269,0.20204 -0.35646,0.4875 -0.35647,0.4875 z m 3.7382,-0.28967 -0.13391,-0.51208 0.69148,-0.26534 0.15505,0.40404 0.15505,0.40405 -0.14877,0.2407 -0.14876,0.24071 h -0.43622 z m -20.135,-0.57927 0.22214,-0.62844 -0.0152,-0.8597 -0.0152,-0.85971 -1.2832,-1.3915 -1.7198,-0.73265 v -0.41576 l 0.87868,-0.31774 0.87868,-0.31773 h 0.34261 l 1.0895,1.4748 1.0895,1.4748 -1.169,2.8803 -0.52074,0.32184 z m 3.0426,-7.3135 -0.29766,-0.55618 v -0.56395 h 1.0271 l 0.1247,0.20176 0.12469,0.20175 -0.68118,1.2728 z m 6.0523,-1.4677 v -0.083 l 0.6338,-1.3061 0.63381,-1.3061 -0.10737,-0.11298 -0.10737,-0.11297 -0.65759,0.8993 -0.72474,-0.33667 -0.72475,-0.33668 -0.004,-0.66146 h -0.51404 l -0.22272,-0.85949 -0.22271,-0.85949 -0.93964,-0.181 -1.8789,-1.2751 h -2.0598 l -0.8514,0.36278 -0.8514,0.36277 -0.63952,0.69353 -0.63952,0.69352 -0.12085,1.4572 -0.12084,1.4572 h 0.65948 l -0.64952,0.78263 -0.96798,-0.51805 h -1.6295 l -0.99041,0.61852 -1.6482,-0.68272 v -0.48767 l 2.1167,-2.8035 v -0.45212 l 0.71096,-0.74209 0.71096,-0.74208 h -0.72066 l 3.1352,-2.4068 0.8057,-0.65993 1.264,-0.86965 1.264,-0.86964 0.71441,0.45796 0.71441,0.45797 1.5875,1.2305 1.5875,1.2305 1.3229,0.90043 1.3229,0.90044 0.6425,0.62986 -0.51968,0.1359 -0.51969,0.1359 v 1.0506 l 2.4488,2.7237 -0.1998,0.1382 -1.7604,1.4286 h -1.2823 z"
       fill="#421c71"
       id="path90" /><path
       d="m 185.64,165.82 -1.1043,-0.21835 -1.6122,-0.8337 -5.4397,-3.5193 -2.8133,-2.3905 -0.40501,-0.78322 -0.40502,-0.78321 0.16188,-0.80942 0.16189,-0.80942 0.39912,-0.60915 0.39913,-0.60914 h 0.52831 l 0.60276,1.3229 h 0.77053 l -0.18451,-0.59532 -0.18451,-0.59531 -0.13455,-0.55753 -0.13456,-0.55753 1.5025,-1.1845 0.26458,5.0086 6.0506,4.5204 1.4901,0.29802 v 0.76452 l 3.8365,2.7576 0.25136,0.22992 0.25135,0.22992 -3.1485,-0.058 z m 2.2386,-2.1725 -2.0406,-1.5917 0.29749,-0.55942 0.29748,-0.55942 2.0781,-2.8192 0.20114,0.20114 0.1262,1.6555 0.28711,-0.026 0.59853,0.0626 0.1898,2.5316 0.1898,2.5316 -0.1844,0.1652 z m 2.963,-0.24757 -0.004,-1.6693 -0.15419,-0.57488 -0.15419,-0.57487 1.3739,-1.1946 v -1.4921 l 0.39688,0.0268 1.4396,2.0181 1.4396,2.0181 -0.98073,0.56718 -0.85765,0.79375 -0.91731,0.68021 -0.91731,0.6802 -0.33073,0.19531 -0.33073,0.1953 z m 0.53278,0.97657 v -0.13229 h -0.26459 v 0.26459 h 0.26459 z m 4.1611,-1.7027 -0.13392,-0.51208 0.73528,-0.28215 v 0.46928 l 0.1606,0.41851 0.16059,0.41852 h -0.78864 z m -13.875,-3.5228 -2.9554,-2.1828 -0.0304,-8.3905 1.6896,-2.1928 0.0446,-0.0736 0.0446,-0.0735 1.5107,0.57436 -0.68365,0.42252 -0.1367,1.0303 -0.13669,1.0303 0.61978,0.57774 0.61977,0.57774 1.5289,0.7911 -0.96438,0.18092 -0.96438,0.18091 -0.65996,0.78433 -0.65997,0.78432 v 1.8285 l 0.36625,0.87656 0.36625,0.87657 1.0943,0.43785 1.0943,0.43786 h 1.0369 l 1.0747,-0.43 1.0747,-0.42999 0.31363,0.31363 -0.87745,2.1253 -0.87746,2.1253 h -0.57705 z m 13.209,-0.0569 -0.84932,-1.9751 v -0.53547 l 1.3119,-0.85957 2.1541,-0.0786 -1.8061,1.4485 0.0704,1.9877 0.0704,1.9878 h -0.1022 z m 4.7069,0.67425 v -0.55121 h 0.83255 l -0.0855,0.44109 -0.0855,0.4411 -0.66146,0.22024 z m -1.0583,-2.3592 v -1.808 l -0.38116,-0.38116 0.1554,-1.8039 -0.66574,-0.16708 -0.66573,-0.16709 -0.1626,-1.1409 0.0903,-1.0927 0.0903,-1.0927 0.65179,-0.34883 0.65178,-0.34882 -0.0769,-0.73316 -0.0769,-0.73315 0.90761,-0.66962 0.90762,-0.66961 h 0.0622 l 1.1644,1.575 -0.54418,4.9073 -0.86804,5.5562 -0.79305,0.92604 h -0.44715 z m -9.525,0.19832 v -0.29124 l 0.52916,-0.67273 0.52917,-0.67272 v 1.267 l -1.0583,0.66094 z m 2.1376,-0.0849 -0.32923,-0.39669 0.176,-0.84236 0.43259,0.50824 0.43259,0.50825 -0.19136,0.30962 -0.19136,0.30963 z m 10.335,-0.78285 0.33954,-0.75761 0.21372,0.64116 -0.8928,0.87407 z m -28.833,-0.46968 0.0884,-0.62479 0.26459,0.0661 0.26458,0.0661 v 0.88194 l -0.70599,0.23533 z m 31.071,0.34343 -0.187,-0.30257 0.43312,-0.77394 0.32691,0.20204 0.3269,0.20204 -0.35646,0.4875 -0.35647,0.4875 z m 3.7382,-0.28967 -0.13391,-0.51208 0.69148,-0.26534 0.15505,0.40404 0.15505,0.40405 -0.14877,0.2407 -0.14876,0.24071 h -0.43622 z m -20.301,-0.26606 v -0.24896 l 0.52311,-0.3233 -0.15757,0.41062 -0.15757,0.41061 h -0.20797 z m 6.0764,-1.0078 -0.31459,-0.99219 -0.76158,-1.2129 1.601,-2.0214 1.9102,-1.457 0.53676,0.53676 0.1226,2.3024 -0.22394,0.87712 -1.0094,0.26397 v 1.8408 l -1.3043,0.85461 h -0.24216 z m -5.4429,-0.62396 -0.001,-0.89739 -0.50342,-0.76519 -0.50341,-0.76519 -2.0552,-0.92014 1.7684,-0.88488 0.39688,0.60311 0.39687,0.60311 0.72923,0.83678 0.72923,0.83679 -0.47787,1.1252 -0.47788,1.1252 z m 2.5878,-6.2347 -0.30129,-0.56296 0.38356,-0.14719 0.38355,-0.14718 0.21532,0.37376 -0.18993,0.52327 -0.18992,0.52326 z m 6.5973,-1.386 -0.36776,-0.23289 1.5293,-2.1607 0.66146,-0.012 v 0.49137 l 0.83155,0.83155 -0.43468,6.5e-4 -1.5375,1.3223 -0.31457,-0.008 z m -15.32,-0.88056 -0.60624,-0.29198 0.11356,-0.29593 0.11356,-0.29594 3.2206,-4.274 0.24399,-0.64174 0.24398,-0.64174 2.3039,-1.554 2.1167,-1.6611 1.1119,-0.57559 4.1798,3.0688 0.72625,0.87642 h -0.52976 l -0.33114,0.79943 -0.33113,0.79943 -0.45285,0.27988 -2.4136,-1.4145 -2.6417,0.25384 -1.9078,1.5441 -1.0008,1.8388 -0.51015,-0.1322 v 0.99662 l -0.92604,0.3249 -0.89902,0.66216 -0.89903,0.66216 -0.31862,-0.0358 z m 14.958,-5.4703 -0.72961,-0.46773 -0.19643,-0.20803 -0.19643,-0.20804 1.6862,0.85729 0.16469,0.26646 0.16468,0.26647 -0.1636,-0.0386 z"
       fill="#371269"
       id="path91" /><path
       d="m 185.64,165.82 -1.1043,-0.21835 -1.6122,-0.8337 -5.4397,-3.5193 -2.8133,-2.3905 -0.40501,-0.78322 -0.40502,-0.78321 0.16188,-0.80942 0.16189,-0.80942 0.39912,-0.60915 0.39913,-0.60914 h 0.52831 l 0.60276,1.3229 h 0.77053 l -0.18451,-0.59532 -0.18451,-0.59531 -0.13455,-0.55753 -0.13456,-0.55753 1.5025,-1.1845 0.26458,5.0086 6.0506,4.5204 1.4901,0.29802 v 0.76452 l 3.8365,2.7576 0.25136,0.22992 0.25135,0.22992 -3.1485,-0.058 z m 3.2209,-1.4639 -0.79375,-0.67928 0.68464,0.34842 0.77057,-0.63952 0.0694,-3.2425 0.40498,3.175 -0.24744,0.15424 -0.24743,0.15425 0.26828,0.70565 0.26829,0.70565 -0.38378,-0.002 z m 2.0692,-0.72231 -0.008,-1.3739 0.10957,1.1305 0.10958,1.1305 0.24907,-0.15394 0.24908,-0.15394 v -4.405 l 1.0965,-0.28673 -0.89274,-1.3625 0.45774,0.016 0.92436,1.2486 0.92435,1.2486 0.23402,0.16885 0.23402,0.16886 -0.41414,0.67009 0.55548,-0.3433 0.15496,0.40382 0.15497,0.40383 -1.2701,0.48289 -0.2198,0.34539 -0.21979,0.3454 -0.87154,0.52917 -1.5488,1.1603 z m 2.561,-1.1093 v -0.13229 h -0.26458 v 0.26458 h 0.26458 z m 0.99219,-0.60401 -0.46302,-0.0963 v -0.52159 l -0.50606,0.31276 0.13783,0.35916 0.13782,0.35916 1.1564,-0.317 z m -0.99219,-1.5127 v -0.13229 h -0.26458 v 0.26459 h 0.26458 z m -0.38987,-0.61036 -0.14811,-0.14811 -0.32632,0.32877 -0.32632,0.32876 0.94886,-0.3613 z m -5.8531,3.3476 -0.18879,-0.30546 0.30547,0.18878 0.30546,0.18879 v 0.23335 h -0.23335 z m 8.2874,-0.4712 -0.13392,-0.51208 0.73528,-0.28215 v 0.46928 l 0.1606,0.41851 0.16059,0.41852 h -0.78864 z m -7.6007,0.1152 v -0.13229 h 0.26459 v 0.26459 h -0.26459 z m -0.88561,-0.61678 -0.43846,-0.48449 0.19902,-0.23439 0.19901,-0.23439 -0.46011,0.35199 -0.4601,0.35198 0.17026,0.27549 0.17025,0.27548 -0.59097,-0.36524 0.29708,-0.65201 0.29707,-0.65201 h 0.38907 l 0.84891,-1.3229 0.84891,-1.3229 h 0.0962 l -0.031,0.93344 -0.031,0.93345 -1.6738,1.727 0.90404,0.90404 h -0.29596 z m 0.88561,-0.83842 v -0.26459 h 0.5604 l -0.16352,0.26459 -0.16352,0.26458 h -0.23336 z m -3.5606,-0.24631 -0.15223,-0.2463 0.2689,-0.16619 0.2689,-0.16618 v -0.49794 h -0.52916 l 0.0661,0.29766 0.0661,0.29765 -0.66146,0.24254 v -0.86908 l -0.61252,0.37856 0.16081,-0.63669 0.16081,-0.63668 -0.34889,0.46595 -0.34888,0.46596 -0.73112,-0.9012 0.66146,0.39739 v -0.55416 l -1.1906,0.126 0.0727,-0.3504 0.0727,-0.35039 -0.57562,0.35575 -1.0125,-0.91631 0.10259,-0.16599 0.10259,-0.166 -0.81296,-1.0525 0.29392,1.2393 -0.51077,-0.46224 -0.51076,-0.46224 v -0.21379 l 0.52916,0.32704 0.0562,-8.101 0.076,-0.91922 0.52916,-0.0276 0.29302,1.7406 0.21134,-1.6635 0.21135,-1.6635 0.36975,0.30686 0.36975,0.30687 v 0.76018 l -0.52917,-0.32704 v 2.4125 h 0.54227 l 0.24956,0.6564 0.24957,0.65641 0.37858,-0.14528 0.37858,-0.14527 0.34934,0.56524 h -1.1136 l -0.63189,0.6319 -0.6319,0.63189 -0.18125,0.96617 -0.18126,0.96617 0.62916,2.2471 2.6624,1.4966 0.56847,-0.26199 0.56848,-0.26198 1.4801,-0.59506 h 0.54631 l -0.18863,0.85884 -0.18863,0.85883 -0.40516,0.84963 -0.40516,0.84962 -0.19326,-0.11944 -0.19325,-0.11944 -0.31398,0.8182 0.52311,-0.3233 v 0.5604 h -0.76252 z m 10.704,-1.6058 -0.6189,-1.3214 0.13267,-0.13266 0.13266,-0.13266 0.92724,1.9832 0.30907,0.66106 -0.26384,0.26384 z m -3.9688,0.66146 v -0.13229 h 0.26459 v 0.26458 h -0.26459 z m 8.4667,-0.37483 v -0.55121 h 0.83255 l -0.0855,0.44109 -0.0855,0.4411 -0.66146,0.22024 z m -1.1113,-2.7001 -0.11208,-2.2168 0.19363,-0.71813 0.19363,-0.71814 -1.8097,-0.6544 v -3.007 l 0.46302,-0.11238 0.46302,-0.11237 2.5135,0.21631 0.0399,0.96555 0.0399,0.96554 -0.045,1.3229 -0.32409,2.6407 -0.32408,2.6407 -0.7095,0.7095 -0.004,-0.21733 -0.004,-0.21734 -0.46195,0.72933 z m 0.58213,1.2228 v -0.13229 h -0.26458 v 0.26458 h 0.26458 z m -3.6602,-0.36411 -0.35292,-0.22371 0.83812,-0.32162 v 0.77715 l -0.1322,-0.008 z m -6.1336,-0.78634 0.25113,-0.43705 0.26939,-0.39688 0.2694,-0.39687 0.004,0.69674 0.004,0.69675 -1.0492,0.27436 z m 0.53344,-0.17247 v -0.13229 h -0.26459 v 0.26458 h 0.26459 z m 1.5875,0.42536 v -0.3243 l -0.61093,0.37758 0.20303,-0.32852 0.20304,-0.32852 0.28323,0.28323 0.28322,0.28323 -0.36159,0.36159 z m 2.7928,-0.26926 -0.13452,-0.21767 1.0491,-0.94942 0.17476,0.17477 0.17477,0.17476 h -0.60075 l 0.13919,0.36274 0.13919,0.36273 -0.4036,0.15488 -0.40361,0.15488 z m 7.2519,-0.24491 0.31693,-0.61797 0.16125,0.16125 0.16125,0.16126 -0.95636,0.91344 z m -28.786,-0.60932 0.0884,-0.62479 0.26459,0.0661 0.26458,0.0661 v 0.88194 l -0.70599,0.23533 z m 22.979,0.3742 0.004,-0.20524 0.19439,-0.26458 0.19438,-0.26458 1.1906,-0.1656 v 0.28426 l -1.5875,0.82093 z m 8.0918,-0.0308 -0.187,-0.30257 0.43312,-0.77394 0.32691,0.20204 0.3269,0.20204 -0.35646,0.4875 -0.35647,0.4875 z m 3.7382,-0.28967 -0.13391,-0.51208 0.69148,-0.26534 0.15505,0.40404 0.15505,0.40405 -0.14877,0.2407 -0.14876,0.24071 h -0.43622 z m -16.597,0.1152 v -0.13229 h 0.26458 v 0.26459 h -0.26458 z m -3.7042,-0.26458 v -0.13229 h 0.26459 v 0.26458 h -0.26459 z m 6.2006,-0.8599 -0.15943,-0.7276 -0.0986,-0.32226 -0.0986,-0.32225 0.50605,-0.31276 v -1.5771 l -0.7137,0.66669 0.11191,0.53698 0.1119,0.53698 -0.79031,-0.96876 0.50781,-0.50781 0.50781,-0.5078 h 0.5604 l -0.17069,-0.27618 -0.17068,-0.27617 0.33174,-0.39973 0.33175,-0.39973 1.1018,-0.53016 -0.59003,0.5161 -0.59003,0.51609 0.7578,0.62891 1.0837,-0.34396 v -0.49351 h 0.41435 l -0.0534,0.72761 -0.0534,0.7276 -0.0215,0.30205 -0.0215,0.30204 -1.3763,0.34542 0.10072,1.0562 0.10072,1.0562 -1.2028,0.30188 0.29216,0.47272 h -0.55032 z m 1.2077,-0.19843 v -0.13229 h -0.26459 v 0.26458 h 0.26459 z m -0.34582,-1.384 -0.12197,-0.46806 -0.02,1.5875 0.26354,-0.65138 z m -15.529,1.9132 v -0.13229 h 0.26458 v 0.26459 h -0.26458 z m 8.9958,-0.52916 v -0.13229 h 0.26458 v 0.26458 h -0.26458 z m 0.53721,-1.3799 -0.008,-0.32152 -0.82064,-0.93465 -0.82063,-0.93465 -1.666,-0.50831 2.3812,0.1272 v 0.77677 l 1.3229,1.0245 0.1808,0.1264 -0.28079,0.48287 -0.28079,0.48286 z m -1.0664,-2.0597 v -0.13229 h -0.26458 v 0.26459 h 0.26458 z m -0.79375,-1.3229 v -0.13229 h 0.26459 v 0.26458 h -0.26459 z m 9.1281,-0.13229 -0.16352,-0.26459 0.16619,-0.2689 0.16618,-0.2689 0.49261,0.30445 v 0.76252 h -0.49794 z m -16.749,-0.92605 0.01,-0.79375 0.24394,0.93612 -0.13177,0.32569 -0.13178,0.32569 z m 21.909,0.52917 v -0.13229 h 0.26459 v 0.26458 h -0.26459 z m -2.3267,-1.5735 -0.295,-0.64745 1.0342,-0.32825 v -0.5817 l 0.1741,0.17409 0.17409,0.17409 0.35507,-0.29468 0.35508,-0.29468 v 0.46667 l -1.1906,0.76867 -0.15925,-0.0431 -0.15925,-0.043 0.12395,0.64839 0.12395,0.6484 h -0.24133 z m -7.7274,-0.014 v -0.13229 h 0.26458 v 0.26458 h -0.26458 z m 10.319,-0.13229 v -0.35278 l 0.17639,0.17639 0.17638,0.17639 -0.17638,0.17639 -0.17639,0.17639 z m -10.231,-0.44097 0.17639,-0.17639 0.35278,0.35278 h -0.70556 z m 9.7014,-0.35278 v -0.35278 l 0.35278,0.35278 -0.35278,0.35278 z m -2.7606,-0.55751 0.18104,-0.29293 -1.1626,0.36899 1.1918,-1.3706 h 0.1692 l -0.0661,0.33072 -0.0661,0.33073 0.7789,-0.1714 -0.4966,0.54874 -0.49661,0.54874 h -0.2138 z m -15.363,-1.03 0.52917,-0.22739 -0.52917,-0.0452 -0.70095,-0.4444 1.4947,-2.1217 2.5445,-3.2466 h -0.38775 l 1.2428,-1.3229 h 0.54027 l 0.783,-0.72761 0.783,-0.7276 -0.18403,0.32297 -0.18404,0.32297 1.2123,0.2521 0.79375,-0.0521 0.79375,-0.0522 0.0267,-0.72761 0.0267,-0.7276 h -0.53847 l 0.32904,-0.32904 3.5956,2.8131 0.227,0.1682 -1.153,1.5596 v 0.55059 h 0.61736 l -0.33018,0.33018 -0.95246,-0.56196 -0.95246,-0.56197 h -0.76351 v -0.52917 h 0.82498 l -0.17854,-0.28888 -0.17854,-0.28889 -1.623,0.14323 -1.623,0.14322 -0.79375,0.0698 1.5875,0.7269 -0.86943,0.0238 -0.16306,0.42494 -0.16307,0.42494 -1.2843,-0.32235 -0.083,0.85855 -0.083,0.85854 -0.51045,0.0969 -0.51045,0.0968 -0.69889,0.69888 v 1.0961 h -1.4817 l -0.65704,0.65704 -0.24951,-0.39467 -0.24952,-0.39466 -0.004,0.31573 -0.004,0.31572 1.055,0.73893 -0.34941,0.34941 -1.1024,-0.0372 z m 0.66146,-1.1906 v -0.13229 h -0.26458 v 0.26459 h 0.26458 z m 3.4449,-5.2981 0.33468,-0.40327 -0.25504,-0.25504 -0.48035,0.53079 -0.48036,0.53079 h 0.54639 z m 5.0218,-2.6394 v -0.13229 h -0.26459 v 0.26459 h 0.26459 z m -10.054,8.9958 v -0.13229 h 0.26458 v 0.26458 h -0.26458 z m 17.815,-0.0441 0.17639,-0.17639 0.17639,0.17639 0.17638,0.17639 h -0.70555 z m -0.85709,-0.45512 -0.31514,-0.37971 0.5586,-0.34524 0.16311,0.42506 0.16311,0.42505 -0.12727,0.12728 -0.12728,0.12727 z m -9.0207,-8.6078 0.66146,-0.52168 0.49389,0.49177 -0.11466,0.0995 -0.11465,0.0995 -1.5875,0.35262 z"
       fill="#350e66"
       id="path92" /><path
       d="m 185.64,165.82 -1.1043,-0.21835 -1.6122,-0.8337 -5.4397,-3.5193 -2.8133,-2.3905 -0.40501,-0.78322 -0.40502,-0.78321 0.16188,-0.80942 0.16189,-0.80942 0.39912,-0.60915 0.39913,-0.60914 h 0.52831 l 0.60276,1.3229 h 0.77053 l -0.18451,-0.59532 -0.18451,-0.59531 -0.13455,-0.55753 -0.13456,-0.55753 1.5025,-1.1845 0.26458,5.0086 6.0506,4.5204 1.4901,0.29802 v 0.76452 l 3.8365,2.7576 0.25136,0.22992 0.25135,0.22992 -3.1485,-0.058 z m 9.8956,-3.1462 -0.13392,-0.51208 0.73528,-0.28215 v 0.46928 l 0.1606,0.41851 0.16059,0.41852 h -0.78864 z m 4.0409,-2.9055 v -0.55121 h 0.83255 l -0.0855,0.44109 -0.0855,0.4411 -0.66146,0.22024 z m -26.944,-3.4983 0.0884,-0.62479 0.26459,0.0661 0.26458,0.0661 v 0.88194 l -0.70599,0.23533 z m 31.071,0.34343 -0.187,-0.30257 0.43312,-0.77394 0.32691,0.20204 0.3269,0.20204 -0.35646,0.4875 -0.35647,0.4875 z m 3.7382,-0.28967 -0.13391,-0.51208 0.69148,-0.26534 0.15505,0.40404 0.15505,0.40405 -0.14877,0.2407 -0.14876,0.24071 h -0.43622 z"
       fill="#1c1c1c"
       id="path93" /></g></svg>
