<?xml version="1.0" encoding="UTF-8" standalone="no"?>
<!-- Created with Inkscape (http://www.inkscape.org/) -->

<svg
   width="24.15mm"
   height="26.621mm"
   version="1.1"
   viewBox="0 0 24.15 26.621"
   xml:space="preserve"
   id="svg94"
   sodipodi:docname="tent_mtent_medium_longedium.svg"
   inkscape:version="1.3 (0e150ed6c4, 2023-07-21)"
   xmlns:inkscape="http://www.inkscape.org/namespaces/inkscape"
   xmlns:sodipodi="http://sodipodi.sourceforge.net/DTD/sodipodi-0.dtd"
   xmlns="http://www.w3.org/2000/svg"
   xmlns:svg="http://www.w3.org/2000/svg"><defs
     id="defs94" /><sodipodi:namedview
     id="namedview94"
     pagecolor="#ffffff"
     bordercolor="#000000"
     borderopacity="0.25"
     inkscape:showpageshadow="2"
     inkscape:pageopacity="0.0"
     inkscape:pagecheckerboard="0"
     inkscape:deskcolor="#d1d1d1"
     inkscape:document-units="mm"
     inkscape:zoom="0.66590598"
     inkscape:cx="-609.69568"
     inkscape:cy="49.556545"
     inkscape:window-width="2400"
     inkscape:window-height="1261"
     inkscape:window-x="2391"
     inkscape:window-y="-9"
     inkscape:window-maximized="1"
     inkscape:current-layer="svg94" /><g
     transform="translate(-130.8388,-119.993)"
     id="g74"><path
       d="m 136.76,146.08 -0.17159,-0.44716 0.31218,-0.10406 0.31219,-0.10406 v -0.97219 l -1.6987,-0.3731 -1.2012,-0.51184 -1.2012,-0.51185 -0.98044,-0.95235 -0.98044,-0.95236 -0.30994,-1.4111 0.25256,-0.66428 0.25256,-0.66427 0.94899,-0.89512 0.949,-0.89512 v -0.62438 l 0.93497,-3.3999 0.93498,-3.3999 0.14437,-0.92604 0.14438,-0.92604 0.34811,-0.54367 0.34812,-0.54366 3.1038,-1.6543 3.5662,-0.6571 v -3.9492 l 2.5135,0.43808 2.8304,-0.0902 -0.19667,0.45734 -0.19666,0.45734 0.0186,0.39687 0.0186,0.39688 0.0858,0.52917 0.0858,0.52916 -4.3656,-0.0882 v 0.95423 l 2.5135,0.36338 2.3812,0.79366 1.6974,1.0491 1.3453,1.5988 v 1.3325 l 0.50377,1.7609 0.50378,1.7609 1.7303,7.3302 0.75315,0.75314 -0.14969,0.39008 -0.14968,0.39008 h -0.52538 l -0.6262,-2.249 -0.99985,-3.9688 -0.99984,-3.9688 -0.0404,10.119 -2.4,2.2122 0.17109,0.91197 0.17108,0.91198 h 0.75348 l -0.5664,1.0583 h -0.41051 l -0.68694,-2.6803 -0.86831,0.35908 -0.46302,0.13314 -0.46302,0.13313 v 0.96539 l -0.56479,0.34905 -0.2669,-0.97928 -3.4811,-1.5875 -0.44967,-0.1764 v 1.6316 h -0.79375 v 1.0583 h -0.46745 l -0.13838,-0.52917 -0.13838,-0.52916 h -2.6365 l -0.34746,1.8521 h -0.52179 z m 3.6278,-4.1831 v -1.9844 h 0.73203 l 0.29068,-1.1116 0.28337,0.17513 0.28336,0.17513 -0.16195,0.64524 -0.16194,0.64524 h 1.3803 v -3.6229 l -0.16824,-2.3702 -0.16825,-2.3702 -1.9125,-0.1196 -0.89709,-0.27471 -0.14615,1.0054 -0.14615,1.0054 -0.8541,4.6479 -0.0732,3.6334 -0.19844,-0.12136 -0.19844,-0.12137 v 1.3797 l 1.7198,0.74749 0.39688,0.0208 z m -1.5798,0.93638 -0.38921,-0.24615 0.25009,-0.25009 0.51317,0.37524 0.51318,0.37525 -0.49802,-0.008 z m -0.83952,-2.7223 0.32176,-2.4474 0.37046,-1.9844 0.37046,-1.9844 0.12592,-1.1388 0.12591,-1.1388 -0.60353,0.20117 -0.51862,-0.48316 -0.51862,-0.48317 h -0.42938 v 11.906 h 0.43388 z m -0.49106,-9.062 v -0.13229 h 0.26458 v 0.26459 h -0.26458 z m 13.168,4.6378 0.0713,-5.9018 -0.80407,0.66732 v 11.356 l 0.66146,-0.22016 z m -9.1994,5.681 v -0.13229 h -0.26458 v 0.26459 h 0.26458 z m -6.0854,-8.1719 v -2.6319 l -0.10219,0.11025 -0.1022,0.11024 -0.69155,2.6946 -0.69156,2.6946 v 0.25345 l 1.5875,-0.59922 z m 7.4487,-2.3453 0.10207,-0.59532 -0.0949,-1.6572 -0.0949,-1.6572 -1.6724,1.3381 -0.58867,0.47405 -2.4974,1.2692 0.39337,0.32646 0.39337,0.32647 3.3577,0.72873 0.59977,0.042 z m 7.2848,-1.5675 0.61237,-0.57529 v -0.45554 l -1.1222,0.60058 0.17983,-0.29098 0.17984,-0.29098 h -3.7702 l -0.57792,-0.29697 -0.57791,-0.29697 0.52993,0.56825 2.9096,1.6036 1.0242,0.01 z m -2.0335,-0.61534 v -0.13229 h 0.26459 v 0.26458 h -0.26459 z m -7.5231,-1.6308 0.45884,-0.17607 -2.3285,-0.63032 -0.82971,-0.36053 -0.70962,0.5582 -0.70963,0.55819 v 0.56675 l 3.6598,-0.34014 z m 6.8616,-1.1367 0.52916,-0.21685 -1.5251,-0.60092 -0.98844,0.31372 v 0.45471 l -0.92604,0.242 2.3812,0.0242 z m -4.6302,-0.672 v -0.39688 l -1.4552,0.018 1.3229,0.75624 0.1322,0.018 z"
       fill="#eaced8"
       id="path58" /><path
       d="m 136.83,146.07 -0.17574,-0.45798 0.27972,-0.0932 0.27973,-0.0932 v -0.91008 l -3.73,-1.2013 -0.95255,-0.83635 -0.95254,-0.83635 -0.6872,-1.6447 0.15308,-0.637 0.15307,-0.637 1.9782,-2.1167 1.9843,-7.6729 0.24296,-1.5875 0.34841,-0.54367 0.34842,-0.54366 3.0982,-1.6262 1.7859,-0.32685 1.7859,-0.32684 v -3.9689 l 2.5135,0.45287 2.8171,-0.0822 -0.38002,0.87998 0.0186,0.39687 0.0186,0.39688 0.0858,0.52917 0.0858,0.52916 -4.3656,-0.0882 v 0.98189 l 2.5135,0.34841 3.1472,1.1159 2.2768,2.1816 v 1.4638 l 0.5024,1.7609 0.50241,1.7609 0.85733,3.656 0.85734,3.6559 0.71858,0.71859 -0.15984,0.41653 -0.15984,0.41654 h -0.47255 l -0.012,-0.1322 -1.3017,-5.1594 -1.3017,-5.1594 -0.0155,5.1918 -0.0155,5.1918 -1.2149,1.1198 -1.2149,1.1198 0.16852,0.89826 0.16851,0.89826 h 0.78839 l -0.57434,1.0732 -0.43002,-0.26577 -0.33909,-1.2111 -0.33908,-1.2111 -0.42482,0.17596 -0.42481,0.17595 -0.46302,0.13314 -0.46302,0.13313 v 0.96539 l -0.56479,0.34905 -0.13572,-0.48964 -0.13573,-0.48964 -3.1453,-1.4767 -0.39048,-0.14984 -0.39047,-0.14984 v 1.5824 l -1.0605,0.27733 0.32338,0.84272 h -0.58578 v -1.0583 h -2.8515 l -0.34746,1.8521 h -0.44857 z m 3.5587,-4.0116 v -1.8238 l 0.79375,-0.30459 v -0.81035 h 0.79375 v 0.29937 l -0.27389,0.51177 -0.2739,0.51177 h 1.9019 l -0.24817,-0.40155 -0.1638,-8.0092 -2.9265,-0.25397 -0.20142,0.179 -0.359,2.3246 -0.359,2.3246 -0.4258,2.9836 -0.4258,2.9836 0.15204,0.39622 0.15205,0.39622 1.2024,0.48291 0.66146,0.0336 z m 1.0583,0.0884 v -0.91043 l -0.39687,7.8e-4 -0.148,2.1569 0.54496,-0.3368 z m -2.2957,-9.3995 0.15691,-1.213 -0.92396,-0.4406 -0.92396,-0.44061 h -0.24663 v 11.818 l 0.19062,0.19063 0.19063,0.19062 1.3995,-8.892 z m 11.556,2.868 v -5.8208 l -0.79375,0.65876 v 11.642 l 0.39687,-0.32938 0.39688,-0.32938 z m -15.366,-2.5729 -0.0203,-2.7863 -1.5182,5.5562 -0.0144,0.30775 -0.0143,0.30775 1.5875,-0.59922 z m 7.5326,-2.0142 0.1606,-0.41851 v -2.0072 l -0.16506,-0.82531 -0.16506,-0.8253 -1.2952,0.95077 -1.2952,0.95077 -2.4767,1.1953 1.2962,0.7026 2.6458,0.65044 1.134,0.045 z m 7.416,-1.8476 0.41751,-0.4175 v -0.41412 l -1.9668,-0.0521 -1.9668,-0.052 -1.7298,-0.49611 0.38433,0.37748 0.38433,0.37749 3.0869,1.6151 0.97289,-0.52068 z m -5.4033,-1.5703 v -0.13229 h -0.26458 v 0.26458 h 0.26458 z m -3.9107,-0.76811 0.86798,-0.37935 -2.4791,-0.0432 -0.70686,-0.26874 -0.70686,-0.26875 -0.89786,0.55491 -0.89787,0.55491 v 0.56366 l 3.9526,-0.33412 z m 6.5376,-0.91937 0.64254,-0.17953 -2.1177,-0.83185 -1.4458,1.2436 2.2785,-0.0528 z m -4.7436,-0.69377 v -0.39688 l -1.4552,0.016 1.0272,0.77692 h 0.42803 z"
       fill="#d0cccf"
       id="path59" /><path
       d="m 136.99,146.18 -0.35701,-0.43204 0.8463,-0.8463 v -0.36988 l -1.9713,-0.61191 -1.9713,-0.61192 -1.2037,-1.121 -1.2037,-1.121 v -2.2742 l 2.0245,-2.0245 1.1084,-4.1822 1.1084,-4.1822 -0.004,-0.60795 -0.004,-0.60794 0.69882,-0.64765 0.69882,-0.64764 2.7034,-1.3093 3.4396,-0.41667 0.0146,-1.9825 0.0147,-1.9825 1.2936,0.1684 3.8364,0.0962 v 0.29104 l -0.62064,0.62065 0.64772,1.4216 -0.68853,0.47433 -4.1399,-0.3097 0.0856,0.60312 0.0856,0.60313 1.5875,0.16964 1.5875,0.16965 1.8521,0.67068 1.1399,0.77508 1.1399,0.77509 0.34913,0.83659 0.34912,0.8366 0.42091,1.8521 0.42091,1.8521 1.8905,7.9375 0.39058,0.29711 0.39057,0.29711 -0.16519,0.43049 -0.1652,0.4305 h -0.40282 l -0.83558,-3.0427 -1.0061,-4.101 -1.0061,-4.101 -0.0713,5.7458 -0.0713,5.7458 -2.3194,1.9388 0.56428,1.6508 0.5196,0.34347 -0.33796,0.8807 -0.48686,-0.3009 -0.17833,-1.0556 -0.17834,-1.0556 -0.42234,-0.26102 -1.6898,0.58909 -0.22704,0.56218 -0.22703,0.56219 -0.0336,-0.92604 h -0.62706 l -3.6063,-1.8662 v 1.6512 l -1.101,0.28792 0.12886,0.49273 0.12885,0.49273 h -0.47963 v -1.0583 h -2.0734 l -0.75642,-0.29027 -0.47748,2.2274 z m 4.458,-3.4895 v -1.4552 h -0.55636 l 0.1178,2.9104 h 0.43861 z m -1.0132,-0.49235 -0.0871,-1.6841 0.64662,-0.69772 0.64662,-0.69771 h 0.3231 l -0.24141,0.63494 -0.2414,0.63495 0.89278,0.21271 0.93252,-0.1998 -0.22342,-0.3615 -0.1638,-8.0092 -2.9265,-0.25397 -0.1998,0.1774 -0.38079,2.4578 -0.38078,2.4578 -0.47146,3.1385 -0.47147,3.1385 0.81984,0.3569 0.81983,0.3569 0.79375,0.0218 z m -1.2825,-9.4519 0.15691,-1.213 -0.92396,-0.4406 -0.92396,-0.44061 h -0.24663 v 11.818 l 0.19062,0.19063 0.19063,0.19062 1.3995,-8.892 z m 11.556,2.9087 v -5.7801 l -0.79375,0.30459 v 11.914 l 0.39687,-0.32938 0.39688,-0.32938 z m -16.179,0.52738 0.83323,-0.29047 -0.0418,-5.6368 -0.26178,0.6461 -0.72892,2.7858 -0.72892,2.7858 h 0.095 z m 8.3456,-5.1551 0.1606,-0.41851 -0.008,-2.4703 -0.15952,-0.59522 -0.15951,-0.59521 -2.5943,1.9044 -1.2418,0.59933 -1.2418,0.59932 1.6828,0.87022 2.0016,0.47131 1.3986,0.0532 z m 7.416,-1.8476 0.41751,-0.4175 v -0.49137 h -3.84 l -1.8235,-0.52297 0.38433,0.37748 0.38433,0.37749 3.0869,1.6151 0.97289,-0.52068 z m -5.4033,-1.5703 v -0.13229 h -0.26458 v 0.26458 h 0.26458 z m -3.9107,-0.76811 0.86798,-0.37935 -2.4346,-0.0432 -1.6516,-0.57576 -1.6023,1.141 v 0.57079 l 3.9526,-0.33412 z m 6.5376,-0.91937 0.64254,-0.17953 -2.1177,-0.83185 -1.4458,1.2436 2.2785,-0.0528 z m -4.6563,-0.7855 -0.12778,-0.48861 -1.3666,0.26126 0.97913,0.71595 h 0.64307 z"
       fill="#dbb9c4"
       id="path60" /><path
       d="m 136.99,146.18 -0.35701,-0.43204 0.8463,-0.8463 v -0.36988 l -1.9713,-0.61191 -1.9713,-0.61192 -1.2037,-1.121 -1.2037,-1.121 v -2.2742 l 2.0245,-2.0245 1.1084,-4.1822 1.1084,-4.1822 -0.004,-0.60795 -0.004,-0.60794 0.69882,-0.64765 0.69882,-0.64764 2.7034,-1.3093 3.4396,-0.41667 0.0146,-1.9825 0.0147,-1.9825 1.2936,0.1684 3.8364,0.0962 v 0.29104 l -0.62064,0.62065 0.64772,1.4216 -0.68853,0.47248 -3.175,-0.23372 -0.39688,-0.0954 -0.39687,-0.0954 v 1.3229 l 1.5875,0.16964 1.5875,0.16965 1.8521,0.67068 1.1399,0.77508 1.1399,0.77509 0.34913,0.83659 0.34912,0.8366 0.42091,1.8521 0.42091,1.8521 1.8905,7.9375 0.39058,0.29711 0.39057,0.29711 -0.16519,0.43049 -0.1652,0.4305 h -0.40282 l -0.83558,-3.0427 -1.0061,-4.101 -1.0061,-4.101 -0.0713,5.7458 -0.0713,5.7458 -2.3194,1.9388 0.56428,1.6508 0.5196,0.34347 -0.33796,0.8807 -0.48686,-0.3009 -0.17833,-1.0556 -0.17834,-1.0556 -0.42234,-0.26102 -1.6898,0.58909 -0.22704,0.56218 -0.22703,0.56219 -0.0336,-0.92604 h -0.62706 l -3.6063,-1.8662 v 1.6512 l -1.101,0.28792 0.12886,0.49273 0.12885,0.49273 h -0.47963 v -1.0583 h -2.0734 l -0.75642,-0.29027 -0.47748,2.2274 z m 3.5468,-4.1856 -0.17908,-1.8174 h 0.82579 v -0.76252 l 0.30294,-0.18723 0.30295,-0.18723 -0.13009,0.68053 -0.1301,0.68053 1.1095,0.29786 0.54912,0.008 -0.21134,-8.599 -0.0732,-0.0728 -3.1954,-0.36306 -0.6247,4.6692 -0.8007,5.2917 -0.13328,0.74219 -0.13328,0.7422 2.2182,0.99309 0.24092,-0.1489 0.24092,-0.14889 z m 0.91129,0.71171 v -1.4396 l -0.52917,-0.32704 v 3.2062 h 0.52917 z m -2.781,-6.1054 0.66433,-4.2377 -0.004,-0.78502 -2.0752,-1.1849 -0.37962,3.037 0.15936,4.438 0.15935,4.438 0.20538,0.32451 0.20539,0.32451 0.20038,-1.0583 0.20039,-1.0583 z m 12.073,2.6502 0.0782,-2.1167 -0.1102,-7.654 -0.92604,0.92558 -0.0862,6.01 -0.0862,6.0101 1.0522,-1.0583 z m -16.211,-3.0686 0.83323,-0.29047 -0.0418,-5.6368 -0.26178,0.6461 -0.72892,2.7858 -0.72892,2.7858 h 0.095 z m 8.3456,-5.1551 0.1606,-0.41851 -0.004,-1.4997 -0.004,-1.4997 -0.23426,-0.36997 -0.23425,-0.36998 -2.3015,1.8672 -2.6135,1.3142 1.2905,0.69364 2.1167,0.66597 1.6632,0.0354 z m 7.7782,-2.2679 0.0787,-0.40878 -4.6536,-0.30417 -1.5875,-0.57818 1.3229,1.1016 3.1489,1.5397 0.80595,-0.4707 0.80596,-0.4707 z m -9.602,-1.9075 1.0583,-0.3959 -2.3199,-0.0372 -0.99929,-0.29939 -0.9993,-0.2994 -0.81734,0.582 -0.81734,0.58199 v 0.56952 l 1.9182,-0.15282 1.9182,-0.15281 z m 6.6146,-0.95181 0.52917,-0.21685 -0.69407,-0.27442 -0.69406,-0.27442 -0.72854,-0.143 -0.92604,0.58036 -0.92604,0.58035 2.9104,-0.0352 z m -4.6302,-0.65639 v -0.38126 l -0.50483,-0.312 -1.3641,0.34238 0.94293,0.71532 0.92604,0.016 z"
       fill="#df9bb1"
       id="path61" /><path
       d="m 136.99,146.18 -0.35701,-0.43204 0.8463,-0.8463 v -0.36988 l -1.9713,-0.61191 -1.9713,-0.61192 -1.2037,-1.121 -1.2037,-1.121 v -2.2742 l 2.0245,-2.0245 1.1084,-4.1822 1.1084,-4.1822 -0.004,-0.60795 -0.004,-0.60794 0.69882,-0.64765 0.69882,-0.64764 2.7034,-1.3093 3.4396,-0.41667 0.0146,-1.9825 0.0147,-1.9825 1.2936,0.1684 3.8364,0.0962 v 0.29104 l -0.62064,0.62065 0.64772,1.4216 -0.68853,0.47248 -3.175,-0.23372 -0.39688,-0.0954 -0.39687,-0.0954 v 1.3229 l 1.5875,0.16964 1.5875,0.16965 1.8521,0.67068 1.1399,0.77508 1.1399,0.77509 0.34913,0.83659 0.34912,0.8366 0.42091,1.8521 0.42091,1.8521 1.8905,7.9375 0.39058,0.29711 0.39057,0.29711 -0.16519,0.43049 -0.1652,0.4305 h -0.40282 l -0.83558,-3.0427 -1.0061,-4.101 -1.0061,-4.101 -0.0713,5.7458 -0.0713,5.7458 -2.3194,1.9388 0.56428,1.6508 0.5196,0.34347 -0.33796,0.8807 -0.48686,-0.3009 -0.17833,-1.0556 -0.17834,-1.0556 -0.42234,-0.26102 -1.6898,0.58909 -0.22704,0.56218 -0.22703,0.56219 -0.0336,-0.92604 h -0.62706 l -3.6063,-1.8662 v 1.6512 l -1.101,0.28792 0.12886,0.49273 0.12885,0.49273 h -0.47963 v -1.0583 h -2.0734 l -0.75642,-0.29027 -0.47748,2.2274 z m 3.5468,-4.1856 -0.17908,-1.8174 h 0.82579 v -0.76252 l 0.30294,-0.18723 0.30295,-0.18723 -0.13009,0.68053 -0.1301,0.68053 1.1095,0.29786 0.66317,0.008 -0.33978,-8.599 -0.0588,-0.0728 -3.1954,-0.36306 -0.6247,4.6692 -0.8007,5.2917 -0.13328,0.74219 -0.13328,0.7422 2.2182,0.99309 0.24092,-0.1489 0.24092,-0.14889 z m 0.91129,0.71171 v -1.4396 l -0.52917,-0.32704 v 3.2062 h 0.52917 z m -2.781,-6.1054 0.66433,-4.2377 -0.004,-0.78502 -2.0469,-1.1686 -0.16222,0.98119 -0.16221,0.98119 -0.006,9.816 0.66146,0.66889 0.39112,-2.0183 z m 12.073,2.6502 0.0782,-2.1167 -0.1102,-7.654 -0.92604,0.92558 -0.0862,6.01 -0.0862,6.0101 1.0522,-1.0583 z m -16.211,-3.0686 0.83323,-0.29047 -0.0418,-5.6368 -0.26178,0.6461 -0.72892,2.7858 -0.72892,2.7858 h 0.095 z m 8.3456,-5.1551 0.1606,-0.41851 -0.004,-1.3674 -0.004,-1.3674 -0.16371,-0.61125 -0.16371,-0.61126 -0.69257,0.64322 -0.69258,0.64321 -3.6079,2.1471 0.61333,0.32972 0.61333,0.32973 2.1167,0.66597 1.6632,0.0354 z m 6.9736,-1.4307 0.8599,-0.52428 v -0.72229 l -4.7015,-0.33372 -1.5162,-0.54051 0.75782,0.62996 0.75781,0.62996 2.6921,1.3872 0.29019,-0.002 z m -8.7974,-2.7447 1.0583,-0.3959 -2.0146,-0.0372 -2.3232,-0.58498 -1.6153,1.1502 v 0.56952 l 1.9182,-0.15282 1.9182,-0.15281 z m 6.8629,-0.95869 0.51288,-0.18452 -2.3487,-0.78551 -0.8493,0.58197 -0.84931,0.58197 0.33736,0.33736 1.3421,-0.17338 1.3421,-0.17337 z m -4.8785,-0.64951 v -0.38126 l -0.50483,-0.312 -1.3641,0.34238 0.94293,0.71532 0.92604,0.016 z m 4.0689,-3.2568 -0.17455,-0.7276 -0.0578,-0.0588 -1.5214,-0.17135 -1.5214,-0.17136 v 1.5553 l 0.59531,0.11466 0.59532,0.11467 2.259,0.072 z"
       fill="#b3adb0"
       id="path62" /><path
       d="m 149.12,145.48 -0.30442,-1.1305 0.24901,-0.24901 0.358,1.63 0.24305,-0.15022 0.24306,-0.15021 -0.008,0.4281 -0.47618,0.75237 z m -12.309,0.50839 -0.16478,-0.26661 0.82749,-0.82749 v -0.43983 l -3.5719,-1.0867 -1.092,-0.80429 -1.092,-0.8043 -0.65476,-1.5807 0.17417,-0.92844 0.17418,-0.92843 1.8288,-1.4592 1e-5,-0.34635 1e-5,-0.34634 0.5611,0.34678 0.77778,-0.32217 0.77778,-0.32216 -0.0203,-2.9445 -0.0203,-2.9445 -0.74146,2.1167 0.15116,-0.79375 0.15115,-0.79375 0.35553,-1.685 0.35553,-1.685 1.1338,-1.2068 1.55,-0.69561 1.55,-0.6956 1.5378,-0.19136 1.5378,-0.19135 0.1534,-4.0393 2.2278,0.50554 2.5268,-0.1696 -0.32466,1.4769 0.32569,0.39243 0.32569,0.39244 -0.19204,0.19204 -0.19205,0.19204 -2.9986,-0.0902 -0.66146,-0.0872 -0.66145,-0.0871 v 1.3229 l 1.4552,0.15688 1.4552,0.15689 1.0942,0.41602 1.0942,0.41603 1.0237,0.64625 1.0237,0.64625 0.30971,0.63292 0.30972,0.63292 1.4049,5.6931 -0.1956,0.58704 -0.51876,-2.0818 -0.51875,-2.0817 -0.1323,5.9104 -0.13229,5.9104 -1.3843,1.1437 -1.1292,0.92087 v -0.3242 l -0.33073,0.2605 -0.33073,0.26049 -0.7276,0.17382 -0.72761,0.17381 -0.0186,0.59028 -0.0186,0.59027 -0.38034,-0.9652 -0.18944,0.0222 -0.18945,0.0222 -1.8441,-0.92869 -1.8441,-0.9287 h -0.2778 v 1.8521 H 140.95 l -0.11466,0.59531 -0.11467,0.59531 -0.072,-1.1906 -1.7198,-0.008 -1.1567,-0.31021 -0.17869,0.95247 -0.17868,0.95247 h -0.43905 z m 3.8377,-3.8344 v -1.9844 h 0.4483 l 0.61124,-1.1906 -0.15392,0.8599 -0.15391,0.8599 h 1.9726 l -0.16993,-2.1828 -0.16992,-2.1828 -0.002,-2.1523 -0.002,-2.1523 -1.3891,-0.17355 -1.3891,-0.17356 -0.26459,-0.0404 -0.26458,-0.0404 -0.16713,0.77875 -0.16714,0.77875 -0.0626,-1.709 -2.0511,-1.0464 -0.16215,0.98085 -0.16216,0.98084 0.002,9.7896 0.24614,0.38922 0.24615,0.38921 0.15842,-0.15842 0.15841,-0.15842 0.54007,-3.5381 0.54006,-3.5381 0.10966,-0.11024 0.10965,-0.11025 v 0.8907 l -1.0659,6.6442 0.31264,0.50586 1.6793,0.73557 0.66146,0.0432 z m -1.5359,-7.6729 0.01,-0.79375 0.12197,0.46805 0.12196,0.46806 -0.13177,0.32569 -0.13177,0.3257 z m 2.3297,8.0698 v -1.5875 h -0.52917 v 3.175 h 0.52917 z m 9.525,-7.1899 v -5.7747 h -0.44715 l -0.81333,0.92605 -0.0976,11.899 1.3582,-1.2759 z m -7.9375,-6.3039 v -2.3812 h -0.36792 l -0.67593,0.62727 -0.67594,0.62727 -1.7841,1.0616 -1.7841,1.0616 0.77339,0.64185 2.2657,0.70748 2.249,0.0354 z m 7.2302,0.2007 0.83954,-0.85763 -4.856,-0.37812 -2.0231,-0.81002 1.7147,1.4825 2.7576,1.4209 h 0.72777 z m -9.0823,-2.3579 0.92604,-0.34918 -2.6458,-0.31406 -1.923,-0.40192 -0.89058,0.83625 -0.89058,0.83624 4.4979,-0.25816 z m 6.4823,-0.93765 0.79375,-0.15612 -2.2542,-0.96286 -0.91209,0.61896 -0.9121,0.61896 0.35714,0.35714 1.0669,-0.15998 1.0669,-0.15997 z m -4.6302,-0.8895 v -0.51355 l -1.1906,0.008 -0.36758,0.23278 -0.36758,0.23277 1.5269,0.8 0.39892,-0.24654 z m 4.0689,-3.0932 -0.17455,-0.7276 -0.0578,-0.0588 -1.5214,-0.17135 -1.5214,-0.17136 v 1.5553 l 0.59531,0.11466 0.59532,0.11467 2.259,0.072 z m 7.0696,18.92 -0.26905,-0.70766 -0.70209,-2.8033 -0.70208,-2.8033 0.27192,-0.27192 1.1307,4.816 0.27121,0.71333 0.27121,0.71334 0.46813,0.28932 -0.23543,0.38093 -0.23542,0.38093 z m -20.498,-5.7567 0.16792,-0.92605 0.23157,-0.52916 0.23156,-0.52917 -0.33584,1.8521 -0.23156,0.52917 -0.23157,0.52917 z m 0.64933,-2.5356 0.0209,-0.50711 0.13896,0.34726 0.13897,0.34727 -0.15986,0.15985 -0.15985,0.15985 z"
       fill="#c7748d"
       id="path63" /><path
       d="m 149.12,145.48 -0.30442,-1.1305 0.24901,-0.24901 0.358,1.63 0.24305,-0.15022 0.24306,-0.15021 -0.008,0.4281 -0.47618,0.75237 z m -12.309,0.50839 -0.16478,-0.26661 0.82749,-0.82749 v -0.43983 l -3.5719,-1.0867 -1.092,-0.80429 -1.092,-0.8043 -0.65476,-1.5807 0.17417,-0.92844 0.17418,-0.92843 1.8288,-1.4592 1e-5,-0.34635 1e-5,-0.34634 0.5611,0.34678 0.77778,-0.32217 0.77778,-0.32216 -0.0203,-2.9445 -0.0203,-2.9445 -0.74146,2.1167 0.15116,-0.79375 0.15115,-0.79375 0.35553,-1.685 0.35553,-1.685 1.1338,-1.2068 1.55,-0.69561 1.55,-0.6956 1.5378,-0.19136 1.5378,-0.19135 0.1534,-4.0393 2.2278,0.50554 2.5268,-0.1696 -0.32466,1.4769 0.32569,0.39243 0.32569,0.39244 -0.19204,0.19204 -0.19205,0.19204 -2.9986,-0.0902 -0.66146,-0.0872 -0.66145,-0.0871 v 1.3229 l 1.4552,0.15688 1.4552,0.15689 1.0942,0.41602 1.0942,0.41603 1.0237,0.64625 1.0237,0.64625 0.30971,0.63292 0.30972,0.63292 1.4049,5.6931 -0.1956,0.58704 -0.51876,-2.0818 -0.51875,-2.0817 -0.1323,5.9104 -0.13229,5.9104 -1.3843,1.1437 -1.1292,0.92087 v -0.3242 l -0.33073,0.2605 -0.33073,0.26049 -0.7276,0.17382 -0.72761,0.17381 -0.0186,0.59028 -0.0186,0.59027 -0.38034,-0.9652 -0.18944,0.0222 -0.18945,0.0222 -1.8441,-0.92869 -1.8441,-0.9287 h -0.2778 v 1.8521 H 140.95 l -0.11466,0.59531 -0.11467,0.59531 -0.072,-1.1906 -1.7198,-0.008 -1.1567,-0.31021 -0.17869,0.95247 -0.17868,0.95247 h -0.43905 z m 3.8377,-3.8344 v -1.9844 h 0.4483 l 0.61124,-1.1906 -0.15392,0.8599 -0.15391,0.8599 h 1.8941 l -0.002,-2.1828 -0.002,-2.1828 -0.16793,-2.157 -0.16793,-2.157 -2.7037,-0.33781 -0.26459,-0.0404 -0.26458,-0.0404 -0.16713,0.77875 -0.16714,0.77875 -0.0626,-1.709 -1.0425,-0.53185 -1.0425,-0.53186 -0.16113,1.1218 -0.16112,1.1218 0.0792,5.0053 0.0792,5.0052 0.61325,0.20398 0.28888,-1.4832 0.45169,-3.0427 0.45168,-3.0427 0.2191,0.64984 -0.552,3.4662 -0.55201,3.4662 0.31054,0.50246 1.6793,0.73557 0.66146,0.0432 z m -1.5359,-7.6729 0.01,-0.79375 0.12197,0.46805 0.12196,0.46806 -0.13177,0.32569 -0.13177,0.3257 z m 2.3297,8.0698 v -1.5875 h -0.52917 v 3.175 h 0.52917 z m 9.525,-7.1899 v -5.7747 h -0.44715 l -0.81333,0.92605 -0.0976,11.899 1.3582,-1.2759 z m -7.9082,-4.3856 0.0294,-0.46302 -0.0546,-1.8521 -0.0546,-1.8521 -0.1628,-0.169 -3.107,2.2857 -2.2379,1.0072 1.1239,0.7872 2.1852,0.68371 2.249,0.0354 z m 7.167,-1.6655 0.80562,-0.80562 -0.22972,-0.22972 -4.712,-0.31654 -1.8186,-0.75986 -0.1768,0.1768 1.7133,1.2694 2.6458,1.4616 0.96675,0.01 z m -11.111,-1.8136 0.60776,-0.238 1.1906,-0.34271 1.1906,-0.3427 -1.1906,-0.17537 -1.1906,-0.17538 -2.1473,-0.3913 -1.7262,1.4525 0.69847,0.44288 1.9595,0.008 z m 3.3859,-1.2172 v -0.13229 h -0.26458 v 0.26458 h 0.26458 z m 5.4471,-0.34103 0.40629,-0.22738 -2.2222,-0.8729 -0.29422,0.17966 -0.29423,0.17966 -0.52916,0.43858 -0.52917,0.40621 -0.52917,0.4062 3.5856,-0.28266 z m -4.9179,-0.86521 v -0.51355 l -1.1906,0.008 -0.36758,0.23278 -0.36758,0.23277 1.5269,0.8 0.39892,-0.24654 z m 4.2361,-2.7591 -0.32658,-0.3935 0.15359,-0.40025 0.15359,-0.40024 h -1.7067 l -1.8135,-0.52012 -0.1046,0.1232 0.12879,0.84515 0.1288,0.84514 0.56745,0.11101 0.56745,0.11102 2.5783,0.072 z m 6.9023,18.586 -0.26905,-0.70766 -0.70209,-2.8033 -0.70208,-2.8033 0.27192,-0.27192 1.1307,4.816 0.27121,0.71333 0.27121,0.71334 0.46813,0.28932 -0.23543,0.38093 -0.23542,0.38093 z m -20.498,-5.7567 0.16792,-0.92605 0.23157,-0.52916 0.23156,-0.52917 -0.33584,1.8521 -0.23156,0.52917 -0.23157,0.52917 z m 0.64933,-2.5356 0.0209,-0.50711 0.13896,0.34726 0.13897,0.34727 -0.15986,0.15985 -0.15985,0.15985 z"
       fill="#918d8f"
       id="path64" /><path
       d="m 136.95,146.01 v -0.24897 l 0.52917,-0.32704 v 0.82498 H 136.95 Z m 12.269,-0.14255 -0.1631,-0.42506 0.32995,-0.32995 v 0.64859 l 0.26458,-0.16352 0.26459,-0.16352 v 0.52916 l -0.26645,0.16468 -0.26646,0.16468 z m -8.5337,-0.69989 -0.0307,-0.42995 -0.82682,-0.16536 -0.82682,-0.16537 h -1.2568 l -0.016,0.66146 -0.25281,-0.43288 -0.25282,-0.43287 -1.881,-0.35288 -2.2275,-0.98678 -1.7154,-1.6538 -0.32632,-1.3002 0.17612,-0.70176 0.17613,-0.70175 0.84474,-0.79429 0.84475,-0.79428 1.1336,-0.50478 1.1336,-0.50477 -0.0958,-8.144 0.86723,-1.3236 2.3778,-1.3935 1.3928,-0.37077 1.3928,-0.37076 1.7198,-0.006 v -3.8936 l 4.771,0.0572 -0.31992,1.4769 0.31675,0.38166 0.31674,0.38165 -1.5127,0.58719 -2.5539,-0.57842 h -0.75338 v 1.5875 h 2.287 l 2.6078,0.8806 1.8521,1.1674 0.46678,0.52232 0.46678,0.52233 0.39311,1.5093 0.39312,1.5093 -0.0372,0.37106 -0.45478,-1.0583 -0.0372,11.707 -1.1245,1.0341 -1.1245,1.0341 -1.5875,0.59548 -0.885,0.28182 -0.11678,0.6115 -0.11679,0.61149 -0.036,-0.59532 -0.036,-0.59531 h -1.0964 l -2.2109,-1.268 -0.59531,-0.17759 -0.59532,-0.1776 v 1.8878 h -0.75494 l -0.242,0.92604 z m -0.0307,-3.0096 v -1.9844 h 0.4483 l 0.57422,-1.1906 0.0179,0.34813 0.0179,0.34812 -0.54778,1.0236 h 2.1353 l -0.0618,-5.424 -0.33502,-3.36 -2.5282,-0.1968 -3.1385,-1.2677 -0.15625,1.0893 -0.15625,1.0893 0.0792,5.0053 0.0792,5.0052 0.30851,0.10262 0.3085,0.10262 0.12382,-0.47767 0.12382,-0.47766 0.0307,0.69931 0.0307,0.6993 1.9844,0.82308 0.66146,0.0272 z m -2.6249,-1.0804 0.0209,-0.50712 0.13897,0.34727 0.13896,0.34726 -0.15985,0.15986 -0.15985,0.15985 z m 0.24369,-1.3009 v -0.13229 h 0.26458 v 0.26459 h -0.26458 z m 0.0209,-0.8158 0.0209,-0.50711 0.13896,0.34726 0.13897,0.34727 -0.15986,0.15985 -0.15985,0.15985 z m 0.29527,-1.3009 0.01,-0.79375 0.12197,0.46805 0.12197,0.46806 -0.13178,0.32569 -0.13177,0.3257 z m 0.2339,-1.345 0.0209,-0.50712 0.13897,0.34727 0.13896,0.34726 -0.15985,0.15986 -0.15985,0.15985 z m 0.24369,-1.9623 v -0.35278 l 0.35278,0.35278 -0.17639,0.17638 -0.17639,0.17639 z m 0.26458,-2.5136 v -0.13229 h 0.26459 v 0.26459 h -0.26459 z m 2.1167,10.716 v -1.5875 h -0.52917 v 3.175 h 0.52917 z m 9.3225,-1.1906 0.19439,-0.26458 0.008,-11.509 h -0.44715 l -0.82511,0.92605 -0.0389,5.9306 -0.0388,5.9306 0.9531,-0.7487 z m -7.7057,-10.385 0.0294,-0.46302 -0.0546,-1.8521 -0.0546,-1.8521 -0.1898,-0.196 -2.1919,1.736 -3.1986,1.709 1.265,0.67997 2.1167,0.66597 2.249,0.0354 z m 7.1762,-1.6318 0.86389,-0.77189 -0.1486,-0.14859 -0.1486,-0.1486 -4.712,-0.31654 -1.8186,-0.75986 -0.1768,0.1768 1.7133,1.2694 2.6458,1.4616 0.91769,0.01 z m -10.592,-1.9809 1.402,-0.3715 1.4552,-0.56683 v -0.186 l -1.6216,0.238 -3.069,-0.65129 -0.54445,0.29138 -0.54446,0.29138 -0.43705,0.43706 -0.43706,0.43705 0.70056,0.44417 1.694,0.008 z m 8.3541,-1.4527 0.45618,-0.25529 -1.3229,-0.49572 -1.1012,-0.34254 -1.103,0.93334 -0.48539,0.3409 -0.4854,0.3409 3.5856,-0.2663 z m -4.9678,-0.68938 v -0.66146 h -1.5563 l -0.15576,0.25202 -0.15575,0.25202 1.4709,0.79769 0.39687,0.0212 z m 4.2361,-2.907 -0.32658,-0.3935 0.15359,-0.40025 0.15359,-0.40024 h -1.7067 l -1.8135,-0.52012 -0.1046,0.1232 0.12879,0.84515 0.1288,0.84514 0.56745,0.11101 0.56745,0.11102 2.5783,0.072 z m 6.8764,18.65 v -0.26458 h 0.52917 v 0.52916 h -0.52917 z m -0.26458,-1.0583 v -0.35278 l 0.35278,0.35278 -0.17639,0.17638 -0.17639,0.17639 z m -0.26459,-0.79375 v -0.35278 l 0.35278,0.35278 -0.17639,0.17638 -0.17639,0.17639 z m -0.50827,-2.271 0.0209,-0.50712 0.13897,0.34727 0.13896,0.34726 -0.15985,0.15985 -0.15985,0.15986 z m -0.26459,-1.0583 0.0209,-0.50711 0.13896,0.34726 0.13897,0.34727 -0.15985,0.15985 -0.15986,0.15985 z m -0.28547,-0.90399 v -0.35278 l 0.35278,0.35278 -0.35278,0.35278 z m -18.785,-0.52916 v -0.35278 l 0.35278,0.35278 -0.17639,0.17638 -0.17639,0.17639 z m 0.26459,-0.66146 v -0.13229 h 0.26458 v 0.26458 h -0.26458 z m 18.013,-1.345 0.0209,-0.50712 0.13896,0.34727 0.13897,0.34726 -0.15985,0.15986 -0.15986,0.15985 z m -0.26458,-1.0583 0.0209,-0.50712 0.13896,0.34727 0.13897,0.34726 -0.15986,0.15985 -0.15985,0.15986 z m -16.954,-0.7717 v -0.13229 h 0.26458 v 0.26458 h -0.26458 z"
       fill="#9d7685"
       id="path65" /><path
       d="m 136.95,146.01 v -0.24897 l 0.52917,-0.32704 v 0.82498 H 136.95 Z m 12.269,-0.14255 -0.1631,-0.42506 0.32995,-0.32995 v 0.64859 l 0.26458,-0.16352 0.26459,-0.16352 v 0.52916 l -0.26645,0.16468 -0.26646,0.16468 z m -8.5337,-0.69989 -0.0307,-0.42995 -0.82682,-0.16536 -0.82682,-0.16537 h -1.2568 l -0.016,0.66146 -0.25281,-0.43288 -0.25282,-0.43287 -1.881,-0.35288 -2.2275,-0.98678 -1.7154,-1.6538 -0.32632,-1.3002 0.17612,-0.70176 0.17613,-0.70175 0.84474,-0.79429 0.84475,-0.79428 1.1336,-0.50478 1.1336,-0.50477 -0.0958,-8.144 0.86723,-1.3236 2.3778,-1.3935 1.3928,-0.37077 1.3928,-0.37076 1.7198,-0.006 v -3.8936 l 4.771,0.0572 -0.31992,1.4769 0.31675,0.38166 0.31674,0.38165 -1.5127,0.58719 -2.5539,-0.57842 h -0.75338 v 1.5875 h 2.287 l 2.6078,0.8806 1.8521,1.1674 0.46678,0.52232 0.46678,0.52233 0.39311,1.5093 0.39312,1.5093 -0.0372,0.37106 -0.45478,-1.0583 -0.0372,11.707 -1.1245,1.0341 -1.1245,1.0341 -1.5875,0.59548 -0.885,0.28182 -0.11678,0.6115 -0.11679,0.61149 -0.036,-0.59532 -0.036,-0.59531 h -1.0964 l -2.2109,-1.268 -0.59531,-0.17759 -0.59532,-0.1776 v 1.8878 h -0.75494 l -0.242,0.92604 z m -0.0307,-2.9813 v -1.9561 l 0.85267,-0.3272 -0.15345,0.39988 -0.15344,0.39988 h 2.1 l -0.0618,-5.424 -0.33502,-3.3855 -2.1167,-0.20839 -2.1167,-0.56262 -1.3928,-0.7196 -0.327,1.635 v 10.486 l 0.29417,0.1818 0.29416,0.18181 0.23095,-0.36463 0.23096,-0.36463 0.004,0.56702 0.004,0.56701 1.9844,0.82308 0.66146,0.0272 z m 0.79375,-2.8064 v -0.35278 l 0.35278,0.35278 -0.35278,0.35278 z m -2.8686,-1.8521 v -0.66146 l 0.13345,0.33073 0.13346,0.33073 -0.13346,0.33072 -0.13345,0.33073 z m 0.22281,-1.1906 v -0.13229 h 0.26458 v 0.26458 h -0.26458 z m 2.6458,6.2177 v -1.5875 h -0.52917 v 3.175 h 0.52917 z m 9.2678,-1.0721 0.25723,-0.48064 v -11.701 l -0.65314,0.47537 -0.65315,0.47537 -0.016,12.022 0.40423,-0.15512 0.40422,-0.15511 z m -7.6424,-10.503 0.0379,-0.46302 -0.066,-1.8521 -0.066,-1.8521 -0.184,-0.196 -2.1919,1.736 -3.2552,1.7392 2.3799,1.0245 0.79375,0.28478 2.5135,0.0418 z m 7.1677,-1.6318 0.86389,-0.77189 -0.30682,-0.30682 -1.5449,-0.0602 -3.944,-0.48009 -0.60766,-0.39815 -0.60767,-0.39816 v 0.44185 l 1.7198,1.2742 2.6458,1.4616 0.91769,0.01 z m -9.4545,-2.2712 1.3229,-0.44826 0.4135,-0.38818 -1.6382,0.24044 -3.069,-0.65129 -0.54445,0.29138 -0.54446,0.29138 -0.43705,0.43706 -0.43706,0.43705 0.70056,0.47969 2.9104,-0.241 z m 7.2167,-1.1623 0.45618,-0.25529 -1.5875,-0.58208 -0.74372,-0.26384 -1.0172,0.70492 -1.0172,0.70492 v 0.26913 l 3.4533,-0.32247 z m -4.9678,-0.70614 v -0.67823 l -1.7198,0.1658 0.0297,0.26459 0.0297,0.26458 1.2636,0.65366 0.39687,0.008 z m 4.2436,-3.0068 -0.27294,-0.51 0.13427,-0.3499 0.13426,-0.34989 -1.9902,-0.012 -1.6689,-0.41633 0.0407,0.87533 0.0407,0.87532 1.0583,0.34413 2.7968,0.0528 z m 6.8689,18.766 v -0.26458 h 0.52917 v 0.52916 h -0.52917 z m -0.26458,-1.0583 v -0.35278 l 0.35278,0.35278 -0.17639,0.17638 -0.17639,0.17639 z m -0.26459,-0.79375 v -0.35278 l 0.35278,0.35278 -0.17639,0.17638 -0.17639,0.17639 z m -0.50827,-2.271 0.0209,-0.50712 0.13897,0.34727 0.13896,0.34726 -0.15985,0.15985 -0.15985,0.15986 z m -0.26459,-1.0583 0.0209,-0.50711 0.13896,0.34726 0.13897,0.34727 -0.15985,0.15985 -0.15986,0.15985 z m -0.28547,-0.90399 v -0.35278 l 0.35278,0.35278 -0.35278,0.35278 z m -18.785,-0.52916 v -0.35278 l 0.35278,0.35278 -0.17639,0.17638 -0.17639,0.17639 z m 0.26459,-0.66146 v -0.13229 h 0.26458 v 0.26458 h -0.26458 z m 18.013,-1.345 0.0209,-0.50712 0.13896,0.34727 0.13897,0.34726 -0.15985,0.15986 -0.15986,0.15985 z m -0.26458,-1.0583 0.0209,-0.50712 0.13896,0.34727 0.13897,0.34726 -0.15986,0.15985 -0.15985,0.15986 z m -16.954,-0.7717 v -0.13229 h 0.26458 v 0.26458 h -0.26458 z"
       fill="#9f5f71"
       id="path66" /><path
       d="m 136.95,146.01 v -0.24897 l 0.52917,-0.32704 v 0.82498 H 136.95 Z m 12.269,-0.14255 -0.1631,-0.42506 0.32995,-0.32995 v 0.64859 l 0.26458,-0.16352 0.26459,-0.16352 v 0.52916 l -0.26645,0.16468 -0.26646,0.16468 z m -8.5337,-0.69989 -0.0307,-0.42995 -0.82682,-0.16536 -0.82682,-0.16537 h -1.2568 l -0.016,0.66146 -0.25281,-0.43288 -0.25282,-0.43287 -1.881,-0.35288 -2.2275,-0.98678 -1.7154,-1.6538 -0.32632,-1.3002 0.17612,-0.70176 0.17613,-0.70175 0.84474,-0.79429 0.84475,-0.79428 1.1336,-0.50478 1.1336,-0.50477 -0.0958,-8.144 0.86723,-1.3236 2.3778,-1.3935 1.3928,-0.37077 1.3928,-0.37076 1.7198,-0.006 v -3.9688 l 1.4552,0.0614 -0.92604,0.242 v 1.72 l 1.9844,0.56868 -2.249,-0.2784 v 1.6551 h 2.287 l 2.6078,0.8806 1.8521,1.1674 0.46678,0.52232 0.46678,0.52233 0.39311,1.5093 0.39312,1.5093 -0.0372,0.37106 -0.45478,-1.0583 -0.0372,11.707 -1.1245,1.0341 -1.1245,1.0341 -1.5875,0.59548 -0.885,0.28182 -0.11678,0.6115 -0.11679,0.61149 -0.036,-0.59532 -0.036,-0.59531 h -1.0964 l -2.2109,-1.268 -0.59531,-0.17759 -0.59532,-0.1776 v 1.8878 h -0.75494 l -0.242,0.92604 z m -0.0307,-2.9813 v -1.9561 l 0.85267,-0.3272 -0.15345,0.39988 -0.15344,0.39988 1.1162,3.4e-4 1.1162,3.5e-4 -0.15147,-4.1829 -0.15146,-4.1829 -0.3951,-0.63928 -0.39869,0.24641 -3.4879,-0.72976 -1.5707,-0.81225 -0.327,1.635 v 10.486 l 0.29417,0.1818 0.29416,0.18181 0.23095,-0.36463 0.23096,-0.36463 0.004,0.56702 0.004,0.56701 1.9844,0.82308 0.66146,0.0272 z m 0.79375,-2.8064 v -0.35278 l 0.35278,0.35278 -0.35278,0.35278 z m -2.8686,-1.8521 v -0.66146 l 0.13345,0.33073 0.13346,0.33073 -0.13346,0.33072 -0.13345,0.33073 z m 0.22281,-1.1906 v -0.13229 h 0.26458 v 0.26458 h -0.26458 z m 2.6458,6.2177 v -1.5875 h -0.52917 v 3.175 h 0.52917 z m 9.2678,-1.0721 0.25723,-0.48064 v -11.701 l -0.65314,0.47537 -0.65315,0.47537 -0.016,12.022 0.40423,-0.15512 0.40422,-0.15511 z m -7.6119,-10.538 0.1301,-0.49747 -0.13479,-1.8838 -0.13478,-1.8838 h -0.27583 l -0.87303,0.6659 -0.87304,0.6659 -3.5888,2.082 2.3745,1.0221 0.79375,0.28478 2.4518,0.0418 z m 7.1372,-1.5973 0.86389,-0.77189 -0.4021,-0.4021 -5.2725,-0.36564 -1.3824,-0.90577 -0.12153,0.12154 -0.12154,0.12153 2.0088,1.5814 2.6458,1.3682 0.91769,0.0246 z m -9.4545,-2.2712 1.3229,-0.44826 0.37026,-0.3451 -1.6656,-0.035 -1.6656,-0.0349 -1.0493,-0.56159 -1.8105,1.095 -0.18447,0.29045 -0.18448,0.29045 0.31677,0.21913 0.31676,0.21913 2.9104,-0.241 z m 6.5802,-0.94832 1.0239,-0.2843 -0.46032,-0.42285 -2.0247,-0.64744 -1.1503,1.0404 -0.52916,0.29267 -0.52917,0.29267 2.6458,0.014 z m -4.3312,-0.92013 v -0.67823 l -1.7198,0.1658 0.0297,0.26459 0.0297,0.26458 1.2636,0.65366 0.39687,0.008 z m 11.112,15.759 v -0.26458 h 0.52917 v 0.52916 h -0.52917 z m -0.26458,-1.0583 v -0.35278 l 0.35278,0.35278 -0.17639,0.17638 -0.17639,0.17639 z m -0.26459,-0.79375 v -0.35278 l 0.35278,0.35278 -0.17639,0.17638 -0.17639,0.17639 z m -0.50827,-2.271 0.0209,-0.50712 0.13897,0.34727 0.13896,0.34726 -0.15985,0.15985 -0.15985,0.15986 z m -0.26459,-1.0583 0.0209,-0.50711 0.13896,0.34726 0.13897,0.34727 -0.15985,0.15985 -0.15986,0.15985 z m -0.28547,-0.90399 v -0.35278 l 0.35278,0.35278 -0.35278,0.35278 z m -18.785,-0.52916 v -0.35278 l 0.35278,0.35278 -0.17639,0.17638 -0.17639,0.17639 z m 0.26459,-0.66146 v -0.13229 h 0.26458 v 0.26458 h -0.26458 z m 18.013,-1.345 0.0209,-0.50712 0.13896,0.34727 0.13897,0.34726 -0.15985,0.15986 -0.15986,0.15985 z m -0.26458,-1.0583 0.0209,-0.50712 0.13896,0.34727 0.13897,0.34726 -0.15986,0.15985 -0.15985,0.15986 z m -16.954,-0.7717 v -0.13229 h 0.26458 v 0.26458 h -0.26458 z m 11.589,-7.537 0.87332,-0.20683 0.15657,-0.15657 0.15656,-0.15657 -0.6137,-0.73946 0.15956,-0.4158 0.15955,-0.4158 -2.8235,-0.169 3.3213,-0.25712 -0.32536,1.4769 0.31675,0.38166 0.31674,0.38165 -0.70744,0.26897 -0.70744,0.26896 -1.1562,-0.0542 z"
       fill="#726d70"
       id="path67" /><path
       d="m 136.95,145.98 v -0.2802 l 0.26459,0.16352 0.26458,0.16352 v 0.23336 H 136.95 Z m 12.345,-0.1032 -0.14712,-0.38341 0.76376,0.29309 -0.29278,0.47372 h -0.1768 z m -3.0845,-0.54265 v -0.13229 h 0.26458 v 0.26459 h -0.26458 z m -8.7301,-0.99218 -0.001,-0.19844 h -1.0385 l -3.0325,-1.1346 -1.0673,-0.99559 -1.0673,-0.9956 v -2.1527 l 2.0948,-2.1453 2.0056,-0.60088 -0.0488,-7.9826 0.18188,-0.46978 0.18188,-0.46977 0.74465,0.61801 3.3499,-0.31282 2.8236,-1.0729 0.1782,0.1782 -1.8428,1.4056 -3.5811,2.0775 2.896,1.348 -0.84723,0.006 -2.4183,-1.2858 0.0453,6.2653 0.0453,6.2653 2.6458,1.3874 1.7198,0.31919 v -3.483 l -0.39687,0.1523 -0.39688,0.15229 v -0.71234 l 0.44641,-0.36313 0.44642,-0.36313 -0.17353,0.46302 -0.17352,0.46303 1.1162,2.9e-4 1.1162,3e-4 -0.32434,-8.7475 -0.30334,-0.30334 0.22012,-0.57896 0.22013,-0.57897 -0.34174,-4.2038 -3.7516,-0.076 -1.2,-0.64225 0.45368,-0.4492 2.408,-0.64162 1.4044,1.4044 h 0.8178 v -1.2894 l -0.85989,-0.10671 -0.8599,-0.10672 1.7198,-0.0846 v -3.9688 l 1.1906,0.0418 -0.33073,0.13346 -0.33073,0.13345 v 1.7692 l 0.92604,0.242 -1.1906,0.0614 v 1.5258 l 3.3242,0.356 0.38841,0.25773 0.38841,0.25774 -0.67877,-0.15675 -0.67877,-0.15676 -2.2833,1.4881 1.7747,0.1746 2.2567,-0.3384 0.7448,-0.7448 1.0722,0.77671 1.0722,0.77671 0.48306,0.94264 0.15247,0.99219 0.15246,0.99219 h -0.43928 l -0.14251,-0.37136 -0.1425,-0.37135 0.2722,-1.0409 -4.6499,-0.0916 -1.1774,-0.52082 -1.1774,-0.52083 -0.20721,0.20721 2.0088,1.5822 2.7605,1.392 h 1.0111 l 0.32938,-0.39687 0.32937,-0.39688 0.59667,0.0278 -0.59531,0.41527 -0.59532,0.41527 v 12.106 h 0.46438 l 0.36312,-0.43752 0.36313,-0.43751 0.15954,-1.4807 0.15954,-1.4807 0.0389,1.4989 0.0389,1.4989 -2.4106,2.1219 -1.2231,0.41675 -1.2231,0.41674 h -0.97916 l -3.1448,-1.5875 h -0.51073 l -0.0829,0.8599 -0.0829,0.85989 h -4.0987 z m 3.1738,-0.99219 V 142.997 l 0.35278,0.35278 -0.35278,0.35278 z m 13.758,-2.3812 v -0.35278 l 0.35278,0.35278 -0.35278,0.35278 z m -3.3368,-7.276 8.4e-4,-3.4396 0.0928,1.7969 0.0928,1.797 -0.0936,1.6426 -0.0937,1.6426 z m 1.7493,1.9844 v -0.35278 l 0.35278,0.35278 -0.35278,0.35278 z m -11.972,-4.144 0.33073,-0.13345 0.33073,0.13345 0.33073,0.13346 h -1.3229 z m 10.914,-0.22164 v -0.13229 h 0.26458 v 0.26458 h -0.26458 z m -0.26458,-1.0583 v -0.13229 h 0.26458 v 0.26459 h -0.26458 z m -15.61,-3.4305 v -0.10535 l 0.80898,-0.57605 0.80899,-0.57604 0.25671,0.25671 -1.8747,1.1061 z m 11.73,-1.6407 0.17639,-0.17639 0.35278,0.35278 h -0.70556 z m -2.734,-2.3372 v -0.13229 h 0.26459 v 0.26458 h -0.26459 z m 2.3642,-0.11618 0.37986,-0.24036 -0.33649,-0.40545 -0.33649,-0.40546 0.18896,-0.30575 0.18897,-0.30575 -0.72925,-0.46191 1.2092,-0.008 -0.2984,0.55757 -0.29841,0.55758 0.2891,0.28909 0.28909,0.28909 v 0.68792 l -0.92604,-0.008 z m -2.3642,-2.0005 v -0.13229 h 0.26459 v 0.26458 h -0.26459 z"
       fill="#9c2c4a"
       id="path68" /><path
       d="m 136.95,145.98 v -0.2802 l 0.26459,0.16352 0.26458,0.16352 v 0.23336 H 136.95 Z m 12.345,-0.1032 -0.14712,-0.38341 0.76376,0.29309 -0.29278,0.47372 h -0.1768 z m -3.0845,-0.54265 v -0.13229 h 0.26458 v 0.26459 h -0.26458 z m -8.7301,-0.99218 -0.001,-0.19844 h -1.0385 l -3.0325,-1.1346 -1.0673,-0.99559 -1.0673,-0.9956 v -2.1527 l 2.0948,-2.1453 2.0056,-0.60088 -0.0522,-8.0889 0.24841,-0.44388 0.2484,-0.44388 0.36904,0.59712 2.7469,-0.014 3.7042,-1.263 0.1426,0.1406 -1.6235,1.0902 -1.6235,1.0902 -2.0413,0.94016 -0.014,0.42122 2.7781,1.2934 -0.84723,0.006 -2.4012,-1.2767 -0.0559,0.57222 -0.0559,0.57223 -0.0898,5.2729 -0.0898,5.2729 0.5161,0.96434 1.2473,0.6226 1.2473,0.62261 1.7198,0.32834 v -3.483 l -0.39687,0.1523 -0.39688,0.15229 v -0.71234 l 0.44641,-0.36313 0.44642,-0.36313 -0.17353,0.46302 -0.17352,0.46303 2.2324,1.2e-4 -0.1618,-6.747 -0.20573,-1.2129 -0.20574,-1.2129 0.19269,-0.52087 0.19268,-0.52087 -0.17063,-2.1027 -0.17062,-2.1027 -3.9688,-0.28854 -0.52917,-0.30014 -0.52916,-0.30015 1.5875,-0.61282 1.7198,-0.28738 v 0.77805 l 1.3478,0.61411 h 0.50427 v -1.2894 l -0.85989,-0.10671 -0.8599,-0.10672 1.7198,-0.0846 v -3.9688 l 1.1906,0.0418 -0.33073,0.13346 -0.33073,0.13345 v 1.7692 l 0.92604,0.242 -1.1906,0.0614 v 1.5258 l 3.3242,0.356 0.77682,0.49866 -1.592,-0.30444 -1.1414,0.96664 -0.97079,0.63034 3.2283,0.0312 1.6658,-0.58071 -0.17113,-0.2769 -0.17113,-0.27689 0.84872,0.5011 0.84872,0.50111 0.54632,0.58131 0.54631,0.58131 0.41732,2.277 -0.24744,0.24926 -0.23919,-0.38702 -0.23918,-0.38701 0.13927,-0.55491 0.13927,-0.55492 -2.5495,-0.0982 -2.7188,-0.21049 -2.176,-1.1101 v 0.2828 l 1.7198,1.5644 1.7198,0.90535 1.7198,0.90536 1.1365,-0.43502 0.17498,-0.28312 0.17498,-0.28313 0.63023,0.012 -0.66146,0.50798 -0.66146,0.50797 -0.1832,12.247 1.0797,-0.57786 0.42078,-0.65862 0.16232,-1.4552 0.16233,-1.4552 0.0389,1.4989 0.0389,1.4989 -2.4106,2.1219 -1.2231,0.41675 -1.2231,0.41674 h -0.97916 l -3.1448,-1.5875 h -0.51073 l -0.0829,0.8599 -0.0829,0.85989 h -4.0987 z m 3.1738,-0.99219 V 142.997 l 0.35278,0.35278 -0.35278,0.35278 z m 13.758,-2.3812 v -0.35278 l 0.35278,0.35278 -0.35278,0.35278 z m -3.3368,-7.276 8.4e-4,-3.4396 0.0928,1.7969 0.0928,1.797 -0.0936,1.6426 -0.0937,1.6426 z m 1.7493,1.9844 v -0.35278 l 0.35278,0.35278 -0.35278,0.35278 z m -11.972,-4.144 0.33073,-0.13345 0.33073,0.13345 0.33073,0.13346 h -1.3229 z m 10.914,-0.22164 v -0.13229 h 0.26458 v 0.26458 h -0.26458 z m -0.26458,-1.0583 v -0.13229 h 0.26458 v 0.26459 h -0.26458 z m -15.61,-3.4305 v -0.10535 l 0.80898,-0.57605 0.80899,-0.57604 0.25671,0.25671 -1.8747,1.1061 z m 11.73,-1.6407 0.17639,-0.17639 0.35278,0.35278 h -0.70556 z m -2.734,-2.3372 v -0.13229 h 0.26459 v 0.26458 h -0.26459 z m 2.3642,-0.11618 0.37986,-0.24036 -0.33649,-0.40545 -0.33649,-0.40546 0.18896,-0.30575 0.18897,-0.30575 -0.72925,-0.46191 1.2092,-0.008 -0.2984,0.55757 -0.29841,0.55758 0.2891,0.28909 0.28909,0.28909 v 0.68792 l -0.92604,-0.008 z m -2.3642,-2.0005 v -0.13229 h 0.26459 v 0.26458 h -0.26459 z"
       fill="#534f51"
       id="path69" /><path
       d="m 149.38,146.13 v -0.13229 h 0.26458 v 0.26459 H 149.38 Z m -10.583,-1.7252 -1.9844,-0.196 -3.098,-1.1009 -1.8529,-1.4133 -0.34474,-0.82508 -0.34474,-0.82509 0.2808,-1.4689 1.074,-0.91929 1.074,-0.91929 0.88735,-0.32088 0.88735,-0.32087 0.32284,-1.2863 -0.29836,-6.7085 0.17707,-0.24562 0.17707,-0.24563 4.2333,-0.0698 2.3812,-0.8548 -1.7496,1.4645 -3.0084,1.5768 -0.39913,0.3777 -0.39914,0.3777 -0.1454,10.622 0.14314,0.8188 0.14315,0.81879 2.7772,1.4051 h 1.183 v 0.52917 l -0.1322,-0.074 z m 2.6458,-0.12686 v -0.13229 h 0.26458 v 0.26458 h -0.26458 z m 1.9287,-0.87686 -1.9077,-0.97255 0.0638,-1.6968 1.885,0.1066 -0.0818,-2.7781 -0.0818,-2.7781 -0.1586,-8.5521 -0.178,-0.28801 -0.17799,-0.288 h -3.0648 l -1.7418,-0.60719 0.63836,-0.33448 0.63836,-0.33447 1.9736,-0.37025 v 0.7677 l 1.3478,0.61411 h 0.50427 v -1.8707 l 1.0236,0.54778 1.0096,3.2e-4 1.0096,3.3e-4 -0.70529,0.59499 -0.7053,0.59499 -0.97066,0.63034 3.3243,0.0312 1.7784,-0.74307 1.6104,0.97934 0.56294,1.0519 v 0.37919 l -5.1229,-0.33652 -2.1242,-1.051 -0.21168,0.21168 1.7703,1.6095 3.5622,1.8916 0.993,-0.53144 -0.21557,1.1137 -0.21556,1.1137 -0.023,10.451 h 0.36277 l 1.1264,-0.92604 -2.0566,1.958 -1.4106,0.41009 -1.4106,0.41008 -0.71231,-0.0366 z m -2.7225,-2.695 v -0.26459 h 0.5604 l -0.16352,0.26459 -0.16353,0.26458 H 140.649 Z m 0.52917,-0.66146 v -0.13229 h 0.26458 v 0.26458 h -0.26458 z m -1.5875,-8.7312 v -0.13229 h 0.26458 v 0.26458 h -0.26458 z m -0.79375,-0.26459 v -0.13229 h 0.26458 v 0.26459 h -0.26458 z m -0.52917,-0.26458 v -0.13229 h 0.26458 v 0.26458 h -0.26458 z m -0.52917,-0.26458 v -0.13229 h 0.26459 v 0.26458 h -0.26459 z m 12.732,-1.0629 0.42849,-0.5246 0.14593,-0.39688 0.14593,-0.39687 0.0418,1.5434 -0.17409,-0.17409 -0.17409,-0.1741 -0.42122,0.32388 -0.42122,0.32387 z m -13.525,-3.435 v -0.13229 h 0.26459 v 0.26458 h -0.26459 z m 0.52917,-0.26458 v -0.1323 h 0.26458 v 0.26459 h -0.26458 z m 9.2604,-0.79375 v -0.1323 h 0.26458 v 0.26459 h -0.26458 z m -0.52917,-0.26459 v -0.13229 h 0.26458 v 0.26458 h -0.26458 z m -3.1092,-3.175 -0.018,-1.1906 h 0.48136 v 2.3812 h -0.44536 z m 0.72794,1.0583 v -0.1323 h 0.26458 v 0.26459 h -0.26458 z m 3.7042,0 v -0.1323 h 0.26458 v 0.26459 h -0.26458 z m -0.52917,-0.79375 v -0.1323 h 0.26458 v 0.26459 h -0.26458 z m 0.35278,-1.1024 0.17639,-0.17639 0.17639,0.17639 0.17639,0.17638 h -0.70556 z"
       fill="#920629"
       id="path70" /><path
       d="m 149.38,146.13 v -0.13229 h 0.26458 v 0.26459 H 149.38 Z m -10.583,-1.7252 -1.9844,-0.196 -3.098,-1.1009 -1.8529,-1.4133 -0.34474,-0.82508 -0.34474,-0.82509 0.2808,-1.4689 1.074,-0.91929 1.074,-0.91929 0.88735,-0.32088 0.88735,-0.32087 0.32284,-1.2863 -0.29836,-6.7085 0.4644,-0.75141 0.32851,0.32852 0.32852,0.32851 h -0.635 v 0.52917 l 0.3187,-0.0661 0.31871,-0.0662 0.012,0.39428 0.012,0.39427 1.483,0.26978 -0.54307,0.38914 -0.54308,0.38914 -0.0307,0.80149 -0.0307,0.80148 -0.242,-0.92604 -0.62266,-0.008 0.67938,-0.43108 -0.33912,-0.88374 h -0.40802 l -0.0475,5.3578 -0.0475,5.3578 1.2212,2.488 2.6534,1.3485 h 1.183 v 0.52917 l -0.1322,-0.074 z m 2.6458,-0.12686 v -0.13229 h 0.26458 v 0.26458 h -0.26458 z m 1.9287,-0.87686 -1.9077,-0.97255 0.0328,-0.87274 0.0328,-0.87275 1.488,0.32682 0.67437,-0.42121 0.70278,-0.1064 0.37621,-0.14437 0.37622,-0.14436 v -1.3395 h 0.52916 v 0.80685 l 1.2492,0.47494 -0.25604,2.6646 0.14869,0.3875 0.1487,0.3875 0.54535,-0.14262 0.54535,-0.14261 v -0.51699 l -1.0583,-0.27676 v -0.37925 h 0.79375 v 0.44097 h 0.42752 l -0.76438,-4.101 -0.11039,-0.38946 -0.11038,-0.38946 -0.4926,0.77892 v -1.5875 l 0.56489,0.79375 -0.15816,-1.0583 -0.15817,-1.0583 -0.30108,-1.8733 -0.30108,-1.8734 -1.0523,0.36256 -1.0523,0.36255 -0.29628,-0.10405 -0.29628,-0.10406 -0.61736,1.1107 v -2.4191 l 0.47696,-0.75363 0.008,1.1969 2.249,-0.34121 0.4177,-0.36169 0.41771,-0.36168 h 0.38644 l -0.32704,0.52916 h 0.43557 l 2.7027,-0.98786 -0.10942,0.42778 -0.10942,0.42779 -0.48406,3.4396 0.11129,-1.7901 0.11128,-1.7901 -1.054,0.5641 0.11993,0.19405 0.11993,0.19406 -1.4157,-0.018 0.052,0.39688 0.052,0.39687 0.69596,4.5546 0.69597,4.5546 0.44298,1.4742 0.0268,-0.52916 0.0268,-0.52917 0.2466,0.38994 0.24659,0.38994 1.2525,-1.0445 -2.0566,1.958 -1.4106,0.41009 -1.4106,0.41008 -0.71231,-0.0366 z m 2.488,-1.8301 -0.12197,-0.46806 -0.02,1.5875 0.13177,-0.32569 0.13178,-0.3257 z m 1.4041,-0.33577 v -0.35278 l 0.35278,0.35278 -0.35278,0.35278 z m -6.6146,-0.52916 v -0.26459 h 0.5604 l -0.16352,0.26459 -0.16353,0.26458 H 140.649 Z m -4.1409,-2.3812 v -2.249 l 0.20256,2.249 -0.10128,1.1245 -0.10128,1.1245 z m 4.67,1.7198 v -0.13229 h 0.26458 v 0.26458 h -0.26458 z m 2.9104,-0.13229 v -0.35278 l 0.35278,0.35278 -0.17639,0.17638 -0.17639,0.17639 z m -0.73627,-3.3073 0.0239,-3.175 0.18528,2.6458 0.18529,2.6458 -0.20922,0.52917 -0.20921,0.52916 z m 5.2342,2.6614 v -0.41249 h 0.52917 v 0.49794 l -0.52917,0.32704 z m -3.9688,-0.1479 v -0.35278 l 0.35278,0.35278 -0.17639,0.17638 -0.17639,0.17639 z m 1.3229,-0.92605 v -0.13229 h 0.26458 v 0.26459 h -0.26458 z m 2.4426,-0.92604 v -0.92604 l 0.242,0.92604 -0.242,0.92604 z m -0.0614,-1.4552 v -0.13229 h 0.26458 v 0.26459 h -0.26458 z m -2.6458,-1.7198 v -0.35278 l 0.35278,0.35278 -0.35278,0.35278 z m -6.0854,-2.7781 v -0.13229 h 0.26458 v 0.26458 h -0.26458 z m -0.79375,-0.26459 v -0.13229 h 0.26458 v 0.26459 h -0.26458 z m -0.52917,-0.26458 v -0.13229 h 0.26458 v 0.26458 h -0.26458 z m -0.52917,-0.26458 v -0.13229 h 0.26459 v 0.26458 h -0.26459 z m 5.424,-2.2263 -0.26458,-1.9617 -1.7462,-0.586 -0.22443,-0.36313 -0.22442,-0.36313 -2.4048,0.60554 -0.42713,-0.0212 1.3337,-0.72579 1.9736,-0.37025 v 0.7677 l 1.3478,0.61411 h 0.50427 v -1.8707 l 1.0236,0.54778 h 1.9751 l -0.37532,0.37532 -2.0941,-0.1512 v 0.83421 h 0.23013 l 1.3574,-0.51606 v 0.43113 l -1.4299,0.65151 1.7357,1.099 1.5451,0.0542 6.1e-4,0.19843 6e-4,0.19844 h -1.211 l -2.0759,-1.0583 h -0.1286 l -0.0782,1.7859 -0.0782,1.7859 z m 4.101,1.5669 -0.39687,-0.25449 -1.0583,0.27777 0.45868,-0.28794 0.45869,-0.28794 0.73194,0.397 0.73194,0.39701 -0.52917,0.014 z m 3.2066,-0.40343 0.42849,-0.5246 0.14593,-0.39688 0.14593,-0.39687 0.0418,1.5434 -0.17409,-0.17409 -0.17409,-0.1741 -0.42122,0.32388 -0.42122,0.32387 z m -12.996,-0.92148 v -0.35278 l 0.35278,0.35278 -0.35278,0.35278 z m 1.2568,-0.17523 0.33073,-0.13345 0.33073,0.13345 0.33073,0.13346 h -1.3229 z m 0.59531,-0.34389 -0.66145,-0.20179 0.39687,-0.1336 0.39688,-0.1336 2.9104,-0.82753 -0.97078,0.62502 -1.0946,0.92604 -0.31591,-0.0528 z m 0.97014,-0.18643 -0.17639,-0.17639 -0.17638,0.17639 -0.17639,0.17638 h 0.70555 z m 3.5278,0.0285 v -0.41249 l 0.5378,0.33238 -0.15222,0.2463 -0.15223,0.2463 h -0.23335 z m 4.2776,0.0154 0.13247,-0.13248 2.2045,-0.0864 v -0.31513 l -1.1137,-0.69552 0.1919,0.31052 0.19191,0.31051 -1.2545,-0.65364 -0.26458,-0.27722 0.92604,0.33229 v -0.51256 l -1.1906,-0.008 0.76246,-0.48242 1.4544,0.75208 0.82587,1.1791 v 0.41142 h -2.9986 z m -0.30887,-1.3227 v -0.1323 h 0.26458 v 0.26459 h -0.26458 z m -10.848,-0.52917 v -0.13229 h 0.26459 v 0.26458 h -0.26459 z m 2.249,-0.13229 -0.16352,-0.26459 h 1.0896 v 0.52917 h -0.76252 z m -1.7198,-0.13229 v -0.1323 h 0.26458 v 0.26459 h -0.26458 z m 9.2604,-0.79375 v -0.1323 h 0.26458 v 0.26459 h -0.26458 z m -0.52917,-0.26459 v -0.13229 h 0.26458 v 0.26458 h -0.26458 z m -3.1092,-3.175 -0.018,-1.1906 h 0.48136 v 2.3812 h -0.44536 z m 0.72794,1.0583 v -0.1323 h 0.26458 v 0.26459 h -0.26458 z m 3.7042,0 v -0.1323 h 0.26458 v 0.26459 h -0.26458 z m -0.52917,-0.79375 v -0.1323 h 0.26458 v 0.26459 h -0.26458 z m 0.35278,-1.1024 0.17639,-0.17639 0.17639,0.17639 0.17639,0.17638 h -0.70556 z"
       fill="#8a0627"
       id="path71" /><path
       d="m 149.38,146.13 v -0.13229 h 0.26458 v 0.26459 H 149.38 Z m -10.583,-1.7252 -1.9844,-0.196 -3.098,-1.1009 -1.8529,-1.4133 -0.34474,-0.82508 -0.34474,-0.82509 0.2808,-1.4689 1.074,-0.91929 1.074,-0.91929 0.88735,-0.32088 0.88735,-0.32087 0.32284,-1.2863 -0.27592,-6.6706 0.12175,-0.33073 0.12176,-0.33073 h 0.43552 l -0.14867,0.56854 -0.14868,0.56854 1.8021,1.4945 -0.75208,0.014 -0.96771,-0.87576 v 11.823 l 1.1857,1.7305 2.6583,1.345 h 1.183 v 0.52917 l -0.1322,-0.074 z m 2.6458,-0.12686 v -0.13229 h 0.26458 v 0.26458 h -0.26458 z m 1.9287,-0.87686 -1.9077,-0.97255 0.0638,-1.6968 1.635,0.0812 2.291,-0.1068 -0.34868,-1.5875 h 0.57121 v 0.81035 l 0.79375,0.30459 v 3.3517 l 0.48952,0.30254 1.423,-0.64835 -0.15717,-1.2005 -0.15716,-1.2005 -0.37007,-2.1167 -0.37006,-2.1167 -0.34807,-2.4474 -0.34807,-2.4474 -1.6171,0.0626 -1.5639,0.33538 -0.34508,1.3218 -0.005,-1.3229 -0.005,-1.3229 0.12184,0.33073 0.12185,0.33073 1.9403,-0.006 1.3229,-0.35721 1.3229,-0.3572 0.94126,-0.39863 0.94126,-0.39862 -0.13241,0.82511 -0.1324,0.82512 -0.10347,-0.47766 -0.10347,-0.47767 -0.35243,0.1642 -1.9844,0.76512 2.8e-4,0.40987 2.9e-4,0.40987 0.79107,4.6302 0.79108,4.6302 0.13972,0.59531 0.13973,0.59531 h 0.47848 l 1.7604,-1.3743 -2.2872,2.1417 -1.4106,0.41009 -1.4106,0.41008 -0.71231,-0.0366 z m 2.8338,-0.82732 v -1.3073 l -0.52917,-0.32704 v 2.9416 h 0.52917 z m -5.5562,-1.8677 v -0.26459 h 0.5604 l -0.16352,0.26459 -0.16353,0.26458 h -0.23335 z m 0.52917,-0.66146 v -0.13229 h 0.26458 v 0.26458 h -0.26458 z m -4.4561,-9.1281 v -0.66146 l 0.2669,0.66146 -0.2669,0.66146 z m 2.8686,0.39688 v -0.13229 h 0.26458 v 0.26458 h -0.26458 z m -0.79375,-0.26459 v -0.13229 h 0.26458 v 0.26459 h -0.26458 z m -0.52917,-0.26458 v -0.13229 h 0.26458 v 0.26458 h -0.26458 z m -0.52917,-0.26458 v -0.13229 h 0.26459 v 0.26458 h -0.26459 z m 12.732,-1.0629 0.42849,-0.5246 0.14593,-0.39688 0.14593,-0.39687 0.0418,1.5434 -0.17409,-0.17409 -0.17409,-0.1741 -0.42122,0.32388 -0.42122,0.32387 z m -7.4051,-1.9101 -0.0348,-1.1209 -1.9333,-0.8078 0.15025,-0.15026 0.15026,-0.15025 1.0689,0.57204 h 0.56395 v -1.8707 l 1.0236,0.54778 h 1.9751 l -0.18499,0.185 -0.185,0.18499 -2.364,-0.1454 v 0.90295 l 1.9844,-0.30579 -0.74257,0.39916 -0.74258,0.39915 0.61029,0.47647 0.61028,0.47648 1.2305,0.38569 -0.12363,0.12364 -0.12364,0.12363 -2.0416,-0.9235 -0.52916,-0.0336 -0.32722,1.8521 z m 7.4915,0.21796 0.14926,-0.24151 -2.2517,-1.9331 1.6877,0.82564 0.82587,1.1791 v 0.41142 h -0.5604 z m -11.297,-0.1983 0.33073,-0.13345 0.33073,0.13345 0.33073,0.13346 h -1.3229 z m 1.1245,-0.14514 0.13229,-0.13024 1.84,-0.6221 -0.51708,0.5061 -1.5875,0.37647 z m -3.4396,-1.3994 v -0.13229 h 0.26459 v 0.26458 h -0.26459 z m 0.52917,-0.26458 v -0.1323 h 0.26458 v 0.26459 h -0.26458 z m 1.0637,-0.51637 0.66684,-0.3629 1.9736,-0.37025 v 0.67625 l -0.14824,-0.14823 -0.14823,-0.14824 -2.7462,0.73116 -0.26458,-0.014 z m 8.1967,-0.27738 v -0.1323 h 0.26458 v 0.26459 h -0.26458 z m -0.52917,-0.26459 v -0.13229 h 0.26458 v 0.26458 h -0.26458 z m -3.1092,-3.175 -0.018,-1.1906 h 0.48136 v 2.3812 h -0.44536 z m 0.72794,1.0583 v -0.1323 h 0.26458 v 0.26459 h -0.26458 z m 3.7042,0 v -0.1323 h 0.26458 v 0.26459 h -0.26458 z m -0.52917,-0.79375 v -0.1323 h 0.26458 v 0.26459 h -0.26458 z m 0.35278,-1.1024 0.17639,-0.17639 0.17639,0.17639 0.17639,0.17638 h -0.70556 z"
       fill="#601225"
       id="path72" /><path
       d="m 149.38,146.13 v -0.13229 h 0.26458 v 0.26459 H 149.38 Z m -10.583,-1.7252 -1.9844,-0.196 -3.098,-1.1009 -1.8529,-1.4133 -0.34474,-0.82508 -0.34474,-0.82509 0.139,-0.72714 0.139,-0.72715 1.8522,-1.6262 1.9227,-0.88808 0.19439,-0.26459 0.19439,-0.26458 0.004,2.7966 0.004,2.7966 1.4552,1.6283 2.5924,1.3774 h 1.2441 v 0.52917 l -0.1322,-0.074 z m 2.6458,-0.12686 v -0.13229 h 0.26458 v 0.26458 h -0.26458 z m 1.9287,-0.87686 -1.9077,-0.97255 0.0299,-0.79508 0.0299,-0.79509 h 3.9755 l 0.10567,-0.31587 0.10568,-0.31586 0.37978,0.14573 0.37978,0.14574 v 0.45594 l -0.39687,-0.15229 -0.39688,-0.1523 v 3.5382 l 1.7198,-0.30528 -0.52917,0.24532 -0.52917,0.24531 -1.0583,5.8e-4 z m 5.0827,-0.0907 1.0583,-0.54725 1.5673,-1.3957 -0.38677,0.50714 -0.38677,0.50713 -1.0319,0.74964 -1.0319,0.74964 -0.84664,-0.0234 z m -2.249,-1.1492 v -0.13229 h 0.26458 v 0.26459 h -0.26458 z m -5.5562,-1.4552 v -0.26459 h 0.5604 l -0.16352,0.26459 -0.16353,0.26458 H 140.649 Z m 7.4083,-0.39688 v -0.13229 h 0.26459 v 0.26458 h -0.26459 z m -6.8792,-0.26458 v -0.13229 h 0.26458 v 0.26458 h -0.26458 z m 4.2333,-0.26459 v -0.13229 h 0.26458 v 0.26459 h -0.26458 z m -2.3604,-7.1658 0.0209,-0.50711 0.13896,0.34726 0.13897,0.34727 -0.15986,0.15985 -0.15985,0.15985 z m 0.0209,-1.1686 v -0.66146 l 0.2669,0.66146 -0.2669,0.66146 z m 2.2899,0.0838 0.34727,-0.13896 0.3197,0.3197 -1.0142,-0.0418 z m -5.7712,-0.21613 v -0.13229 h 0.26458 v 0.26458 h -0.26458 z m 7.6978,-0.23246 0.9509,-0.37272 1.7283,-0.89374 -0.15714,0.25427 -0.15715,0.25426 -1.7283,0.81729 -1.5875,0.31336 z m -8.4915,-0.0321 v -0.13229 h 0.26458 v 0.26459 h -0.26458 z m -0.52917,-0.26458 v -0.13229 h 0.26458 v 0.26458 h -0.26458 z m -0.52917,-0.26458 v -0.13229 h 0.26459 v 0.26458 h -0.26459 z m -2.3626,-1.6536 0.0186,-0.99219 0.20502,0.52495 0.20503,0.52494 -0.12219,0.46724 -0.12219,0.46725 h -0.20287 z m 1.0397,0.7276 -0.39688,-0.25648 0.63023,-0.008 0.16352,0.26458 0.16352,0.26459 -0.1636,-0.008 z m 14.055,-0.13685 0.42849,-0.5246 0.14593,-0.39688 0.14593,-0.39687 0.0418,1.5434 -0.17409,-0.17409 -0.17409,-0.1741 -0.42122,0.32388 -0.42122,0.32387 z m -7.3937,-1.8814 -0.0462,-1.0922 -0.59531,-0.41043 -0.59531,-0.41044 1.1906,0.28888 v -1.8972 l 0.89929,0.34509 -0.63471,0.21157 v 1.3362 l 1.4552,-0.33172 -1.43,0.91081 -0.0987,1.0708 -0.0987,1.0708 z m 7.6267,0.16616 v -0.35272 l 0.35278,0.35278 -0.35278,0.35278 z m -15.081,-0.13229 v -0.13229 h 0.26458 v 0.26458 h -0.26458 z m 8.9958,-0.39688 -0.39687,-0.25648 0.63022,-0.008 0.16353,0.26458 0.16352,0.26459 -0.1636,-0.008 z m -3.4396,-0.13229 v -0.13229 h 0.26458 v 0.26458 h -0.26458 z m 8.599,-0.56218 -0.79375,-0.67545 1.1018,0.54728 0.34137,0.41132 0.34136,0.41132 -0.197,-0.02 z m -7.8052,0.2976 v -0.13229 h 0.26458 v 0.26458 h -0.26458 z m -5.0271,-0.79375 v -0.13229 h 0.26459 v 0.26458 h -0.26459 z m 0.52917,-0.26458 v -0.1323 h 0.26458 v 0.26459 h -0.26458 z m 11.112,0 v -0.1323 h 0.26458 v 0.26459 h -0.26458 z m -10.583,-0.26459 v -0.13229 h 0.26458 v 0.26458 h -0.26458 z m 3.4396,0 v -0.13229 h 0.26458 v 0.26458 h -0.26458 z m -2.9104,-0.26458 v -0.13229 h 0.26459 v 0.26458 h -0.26459 z m 0.74415,-0.31303 0.34726,-0.13897 0.15985,0.15986 0.15986,0.15985 -1.0142,-0.0418 z m 7.4579,0.0485 v -0.1323 h 0.26458 v 0.26459 h -0.26458 z m -6.4162,-0.30752 0.33073,-0.13346 0.66146,0.26691 h -1.3229 z m 5.3578,0.0429 v -0.13229 h 0.26459 v 0.26458 h -0.26459 z m 0.52917,0 v -0.13229 h 0.26458 v 0.26458 h -0.26458 z m -3.1092,-3.175 -0.018,-1.1906 h 0.48136 v 2.3812 h -0.44536 z m 0.72794,1.0583 v -0.1323 h 0.26458 v 0.26459 h -0.26458 z m 3.7042,0 v -0.1323 h 0.26458 v 0.26459 h -0.26458 z m -0.52917,-0.79375 v -0.1323 h 0.26458 v 0.26459 h -0.26458 z m 0.35278,-1.1024 0.17639,-0.17639 0.17639,0.17639 0.17639,0.17638 h -0.70556 z"
       fill="#312d2e"
       id="path73" /><path
       d="m 149.38,146.13 v -0.13229 h 0.26458 v 0.26459 H 149.38 Z m -12.435,-2.0892 -1.7198,-0.31867 -2.1167,-1.125 -0.8599,-0.79832 -0.85989,-0.79832 v -2.1988 l 0.85989,-0.80417 0.8599,-0.80416 0.52916,-0.32885 0.52917,-0.32884 1.4552,-0.33762 v 5.1279 l 2.2654,2.1582 2.3648,0.88708 -1.5875,-0.012 z m 6.4162,-0.76132 -1.6536,-0.83437 v -1.4745 h 3.9688 v 3.175 l -0.66145,-0.0318 z m 3.3734,0.73385 v -0.13229 h 0.26458 v 0.26458 h -0.26458 z m 0.79375,-0.23628 v -0.10398 l 0.41061,-0.15757 0.41062,-0.15757 -0.16165,0.26155 -0.16165,0.26156 h -0.49793 z m 1.0583,-0.55747 v -0.13229 h 0.26458 v 0.26458 h -0.26458 z m 0.52917,-0.26459 v -0.13229 h 0.26458 v 0.26459 h -0.26458 z m 0.52916,-0.26458 v -0.13229 h 0.26459 v 0.26458 h -0.26459 z m -3.7042,-1.9844 -0.39688,-0.25649 0.92604,-0.008 v 0.52917 l -0.0661,-0.004 -0.0662,-0.004 z m -5.0271,-0.1323 v -0.13229 h 0.26459 v 0.26459 h -0.26459 z m 4.5861,-9.0399 0.17638,-0.17639 0.35278,0.35278 h -0.70555 z m 1.0583,-0.26458 0.17639,-0.17639 0.35278,0.35278 h -0.70556 z m 1.4993,-0.48507 0.66146,-0.37812 h 0.52917 l -1.3229,0.75624 h -0.52916 z m -9.7896,0 v -0.13229 h 0.26458 v 0.26458 h -0.26458 z m -1.8521,-1.3229 v -0.13229 h 0.26458 v 0.26458 h -0.26458 z m -1.0374,-0.55121 0.0209,-0.50712 0.13897,0.34727 0.13896,0.34726 -0.31971,0.31971 z m 15.457,0.15434 0.16352,-0.26459 h 0.23335 v 0.52917 h -0.56039 z m -0.13229,-1.1906 v -0.13229 h 0.26458 v 0.26458 h -0.26458 z m -15.081,-0.26458 v -0.13229 h 0.26458 v 0.26458 h -0.26458 z m 8.9958,-0.52917 v -0.13229 h 0.26458 v 0.26458 h -0.26458 z m 5.6633,-0.17317 -0.18879,-0.30546 0.30546,0.18878 0.30547,0.18879 v 0.23335 h -0.23336 z m -7.5154,-0.75287 -0.66146,-0.21183 1.751,-0.0528 -0.32704,0.52916 -0.101,-0.0528 z m 6.457,-0.0409 -0.18878,-0.30546 0.30546,0.18878 0.30546,0.18879 v 0.23335 h -0.23335 z m -5.0459,-0.40009 0.17639,-0.17639 0.35278,0.35278 h -0.70556 z m -5.6444,-0.48507 v -0.13229 h 0.26459 v 0.26458 h -0.26459 z m 0.88195,-0.30868 0.17639,-0.17639 0.35278,0.35278 h -0.70556 z m 1.2347,-0.22049 v -0.13229 h 0.26458 v 0.26458 h -0.26458 z m 5.0271,0 v -0.13229 h 0.26459 v 0.26458 h -0.26459 z m -2.3812,-0.26458 v -0.13229 h 0.26459 v 0.26458 h -0.26459 z m 0,-1.8521 v -0.1323 h 0.26459 v 0.26459 h -0.26459 z m 0,-0.52917 v -0.13229 h 0.26459 v 0.26458 h -0.26459 z m 0,-1.0583 v -0.1323 h 0.26459 v 0.26459 h -0.26459 z"
       fill="#1b1b1b"
       id="path74" /></g></svg>
