<?xml version="1.0" encoding="UTF-8" standalone="no"?>
<!-- Created with Inkscape (http://www.inkscape.org/) -->

<svg
   width="26.376mm"
   height="25.94mm"
   version="1.1"
   viewBox="0 0 26.376 25.94"
   xml:space="preserve"
   id="svg94"
   sodipodi:docname="tent_medium.svg"
   inkscape:version="1.3 (0e150ed6c4, 2023-07-21)"
   xmlns:inkscape="http://www.inkscape.org/namespaces/inkscape"
   xmlns:sodipodi="http://sodipodi.sourceforge.net/DTD/sodipodi-0.dtd"
   xmlns="http://www.w3.org/2000/svg"
   xmlns:svg="http://www.w3.org/2000/svg"><defs
     id="defs94" /><sodipodi:namedview
     id="namedview94"
     pagecolor="#ffffff"
     bordercolor="#000000"
     borderopacity="0.25"
     inkscape:showpageshadow="2"
     inkscape:pageopacity="0.0"
     inkscape:pagecheckerboard="0"
     inkscape:deskcolor="#d1d1d1"
     inkscape:document-units="mm"
     inkscape:zoom="1.3667759"
     inkscape:cx="-299.24438"
     inkscape:cy="-20.486168"
     inkscape:window-width="2400"
     inkscape:window-height="1261"
     inkscape:window-x="2391"
     inkscape:window-y="-9"
     inkscape:window-maximized="1"
     inkscape:current-layer="svg94" /><g
     transform="translate(-117.58,-114.346)"
     id="g38"><path
       d="m 123.59,139.49 -0.27671,-0.79375 h -0.87741 l -1.0929,1.3894 -0.70301,-0.96143 v -0.72827 l 1.0583,0.33591 v -0.50063 l -1.508,-0.62464 -2.2741,-2.3172 -0.17215,-1.0086 -0.17216,-1.0086 0.24477,-0.99791 0.24478,-0.99791 1.2943,-1.1637 1.2943,-1.1637 3.1736,-1.2331 6.846,-7.6729 0.0246,-5.6885 h 0.78167 l 3.5147,1.3229 h 1.5686 l -0.10807,0.33073 -0.10806,0.33072 -1.8123,0.6316 -2.2057,0.0298 -0.83703,0.3212 v 2.8068 l 3.5719,3.6437 1.277,1.5627 3.8823,4.6808 v 0.45127 l 1.3887,1.4825 1.2884,2.0233 0.71544,-0.59377 0.16808,0.27197 0.16809,0.27196 -0.28613,0.53464 -0.28613,0.53463 h -0.40372 l -1.4425,-1.9835 -1.4425,-1.9836 -0.21423,2.182 -0.21424,2.182 -0.34576,0.79482 -0.34577,0.79482 0.46751,0.87171 0.4675,0.87172 0.12242,-0.34362 0.12241,-0.34362 0.20029,0.18611 0.20029,0.18612 -0.16911,0.67378 -0.1691,0.67378 h -0.50895 l -0.60038,-1.1802 -0.60038,-1.1802 -1.7359,1.0997 0.92447,0.67599 0.63588,-0.86962 0.17808,0.17809 0.17808,0.17808 -0.17427,0.5491 -0.17428,0.54911 h -0.90494 l -1.2347,-0.86483 -2.8541,0.63872 -3.0276,-1.6398 -0.92701,1.2045 -0.012,0.39688 -3.8365,0.018 -1.3229,0.75625 -0.34511,0.018 z m 1.0187,-0.11668 v -0.11668 l -0.30546,-0.18878 -0.30546,-0.18879 0.37757,0.61093 h 0.23335 z m 14.199,-5.0868 -0.17639,-0.17638 v 0.70555 l 0.35278,-0.35278 z"
       fill="#f1e1d9"
       id="path20" /><path
       d="m 123.71,139.87 -0.1606,-0.41851 v -0.25697 l 1.0583,0.33591 v -0.51832 l -1.1004,-0.18591 -1.1004,-0.18592 -0.98075,1.2514 -0.78714,-1.0272 v -0.46369 l 1.0583,0.33591 v -0.45074 l -1.7198,-0.98274 -1.5024,-1.3803 -0.37325,-0.71446 -0.37325,-0.71447 v -1.8954 l 0.37287,-0.89242 0.37288,-0.89242 2.7494,-2.1733 2.3192,-0.58398 2.7582,-3.0783 2.7582,-3.0782 1.6337,-1.7525 v -5.7749 l 1.7198,0.32287 2.2199,0.98682 h 1.5853 l 0.15532,0.2513 0.15531,0.25131 -0.99607,0.53309 -3.649,0.35826 -0.35756,0.28373 -0.35756,0.28372 0.17474,1.3173 0.17475,1.3173 4.7266,4.9441 3.9734,4.9401 0.002,0.4687 0.73486,0.79375 0.73485,0.79375 0.58716,0.83504 0.58715,0.83504 0.53837,-0.14079 0.53837,-0.14078 -0.31658,0.6948 -0.31657,0.69481 h -0.38337 l -0.46371,-0.7276 -0.46371,-0.72761 -0.95578,-1.2737 -0.95578,-1.2737 -0.18319,1.0091 -0.18319,1.0092 -0.0169,1.1906 -0.0169,1.1906 -0.771,1.4781 0.85042,1.7833 0.80946,-0.31062 -0.17823,0.46444 -0.17822,0.46445 v 0.48589 h -0.54797 l -1.0207,-2.3812 h -0.25988 l -1.8449,1.252 1.2477,0.5685 0.29246,-0.76214 h 0.54578 l -0.008,0.66146 -0.49346,0.78032 -2.2766,-1.102 -0.52916,0.20837 -0.52917,0.20836 -1.8563,0.0372 -2.5474,-1.3561 -0.73516,0.61013 -0.16984,0.5351 -0.16983,0.5351 -3.2527,-0.24958 -1.9633,0.98368 h -0.22905 z m 2.9924,-1.7946 -0.11024,-0.0964 -1.3229,-0.68748 0.36313,0.44019 0.36312,0.44019 h 0.81715 z m 1.4071,-1.0942 0.19439,-0.26459 0.008,0.4155 1.0732,-0.57434 -0.15531,-0.25131 -0.15532,-0.25131 1.2218,-0.058 -2.3812,-0.48841 -1.5875,0.28106 0.79375,-0.57123 -1.4995,0.3286 0.17007,-0.27519 0.17008,-0.27519 h -0.5604 v 1.2542 l 1.2051,0.3374 1.2051,0.33741 -0.55283,0.55283 -1.9229,-0.91697 -0.1245,0.1245 -0.12451,0.1245 1.0172,0.52353 1.0172,0.52353 0.79375,-0.61192 z m 0.0261,-1.1024 0.17639,-0.17638 0.17639,0.17638 0.17639,0.17639 h -0.70556 z m 9.8952,0.55134 0.0615,-0.50724 -0.1673,0.39688 -0.1673,0.39687 -0.29105,0.21858 -0.29106,0.21858 0.79375,-0.21642 z m -0.19377,-0.77182 v -0.13229 h -0.26458 v 0.26458 h 0.26458 z m 1.0583,-0.90115 v -1.0334 l -0.63632,0.3003 -0.63632,0.30029 0.52205,0.73315 0.52204,0.73314 h 0.22855 z m -0.52916,0.1074 v -0.13229 h 0.26458 v 0.26458 h -0.26458 z m -7.6729,-0.66146 v -0.79375 h -1.5875 v -3.4396 h -1.5875 v -0.26317 l 0.8209,-1.7374 0.8209,-1.7374 -0.22592,-0.22592 -2.5522,5.4192 -1.0097,2.5965 0.34541,0.21907 0.3454,0.21907 0.49802,0.008 -0.50856,-0.37186 -0.50856,-0.37187 1.439,0.27508 -0.2691,0.4354 2.2596,0.50575 1.7198,0.0566 z m -4.63,-1.2896 0.17337,-0.69482 1.0602,-1.7198 h 0.198 l -0.74681,2.1167 h 0.5057 v 0.73206 l -0.68192,0.13036 -0.68191,0.13035 z m 12.439,-0.37862 0.003,-0.41115 0.47496,-0.43422 -0.43118,0.74322 0.30546,-0.18879 0.30547,-0.18879 v -0.76252 h -0.29938 l -0.51177,0.2739 -0.51177,0.27389 v 0.99289 l -0.83607,-0.1228 -0.23937,-0.37825 -0.23937,-0.37826 -0.004,0.20775 -0.004,0.20774 0.43282,0.66056 0.43281,0.66056 1.1188,-0.74467 z m -2.9019,-2.525 -0.4464,-0.43704 0.67908,1.5152 0.21372,-0.64116 z m 3.3062,-0.28951 -0.57605,-0.80899 h -0.25978 l 0.15347,0.24833 0.15347,0.24832 -0.46858,0.29348 -0.46859,0.29347 1.1683,-0.31842 0.66376,1.0628 0.21005,-0.21005 z m -1.1585,-1.4043 -0.13345,-0.33073 v 1.3229 l 0.13345,-0.33073 0.13346,-0.33073 z m -3.0856,-0.0661 v -0.1323 h -0.26458 v 0.26459 h 0.26458 z m -0.54066,-2.3951 -0.31788,-0.38302 h 0.5583 l 0.16795,0.52917 0.16795,0.52916 h 0.49351 v -0.49793 l -0.26459,-0.16352 -0.26458,-0.16353 v -0.60533 l 2.2183,2.0918 -1.3076,-1.532 -1.3076,-1.532 -2.5135,-2.6316 0.024,0.66844 0.60916,1.1645 0.60915,1.1645 0.18826,-0.3046 0.18825,-0.30461 h -0.59162 l 0.18052,-0.2921 0.18053,-0.29209 1.39,1.3943 -0.37288,0.23194 -0.37289,0.23194 -0.70944,-0.27224 v 0.54798 l 0.92604,0.92604 -0.0662,0.085 -0.0661,0.085 0.016,0.66146 0.55488,-0.95375 z m 0.27608,-0.77989 v -0.1323 h 0.26458 v 0.26459 h -0.26458 z m -1.8858,-2.1828 -0.36312,-0.46302 0.92604,0.72625 v 0.1998 h -0.1998 z m -2.6121,1.6224 v -0.39688 l 0.2345,0.14493 0.2345,0.14494 0.13761,-0.5262 0.1376,-0.52619 h -0.46604 l -0.80734,1.5612 v 0.32209 l 0.26459,-0.16352 0.26458,-0.16353 z m 0.70555,-2.1295 -0.17638,-0.17638 v 0.70555 l 0.17638,-0.17639 0.17639,-0.17639 z m 0.35278,-0.48506 v -0.1323 h -0.26458 v 0.26459 h 0.26458 z"
       fill="#f0dcd5"
       id="path21" /><path
       d="m 123.71,139.87 -0.1606,-0.41851 v -0.23139 l 1.4018,0.35184 -0.34628,-0.5603 -2.1981,-0.37136 -0.98075,1.2514 -0.78714,-1.0272 v -0.46369 l 1.0583,0.33591 v -0.45074 l -1.7198,-0.98274 -1.5024,-1.3803 -0.37325,-0.71446 -0.37325,-0.71447 v -1.8954 l 0.37287,-0.89242 0.37288,-0.89242 2.6327,-2.081 1.2272,-0.34361 1.2272,-0.3436 6.2056,-6.9294 0.92604,-0.936 v -5.8076 l 1.7198,0.32287 2.2199,0.98682 h 1.5853 l 0.15532,0.2513 0.15531,0.25131 -0.99607,0.53309 -3.649,0.35826 -0.35756,0.28373 -0.35756,0.28372 0.17474,1.3173 0.17475,1.3173 4.7266,4.9441 3.9734,4.9401 v 0.35577 l 2.6915,3.3587 0.51585,-0.1349 0.51585,-0.13489 -0.31658,0.6948 -0.31657,0.69481 -0.31194,-0.018 -2.9104,-4.022 -0.18319,1.0282 -0.18319,1.0282 -0.0169,1.1906 -0.0169,1.1906 -0.771,1.4781 0.85042,1.7833 0.80946,-0.31062 -0.17823,0.46444 -0.17822,0.46445 v 0.48589 h -0.54797 l -1.0207,-2.3812 h -0.25988 l -1.8449,1.252 1.2477,0.5685 0.29246,-0.76214 h 0.54578 l -0.008,0.66146 -0.49346,0.78032 -2.2766,-1.1058 -0.66145,0.25064 -0.66146,0.25064 -2.1364,-0.23043 -2.1644,-1.3663 -0.9909,1.8659 -1.5875,-0.11904 -1.5875,-0.11905 -1.9633,0.98368 h -0.22905 z m 4.7434,-2.8221 1.7217,-1.124 -4.3768,-0.88888 -0.1684,-0.0191 -0.16839,-0.0191 -0.18637,1.2428 -0.18636,1.2428 0.47148,0.34475 0.47147,0.34475 h 0.69992 z m 9.514,-0.99813 -0.18841,-0.59363 -0.23161,0.36569 -0.2316,0.36569 -0.004,0.652 -0.004,0.65201 0.42407,-0.42407 0.42407,-0.42406 z m 0.92777,-1.3364 v -1.3418 l -0.41577,0.41578 -0.41578,0.41577 h -0.47352 l 1.0928,1.8521 h 0.21231 z m -8.0496,-6.4511 -0.0202,-6.7346 -0.59778,1.6952 -4.2238,8.7661 -0.32755,0.99248 -0.32755,0.99247 0.30129,0.30129 2.7942,0.67659 2.4217,0.045 z m 7.2249,4.9802 0.61599,-0.43145 0.36892,-0.88297 0.36893,-0.88296 v -0.77056 l -6.0402,-7.3162 -1.9387,-1.8018 0.88682,2.0664 0.47888,1.3594 0.47887,1.3594 1.9403,3.8661 1.9403,3.8661 h 0.2839 z"
       fill="#d2d0cf"
       id="path22" /><path
       d="m 123.72,139.61 -0.15893,-0.41418 1.0503,0.33334 0.32082,-0.19828 0.32082,-0.19827 -2.8859,-0.66488 -0.32118,0.41887 -0.32119,0.41887 -0.0913,0.2739 -0.0913,0.27391 -0.63022,-0.3895 0.008,-1.1594 0.52106,0.79375 0.50912,-0.79254 -1.6997,-0.88453 -1.154,-1.186 -1.154,-1.186 -0.26582,-2.3583 0.44825,-0.9446 0.44824,-0.94461 2.4264,-1.8904 1.4052,-0.44296 1.4052,-0.44295 4.9959,-5.8604 0.94782,-0.9118 0.94783,-0.9118 v -5.9917 l 1.4552,0.33849 2.2716,0.97478 1.8689,0.35062 -0.57026,0.57025 -3.945,0.37682 -0.55136,0.34077 v 2.68 l 4.6302,4.8519 4.2333,5.3739 1.4552,1.968 1.4552,1.968 0.66146,-0.53363 -0.004,0.36313 -0.004,0.36312 -0.43666,0.68842 -3.0937,-4.1104 -0.18677,0.69835 -0.18677,0.69836 -0.35302,3.3482 -0.26956,0.70043 -0.26957,0.70044 0.41981,0.81181 0.4198,0.81182 0.88145,-0.33824 -0.17823,0.46444 -0.17822,0.46445 v 0.22131 h -0.51841 l -0.53992,-1.0583 -0.53993,-1.0583 h -0.22358 l -0.95286,0.56221 -0.95287,0.5622 1.1045,0.7736 0.7838,-0.6505 0.12317,0.12316 0.12316,0.12317 -0.35701,0.48823 -0.357,0.48824 -1.9353,-1.196 -1.6576,0.57782 h -1.3118 l -2.7863,-1.5942 -1.1123,1.8853 -1.5452,-0.17481 -1.5452,-0.17482 -0.82406,0.42614 -0.82405,0.42613 h -0.49883 z m 4.468,-0.90874 -0.16352,-0.26459 -0.63023,0.008 0.79375,0.51296 0.1636,0.008 z m 0.39687,-1.6359 1.7198,-1.1017 -4.4979,-0.9284 -0.18223,-0.0191 -0.18222,-0.0191 -0.185,1.2336 -0.18499,1.2336 0.96787,0.70773 0.8249,-0.006 z m 9.5254,-0.97708 -0.24721,-0.42972 -0.53878,-0.79375 -0.004,1.2978 -0.004,1.2978 0.52065,-0.47118 0.52066,-0.47118 z m 0.94951,-2.8546 -0.0238,-0.0436 -0.69876,0.60146 -0.69876,0.60145 0.56647,0.89739 0.56647,0.8974 0.1561,-1.4552 0.15611,-1.4552 z m -8.2057,-4.9576 -0.0202,-6.721 -0.19439,0.30486 -0.19438,0.30487 -0.004,0.30742 -0.004,0.30743 -4.0262,8.381 -0.6159,1.3839 -0.6159,1.3839 0.60885,0.37629 2.6647,0.64744 2.4217,0.045 z m 7.346,4.8547 0.69078,-0.54336 0.30923,-1.0322 0.30924,-1.0321 -0.47189,-0.72021 -0.4719,-0.7202 -5.4259,-6.3888 -1.6968,-1.5875 0.89788,2.1167 0.47888,1.3594 0.47887,1.3594 1.9403,3.8661 1.9403,3.8661 h 0.33028 z"
       fill="#e0c5b9"
       id="path23" /><path
       d="m 123.72,139.61 -0.15893,-0.41418 1.0503,0.33334 0.32082,-0.19828 0.32082,-0.19827 -2.8859,-0.66488 -0.32118,0.41887 -0.32119,0.41887 -0.0913,0.2739 -0.0913,0.27391 -0.63022,-0.3895 0.008,-1.1594 0.52106,0.79375 0.50912,-0.79254 -1.6997,-0.88453 -1.154,-1.186 -1.154,-1.186 -0.26582,-2.3583 0.44825,-0.9446 0.44824,-0.94461 2.4264,-1.8904 1.4052,-0.44296 1.4052,-0.44295 4.9959,-5.8604 0.94782,-0.9118 0.94783,-0.9118 v -5.9917 l 1.4552,0.33849 2.2716,0.97478 1.8689,0.35062 -0.57026,0.57025 -3.945,0.37682 -0.55136,0.34077 v 2.68 l 4.6302,4.8519 4.2333,5.3739 1.4552,1.968 1.4552,1.968 0.66146,-0.53363 -0.004,0.36313 -0.004,0.36312 -0.43666,0.68842 -3.0937,-4.1104 -0.18677,0.69835 -0.18677,0.69836 -0.35302,3.3482 -0.26956,0.70043 -0.26957,0.70044 0.41981,0.81181 0.4198,0.81182 0.88145,-0.33824 -0.17823,0.46444 -0.17822,0.46445 v 0.22131 h -0.51841 l -0.53992,-1.0583 -0.53993,-1.0583 h -0.22358 l -0.95286,0.56221 -0.95287,0.5622 1.1045,0.7736 0.7838,-0.6505 0.12317,0.12316 0.12316,0.12317 -0.35701,0.48823 -0.357,0.48824 -1.9353,-1.196 -1.6576,0.57782 h -1.3118 l -2.7863,-1.5942 -1.1123,1.8853 -1.5452,-0.17481 -1.5452,-0.17482 -0.82406,0.42614 -0.82405,0.42613 h -0.49883 z m 4.468,-0.90874 -0.16352,-0.26459 -0.89482,0.0372 1.0583,0.45478 0.1636,0.0372 z m 0.34494,-1.5923 1.6679,-1.0581 -0.32424,-0.52464 h -2.0013 l -2.4127,-0.72613 -0.3172,1.586 v 1.1509 l 0.635,0.635 1.0848,-0.006 z m 9.7949,-0.42493 0.0857,-0.0503 -0.84635,-1.6367 h -0.251 v 2.446 l 0.92604,-0.7088 z m 0.5758,-1.6653 v -1.0367 l 0.18511,-0.48238 0.1851,-0.48238 -0.80581,0.65918 -0.80581,0.65917 0.40513,0.8599 0.40512,0.85989 h 0.43116 z m -7.9554,-6.8347 -0.0179,-6.813 -0.29403,0.66146 -0.29402,0.66146 -3.6651,7.6729 -1.5364,3.6556 0.1652,0.1652 1.441,0.38734 1.441,0.38735 2.7781,0.0348 z m 7.347,4.8948 0.54223,-0.59531 0.29764,-0.57792 0.29765,-0.57792 -0.01,-0.6127 -0.01,-0.61271 -0.5858,-0.68697 -0.5858,-0.68698 -3.1376,-3.876 -3.4205,-3.626 -0.1726,0.1726 1.6177,4.2053 3.9322,8.0698 h 0.69178 z"
       fill="#d9b1a5"
       id="path24" /><path
       d="m 123.72,139.61 -0.15893,-0.41418 1.0503,0.33334 0.61921,-0.38269 -2.8548,-0.73059 -0.4904,0.67322 -0.49041,0.67322 -0.48304,-0.29854 v -0.74591 l 0.72546,0.27838 0.15293,-0.39853 0.15294,-0.39854 -0.55419,-0.17589 -0.55418,-0.17589 -2.3448,-2.1614 -0.75312,-1.4564 v -1.5958 l 0.85546,-1.7377 2.327,-1.9597 2.8905,-0.91115 4.9959,-5.8604 0.94782,-0.9118 0.94783,-0.9118 v -5.9917 l 1.4552,0.33849 2.2716,0.97478 1.8689,0.35062 -0.57026,0.57025 -3.945,0.37682 -0.55136,0.34077 v 2.7668 l 2.7007,2.626 2.5754,3.0427 2.5754,3.0427 1.0352,1.4562 1.0352,1.4562 0.90644,1.2496 0.90643,1.2496 0.76171,-0.63215 -0.10029,0.52074 -0.10029,0.52075 h -0.6138 l -2.7866,-3.6811 -0.42312,1.5644 -0.17085,1.7198 -0.17086,1.7198 -0.50982,0.98866 0.93498,2.0734 0.20565,-0.33275 0.20565,-0.33274 0.30581,0.30581 -0.16683,0.43474 -0.16683,0.43475 h -0.47943 l -1.134,-2.3341 -2.043,1.352 0.54499,0.38172 0.545,0.38173 0.7838,-0.6505 0.12317,0.12316 0.12316,0.12317 -0.32799,0.44666 -0.328,0.44666 -2.0417,-1.096 -0.80456,0.28047 -0.80455,0.28046 h -1.3118 l -2.7863,-1.5942 -1.0932,1.8529 -1.5485,-0.16184 -1.5485,-0.16185 -1.6606,0.85874 H 123.879 Z m 4.3381,-1.0381 -0.32696,-0.39396 -0.28318,0.17502 -0.28319,0.17502 0.5116,0.20034 0.51161,0.20035 0.197,0.0372 z m 0.64107,-1.5096 1.3049,-0.87456 0.21234,-0.66146 h -2.0454 l -2.7522,-0.7139 -0.15973,0.85146 -0.15974,0.85145 0.1782,1.2467 1.2894,0.64046 0.41363,-0.2328 0.41363,-0.23279 z m 9.231,-0.066 0.48183,-0.36524 -0.93824,-1.7662 -0.35968,1.5875 -0.0626,0.92604 0.39687,-0.016 z m 1.0623,-2.3144 0.16267,-1.3735 -0.1194,-0.1184 -1.4485,1.2467 0.91932,1.6153 0.32316,0.004 z m -8.0474,-6.4979 -0.0209,-7.0776 -0.14687,0.39687 -0.14686,0.39688 -5.1726,11.112 -0.33324,1.1428 1.7653,0.58259 3.15,0.45902 0.92604,0.0646 z m 7.7976,4.4174 0.69,-0.82001 v -1.7108 l -2.249,-2.6744 -3.0119,-3.644 -2.9024,-2.854 0.99955,2.6176 0.99954,2.6176 1.944,3.8838 1.944,3.8838 0.89618,-0.47962 z"
       fill="#a09d9b"
       id="path25" /><path
       d="m 123.72,139.62 -0.15229,-0.39688 h 0.45594 l 0.1523,0.39688 0.15229,0.39687 h -0.45594 z m -2.638,-0.2443 -0.17668,-0.46044 0.004,-0.1768 0.004,-0.17679 0.26053,0.39687 0.26053,0.39688 0.26053,-0.39688 0.26054,-0.39687 0.004,-0.19165 0.004,-0.19164 -0.8599,-0.43282 -0.85989,-0.43283 -1.9959,-1.9125 -0.538,-1.998 0.538,-1.998 1.9959,-1.9396 2.9104,-1.3489 0.54339,-0.006 7.2376,-8.1468 -0.13627,-2.5404 -0.13627,-2.5404 0.14546,-0.23537 0.14547,-0.23537 2.2548,0.74818 0.5871,0.29773 0.58711,0.29774 2.0008,0.36593 -0.74483,0.30589 -0.74483,0.30588 h -2.6462 l -1.0235,0.54778 v 3.1119 l 2.1784,1.7253 5.5449,6.6535 0.80936,1.1653 0.80935,1.1653 -0.55433,-0.3426 -0.14763,0.59349 -0.14763,0.59348 -0.18143,1.8521 -0.18144,1.8521 -0.33572,0.66633 -0.33573,0.66633 0.74397,1.0174 -0.0212,0.56032 -0.78066,-1.4384 -2.3254,1.4747 -1.4579,0.34976 -1.4579,0.34975 -2.9959,-1.6908 -0.73003,0.60588 -0.15409,0.48549 -0.15409,0.48548 -4.2115,0.1718 0.001,-0.29684 -2.7068,-0.69373 -1.1732,1.4713 z m 7.4962,-0.54014 v -0.12298 l -1.0693,-0.57226 -0.64518,0.39875 1.3176,0.36672 0.19844,0.0264 0.19843,0.0264 z m -0.72359,-1.2036 1.385,-0.79739 0.59531,-0.50179 0.59532,-0.50179 v -0.31205 h -2.0055 l -3.0474,-0.79375 h -0.23876 v 3.0941 l 1.1906,0.57422 0.1404,0.0358 z m 10.494,-0.95686 0.60509,-0.69592 0.28722,-3.1675 -1.9312,1.9312 v 0.97454 l -0.16536,0.82683 -0.16537,0.82682 h 0.76447 z m -0.24509,-0.75929 v -0.13229 h 0.26459 v 0.26458 h -0.26459 z m -0.40775,-0.67906 -0.1744,-0.28219 0.1261,-0.1261 0.1261,-0.12609 0.15667,0.40828 0.15667,0.40829 h -0.21674 z m -6.7539,-7.06 -0.0179,-7.0776 -0.29093,0.66145 -0.29092,0.66146 -5.2032,11.19 v 0.52024 l 1.4552,0.60043 1.1906,0.23206 1.1906,0.23207 1.9844,0.058 z m 7.3853,4.9612 0.7935,-0.79351 0.30909,-0.93653 0.30908,-0.93653 -0.69872,-0.90556 -5.9336,-7.1438 -0.9114,-0.7152 -0.9114,-0.71521 1.9745,5.1346 1.9554,3.9026 1.9554,3.9026 h 0.36463 z m -13.717,6.482 v -0.13229 h 0.26459 v 0.26458 h -0.26459 z m 12.626,-0.3015 -0.71926,-0.37686 v -0.23634 l 1.3608,0.62003 0.4625,-0.74834 0.25009,0.25009 -0.31744,0.43414 -0.31745,0.43413 z m 2.3548,-0.24141 -0.15757,-0.41062 0.52311,0.3233 v -0.5604 h 0.47962 l -0.27676,1.0583 h -0.41083 z m 3.0089,-4.945 -0.39438,-0.59311 -0.22472,-0.39907 -0.22472,-0.39908 1.363,1.5875 0.26678,-0.39687 0.26679,-0.39688 0.008,0.3536 -0.1606,0.41851 -0.1606,0.41852 h -0.34526 z m -1.4778,-2.1189 -0.50403,-0.59531 0.59532,0.50402 0.59531,0.50403 v 0.1826 h -0.1826 z"
       fill="#cb8873"
       id="path26" /><path
       d="m 123.72,139.62 -0.15229,-0.39688 h 0.45594 l 0.1523,0.39688 0.15229,0.39687 h -0.45594 z m -2.638,-0.2443 -0.17668,-0.46044 0.004,-0.1768 0.004,-0.17679 0.26053,0.39687 0.26053,0.39688 0.26053,-0.39688 0.26054,-0.39687 0.004,-0.19165 0.004,-0.19164 -0.8599,-0.43282 -0.85989,-0.43283 -1.9959,-1.9125 -0.538,-1.998 0.538,-1.998 1.9959,-1.9396 2.9104,-1.3489 0.54339,-0.006 7.2376,-8.1468 -0.13627,-2.5404 -0.13627,-2.5404 0.14546,-0.23537 0.14547,-0.23537 2.2548,0.74818 0.5871,0.29773 0.58711,0.29774 2.0008,0.36593 -0.74483,0.30589 -0.74483,0.30588 h -2.6462 l -1.0235,0.54778 v 3.1119 l 2.1784,1.7253 5.5449,6.6535 0.80936,1.1653 0.80935,1.1653 -0.55433,-0.3426 -0.14763,0.59349 -0.14763,0.59348 -0.18143,1.8521 -0.18144,1.8521 -0.33572,0.66633 -0.33573,0.66633 0.74397,1.0174 -0.0212,0.56032 -0.78066,-1.4384 -2.3254,1.4747 -1.4579,0.34976 -1.4579,0.34975 -2.9959,-1.6908 -0.73003,0.60588 -0.15409,0.48549 -0.15409,0.48548 -4.2115,0.1718 0.001,-0.29684 -2.7068,-0.69373 -1.1732,1.4713 z m 7.4962,-0.54014 v -0.12298 l -1.0693,-0.57226 -0.64518,0.39875 1.3176,0.36672 0.19844,0.0264 0.19843,0.0264 z m -0.72359,-1.2036 1.385,-0.79739 0.59531,-0.50179 0.59532,-0.50179 v -0.31205 h -2.0055 l -3.0969,-0.80664 -0.137,0.1452 -0.1292,1.8521 0.077,1.1098 1.1906,0.57422 0.1404,0.0358 z m 10.608,-1.0709 0.49139,-0.58524 0.28296,-3.1206 -1.7183,1.6051 -0.46088,1.9846 -0.012,1.2092 0.92604,-0.50794 z m -0.3591,-0.64522 v -0.13229 h 0.26459 v 0.26458 h -0.26459 z m -0.40775,-0.67906 -0.1744,-0.28219 0.1261,-0.1261 0.1261,-0.12609 0.15667,0.40828 0.15667,0.40829 h -0.21674 z m -6.736,-7.0095 v -7.0271 l 0.2366,0.14622 0.23659,0.14622 1.9884,5.1628 3.6414,7.276 h 0.47086 l 1.587,-1.587 0.30909,-0.93653 0.30908,-0.93653 -0.69872,-0.90556 -5.9478,-7.1438 -2.1339,-1.7508 -0.26393,0.69417 -0.26392,0.69418 v 0.1955 l -4.9911,10.486 -0.16896,0.68777 -0.16895,0.68776 1.4926,0.61591 1.1906,0.23206 1.1906,0.23207 1.9844,0.058 z m 2.5135,-12.041 0.79375,-0.025 -2.1167,-1.0016 -0.39688,0.014 -0.39687,0.0139 0.32861,0.13274 0.32862,0.13275 -0.2925,0.54653 -0.29249,0.54654 1.2507,-0.33478 z m -8.8635,23.433 v -0.13229 h 0.26459 v 0.26458 h -0.26459 z m 12.626,-0.3015 -0.71926,-0.37686 v -0.23634 l 1.3608,0.62003 0.4625,-0.74834 0.25009,0.25009 -0.31744,0.43414 -0.31745,0.43413 z m 2.3548,-0.24141 -0.15757,-0.41062 0.52311,0.3233 v -0.5604 h 0.47962 l -0.27676,1.0583 h -0.41083 z m 3.0089,-4.945 -0.39438,-0.59311 -0.22472,-0.39907 -0.22472,-0.39908 1.363,1.5875 0.26678,-0.39687 0.26679,-0.39688 0.008,0.3536 -0.1606,0.41851 -0.1606,0.41852 h -0.34526 z m -1.4778,-2.1189 -0.50403,-0.59531 0.59532,0.50402 0.59531,0.50403 v 0.1826 h -0.1826 z"
       fill="#d36d52"
       id="path27" /><path
       d="m 123.72,139.62 -0.15229,-0.39688 h 0.45594 l 0.1523,0.39688 0.15229,0.39687 h -0.45594 z m -2.638,-0.2443 -0.17668,-0.46044 0.004,-0.1768 0.004,-0.17679 0.26053,0.39687 0.26053,0.39688 0.26053,-0.39688 0.26054,-0.39687 0.004,-0.19165 0.004,-0.19164 -0.8599,-0.43282 -0.85989,-0.43283 -1.9959,-1.9125 -0.538,-1.998 0.538,-1.998 1.9959,-1.9396 2.9104,-1.3489 0.54339,-0.006 7.2376,-8.1468 -0.13627,-2.5404 -0.13627,-2.5404 0.14546,-0.23537 0.14547,-0.23537 2.2548,0.74818 0.5871,0.29773 0.58711,0.29774 2.0008,0.36593 -0.74483,0.30589 -0.74483,0.30588 h -2.6462 l -1.0235,0.54778 v 3.1119 l 2.1784,1.7253 5.5449,6.6535 0.80936,1.1653 0.80935,1.1653 -0.55433,-0.3426 -0.14763,0.59349 -0.14763,0.59348 -0.18143,1.8521 -0.18144,1.8521 -0.33572,0.66633 -0.33573,0.66633 0.74397,1.0174 -0.0212,0.56032 -0.78066,-1.4384 -2.3254,1.4747 -1.4579,0.34976 -1.4579,0.34975 -2.9959,-1.6908 -0.73003,0.60588 -0.15409,0.48549 -0.15409,0.48548 -4.2115,0.1718 0.001,-0.29684 -2.7068,-0.69373 -1.1732,1.4713 z m 7.4962,-0.54014 v -0.12298 l -1.0693,-0.57226 -0.64518,0.39875 1.3176,0.36672 0.19844,0.0264 0.19843,0.0264 z m -0.72359,-1.2036 1.385,-0.79739 0.59531,-0.50179 0.59532,-0.50179 v -0.31205 h -2.0055 l -3.0969,-0.80664 -0.1294,0.1452 -0.18428,1.369 -0.18428,1.369 0.74968,0.4063 0.74967,0.4063 0.1404,0.0212 z m 10.608,-1.0709 0.49139,-0.58524 0.28296,-3.1206 -1.7183,1.6051 -0.46088,1.9846 -0.012,1.2092 0.92604,-0.50794 z m -0.3591,-0.64522 v -0.13229 h 0.26459 v 0.26458 h -0.26459 z m -0.40775,-0.67906 -0.1744,-0.28219 0.1261,-0.1261 0.1261,-0.12609 0.15667,0.40828 0.15667,0.40829 h -0.21674 z m -6.6968,-1.636 0.0392,-1.6536 -0.1382,-7.9907 0.18567,-1.099 0.18568,-1.099 0.44104,0.27258 0.58556,1.7831 0.58557,1.7831 1.9681,3.9688 1.9291,3.8218 v 0.54384 h 0.75304 l 1.587,-1.587 0.30909,-0.93653 0.30908,-0.93653 -0.69872,-0.90556 -5.9478,-7.1438 -2.1668,-1.7784 -0.16258,0.62461 -0.16257,0.62462 -2.1014,4.2333 -2.1014,4.2333 -0.62931,1.6597 -0.62931,1.6597 v 0.45289 l 1.4552,0.60043 1.1906,0.23206 1.1906,0.23207 1.9844,0.058 z m 2.8382,-17.411 0.69453,-0.0148 -2.3812,-0.9992 -0.66146,-0.0296 v 1.3891 l 1.6536,-0.33073 z m -9.2274,23.43 v -0.13229 h 0.26459 v 0.26458 h -0.26459 z m 12.626,-0.3015 -0.71926,-0.37686 v -0.23634 l 1.3608,0.62003 0.4625,-0.74834 0.25009,0.25009 -0.31744,0.43414 -0.31745,0.43413 z m 2.3548,-0.24141 -0.15757,-0.41062 0.52311,0.3233 v -0.5604 h 0.47962 l -0.27676,1.0583 h -0.41083 z m 3.0089,-4.945 -0.39438,-0.59311 -0.22472,-0.39907 -0.22472,-0.39908 1.363,1.5875 0.26678,-0.39687 0.26679,-0.39688 0.008,0.3536 -0.1606,0.41851 -0.1606,0.41852 h -0.34526 z m -1.4778,-2.1189 -0.50403,-0.59531 0.59532,0.50402 0.59531,0.50403 v 0.1826 h -0.1826 z"
       fill="#976959"
       id="path28" /><path
       d="m 123.72,139.62 -0.15229,-0.39688 h 0.45594 l 0.1523,0.39688 0.15229,0.39687 h -0.45594 z m -2.638,-0.2443 -0.17668,-0.46044 0.004,-0.1768 0.004,-0.17679 0.26053,0.39687 0.26053,0.39688 0.26053,-0.39688 0.26054,-0.39687 0.004,-0.19165 0.004,-0.19164 -0.8599,-0.43282 -0.85989,-0.43283 -1.9959,-1.9125 -0.538,-1.998 0.538,-1.998 1.9959,-1.9396 2.9104,-1.3489 0.54339,-0.006 7.2376,-8.1468 -0.13627,-2.5404 -0.13627,-2.5404 0.14546,-0.23537 0.14547,-0.23537 2.2548,0.75543 1.5875,0.76012 -0.59683,0.012 -1.8997,-0.79375 h -0.81075 l -1.7e-4,0.7276 -1.6e-4,0.72761 2.7784,-0.1578 1.1211,-0.55584 0.99559,0.2335 -1.4897,0.61245 h -2.6462 l -1.0235,0.54778 v 3.1119 l 2.1784,1.7253 5.5449,6.6535 0.80936,1.1653 0.80935,1.1653 -0.55433,-0.3426 -0.14763,0.59349 -0.14763,0.59348 -0.18143,1.8521 -0.18144,1.8521 -0.33572,0.66633 -0.33573,0.66633 0.74397,1.0174 -0.0212,0.56032 -0.78066,-1.4384 -2.3254,1.4747 -1.4579,0.34976 -1.4579,0.34975 -2.9959,-1.6908 -0.73003,0.60588 -0.15409,0.48549 -0.15409,0.48548 -4.2115,0.1718 0.001,-0.29684 -2.7068,-0.69373 -1.1732,1.4713 z m 7.4962,-0.54014 v -0.12298 l -1.0693,-0.57226 -0.64518,0.39875 1.3176,0.36672 0.19844,0.0264 0.19843,0.0264 z m -0.72359,-1.2036 1.385,-0.79739 0.59531,-0.50179 0.59532,-0.50179 v -0.31205 h -2.0055 l -3.0969,-0.80664 -0.10286,0.10285 -0.10285,0.10286 -0.15784,1.3327 -0.15783,1.3327 1.5227,0.82484 0.1404,0.0212 z m 10.608,-1.0709 0.49139,-0.58524 0.28296,-3.1206 -1.6521,1.5433 -0.53968,1.4195 v 1.8362 l 0.92604,-0.50794 z m -0.3591,-0.64522 v -0.13229 h 0.26459 v 0.26458 h -0.26459 z m -0.40775,-0.67906 -0.1744,-0.28219 0.1261,-0.1261 0.1261,-0.12609 0.15667,0.40828 0.15667,0.40829 h -0.21674 z m -6.6089,-6.0017 -0.16212,-6.0193 0.23445,-0.79175 0.23444,-0.79176 0.74304,1.9824 0.74303,1.9824 4.0332,8.2021 0.0665,0.11064 0.0666,0.11064 1.3402,-0.71726 0.999,-1.6207 0.16668,-0.66815 0.16668,-0.66816 -5.8788,-7.1304 -2.7477,-2.4967 -0.31311,-0.016 -0.30788,1.0276 -0.30789,1.0276 -1.7507,3.5364 -1.7507,3.5364 -1.7875,4.1479 v 0.1452 l 1.3891,0.42087 1.3891,0.42088 1.3229,0.21696 2.2736,0.072 z m -6.4771,10.385 v -0.13229 h 0.26459 v 0.26458 h -0.26459 z m 12.626,-0.3015 -0.71926,-0.37686 v -0.23634 l 1.3608,0.62003 0.4625,-0.74834 0.25009,0.25009 -0.31744,0.43414 -0.31745,0.43413 z m 2.3548,-0.24141 -0.15757,-0.41062 0.52311,0.3233 v -0.5604 h 0.47962 l -0.27676,1.0583 h -0.41083 z m 3.0089,-4.945 -0.39438,-0.59311 -0.22472,-0.39907 -0.22472,-0.39908 1.363,1.5875 0.26678,-0.39687 0.26679,-0.39688 0.008,0.3536 -0.1606,0.41851 -0.1606,0.41852 h -0.34526 z m -1.4778,-2.1189 -0.50403,-0.59531 0.59532,0.50402 0.59531,0.50403 v 0.1826 h -0.1826 z"
       fill="#716e6c"
       id="path29" /><path
       d="m 123.93,139.72 -0.18879,-0.30546 0.30547,0.18878 0.30546,0.18879 v 0.23335 h -0.23335 z m -2.896,-0.50589 -0.1744,-0.28219 0.1852,-0.176 0.68232,0.74038 h -0.5188 z m 16.961,-0.0599 0.18065,-0.47443 0.14812,0.14811 0.14811,0.14811 -0.65753,0.65264 z m 1.7028,0.10878 v -0.26458 l 0.52917,-0.32704 v 0.52916 l -0.26458,0.16353 -0.26459,0.16352 z m -15.878,-0.52463 -1.7225,-0.43264 -1.2262,-0.72241 -1.2262,-0.72242 -1.3584,-1.6143 -0.25343,-0.91782 -0.25342,-0.91783 0.25342,-0.91782 0.25343,-0.91783 1.3584,-1.6143 2.1932,-1.2667 2.1167,-0.6468 4.6502,-5.3521 2.3613,-2.6127 v -5.4009 l 2.182,0.49028 1.3898,0.7552 -0.33225,0.0212 -1.8997,-0.79375 h -0.81075 l -3.6e-4,0.7276 -3.6e-4,0.72761 3.0434,-0.1788 0.25135,-0.24131 0.25136,-0.2413 1.3494,0.043 -1.5875,0.7269 -2.7348,0.0238 -0.83702,0.3212 v 3.1966 l 4.3737,4.552 3.7362,4.4979 0.43172,0.66402 0.43171,0.66402 -0.4986,0.78863 -0.004,0.48619 -0.004,0.4862 -2.4143,2.2026 -0.30558,3.0427 h 0.54838 l 1.6423,-1.8705 0.0462,-1.3799 0.0462,-1.3798 0.10307,1.1609 0.10306,1.161 -0.6295,1.5197 -2.6037,1.6872 -0.31861,0.0685 -0.31862,0.0685 -2.1758,0.59766 -2.894,-1.6333 -0.48638,0.004 -0.45071,0.79208 -0.45072,0.79207 -3.5965,-0.0608 z m 4.2614,-0.272 -0.63611,-0.48905 2.9336,-1.8766 0.17709,-0.28653 0.17709,-0.28654 h -1.9818 l -1.6882,-0.42337 -1.6882,-0.42338 -0.12291,0.12291 -0.1229,0.12291 -0.15761,1.3307 -0.1576,1.3307 1.3909,0.91136 0.52906,-0.13836 0.52907,-0.13835 -0.1359,0.21988 -0.1359,0.21989 0.46626,0.12162 0.46626,0.12163 0.79375,0.0496 z m 3.0122,-9.2226 -0.16212,-6.0193 0.46888,-1.5835 0.84675,2.2174 0.84674,2.2174 3.8258,7.8292 0.73126,0.035 0.86913,-0.92155 0.86913,-0.92154 0.1819,-0.82821 0.18191,-0.82821 -1.2131,-1.6599 -5.1659,-6.154 -1.1191,-0.95788 -1.1191,-0.95789 h -0.35016 l -0.30788,1.0276 -0.30789,1.0276 -1.7507,3.5364 -1.7507,3.5364 -1.7875,4.1479 v 0.1752 l 2.5135,0.80735 1.3229,0.22145 2.5382,0.072 z m 7.8104,8.5328 v -0.1323 h 0.26459 v 0.26459 h -0.26459 z m -1.3229,-2.9104 v -0.13229 h 0.26458 v 0.26458 h -0.26458 z m 5.5562,-0.38126 v -0.24897 l 0.5231,-0.3233 -0.31514,0.82124 h -0.20796 z m -2.1167,-2.5292 v -0.13229 h 0.26458 v 0.26458 h -0.26458 z"
       fill="#cd4424"
       id="path30" /><path
       d="m 123.93,139.72 -0.18879,-0.30546 0.30547,0.18878 0.30546,0.18879 v 0.23335 h -0.23335 z m -2.896,-0.50589 -0.1744,-0.28219 0.1852,-0.176 0.68232,0.74038 h -0.5188 z m 16.961,-0.0599 0.18065,-0.47443 0.14812,0.14811 0.14811,0.14811 -0.65753,0.65264 z m 1.7028,0.10878 v -0.26458 l 0.52917,-0.32704 v 0.52916 l -0.26458,0.16353 -0.26459,0.16352 z m -15.878,-0.52463 -1.7225,-0.43264 -1.2262,-0.72241 -1.2262,-0.72242 -1.3584,-1.6143 -0.25343,-0.91782 -0.25342,-0.91783 0.25342,-0.91782 0.25343,-0.91783 1.3584,-1.6143 2.1932,-1.2667 2.1167,-0.6468 4.6502,-5.3521 2.3613,-2.6127 v -5.4009 l 2.182,0.49028 1.3898,0.7552 -0.33225,0.0212 -1.8997,-0.79375 h -0.81075 l -3.6e-4,0.7276 -3.6e-4,0.72761 3.0434,-0.1788 0.25135,-0.24131 0.25136,-0.2413 1.3494,0.043 -1.5875,0.7269 -2.7348,0.0238 -0.83702,0.3212 v 3.1966 l 4.3737,4.552 3.7362,4.4979 0.43172,0.66402 0.43171,0.66402 -0.4986,0.78863 -0.008,0.99162 -1.1559,1.0175 -1.156,1.0175 -0.20393,0.86794 -0.20394,0.86794 -0.0623,0.19843 -0.0623,0.19844 -0.0331,0.39688 -0.0331,0.39687 h -0.82498 l 0.28318,0.4582 0.66738,-0.12758 0.66738,-0.12757 0.79414,-0.90448 0.79415,-0.90448 0.0462,-1.3799 0.0462,-1.3798 0.10307,1.1609 0.10306,1.161 -0.6295,1.5197 -2.6037,1.6872 -0.31861,0.0685 -0.31862,0.0685 -2.1758,0.59766 -2.894,-1.6333 -0.48638,0.004 -0.45071,0.79208 -0.45072,0.79207 -3.5965,-0.0608 z m 4.2614,-0.272 -0.63611,-0.48905 2.9336,-1.8766 0.17709,-0.28653 0.17709,-0.28654 h -2.0367 l -3.0474,-0.79375 h -0.50335 v 0.94059 l -0.88523,1.2638 0.31032,-0.19179 0.31033,-0.19179 v 1.0774 l 1.3238,0.86743 0.52906,-0.13836 0.52907,-0.13835 -0.1359,0.21988 -0.1359,0.21989 0.46626,0.12162 0.46626,0.12163 0.79375,0.0496 z m 1.4109,-0.85279 -0.14543,-0.23532 -1.0977,0.58748 0.3576,0.221 0.3576,0.22101 0.67338,-0.55885 z m -0.51019,0.29528 0.16352,-0.26459 h 0.26458 l -0.16352,0.26459 -0.16352,0.26458 h -0.26458 z m 5.1594,0.0757 v -0.13229 l -0.78568,0.3015 -0.27792,-0.51932 -0.27793,-0.51931 h -0.50705 l 1.1156,1.283 0.73302,-0.28128 z m 1.5875,-0.21185 v -0.13618 l -1.7198,-1.0486 -0.39687,-0.002 v 0.43316 l 1.7198,0.85591 0.39687,0.0338 z m -2.3812,-1.0544 v -0.13229 h -0.26458 v 0.26458 h 0.26458 z m -9.2604,-0.26458 v -0.13229 h -0.26459 v 0.26458 h 0.26459 z m -0.26459,-1.0583 0.32938,-0.39688 h -0.85854 v 0.79375 h 0.1998 z m 0.79375,0.26458 v -0.13229 h -0.26458 v 0.26458 h 0.26458 z m 9.8608,-0.0413 -0.3257,-0.13177 -0.46805,0.12197 -0.46806,0.12197 1.5875,0.02 z m 0.89895,-0.26742 -0.17638,-0.17639 -0.35278,0.35278 h 0.70555 z m -10.495,-0.22049 v -0.13229 h -0.26459 v 0.26458 h 0.26459 z m 6.2898,-6.0193 -0.14475,-6.1516 0.37116,-1.3229 0.57836,1.5313 0.57835,1.5313 v 1.259 l 0.39688,0.1764 1.0367,1.9844 1.0367,1.9844 0.94772,1.9017 0.94771,1.9017 0.73126,0.033 0.86913,-0.92155 0.86913,-0.92154 0.1819,-0.82821 0.18191,-0.82821 -1.2131,-1.6599 -5.1659,-6.154 -1.1191,-0.95788 -1.1191,-0.95789 h -0.30972 l -0.47967,1.3506 -0.47967,1.3506 -1.0732,1.6645 0.15214,-0.46303 0.15214,-0.46302 -0.15229,-0.39687 -0.1523,-0.39688 h -0.45594 l 0.3379,0.88056 -0.30955,-0.19131 -0.30954,-0.19131 v 1.0076 l -0.46302,0.40336 -0.46303,0.40335 -0.36616,0.11249 -0.36616,0.11248 0.86462,0.86462 0.0392,0.69926 0.92254,-2.0901 0.33505,0.54211 -2.5249,5.1264 -0.44424,-0.4035 0.16991,0.29769 0.1699,0.29769 -0.43557,1.2783 -0.43558,1.2783 -0.40496,-1.0354 -0.0372,0.61818 0.15539,0.40492 0.15538,0.40492 2.4674,0.79201 1.3229,0.22145 2.5981,0.072 z m 1.0303,5.7106 -0.17638,-0.17639 -0.35278,0.35278 h 0.70555 z m -8.812,-0.48507 0.15229,-0.39687 h -0.51256 v 0.79375 h 0.20797 z m 11.193,0.22049 -0.17638,-0.17639 -0.35278,0.35278 h 0.70555 z m 1.0583,-0.26459 -0.17639,-0.17638 -0.17639,0.17638 -0.17639,0.17639 h 0.70556 z m -3.6464,-5.3137 -0.0304,-5.2255 -0.43782,2.1167 -0.0152,2.1429 -0.0153,2.1429 0.17111,2.0243 0.17112,2.0243 h 0.187 z m 4.2638,5.0932 v -0.13229 h -0.26458 v 0.26458 h 0.26458 z m -13.229,-0.79375 v -0.13229 h -0.26458 v 0.26458 h 0.26458 z m 13.229,-0.26458 v -0.1323 h -0.26458 v 0.26459 h 0.26458 z m -12.435,-0.24897 v -0.11668 l -0.61092,-0.37757 0.18878,0.30546 0.18879,0.30546 h 0.23335 z m -0.79375,-0.80937 v -0.13229 h -0.26458 v 0.26458 h 0.26458 z m -0.26458,-1.0583 v -0.13229 h -0.26458 v 0.26458 h 0.26458 z m 0.8275,-1.3891 0.36312,-0.46302 -0.92604,0.72625 v 0.1998 h 0.1998 z m 1.8183,-2.3151 v -0.13229 h -0.26458 v 0.26458 h 0.26458 z m 0.79375,-0.79375 v -0.13229 h -0.26458 v 0.26458 h 0.26458 z m 1.4716,-1.6593 -0.16125,-0.16125 -0.45672,0.47818 -0.45672,0.47817 1.2359,-0.63385 z m 1.968,-1.5157 v -0.13229 h -0.26459 v 0.26458 h 0.26459 z m 2.1167,0 v -0.13229 h -0.26458 v 0.26458 h 0.26458 z m -2.3475,-0.59531 0.36313,-0.46302 -0.92604,0.72625 v 0.1998 h 0.1998 z m 9.4912,15.147 v -0.1323 h 0.26459 v 0.26459 h -0.26459 z m -1.3229,-2.9104 v -0.13229 h 0.26458 v 0.26458 h -0.26458 z m 5.5562,-0.38126 v -0.24897 l 0.5231,-0.3233 -0.31514,0.82124 h -0.20796 z m -2.1167,-2.5292 v -0.13229 h 0.26458 v 0.26458 h -0.26458 z"
       fill="#ca411c"
       id="path31" /><path
       d="m 123.93,139.72 -0.18879,-0.30546 0.30547,0.18878 0.30546,0.18879 v 0.23335 h -0.23335 z m -2.896,-0.50589 -0.1744,-0.28219 0.1852,-0.176 0.68232,0.74038 h -0.5188 z m 16.961,-0.0599 0.18065,-0.47443 0.14812,0.14811 0.14811,0.14811 -0.65753,0.65264 z m 1.7028,0.10878 v -0.26458 l 0.52917,-0.32704 v 0.52916 l -0.26458,0.16353 -0.26459,0.16352 z m -15.878,-0.52463 -1.7225,-0.43264 -1.2262,-0.72241 -1.2262,-0.72242 -1.3584,-1.6143 -0.25343,-0.91782 -0.25342,-0.91783 0.25342,-0.91782 0.25343,-0.91783 1.3584,-1.6143 2.1932,-1.2667 2.1167,-0.6468 4.6502,-5.3521 2.3613,-2.6127 v -5.4009 l 2.182,0.49028 1.3898,0.7552 -0.33225,0.0212 -1.8997,-0.79375 h -0.81075 l -3.6e-4,0.7276 -3.6e-4,0.72761 3.0434,-0.1788 0.25135,-0.24131 0.25136,-0.2413 1.3494,0.043 -1.5875,0.7269 -2.7348,0.0238 -0.83702,0.3212 v 3.1966 l 4.3737,4.552 3.7362,4.4979 0.43172,0.66402 0.43171,0.66402 -0.4986,0.78863 -0.008,0.99162 -1.1906,1.048 -1.1906,1.048 v 0.98213 l -0.52916,0.32704 v -0.8867 l -0.59532,0.17031 -0.59531,0.1703 -3.5899,0.32854 0.0949,0.28463 0.0949,0.28462 3.8845,2.0894 -0.16695,-0.27012 -0.16694,-0.27012 1.7016,-0.0482 1.7198,-1.8762 0.0462,-1.393 0.0462,-1.3929 0.10307,1.1609 0.10306,1.161 -0.6295,1.5197 -2.6037,1.6872 -0.31861,0.0685 -0.31862,0.0685 -2.1758,0.59766 -2.894,-1.6333 -0.48638,0.004 -0.45071,0.79208 -0.45072,0.79207 -3.5965,-0.0608 z m 4.2614,-0.272 -0.63611,-0.48905 2.9336,-1.8766 0.17709,-0.28653 0.17709,-0.28654 h -2.0367 l -3.0474,-0.79375 h -0.50335 l -0.008,0.92604 -0.5625,0.79375 0.11632,-0.72761 0.11632,-0.7276 h -0.1524 l -0.39048,0.78274 -0.39049,0.78274 0.69075,0.57327 0.13714,-0.34177 0.13713,-0.34177 0.0418,1.1784 1.3238,0.86743 0.52906,-0.13836 0.52907,-0.13835 -0.1359,0.21988 -0.1359,0.21989 0.46626,0.12162 0.46626,0.12163 0.79375,0.0496 z m -3.9941,-2.0127 v -0.13229 h 0.26458 v 0.26458 h -0.26458 z m 5.5277,1.2001 0.41362,-0.62294 -0.39097,0.14135 -0.39098,0.14134 0.0727,0.31733 0.0727,0.31732 -0.27114,-0.16757 -0.27113,-0.16758 -0.5378,0.33238 0.16085,0.26027 0.16086,0.26027 0.28383,-0.0946 0.28384,-0.0946 z m 4.1223,0.61812 0.43289,-0.16612 -1.629,-0.99068 H 132.277 l 0.4334,0.66146 0.43341,0.66145 h 0.1604 z m 1.1979,0.0338 v -0.13229 h -0.26458 v 0.26458 h 0.26458 z m -10.88,-3.2092 0.31696,-0.69565 -0.076,-0.0319 -0.0761,-0.032 -0.69363,-0.60951 -0.69363,-0.60952 0.22874,1.4836 0.24256,1.1906 h 0.43414 z m 7.1161,-5.9851 -0.14475,-6.1516 0.18019,-0.65992 0.18019,-0.65993 0.45145,1.1283 0.45146,1.1283 v 0.31867 l -0.7623,-0.63265 0.14488,-0.37753 0.14487,-0.37753 h -0.52102 l 0.10938,4.8286 0.10938,4.8286 0.27238,1.7345 0.25121,-0.15526 0.25122,-0.15526 0.003,-4.1516 0.003,-4.1516 1.338,2.3407 -0.13469,0.35102 -0.1347,0.35101 h -0.88417 l 0.13428,3.0427 0.13427,3.0427 h -1.3413 l 0.17509,0.17508 0.17509,0.17509 4.5034,-0.67 0.2929,-0.47392 h 1.0969 l 0.86913,-0.92155 0.86913,-0.92154 0.1819,-0.82821 0.18191,-0.82821 -1.2131,-1.6599 -5.1659,-6.154 -1.1191,-0.95788 -1.1191,-0.95789 h -0.43392 l -0.0238,0.66146 -0.38232,0.79375 -0.38231,0.79375 0.14749,-0.59531 0.1475,-0.59532 h -0.208 l -0.64143,0.70413 -0.64144,0.70412 0.71815,-0.41618 -0.188,0.62845 -0.188,0.62844 0.41582,-0.52916 0.41583,-0.52917 0.016,0.38408 -1.0993,1.7326 0.14674,-0.52917 0.14673,-0.52917 -0.48832,-0.77842 -0.0805,0.12754 -0.0805,0.12755 -0.92604,1.029 -0.92604,1.029 0.66146,-0.37528 v 0.56039 h -0.69475 l -0.74533,0.77796 -0.74533,0.77795 0.15511,0.4042 0.1551,0.4042 -0.50605,0.31276 v 1.0271 h -1.0896 l 0.38678,-0.66146 -1.168,1.025 0.15561,0.4055 0.1556,0.40551 -0.37252,-0.37252 -0.34847,0.4589 -0.34848,0.45891 -0.008,0.25136 -0.008,0.25135 0.635,-0.635 h 0.42334 l -0.0661,0.33073 -0.0662,0.33073 -0.34942,0.26648 1.2755,1.4828 v -0.35889 l 0.79375,0.65876 0.0834,-0.99084 -0.0236,-0.65576 0.46942,0.29012 v -1.0583 l 0.58586,-0.36208 -0.38466,1.2569 -0.73036,1.7844 v 0.1574 l 2.5135,0.80735 1.3229,0.22145 2.5981,0.072 z m 4.8294,3.3872 -0.58306,-1.2044 h -0.68482 l -0.31908,-1.1906 -0.008,-0.49666 1.0142,1.0886 1.4026,2.768 -0.23958,0.23958 z m -11.648,0.25077 v -0.13229 h 0.26458 v 0.26458 h -0.26458 z m -0.79375,-0.66146 v -0.26458 h 0.52917 v 0.52917 h -0.52917 z m 2.3945,-1.4772 0.0133,-0.24254 1.164,-2.249 1.164,-2.249 0.0133,0.27189 0.0133,0.2719 -2.154,4.212 -0.22723,0.22723 z m -2.6591,-0.7717 v -0.1323 h 0.26458 v 0.26459 h -0.26458 z m 10.848,-0.66146 v -0.35278 l 0.35278,0.35278 -0.17639,0.17639 -0.17639,0.17638 z m -8.7312,-1.9844 v -0.13229 h 0.26459 v 0.26458 h -0.26459 z m 6.7582,-2.2307 -0.15223,-0.24631 0.5378,-0.33237 v 0.82498 h -0.23335 z m -7.6401,3.2449 -0.17639,-0.17639 v 0.70555 l 0.17639,-0.17638 0.17639,-0.17639 z m 14.376,9.5691 v -0.1323 h 0.26459 v 0.26459 h -0.26459 z m -2.3812,-1.3229 v -0.13229 h 0.26459 v 0.26458 h -0.26459 z m 1.0583,-1.5875 v -0.13229 h 0.26458 v 0.26458 h -0.26458 z m 5.5562,-0.38126 v -0.24897 l 0.5231,-0.3233 -0.31514,0.82124 h -0.20796 z m -2.1167,-2.5292 v -0.13229 h 0.26458 v 0.26458 h -0.26458 z"
       fill="#ca3d1b"
       id="path32" /><path
       d="m 123.93,139.72 -0.18879,-0.30546 0.30547,0.18878 0.30546,0.18879 v 0.23335 h -0.23335 z m -2.896,-0.50589 -0.1744,-0.28219 0.1852,-0.176 0.68232,0.74038 h -0.5188 z m 16.961,-0.0599 0.18065,-0.47443 0.14812,0.14811 0.14811,0.14811 -0.65753,0.65264 z m 1.7028,0.10878 v -0.26458 l 0.52917,-0.32704 v 0.52916 l -0.26458,0.16353 -0.26459,0.16352 z m -15.878,-0.52463 -1.7225,-0.43264 -1.2262,-0.72241 -1.2262,-0.72242 -1.3584,-1.6143 -0.25343,-0.91782 -0.25342,-0.91783 0.25342,-0.91782 0.25343,-0.91783 1.3584,-1.6143 2.1932,-1.2667 2.1167,-0.6468 4.6502,-5.3521 2.3613,-2.6127 v -5.4009 l 2.182,0.49028 1.3898,0.7552 -0.33225,0.0212 -1.8997,-0.79375 h -0.81075 l -3.6e-4,0.7276 -3.6e-4,0.72761 3.0434,-0.1788 0.25135,-0.24131 0.25136,-0.2413 1.3494,0.043 -1.5875,0.7269 -2.7348,0.0238 -0.83702,0.3212 v 3.1966 l 4.3737,4.552 3.7362,4.4979 0.43172,0.66402 0.43171,0.66402 -0.4986,0.78863 -0.008,0.99162 -1.1906,1.048 -1.1906,1.048 v 0.98213 l -0.52916,0.32704 v -0.88667 l -1.4552,0.32382 -3.6096,0.34695 0.96372,0.93376 3.0786,1.5575 1.9274,-0.66259 1.4763,-1.6523 0.0462,-1.3849 0.0462,-1.3849 0.10307,1.1609 0.10306,1.161 -0.6295,1.5197 -2.6037,1.6872 -0.31861,0.0685 -0.31862,0.0685 -2.1758,0.59766 -2.894,-1.6333 -0.48638,0.004 -0.45071,0.79208 -0.45072,0.79207 -3.5965,-0.0608 z m 4.2614,-0.272 -0.63611,-0.48905 2.9336,-1.8766 0.17709,-0.28653 0.17709,-0.28654 h -2.0367 l -3.0474,-0.79375 h -0.50335 l -0.0372,1.1906 -0.20119,-0.51399 -0.20118,-0.51399 -0.41711,0.83613 -0.41712,0.83612 2.1252,1.92 1.2493,-0.23882 -0.12752,0.20634 -0.12753,0.20634 0.46626,0.12162 0.46626,0.12163 0.79375,0.0496 z m 1.4088,-0.6077 0.40579,-0.57935 -0.10325,-0.10325 -0.10325,-0.10324 -1.3643,0.89391 0.14564,0.23564 0.14563,0.23564 h 0.46793 z m 4.2472,0.41324 0.43289,-0.16612 -1.629,-0.99068 h -0.26399 l 0.4334,0.66146 0.43341,0.66145 h 0.1604 z m 1.1979,0.0338 v -0.13229 h -0.26458 v 0.26458 h 0.26458 z m -10.987,-3.0296 0.40367,-0.78061 v -0.1914 l -0.78785,-0.58248 -0.78784,-0.58248 0.14381,0.86346 0.14382,0.86345 0.1199,0.59531 0.11991,0.59531 h 0.24091 z m 7.3305,-1.4022 0.0477,-1.3891 0.1982,2.5135 1.6908,-0.018 3.175,-0.69646 1.9057,-0.81258 1.1018,-1.5474 0.36782,-1.4655 -0.61297,-0.83861 -0.61297,-0.83862 -5.1659,-6.154 -1.1191,-0.95788 -1.1191,-0.95789 h -0.43392 l -0.0238,0.66146 -0.38232,0.79375 -0.38231,0.79375 0.14749,-0.59531 0.1475,-0.59532 h -0.28856 l -3.176,3.7025 -3.176,3.7025 -0.69137,1.0447 -0.69138,1.0447 0.72761,0.95394 0.7276,0.95394 1.0215,0.54671 0.1412,-0.1752 0.32359,-0.52916 0.32358,-0.52917 -0.30454,0.92604 -0.15016,0.36968 -0.15016,0.36967 2.5493,0.81922 1.3229,0.22145 2.5136,0.072 z m 5.244,-0.46302 v -0.35278 l 0.35278,0.35278 -0.35278,0.35278 z m -0.80683,-1.6131 -0.553,-1.084 0.10085,-0.10085 0.10084,-0.10085 1.1513,2.3696 h -0.24695 z m -10.306,0.42252 v -0.1323 h 0.26459 v 0.26459 h -0.26459 z m 5.647,-7.4083 0.002,-2.1167 0.10162,1.1315 0.10163,1.1315 -0.10337,0.98519 -0.10337,0.9852 z m 1.2322,-0.26458 v -0.13229 h 0.26458 v 0.26458 h -0.26458 z m -0.49977,-1.22 -0.29637,-0.85017 0.1029,-0.10289 0.10289,-0.10289 0.29637,0.85016 0.29636,0.85016 -0.10289,0.10289 -0.10289,0.1029 z m -2.1461,0.0294 v -0.35277 l 0.35277,0.35277 -0.17639,0.17639 -0.17638,0.17639 z m 1.5875,-1.4552 v -0.1323 h 0.26458 v 0.26459 h -0.26458 z m 7.6729,15.875 v -0.1323 h 0.26459 v 0.26459 h -0.26459 z m -1.3229,-2.9104 v -0.13229 h 0.26458 v 0.26458 h -0.26458 z m 5.5562,-0.38126 v -0.24897 l 0.5231,-0.3233 -0.31514,0.82124 h -0.20796 z m -2.1167,-2.5292 v -0.13229 h 0.26458 v 0.26458 h -0.26458 z"
       fill="#ad472d"
       id="path33" /><path
       d="m 123.93,139.72 -0.18879,-0.30546 0.30547,0.18878 0.30546,0.18879 v 0.23335 h -0.23335 z m -2.896,-0.50589 -0.1744,-0.28219 0.1852,-0.176 0.68232,0.74038 h -0.5188 z m 16.961,-0.0599 0.18065,-0.47443 0.14812,0.14811 0.14811,0.14811 -0.65753,0.65264 z m 1.7028,0.10878 v -0.26458 l 0.52917,-0.32704 v 0.52916 l -0.26458,0.16353 -0.26459,0.16352 z m -15.878,-0.52463 -1.7225,-0.43264 -1.2262,-0.72241 -1.2262,-0.72242 -1.3584,-1.6143 -0.25343,-0.91782 -0.25342,-0.91783 0.25342,-0.91782 0.25343,-0.91783 1.3584,-1.6143 2.1932,-1.2667 2.1167,-0.6468 4.6502,-5.3521 2.3613,-2.6127 v -5.4009 l 2.182,0.49028 1.3898,0.7552 -0.33225,0.0212 -1.8997,-0.79375 h -0.81075 l -3.6e-4,0.7276 -3.6e-4,0.72761 3.0434,-0.1788 0.25135,-0.24131 0.25136,-0.2413 1.3494,0.043 -1.5875,0.7269 -2.7348,0.0238 -0.83702,0.3212 v 3.1966 l 4.3737,4.552 3.7362,4.4979 0.43172,0.66402 0.43171,0.66402 -0.4986,0.78863 -0.008,0.99162 -1.1906,1.048 -1.1906,1.048 v 0.98213 l -0.52916,0.32704 v -1.012 l -2.7612,0.71624 h -2.5711 l 1.4958,1.2582 2.7759,1.3388 1.886,-0.57882 0.77791,-0.886 0.77792,-0.88599 0.0462,-1.3799 0.0462,-1.3798 0.10307,1.1609 0.10306,1.161 -0.6295,1.5197 -2.6037,1.6872 -0.31861,0.0685 -0.31862,0.0685 -2.1758,0.59766 -2.894,-1.6333 -0.48638,0.004 -0.45071,0.79208 -0.45072,0.79207 -3.5965,-0.0608 z m 4.2577,-0.2748 -0.63983,-0.49186 1.1127,-0.70242 1.1127,-0.70241 0.32089,0.18424 0.32088,0.18424 -0.39803,-0.43877 0.87692,-0.96898 h -2.0875 l -3.0474,-0.79375 h -0.50335 l -0.0372,1.1906 -0.2059,-0.52741 -0.20589,-0.52742 -0.43075,0.83298 -0.43075,0.83297 2.1618,1.9531 1.2493,-0.23882 -0.12752,0.20634 -0.12753,0.20634 0.46626,0.12162 0.46626,0.12163 0.79375,0.0496 z m 1.7052,-1.2973 -0.10268,-0.10268 -0.79688,0.47073 -0.79689,0.47073 0.88956,0.65047 0.90957,-1.3866 z m 4.0488,1.0408 0.35163,-0.22292 -2.174,-1.1332 1.1734,1.5871 0.29736,-0.008 z m 1.1036,0.0987 v -0.13229 h -0.26458 v 0.26458 h 0.26458 z m -10.922,-3.1089 0.5074,-0.85997 -1.7354,-1.1523 0.13929,0.84078 0.13928,0.84079 0.1199,0.59531 0.11991,0.59531 h 0.20223 z m 7.2655,-1.3228 0.0477,-1.3891 0.1006,1.2935 0.1006,1.2935 3.3484,-0.31268 3.1018,-1.0745 1.4316,-1.6808 0.17169,-0.78169 0.17169,-0.78168 -1.2131,-1.6599 -5.1659,-6.154 -1.1191,-0.95788 -1.1191,-0.95789 h -0.42384 l -0.16556,0.65963 -0.16555,0.65963 -0.44129,-0.27273 -4.9033,5.5837 -1.4005,1.8617 -1.4005,1.8617 v 0.40623 l 2.0354,2.2047 h 0.52959 l 0.6264,-1.1906 -0.14048,0.46302 -0.14047,0.46302 -0.15016,0.36968 -0.15016,0.36967 2.5493,0.81922 1.3229,0.22145 2.5136,0.072 z m 4.7148,-1.3891 v -0.13229 h 0.26458 v 0.26458 h -0.26458 z m -0.79375,-1.5875 v -0.13229 h 0.26458 v 0.26458 h -0.26458 z m -3.5392,-7.9477 -0.16498,-0.42993 0.008,-0.17679 0.008,-0.1768 0.28079,0.48286 0.28079,0.48287 -0.24772,0.24772 z m -1.7525,-0.51894 v -0.13229 h 0.26458 v 0.26458 h -0.26458 z m 8.9958,15.346 v -0.1323 h 0.26459 v 0.26459 h -0.26459 z m -1.3229,-2.9104 v -0.13229 h 0.26458 v 0.26458 h -0.26458 z m 5.5562,-0.38126 v -0.24897 l 0.5231,-0.3233 -0.31514,0.82124 h -0.20796 z m -2.1167,-2.5292 v -0.13229 h 0.26458 v 0.26458 h -0.26458 z"
       fill="#a0371e"
       id="path34" /><path
       d="m 123.93,139.72 -0.18879,-0.30546 0.30547,0.18878 0.30546,0.18879 v 0.23335 h -0.23335 z m -2.896,-0.50589 -0.1744,-0.28219 0.1852,-0.176 0.68232,0.74038 h -0.5188 z m 16.961,-0.0599 0.18065,-0.47443 0.14812,0.14811 0.14811,0.14811 -0.65753,0.65264 z m 1.7028,0.10878 v -0.26458 l 0.52917,-0.32704 v 0.52916 l -0.26458,0.16353 -0.26459,0.16352 z m -15.878,-0.52463 -1.7225,-0.43264 -1.2262,-0.72241 -1.2262,-0.72242 -1.3584,-1.6143 -0.25343,-0.91782 -0.25342,-0.91783 0.25342,-0.91782 0.25343,-0.91783 1.3584,-1.6143 2.1932,-1.2667 2.1167,-0.6468 4.6502,-5.3521 2.3613,-2.6127 v -5.4009 l 2.182,0.49028 1.3898,0.7552 -0.33225,0.0212 -1.8997,-0.79375 h -0.81075 l -3.6e-4,0.7276 -3.6e-4,0.72761 3.0434,-0.1788 0.25135,-0.24131 0.25136,-0.2413 1.3494,0.043 -1.5875,0.7269 -2.7348,0.0238 -0.83702,0.3212 v 3.1966 l 4.3737,4.552 3.7362,4.4979 0.43172,0.66402 0.43171,0.66402 -0.4986,0.78863 -0.008,0.99162 -1.1906,1.048 -1.1906,1.048 -0.0307,0.57282 -0.0307,0.57283 -0.12538,-0.48574 -0.12537,-0.48573 -1.4077,0.36668 -4.1569,0.60479 0.98194,0.85091 3.2632,1.7128 1.9526,-0.70609 0.76553,-0.87189 0.76554,-0.87189 0.0462,-1.3799 0.0462,-1.3798 0.10307,1.1609 0.10306,1.161 -0.6295,1.5197 -2.6037,1.6872 -0.31861,0.0685 -0.31862,0.0685 -2.1758,0.59766 -2.894,-1.6333 -0.48638,0.004 -0.45071,0.79208 -0.45072,0.79207 -3.5965,-0.0608 z m 4.2614,-0.272 -0.63611,-0.48905 2.9336,-1.8766 0.17709,-0.28653 0.17709,-0.28654 h -2.0367 l -3.0474,-0.79375 h -0.50335 l -0.0614,1.1906 -0.242,-0.92604 h -0.42617 l -0.65776,1.588 0.65305,0.78688 0.90685,0.56046 0.90684,0.56046 1.038,-0.27143 -0.1359,0.21988 -0.1359,0.21989 0.46626,0.12162 0.46626,0.12163 0.79375,0.0496 z m 1.6828,-0.85199 0.72015,-1.0882 -0.22197,0.10024 -0.22198,0.10024 -2.0503,1.2734 0.96083,0.70258 h 0.0932 z m 4.0597,0.77073 0.3175,-0.3175 v -0.42334 l -0.66146,-0.012 -1.3229,-1.0348 -0.4312,-0.012 0.74477,1.0527 0.74476,1.0527 0.29104,0.012 z m 1.2435,0.0529 0.16353,-0.26458 h -0.79375 l -0.16353,0.26458 -0.16352,0.26459 h 0.79375 z m -10.992,-3.0816 0.56932,-0.96493 -0.42492,-0.32319 -1.7279,-1.5579 0.32722,1.8266 0.24753,0.99219 0.24752,0.99219 h 0.192 z m 10.152,-0.4731 1.9845,-0.3797 2.1183,-1.0807 1.0677,-1.4995 0.36782,-1.4655 -0.61297,-0.83861 -0.61297,-0.83862 -5.1659,-6.154 -1.1191,-0.95788 -1.1191,-0.95789 h -0.32494 l -5.4001,6.0142 -1.461,1.8215 -1.461,1.8215 -0.16062,0.61569 -0.16061,0.61569 2.0359,2.085 2.2024,1.0662 2.3115,0.45428 3.5253,0.058 z m -9.3463,-1.3401 v -0.13229 h 0.26458 v 0.26458 h -0.26458 z m 6.8792,-10.583 v -0.13229 h 0.26459 v 0.26458 h -0.26459 z m 7.1438,14.817 v -0.1323 h 0.26459 v 0.26459 h -0.26459 z m -1.3229,-2.9104 v -0.13229 h 0.26458 v 0.26458 H 137.581 Z m 5.5562,-0.38126 v -0.24897 l 0.5231,-0.3233 -0.31514,0.82124 h -0.20796 z m -2.1167,-2.5292 v -0.13229 h 0.26458 v 0.26458 h -0.26458 z"
       fill="#4f4d4b"
       id="path35" /><path
       d="m 121.17,139.36 v -0.1323 h 0.26458 v 0.26459 H 121.17 Z m 18.521,0 v -0.1323 h 0.26459 v 0.26459 H 139.691 Z m -16.007,-0.76896 -1.8521,-0.59363 -0.83988,-0.43963 -0.83987,-0.43963 -0.94399,-0.99574 -0.94399,-0.99575 -0.16381,-0.85989 -0.16381,-0.8599 0.36626,-1.9523 2.199,-2.01 3.4468,-1.4132 0.47983,-0.55336 0.47983,-0.55335 3.0004,-3.4396 3.1837,-3.3262 1.9844,2.0599 1.9844,2.0599 -3.7174,-3.5718 h -0.5392 l -5.4001,6.0142 -1.461,1.8215 -1.461,1.8215 -0.15983,0.61253 -0.15982,0.61253 1.5212,1.6242 2.3812,1.5836 -0.92604,-0.31522 -0.0418,1.174 -0.2669,-0.66146 h -0.42087 l -0.69398,1.6754 0.94826,0.8197 0.94825,0.81971 2.445,0.65394 0.91845,-0.004 -1.4547,-0.95926 3.1719,-2.08 0.001,-0.19844 0.001,-0.19843 -1.9844,-0.0754 5.2917,-0.42835 2.6458,-0.74484 1.0583,-0.43806 -0.67746,0.83404 -2.233,0.5543 -3.3147,0.36742 0.29994,0.3614 0.29993,0.3614 1.7456,0.92692 1.7456,0.92693 h 0.43976 l 2.1327,-1.0304 -0.28968,0.34905 -0.28968,0.34904 -3.9546,1.4423 -3.4176,-1.8786 -1.1291,1.8269 -3.5287,-0.043 z m 6.0738,-0.98073 0.72015,-1.0882 -0.22197,0.10024 -0.22198,0.10024 -2.0503,1.2734 0.96083,0.70258 h 0.0932 z m 4.0597,0.77073 0.3175,-0.3175 v -0.42334 l -0.66146,-0.012 -1.3229,-1.0348 -0.4312,-0.012 0.74477,1.0527 0.74476,1.0527 0.29104,0.012 z m 1.2435,0.0529 0.16353,-0.26458 h -0.79375 l -0.16353,0.26458 -0.16352,0.26459 h 0.79375 z m -10.992,-3.0816 0.56932,-0.96493 -0.42492,-0.32319 -1.7279,-1.5579 0.32722,1.8266 0.24753,0.99219 0.24752,0.99219 h 0.192 z m 14.035,3.7431 v -0.13229 h 0.26459 v 0.26458 H 138.104 Z m -17.198,-0.26458 v -0.13229 h 0.26458 v 0.26458 H 120.906 Z m 19.05,0 v -0.13229 h 0.26458 v 0.26458 H 139.956 Z m -1.5875,-1.9688 v -0.24897 l 0.5231,-0.3233 -0.31514,0.82124 h -0.20796 z m -11.024,-1.7795 0.17639,-0.17638 0.17639,0.17638 0.17639,0.17639 h -0.70556 z m 11.818,-0.88194 v -0.35278 l 0.17638,0.17639 0.17639,0.17639 -0.17639,0.17639 -0.17638,0.17639 z m 4.2333,-0.13229 v -0.13229 h 0.26458 v 0.26458 h -0.26458 z m -4.9958,-0.79375 0.69164,-0.79375 0.29195,-0.52917 0.29195,-0.52916 0.008,0.41111 0.008,0.41112 -1.9833,1.8236 z m -13.525,0.26458 v -0.13229 h 0.26458 v 0.26458 H 124.875 Z m 14.817,-2.9595 v -0.446 l -1.0786,-1.3399 -1.0786,-1.3399 2.4218,2.6313 v 0.94053 h -0.26459 z m -3.5952,-4.7795 -1.2782,-1.5214 0.61375,0.52916 0.61375,0.52917 1.5737,1.9844 h -0.24477 z m -4.3423,-2.8443 v -0.13229 h 0.26459 v 0.26458 h -0.26459 z m -0.7562,-7.062 0.0375,-1.4047 0.1609,1.0542 0.16089,1.0542 2.3812,-0.0828 -2.1167,0.37418 -0.66146,0.40956 z m 4.1958,0.31511 0.39687,-0.25648 0.42811,-0.008 -0.16353,0.26458 -0.16352,0.26459 -0.89481,-0.008 z m -1.3229,-0.39687 v -0.13229 h 0.26458 v 0.26458 h -0.26458 z m -0.79375,-0.39688 -0.39688,-0.25648 0.63023,-0.008 0.32705,0.52917 -0.1636,-0.008 z m -1.0583,-0.39687 v -0.13229 h 0.26458 v 0.26458 h -0.26458 z"
       fill="#592b20"
       id="path36" /><path
       d="m 121.17,139.36 v -0.1323 h 0.26458 v 0.26459 H 121.17 Z m 18.521,0 v -0.1323 h 0.26459 v 0.26459 H 139.691 Z m -16.007,-0.76896 -1.8521,-0.59363 -0.83988,-0.43963 -0.83987,-0.43963 -0.94399,-0.99574 -0.94399,-0.99575 -0.16381,-0.85989 -0.16381,-0.8599 0.18311,-0.97608 0.18312,-0.97609 1.9416,-1.7952 0.70374,-0.36971 0.70375,-0.36971 2.6801,-1.0564 -1.9096,2.5005 -0.26802,0.58748 -0.26801,0.58748 0.55597,0.67713 0.3766,3.175 0.53068,0.87679 0.53067,0.87679 0.96017,0.59795 0.96017,0.59796 2.5005,0.6875 1.0721,-0.28035 -0.14827,0.23991 -0.14827,0.2399 -3.5406,-0.043 z m 8.1627,-0.27506 -1.6269,-0.90566 -0.38976,0.36218 0.30042,-0.57792 0.30043,-0.57792 v -0.31157 l -1.4552,0.86874 1.3229,-1.1094 0.39688,-0.012 v -0.49722 l -1.9844,-0.20757 2.8663,-0.089 -0.17409,0.1741 -0.17409,0.17409 0.58937,0.71015 h -0.3548 l 0.81917,1.1906 0.81917,1.1906 h 0.7371 l 0.32704,0.52916 -0.69269,-0.006 z m 6.2571,0.77943 v -0.13229 h 0.26459 v 0.26458 h -0.26459 z m -17.198,-0.26458 v -0.13229 h 0.26458 v 0.26458 h -0.26458 z m 13.582,-0.0441 0.17639,-0.17639 0.35278,0.35278 h -0.70556 z m 5.4681,0.0441 v -0.13229 h 0.26458 v 0.26458 h -0.26458 z m -4.7625,-0.26458 v -0.1323 h 0.26458 v 0.26459 h -0.26458 z m -5.6886,-0.39688 0.16353,-0.26458 h 0.26458 l -0.32704,0.52916 h -0.26459 z m 4.7543,0.0132 0.1516,-0.24529 -0.93718,-0.5456 0.56032,-0.016 0.48457,0.35432 0.48456,0.35433 -0.44773,0.17181 -0.44774,0.17181 z m 1.728,0.11906 v -0.13229 h 0.26458 v 0.26458 h -0.26458 z m -8.3344,-0.39687 0.16352,-0.26459 h 0.23336 v 0.52917 h -0.5604 z m 9.1281,0.17203 v -0.11117 l 1.3881,-0.9095 -0.1796,0.2906 -0.1796,0.29061 -1.0289,0.55063 z m -8.4667,-0.56891 v -0.13229 h 0.26458 v 0.26458 h -0.26458 z m 10.054,-0.64584 v -0.24897 l 0.5231,-0.3233 -0.31514,0.82124 h -0.20796 z m -13.784,-2.2898 -0.42262,-0.87258 1.639,0.83286 0.26458,0.2816 -0.89307,-0.31964 -0.0826,0.47517 -0.0826,0.47516 z m 7.1695,0.81903 v -0.1323 h 0.26459 v 0.26459 h -0.26459 z m 1.7859,-0.30752 0.33073,-0.13346 0.66146,0.26691 h -1.3229 z m 1.7418,-0.26575 0.17639,-0.17639 0.35278,0.35278 h -0.70556 z m 0.79375,-0.26458 0.17639,-0.17639 0.35278,0.35278 h -0.70556 z m 0.70556,-0.19218 v -0.10398 l 0.41061,-0.15757 0.41062,-0.15757 -0.3233,0.5231 h -0.49793 z m 2.3812,-0.1606 v -0.35278 l 0.17638,0.17639 0.17639,0.17639 -0.17639,0.17639 -0.17638,0.17639 z m 4.2333,-0.13229 v -0.13229 h 0.26458 v 0.26458 h -0.26458 z m -4.9958,-0.79375 0.69164,-0.79375 0.29195,-0.52917 0.29195,-0.52916 0.008,0.41111 0.008,0.41112 -1.9833,1.8236 z m -15.27,-0.17317 -0.18879,-0.30547 0.30547,0.18879 0.30546,0.18879 v 0.23335 h -0.23335 z m 16.562,-2.5218 v -0.446 l -1.0786,-1.3399 -1.0786,-1.3399 2.4218,2.6313 v 0.94053 h -0.26459 z m -15.081,-3.3581 v -0.0999 l 0.92604,-0.72625 -0.36312,0.46302 -0.36313,0.46302 h -0.1998 z m 11.486,-1.4215 -1.2782,-1.5214 0.61375,0.52916 0.61375,0.52917 1.5737,1.9844 h -0.24477 z m -10.428,0.22967 v -0.26459 l 0.52916,-0.32704 v 0.52917 l -0.52916,0.32704 z m 1.3229,-1.4864 0.62141,-0.66146 h 0.26458 l -0.6214,0.66146 -0.62141,0.66146 h -0.26459 z m 5.8208,-2.3812 -1.9711,-1.9844 h 0.26459 l 3.9423,3.9688 h -0.26458 z m -3.7152,0.0661 1.1796,-1.2568 h 0.1544 v 0.1544 l -2.5136,2.3591 z m 1.9055,-6.3583 0.0423,-1.3808 0.11156,0.92498 0.11157,0.92498 0.24972,0.30089 0.24972,0.3009 -0.80726,0.30977 z m 1.3467,0.68582 0.46303,-0.121 0.92604,0.242 h -1.8521 z m 2.9766,-0.34679 0.16352,-0.26458 h 0.52917 l -0.16353,0.26458 -0.16352,0.26459 h -0.52916 z m -2.4254,-0.97014 0.17639,-0.17638 0.17639,0.17638 0.17639,0.17639 h -0.70556 z"
       fill="#312f2c"
       id="path37" /><path
       d="m 127.61,139.05 0.17639,-0.17639 0.17639,0.17639 0.17639,0.17638 h -0.70556 z m 1.367,-0.0882 0.16352,-0.26458 h 0.26458 l -0.32704,0.52916 h -0.26458 z m -6.3056,-0.77768 -2.0722,-0.74808 -0.92692,-0.89076 -0.92692,-0.89077 -0.7486,-1.4289 v -1.6401 l 0.7486,-1.4289 1.7649,-1.687 2.5574,-1.0911 h 0.75866 l -1.892,2.7504 0.18074,0.6753 0.18073,0.6753 0.60988,3.4396 1.3016,1.4894 1.7344,1.0719 0.72389,0.21796 0.72389,0.21797 -2.6458,0.016 z m 8.9514,-0.0395 -1.3229,-0.76037 0.094,-0.3357 0.094,-0.33571 0.0916,-0.52916 0.19602,-0.3136 0.19602,-0.31359 -0.86492,-0.10708 -0.86492,-0.10709 2.1364,-0.0846 0.0423,0.56108 0.0423,0.56109 0.68794,1.0395 0.68794,1.0396 0.58287,0.23468 0.58287,0.23469 -1.0583,-0.0232 z m 2.7781,0.68489 v -0.13229 h 0.26458 v 0.26458 h -0.26458 z m 0.79375,-0.26458 v -0.1323 h 0.26458 v 0.26459 h -0.26458 z m -5.8208,-0.26459 v -0.13229 h 0.26459 v 0.26458 h -0.26459 z m 5.0271,-0.39687 v -0.35278 l 0.17638,0.17639 0.17639,0.17639 -0.35277,0.35277 z m 2.6458,-0.13229 v -0.1323 h 0.26458 v 0.26459 h -0.26458 z m -12.532,-3.4411 -0.15171,-0.39535 h 0.48133 l 0.30444,0.4926 -0.48235,0.29811 z m 11.738,0.26611 v -0.1323 h 0.26458 v 0.26459 h -0.26458 z m 0.61736,-0.30869 0.17639,-0.17638 0.17639,0.17638 0.17639,0.17639 h -0.70556 z m 1.7639,-1.2788 v -0.1323 h 0.26458 v 0.26459 h -0.26458 z m 0.52917,-0.52917 v -0.13229 h 0.26458 v 0.26458 h -0.26458 z m 0.26458,-0.52917 v -0.13229 h 0.26458 v 0.26458 h -0.26458 z m 0.26458,-1.4552 v -0.35277 l 0.17639,0.17638 0.17639,0.17639 -0.35278,0.35278 z m -0.52916,-0.92604 v -0.13229 h 0.26458 v 0.26458 h -0.26458 z m -0.52917,-0.79375 v -0.13229 h 0.26458 v 0.26458 h -0.26458 z m -0.8275,-0.85989 -0.36313,-0.46302 0.92605,0.72625 v 0.1998 h -0.1998 z m -13.063,-0.8599 0.16353,-0.26458 h 0.26458 l -0.32704,0.52916 h -0.26459 z m 12.568,0.13229 v -0.13229 h 0.26459 v 0.26458 h -0.26459 z m -11.377,-1.3229 v -0.1323 h 0.26458 v 0.26459 h -0.26458 z m 9.3674,-0.96693 -0.18879,-0.30546 0.61093,0.37757 v 0.23336 h -0.23335 z m -8.4414,-0.2237 0.16352,-0.26458 h 0.26459 l -0.16353,0.26458 -0.16352,0.26458 h -0.26458 z m 7.3831,-1.0992 -0.18879,-0.30547 0.30547,0.18879 0.30546,0.18879 v 0.23335 h -0.23335 z m -5.9279,-0.62058 v -0.13229 h 0.26458 v 0.26458 h -0.26458 z m 0.52917,-0.52917 v -0.13229 h 0.26458 v 0.26458 h -0.26458 z m 4.0758,-0.17317 -0.18879,-0.30546 0.30547,0.18878 0.30546,0.18879 v 0.23335 h -0.23335 z m -3.1497,-0.75287 0.47889,-0.52917 h 0.26458 l -0.95778,1.0583 h -0.26458 z m 2.0914,-0.30546 -0.18879,-0.30547 0.30547,0.18879 0.30546,0.18879 v 0.23335 h -0.23335 z m -0.90078,-0.88517 v -0.13229 h 0.26459 v 0.26459 h -0.26459 z m 0,-3.5875 v -0.28019 l 0.26459,0.16352 0.26458,0.16352 v 0.23335 h -0.52917 z m 1.0583,-0.11667 v -0.13229 h 0.26458 v 0.26458 h -0.26458 z m -1.0374,-1.345 0.0209,-0.50712 0.13896,0.34727 0.13897,0.34727 -0.15986,0.15985 -0.15985,0.15985 z"
       fill="#1b1b1b"
       id="path38" /></g></svg>
