<?xml version="1.0" encoding="UTF-8" standalone="no"?>
<!-- Created with Inkscape (http://www.inkscape.org/) -->

<svg
   width="25.244mm"
   height="24.96mm"
   version="1.1"
   viewBox="0 0 25.244 24.96"
   xml:space="preserve"
   id="svg94"
   sodipodi:docname="tent_big.svg"
   inkscape:version="1.3 (0e150ed6c4, 2023-07-21)"
   xmlns:inkscape="http://www.inkscape.org/namespaces/inkscape"
   xmlns:sodipodi="http://sodipodi.sourceforge.net/DTD/sodipodi-0.dtd"
   xmlns="http://www.w3.org/2000/svg"
   xmlns:svg="http://www.w3.org/2000/svg"><defs
     id="defs94" /><sodipodi:namedview
     id="namedview94"
     pagecolor="#ffffff"
     bordercolor="#000000"
     borderopacity="0.25"
     inkscape:showpageshadow="2"
     inkscape:pageopacity="0.0"
     inkscape:pagecheckerboard="0"
     inkscape:deskcolor="#d1d1d1"
     inkscape:document-units="mm"
     inkscape:zoom="1.4204394"
     inkscape:cx="-2.81603"
     inkscape:cy="88.000937"
     inkscape:window-width="2400"
     inkscape:window-height="1261"
     inkscape:window-x="2391"
     inkscape:window-y="-9"
     inkscape:window-maximized="1"
     inkscape:current-layer="svg94" /><g
     transform="translate(-119.683,-107.741)"
     id="g57"><path
       d="m 122.62,132.12 -0.29426,-0.54984 0.1453,-0.37865 0.1453,-0.37866 0.49098,0.1372 0.1846,-0.26458 -1.2768,-1.1769 -1.2768,-1.1769 -0.369,-0.71356 -0.36899,-0.71355 -0.15755,-1.02 -0.15754,-1.02 0.42551,-1.1906 0.42552,-1.1906 2.0792,-2.1208 0.54414,-1.5816 0.54413,-1.5816 1.2169,-1.8598 0.74594,-1.1283 0.74595,-1.1283 2.9654,-0.79483 3.175,-0.94536 0.0789,-1.8003 0.0789,-1.8003 1.4297,0.31404 1.6395,0.17291 1.6395,0.17292 0.15175,0.39545 0.15175,0.39546 -0.17185,0.91602 -0.17185,0.91603 -3.768,-0.1834 -0.13229,0.26458 -0.1323,0.26459 2.1167,0.63461 4.2333,1.111 2.4669,3.8184 0.55048,2.6381 0.83486,3.175 0.59416,2.292 0.38319,0.38318 0.38319,0.38319 -0.16405,0.65364 -0.16406,0.65364 h -0.48342 l -0.16361,-0.59532 -0.16361,-0.59531 -0.9997,-3.4396 -0.21203,-1.0583 -0.21202,-1.0583 -0.13453,3.4396 -0.13454,3.4396 -0.36807,0.5532 -0.36808,0.5532 0.18183,0.9692 0.18182,0.9692 1.0235,0.95349 -0.81945,1.1699 -0.42322,-0.26156 -0.17483,-1.318 -0.17484,-1.318 -0.2567,-0.15864 -0.2567,-0.15865 -0.55551,0.94152 -0.55552,0.94153 h -0.74148 v 0.53924 l 1.3229,-0.33203 v 0.52174 l -0.38708,0.32125 -0.38708,0.32124 -1.7256,-0.86082 -2.5897,0.66374 -3.156,-1.7483 -0.1168,0.177 -0.92743,1.4812 -3.278,-0.0894 -1.4031,0.37967 -0.16247,-0.51192 -0.16248,-0.51191 -1.8506,-0.56796 -0.2612,0.48805 -0.26119,0.48805 v 0.82854 h -0.51055 z m 0.98121,-12.591 -0.17639,-0.17639 v 0.70556 l 0.35278,-0.35278 z"
       fill="#e4f1da"
       id="path39" /><path
       d="m 122.63,131.99 -0.25804,-0.67868 v -0.1684 l 1.1285,-0.29511 -3.2031,-3.0739 -0.6088,-2.3126 0.5895,-2.4573 1.1914,-1.2976 1.1914,-1.2976 0.51668,-1.5338 0.51669,-1.5338 2.6952,-4.2452 2.2002,-0.5891 3.9688,-1.1522 0.1576,-3.6039 0.42328,0.16242 0.42329,0.16243 3.8907,0.32889 v 2.624 l -3.9545,-0.188 -0.0358,0.26458 -0.0358,0.26459 1.55,0.47422 1.55,0.47423 1.5875,0.46122 1.5875,0.46123 2.4852,3.6854 0.0141,0.52916 0.0141,0.52917 1.2701,4.4979 0.66296,2.5566 0.78312,0.78311 -0.33997,0.71142 -0.33998,0.71141 -0.75016,-2.3812 -1.2441,-4.7625 -0.0418,6.7975 -0.9947,1.4046 0.8624,2.8259 0.19844,-0.20029 0.19844,-0.20028 v 1.0817 l -0.74299,0.61663 -0.35611,-1.6148 -0.35611,-1.6148 -0.51714,-0.0294 -0.80578,1.6358 -0.62432,0.21466 -0.62433,0.21466 0.42589,0.35345 0.42589,0.35346 v -0.59396 h 0.79375 v 0.46437 l -0.78493,0.65144 -1.7789,-1.0496 -1.7303,0.72752 h -0.90361 l -1.5179,-0.82213 -1.5179,-0.82214 -0.1288,0.189 -0.93252,1.489 -2.7438,-0.33941 -1.581,0.60492 -0.45485,-0.56171 -0.45485,-0.56172 -1.6114,-0.46213 -0.26409,0.49344 -0.26408,0.49345 v 0.82854 h -0.54227 z m 4.2399,-0.24736 v -0.13229 h -0.26458 v 0.26459 h 0.26458 z m 8.9958,-1.1594 v -0.16854 l -1.1137,-0.69553 0.43904,0.70053 -0.1706,1.0336 0.42261,-0.35074 0.42262,-0.35074 z m -0.52917,0.10104 v -0.13229 h 0.26458 v 0.26458 h -0.26458 z m 1.1906,0.39688 0.16352,-0.26459 h -0.26458 l -0.16352,0.26459 -0.16352,0.26458 h 0.26458 z m 1.6128,-0.57005 0.18879,-0.30546 -0.60648,0.37482 -2.4674,-1.6976 0.38972,0.63058 0.97046,0.63599 0.97045,0.63599 0.36564,0.0312 z m 0.90078,-1.723 v -1.4993 l -0.0965,0.11025 -0.0965,0.11024 -0.17725,1.3891 -0.17725,1.3891 h 0.5474 z m -12.7,0.30868 v -0.13229 h -0.26458 v 0.26458 h 0.26458 z m -0.3108,-2.1828 -0.0462,-1.7859 -0.10387,1.1774 -0.10386,1.1774 -0.20997,-0.33973 -0.20996,-0.33973 -0.15959,0.41589 -0.15959,0.41588 0.62985,-0.126 0.0908,0.59531 0.0908,0.59532 h 0.22778 z m 8.2483,0.85989 v -0.13229 h -0.26459 v 0.26459 h 0.26459 z m -0.47248,-2.9767 0.0756,-1.3892 -0.19844,1.6e-4 -0.19843,1.7e-4 0.0792,4.101 0.1664,-1.3229 z m -9.0525,1.9184 v -0.13229 h -0.26458 v 0.26458 h 0.26458 z m 0,-1.0583 v -0.13229 h -0.26458 v 0.26458 h 0.26458 z m 14.283,-1.5214 -0.004,-1.3891 -0.40506,0.63728 0.10208,1.0704 0.10208,1.0704 h 0.20901 z m -13.842,0.68351 -0.17639,-0.17639 v 0.70556 l 0.35278,-0.35278 z m 0.45373,-0.76339 0.15757,-0.41062 -0.52311,0.3233 v 0.49793 h 0.20797 z m 12.167,-0.92893 0.30012,-0.32584 -0.52916,0.18976 -0.52917,0.18976 -1.5875,0.23432 1.8521,-0.7959 -1.8521,0.32736 -0.59531,0.22433 -0.59531,0.22432 v 0.35118 l 1.6181,-0.14673 1.6181,-0.14672 z m -11.662,-0.51291 0.13848,-0.52953 -0.47982,0.29655 v 0.76252 h 0.20286 z m 7.2568,-1.5174 -0.11057,-0.73124 -0.004,1.3229 -0.004,1.3229 0.11419,-0.59167 0.11419,-0.59168 z m 1.0614,1.3579 -0.15985,-0.15986 -0.34727,0.13897 -0.34726,0.13896 1.0142,0.0418 z m 3.2467,0.0276 v -0.13229 h -0.26458 v 0.26458 h 0.26458 z m -1.8521,-0.39688 0.39687,-0.25648 h -0.79375 l -0.39687,0.25648 -0.39688,0.25648 h 0.79375 z m 2.8222,0.0882 -0.17639,-0.17639 -0.35278,0.35278 h 0.70556 z m -4.1968,-1.4979 0.0806,-1.2361 h -0.50709 l -0.1834,2.6462 0.26458,-0.087 0.26459,-0.087 z m -8.3827,0.4374 -0.28079,-0.48287 -0.016,0.3536 0.16498,0.42993 0.16497,0.42992 0.24772,-0.24772 z m 11.345,0.44318 v -0.26459 h -0.52917 v 0.52917 h 0.52917 z m 1.0922,-0.39026 0.006,-0.25797 -0.35058,-0.0929 -0.35057,-0.0929 0.73827,0.51586 -0.50143,0.1439 -0.50142,0.14389 0.95399,-0.102 z m -11.433,-0.47836 -0.11025,-0.0749 -0.52916,-0.38815 -0.52917,-0.38816 0.36313,0.46302 0.36312,0.46303 h 0.55257 z m -1.9623,-0.71888 0.16352,-0.26459 h -0.26458 l -0.16352,0.26459 -0.16353,0.26458 h 0.26459 z m 2.6458,0 0.16352,-0.26459 h -0.26458 l -0.16352,0.26459 -0.16352,0.26458 h 0.26458 z m -4.1892,-0.44098 -0.17639,-0.17639 v 0.70556 l 0.35278,-0.35278 z m 1.2675,-0.0699 0.15222,-0.2463 -0.4496,-0.27787 v 0.77047 h 0.1452 z m 1.2019,0.11401 v -0.13229 h -0.26458 v 0.26458 h 0.26458 z m 2.3812,-0.26458 v -0.13229 h -0.26458 v 0.26458 h 0.26458 z m -0.0882,-0.83785 -0.17639,-0.17639 v 0.70556 l 0.35278,-0.35278 z m 6.9738,-1.0077 -1.4307,-1.4487 -0.29559,0.32393 0.66146,0.23624 0.016,2.2049 0.26968,-0.46302 0.26969,-0.46302 h 0.52499 l 1.136,1.0583 h 0.27902 z m -6.3565,1.0518 v -0.13229 h -0.26459 v 0.26458 h 0.26459 z m 4.4247,-2.3151 -0.10671,-0.85989 v 3.4396 l 0.10671,-0.8599 0.10671,-0.85989 z m -8.2978,1.7859 0.15229,-0.39687 h -0.51256 v 0.79375 h 0.20797 z m 2.462,-0.0441 -0.17639,-0.17639 -0.35278,0.35278 h 0.70556 z m 2.2049,-0.22048 v -0.13229 h -0.26459 v 0.26458 h 0.26459 z m -3.5112,-0.29215 -0.15986,-0.15985 -0.69453,0.27793 1.0142,0.0418 z m 1.13,-0.36931 0.39687,-0.25648 h -0.52916 l -0.79375,0.51296 h 0.52916 z m 3.5642,-0.67493 0.7166,-0.93951 -1.0159,0.423 -1.0159,0.42299 -0.0788,0.22385 -0.0788,0.22384 -1.1157,-0.29176 0.37856,0.61252 h 1.0271 v -0.52917 h 0.85854 l -0.65875,0.79375 h 0.26657 z m 10.326,0.41035 -0.16352,-0.26459 -0.89481,-0.012 -0.83833,-1.7078 -1.9398,-0.1642 v 0.61772 l 0.75506,-0.28974 0.63265,0.76229 h 0.99354 v 0.53925 l -1.4552,-0.26452 2.9104,1.0159 0.1636,0.0324 z m -3.9246,-1.2347 -0.17639,-0.17639 -0.35278,0.35278 h 0.70556 z m -0.70555,-0.22048 v -0.13229 h -0.26459 v 0.26458 h 0.26459 z m 3.4396,-0.39688 -0.2832,-0.52916 h -0.26459 l 0.28321,0.52916 0.2832,0.52917 h 0.26458 z m -4.101,0 -0.16352,-0.26458 1.4864,-0.072 -1.2444,-0.23638 -0.7007,0.18454 -0.70069,0.18453 0.52917,0.21567 0.52916,0.21567 0.42811,0.0372 z m 3.1514,-0.75553 0.13989,-0.22636 -0.65345,0.12492 -0.65345,0.12491 v 0.2029 h 1.0271 z m -6.4587,-0.3028 v -0.26458 h -1.5563 l -0.32704,0.52916 h 1.8833 z m -2.2049,-0.17639 -0.17639,-0.17639 -0.17638,0.17639 -0.17639,0.17639 h 0.70555 z m -2.3812,-0.26458 -0.17639,-0.17639 -0.17638,0.17639 -0.17639,0.17639 h 0.70555 z m 1.0749,-0.24805 -0.15985,-0.15985 -0.69453,0.27793 1.0142,0.0418 z m 3.5112,-0.10473 v -0.26458 l -1.1906,0.008 -0.79375,0.51296 1.9844,0.008 z m -2.1883,-0.15985 -0.15985,-0.15986 -0.34727,0.13897 -0.34726,0.13896 1.0142,0.0418 z m 0.77721,-0.28112 -0.17639,-0.17639 -0.17638,0.17639 -0.17639,0.17639 h 0.70555 z m 1.2788,-0.35278 0.16352,-0.26458 -0.4281,0.008 -0.79375,0.51296 0.89481,0.008 z m 4.3656,-2.1167 v -0.26458 h -0.23336 l -0.16352,0.26458 -0.16352,0.26459 h 0.5604 z m -2.3812,-0.13229 v -0.13229 h -0.26458 v 0.26458 h 0.26458 z m 0.79375,0 v -0.13229 h -0.26458 v 0.26458 h 0.26458 z m -1.3229,-0.26458 v -0.13229 h -0.26458 v 0.26458 h 0.26458 z m 2.249,-0.69069 -0.79375,-0.17275 -1.3229,-0.01 1.1906,0.32965 1.1906,0.32966 0.26459,-0.15159 0.26458,-0.15158 z m -2.3372,-0.41174 -0.17639,-0.17639 v 0.70555 l 0.17639,-0.17639 0.17639,-0.17638 z"
       fill="#e2edd7"
       id="path40" /><path
       d="m 122.63,132.01 -0.26409,-0.6946 v -0.1684 l 1.183,-0.30935 -1.5159,-1.3511 -1.5158,-1.3511 -0.40931,-1.408 -0.4093,-1.408 0.29822,-1.1844 0.29823,-1.1844 2.6001,-2.726 0.003,-0.45678 0.003,-0.45679 1.2489,-2.6821 2.2271,-3.5264 2.2073,-0.57094 4.101,-1.152 v -3.6345 l 0.87182,0.33454 3.8907,0.32889 v 2.6365 l -4.2333,-0.36928 v 0.54692 l 0.92604,0.48977 5.2917,1.3918 0.70238,0.8468 0.70237,0.84681 1.3291,2.6612 1.1494,4.4979 0.5068,1.7642 0.50681,1.7642 0.29867,0.0996 0.29867,0.0995 -0.37046,1.1672 h -0.4101 l -0.68527,-2.3151 -0.68527,-2.3151 -0.51026,-2.1167 -0.0664,6.8792 -0.99172,1.2903 0.0918,0.2809 0.0918,0.28091 0.28999,1.1325 0.29,1.1325 0.25223,-0.15589 0.25224,-0.15589 -0.004,0.34635 -0.004,0.34634 -0.52107,0.79375 -0.2411,-0.3745 -0.24111,-0.3745 -0.17106,-1.1407 -0.17105,-1.1407 -0.43402,-0.26824 -1.395,2.108 h -0.85104 l 0.35346,0.42588 0.35346,0.42589 0.0979,-0.29359 0.0979,-0.2936 h 0.74965 v 0.46437 l -0.78493,0.65144 -0.86431,-0.50715 -0.8643,-0.50715 -2.4089,0.75266 -3.3774,-1.7049 -0.33846,0.46288 -0.33846,0.46287 -0.0972,0.29158 -0.0972,0.29157 -3.2401,-0.1606 -0.5748,0.30763 -0.5748,0.30762 -0.63862,-0.68872 -0.63861,-0.68872 h -0.72906 l -0.78678,-0.30192 -0.35554,1.6188 -0.48945,0.3025 z m 4.2338,-0.26328 v -0.13229 h -0.26458 v 0.26459 h 0.26458 z m 8.4706,-1.7143 -0.6575,-0.49844 -0.131,0.131 0.63526,1.683 0.40537,-0.40855 0.40538,-0.40855 z m 1.1867,1.0529 0.16352,-0.26459 h -0.26458 l -0.16352,0.26459 -0.16352,0.26458 h 0.26458 z m 1.5643,-0.4246 0.417,-0.16002 -0.14451,-0.23383 -0.14452,-0.23383 0.82124,0.31514 v -8.4773 l -0.78625,0.29678 -0.78624,0.29677 0.64644,0.41072 -0.61818,0.008 -0.96932,0.3145 0.79375,-0.57098 -0.44231,-0.008 -3.3941,0.90441 v 3.8581 l 1.1906,0.0614 -0.46626,0.12163 -0.46626,0.12162 0.15381,0.24888 0.15382,0.24887 0.28718,-0.17749 0.28718,-0.17748 -0.34886,0.56446 1.9869,1.5248 1.3229,0.87514 0.089,0.0278 z m -2.1376,-7.4247 0.17639,-0.17639 0.35278,0.35278 h -0.70556 z m -9.6394,3.4175 -0.0262,-2.5797 -0.7467,2.3812 0.13189,0.34447 0.1319,0.34447 -0.23896,-0.14768 -0.23895,-0.14768 -0.1094,0.3282 -0.10941,0.32821 0.50982,0.86406 0.50981,0.86407 h 0.21231 z m -0.12951,-5.3477 -0.18489,-0.67154 -0.20022,0.66146 -0.20023,0.66146 -0.0264,-0.74074 -0.0264,-0.74075 -0.80733,-1.5612 h -0.251 l 0.0174,4.0349 0.0174,4.0349 1.8464,-5.0069 z m 12.3,0.10243 0.37036,-0.12632 -1.2298,-1.3091 h -0.57422 l -0.69552,-1.1137 0.28411,0.17559 0.28412,0.1756 v -0.1778 l -1.8283,-1.8143 -1.8283,-1.8143 0.0119,3.7113 0.0119,3.7113 4.8234,-1.2921 z m -0.99005,-0.64167 v -0.66146 l 0.13345,0.33073 0.13346,0.33073 -0.13346,0.33072 -0.13345,0.33073 z m 0.75198,0.39687 v -0.13229 h 0.26458 v 0.26458 h -0.26458 z m -4.6868,-3.7042 0.004,-1.3229 0.11058,0.73124 0.11057,0.73124 -0.11419,0.59168 -0.11418,0.59167 z m 0.52555,0.1323 v -1.1906 l 0.11467,0.59531 0.11466,0.59532 -0.11466,0.59531 -0.11467,0.59531 z m 0.98628,0.66145 v -0.13229 h 0.26458 v 0.26459 h -0.26458 z m -7.5811,2.029 0.43846,-0.48449 -0.19902,-0.19901 -0.19901,-0.19902 0.26458,0.084 0.26459,0.0841 2.6515,-2.9021 1,-1.188 -3.6515,1.2708 -3.3073,0.92706 v 0.50129 l 0.60466,0.71858 0.60465,0.71859 0.77507,-0.21045 -0.75972,0.52912 0.69222,0.83409 h 0.38236 z m -1.8116,-2.1613 0.16352,-0.26458 1.1594,0.008 -0.39687,0.25648 -0.39688,0.25648 -0.69269,0.008 z m -0.66146,-0.13229 v -0.13229 h 0.26458 v 0.26458 h -0.26458 z m 4.4729,-0.61479 0.2924,-0.54636 0.57912,-0.35792 -0.2924,0.54636 -0.29241,0.54636 -0.28955,0.17896 -0.28956,0.17896 z m -2.3563,0.0856 v -0.13229 h 0.26459 v 0.26459 h -0.26459 z m -3.5234,1.9348 -0.13897,-0.34727 -0.0418,1.0142 0.3197,-0.3197 z m 17.389,-2.917 -0.50403,-0.58531 -0.81869,-0.81375 0.77304,0.52917 -0.29346,-0.55093 -0.29345,-0.55092 -0.69035,-0.57103 -1.5039,0.28866 0.71012,0.48001 -2.4613,-0.33866 -1.1988,0.38047 1.7586,0.73944 1.1077,-0.30858 -0.39688,0.27787 -0.39687,0.27786 0.61818,0.008 0.96932,0.3145 -0.39688,-0.28549 -0.39687,-0.28549 0.52916,0.029 1.0583,0.45478 -0.79375,0.0914 2.9104,0.97172 0.10716,0.0162 0.10715,0.0162 z m -8.3507,-3.3917 -0.0629,-1.0666 -0.39637,0.15211 -0.39636,0.1521 -2.4101,0.7215 -1.8521,0.56829 1.4552,-0.26462 v 0.50572 l 0.85989,0.10671 0.8599,0.10672 2.0058,0.0846 z m 4.2736,-3.3652 -0.001,-0.7276 -1.9586,-0.1022 -0.607,-0.15234 -0.60699,-0.15235 v 1.2414 l 1.7198,-0.16 -1.3229,0.44297 1.0583,0.12444 1.0583,0.12445 0.66146,0.089 z"
       fill="#dce8d2"
       id="path41" /><path
       d="m 122.63,132.01 -0.26409,-0.6946 v -0.28675 l 0.75957,0.29147 0.10723,-0.31586 0.10723,-0.31587 -3.001,-2.9104 -0.31632,-1.269 -0.31631,-1.269 0.28261,-1.0496 0.28261,-1.0495 1.6975,-1.9774 0.43236,-0.32426 0.43236,-0.32425 0.18504,-0.98636 0.18504,-0.98635 1.0813,-2.1413 1.0604,-1.6224 1.0604,-1.6224 2.1778,-0.60352 4.0789,-1.1787 0.0772,-1.7198 0.0772,-1.7198 0.68858,0.1414 3.9416,0.33319 v 2.6365 l -4.2333,-0.36928 v 0.74636 l 1.9844,0.57272 4.3422,1.1502 1.2452,1.6681 1.2126,2.0005 0.68922,3.0266 0.84912,3.175 0.26969,0.98037 0.2697,0.98037 0.40788,0.40788 0.40788,0.40789 -0.16821,0.52997 -0.1682,0.52998 h -0.40035 l -0.57757,-1.9182 -0.57758,-1.9182 -0.37101,-1.4552 -0.371,-1.4552 -0.048,6.7975 -1.0488,1.4729 0.4047,1.3627 0.40469,1.3628 0.252,-0.15575 0.25201,-0.15575 v 0.51712 l -0.1606,0.41851 -0.1606,0.41852 h -0.4346 l -0.32837,-1.4673 -0.32836,-1.4673 -0.18749,-0.11588 -0.18749,-0.11587 -1.395,2.108 h -0.78624 v 0.47255 l 0.72927,0.27984 0.29241,-0.29241 0.29242,-0.29241 0.37419,0.37419 -0.8561,0.8561 -0.87912,-0.51588 -0.87911,-0.51589 -2.4651,0.7701 -2.9509,-1.6654 h -0.54852 l -0.60276,1.3229 h -3.3894 l -1.1204,0.59961 -0.45412,-0.56082 -0.45411,-0.56081 -0.70532,-0.26816 -0.70531,-0.26816 h -0.45267 l -0.17367,0.79072 -0.17367,0.79071 -0.48945,0.3025 z m 4.2338,-0.26328 v -0.13229 h -0.26458 v 0.26459 h 0.26458 z m 8.4667,-1.7265 -0.66146,-0.51066 -0.32995,-0.012 0.42956,0.90442 0.42956,0.90443 0.39687,-0.38789 0.39688,-0.38788 z m 1.4622,0.85159 -0.14811,-0.14811 -0.65264,0.65753 0.94886,-0.36131 z m 1.5505,-0.30429 0.66595,-0.25319 0.1578,-8.4961 -0.79375,0.32581 -4.6684,1.2684 h -0.22639 l 0.02,4.101 1.1716,1.3827 2.8375,1.9246 h 0.1708 z m -11.805,-5.6999 -0.0713,-1.3229 -1.3645,3.9688 0.54796,0.92604 0.54795,0.92604 0.41124,-3.175 z m -0.87592,-0.828 0.75145,-2.4155 -0.87789,-1.3548 -0.87788,-1.3548 h -0.1754 v 8.0433 l 0.42833,-0.50271 z m 10.065,-1.8294 1.0583,-0.33707 0.85686,-0.17678 0.85686,-0.17677 0.15269,-0.24705 0.15268,-0.24705 -5.5784,-5.6829 -0.012,7.5507 0.72761,-0.17301 0.7276,-0.173 z m -6.6015,-3.6818 2.0704,-2.2381 0.5039,-0.90043 -0.49993,0.20724 -0.49994,0.20724 -2.9104,0.96454 -3.2986,0.96714 1.0749,1.5152 1.0749,1.5152 h 0.41443 z m -5.5209,0.86557 -0.13897,-0.34727 -0.0418,1.0142 0.3197,-0.3197 z m 17.009,-3.6268 -0.79695,-1.2952 -0.32509,-0.26212 -0.32508,-0.26212 -4.4356,0.71512 -0.10011,0.1001 -0.1001,0.10011 6.4878,2.1774 0.39198,0.0218 z m -7.9294,-2.7019 v -1.0866 l -0.46302,0.18321 -0.46302,0.1832 -3.9259,1.0143 -0.10822,0.10822 -0.10821,0.10822 1.4097,0.25661 1.4097,0.25662 2.249,0.0628 z m 4.2333,-3.4113 v -0.79375 h -2.338 l -0.41852,-0.1606 -0.41851,-0.1606 v 1.6137 l 2.249,0.20256 0.92604,0.0924 z m -2.9104,0.13229 v -0.13229 h 0.26459 v 0.26458 h -0.26459 z"
       fill="#cfd4ca"
       id="path42" /><path
       d="m 122.63,132.16 v -0.24294 l -0.17823,-0.46445 -0.17822,-0.46445 0.84182,0.32304 0.16042,-0.41804 0.16041,-0.41804 -0.1448,-0.0956 -1.627,-1.1215 -0.73179,-1.056 -0.73179,-1.056 -0.43858,-1.9446 0.36296,-1.206 0.36297,-1.206 2.3638,-2.4249 0.30923,-1.1906 0.30924,-1.1906 2.3531,-3.9688 0.69971,-0.92392 3.912,-1.0303 2.249,-0.62368 v -3.4489 l 1.3891,0.16684 1.3891,0.16685 2.0134,0.004 -0.0806,1.2568 -0.0807,1.2568 -4.101,-0.1678 v 0.7882 l 1.7198,0.51959 4.7167,1.2412 2.55,3.9688 0.004,0.52917 0.004,0.52916 0.55631,1.9844 0.55632,1.9844 1.0209,3.5719 h 0.4644 l -0.13838,0.52917 -0.13838,0.52916 h -0.36619 l -1.1444,-3.8365 -0.33833,-1.4552 -0.33832,-1.4552 -0.13229,3.4396 -0.1323,3.4396 -0.46269,0.68067 -0.4627,0.68067 0.81826,2.7554 0.252,-0.15575 0.25201,-0.15575 v 0.51712 l -0.1606,0.41851 -0.1606,0.41852 h -0.4346 l -0.32837,-1.4673 -0.32836,-1.4673 -0.43913,-0.2714 -1.1131,1.8866 -1.3521,0.33934 0.96614,0.70646 0.35244,-0.2925 0.35244,-0.29249 v 0.82731 l -0.54574,0.33728 -0.81095,-0.51345 -0.81095,-0.51346 -2.5786,0.75588 -3.3885,-1.8949 -0.6608,1.5953 h -3.4102 l -1.1062,0.592 -0.84342,-1.1071 -1.7766,-0.61483 -0.46424,0.73303 -0.008,0.92604 h -0.79375 z m 4.2333,-0.41852 v -0.13229 h -0.26458 v 0.26459 h 0.26458 z m 8.331,-1.8345 -0.79042,-0.63162 -0.155,0.1516 0.45971,0.96401 0.4597,0.96401 0.4082,-0.40821 0.40821,-0.4082 z m 1.5978,0.95954 -0.14811,-0.14811 -0.65264,0.65753 0.94886,-0.36131 z m 2.1725,-0.42259 0.0639,-0.0639 0.1783,-4.3251 0.1783,-4.3251 -0.7479,0.28616 -5.1594,1.4634 0.001,2.0144 0.001,2.0144 0.594,0.70121 0.594,0.70122 2.8827,1.936 1.3495,-0.3387 z m -12.421,-5.28 -0.0771,-1.8892 -1.405,4.4045 1.1405,1.7303 0.20945,-1.1782 0.20944,-1.1782 z m -0.7954,-1.1501 0.80531,-2.4359 -2.1006,-2.9334 h -0.1894 l -0.012,7.4544 0.15027,0.3916 0.15028,0.39161 0.19527,-0.21622 0.19528,-0.21622 z m 9.8464,-1.689 1.9844,-0.55477 1.2194,-0.48141 -0.75815,-1.0824 -1.8517,-1.9053 -1.8517,-1.9053 -1.1235,-1.0081 v 7.4904 l 0.39688,0.002 z m -5.9531,-4.2632 2.1167,-2.3596 0.191,-0.54096 -1.514,0.78044 -5.8081,1.6761 -0.1164,0.1164 2.1928,3.2309 0.82137,-0.54367 z m -6.0425,1.3106 -0.13346,-0.33073 v 1.3229 l 0.13346,-0.33073 0.13345,-0.33073 z m 17.656,-2.6458 -0.19131,-0.33073 -0.91309,-1.3962 -0.91309,-1.3962 -0.60055,0.47914 -3.4565,0.35862 -0.32728,0.20227 -0.32727,0.20226 6.4923,2.2049 0.42811,0.006 z m -8.6208,-4.5653 -0.0827,-0.0784 -5.2753,1.3822 2.1003,0.45026 3.175,0.36431 0.1654,-2.04 z m 4.2829,-2.5123 v -0.79375 h -1.7859 l -1.5457,-0.30914 0.0244,1.4998 1.8521,0.32178 1.4552,0.075 z"
       fill="#c4cdba"
       id="path43" /><path
       d="m 122.71,131.94 -0.16479,-0.46302 -0.13489,-0.2434 -0.1349,-0.2434 0.45029,0.17279 0.4503,0.1728 0.3263,-0.85034 -0.5039,-0.27921 -0.50389,-0.27921 -0.76815,-0.81251 -0.76814,-0.81252 -0.97528,-1.5875 -9.9e-4,-1.2396 -9.9e-4,-1.2395 0.55928,-1.4897 2.2864,-2.3812 0.91442,-2.9902 2.7222,-4.1535 1.0583,-0.31232 1.0583,-0.31231 4.101,-1.1722 v -3.4362 l 1.3891,0.16684 1.3891,0.16685 2.0134,0.004 -0.0806,1.2568 -0.0807,1.2568 -4.101,-0.1678 v 0.80874 l 2.5135,0.73054 3.8598,0.98553 2.2789,3.4638 1.6867,6.6146 0.81604,2.5135 h 0.4371 l -0.13838,0.52917 -0.13838,0.52916 -0.33516,-0.002 -1.1748,-4.0984 -0.75444,-2.6458 -0.055,6.7683 -1.0456,1.4338 0.29263,1.1906 0.29262,1.1906 0.36706,0.29711 0.36706,0.29712 -0.16519,0.43049 -0.1652,0.43049 h -0.44592 l -0.31232,-1.5875 -0.31233,-1.5875 h -0.47816 l -1.0949,1.8556 -1.3521,0.33934 0.96614,0.70646 0.35244,-0.2925 0.35244,-0.29249 v 0.82731 l -0.54574,0.33728 -0.81095,-0.51345 -0.81095,-0.51346 -2.5786,0.75588 -3.3286,-1.8615 -0.8964,1.5619 h -3.2344 l -1.1062,0.592 -0.84342,-1.0592 -1.1558,-0.5911 h -0.84177 l -0.3175,1.5875 h -0.47963 z m 4.1501,-0.19844 v -0.13229 h -0.26458 v 0.26459 h 0.26458 z m 8.3447,-1.8584 -0.78341,-0.6317 -0.1756,0.1756 0.45971,0.96401 0.4597,0.96401 0.82307,-0.84027 z m 1.5772,1.197 0.16352,-0.26459 h -0.52917 l -0.16352,0.26459 -0.16352,0.26458 h 0.52917 z m 2.1968,-0.65345 0.0813,-0.0813 0.16021,-4.3075 0.1602,-4.3075 -0.47089,0.1807 -0.4709,0.1807 -5.1822,1.3896 0.29962,4.0267 0.76948,1.185 1.612,1.0765 1.612,1.0765 0.67393,-0.16915 0.67393,-0.16914 z m -12.44,-4.6195 -0.0751,-2.5323 -1.4857,4.3266 1.2203,1.8616 0.20783,-0.56182 0.20783,-0.56181 z m -0.8631,-1.5856 0.85567,-2.6372 -1.7756,-2.6366 -0.27056,-0.16721 -0.27055,-0.16721 v 7.6609 l 0.16498,0.42992 0.16497,0.42993 0.27538,-0.27538 z m 10.445,-2.0319 2.5135,-0.6879 0.40103,-0.24512 -2.5177,-2.7248 -2.8587,-3.0622 h -0.44862 v 7.4083 l 0.39688,-3.8e-4 z m -6.3999,-4.2049 2.3902,-2.6442 -0.1268,-0.1268 -3.4042,1.2812 -2.0349,0.61183 -2.0349,0.61182 1.0773,1.6475 1.0772,1.6475 0.66576,-0.38451 z m -6.1249,1.3875 -0.13346,-0.33073 v 1.3229 l 0.13346,-0.33073 0.13345,-0.33073 z m 17.236,-3.324 -0.61031,-1.0089 -1.1806,-1.5542 -0.40686,0.59806 -1.9844,0.2126 -1.9844,0.21259 -0.79375,-0.1104 0.85104,0.52666 3.9115,1.4193 2.3812,0.66573 0.42687,0.0474 z m -8.226,-3.9169 -0.10818,-0.10818 -5.1308,1.4421 0.55452,0.20513 0.55451,0.20513 4.0727,0.40345 0.0827,-1.0197 0.0827,-1.0197 z m 4.3084,-2.4826 v -0.79375 h -1.7859 l -1.5214,-0.30292 -0.0275,0.79904 -0.0275,0.79903 1.6424,0.20766 1.7198,0.0846 z"
       fill="#b8c5b1"
       id="path44" /><path
       d="m 122.81,132.23 -0.17639,-0.17638 v -1.0014 l 0.26645,0.16467 0.26645,0.16468 0.3426,-0.8928 -0.5039,-0.27921 -0.50389,-0.27921 -0.76815,-0.81251 -0.76814,-0.81252 -0.97528,-1.5875 -9.9e-4,-1.2396 -9.9e-4,-1.2395 0.55928,-1.4897 2.2864,-2.3812 0.91442,-2.9902 2.7222,-4.1535 2.3812,-0.68144 3.8364,-1.1315 v -3.4201 l 1.3891,0.16684 1.3891,0.16685 2.0134,0.004 -0.0806,1.2568 -0.0807,1.2568 -4.101,-0.1678 v 0.76504 l 0.72761,0.2716 0.7276,0.2716 4.9159,1.2132 2.2811,3.4672 1.6867,6.6146 0.81604,2.5135 h 0.4371 l -0.13838,0.52917 -0.13838,0.52916 -0.33516,-0.002 -1.1748,-4.0984 -0.75444,-2.6458 -0.055,6.5521 -1.0867,1.7584 0.64434,2.2728 0.71617,0.59423 -0.16519,0.43049 -0.1652,0.43049 h -0.40024 l -0.33689,-1.5875 -0.3369,-1.5875 h -0.4747 l -1.0949,1.8556 -1.3133,0.32962 0.81198,0.81198 0.41015,-0.3404 0.41016,-0.34039 -0.008,0.46166 -0.22206,0.35024 -0.22205,0.35024 -1.727,-1.0502 -2.5896,0.76902 -1.653,-0.92441 -1.653,-0.92442 -0.8964,1.5619 h -3.2344 l -0.51498,0.27561 -0.51498,0.2756 -1.1842,-1.3455 -1.6498,-0.31617 -0.28579,0.81982 -0.2858,0.81983 h -0.20391 z m 4.0569,-0.48507 v -0.13229 h -0.26458 v 0.26459 h 0.26458 z m 8.3447,-1.8584 -0.78341,-0.6317 -0.1756,0.1756 0.45971,0.96401 0.4597,0.96401 0.82307,-0.84027 z m 1.5772,1.197 0.16352,-0.26459 h -0.52917 l -0.16352,0.26459 -0.16352,0.26458 h 0.52917 z m 2.1877,-0.64433 0.10965,-0.10965 0.29732,-8.5679 -0.5036,0.15165 -0.5036,0.15164 -5.1513,1.413 0.1102,1.8845 0.11019,1.8845 0.37092,0.96144 3.5009,2.6503 0.77484,-0.15497 0.77483,-0.15496 z m -12.399,-4.515 -0.0168,-2.9104 -1.5766,4.5905 1.2144,1.8526 0.39582,-0.62234 z m -0.87346,-1.7285 0.82772,-2.6168 -1.7695,-2.6275 -0.27056,-0.16721 -0.27055,-0.16721 v 7.6609 l 0.16498,0.42992 0.16497,0.42993 0.32518,-0.32518 z m 10.506,-2.0049 2.431,-0.69072 0.37002,-0.33836 -5.7687,-6.0854 -0.0126,3.9026 -0.0126,3.9026 h 0.56188 z m -7.4655,-3.0796 1.7338,-1.9182 1.8128,-2.0854 -1.0583,0.43452 -3.7042,1.2158 -1.5304,0.45505 -1.5304,0.45504 0.1504,0.31876 1.0296,1.5214 1.0296,1.5214 h 0.33333 z m -5.0524,0.59531 v -0.52916 h -0.20286 l -0.13838,0.52916 -0.13839,0.52917 h 0.47963 z m 17.14,-3.7078 -0.60321,-1.0619 -1.128,-1.4324 -0.72403,0.59907 -4.4001,0.38274 0.21568,0.19691 0.21569,0.1969 5.5562,1.8738 1.0583,0.2455 0.41268,0.0614 z m -8.1438,-2.8054 v -1.2215 l -0.92604,0.26516 -4.2251,1.1553 -0.1826,0.1826 2.8201,0.55294 1.3229,0.21497 1.1906,0.072 z m 4.2333,-3.541 v -0.79375 h -1.7859 l -1.5654,-0.3131 v 1.6091 l 1.6316,0.20685 1.7198,0.0846 z"
       fill="#afb2ab"
       id="path45" /><path
       d="m 122.81,132.23 -0.17639,-0.17638 v -1.0014 l 0.26645,0.16467 0.26645,0.16468 0.31762,-0.8277 -2.7787,-2.4983 -0.35884,-0.85883 -0.35885,-0.85883 v -2.1547 l 1.012,-1.9633 0.94409,-0.90682 0.9441,-0.90682 0.79656,-2.7401 1.7272,-2.8591 1.18,-1.6498 2.5241,-0.62771 3.5719,-1.0768 v -3.44 l 3.3073,0.40511 1.3229,0.0438 v 2.3812 l -4.1498,-0.1842 0.0927,0.48148 0.0927,0.48147 4.229,1.1303 2.118,0.58964 1.0981,1.7934 1.0981,1.7934 0.45651,1.7198 0.45652,1.7198 0.1964,1.5875 -0.36899,-1.0583 -0.36898,-1.0583 -0.0554,6.9401 -1.0996,1.3979 0.30844,1.7162 -0.54574,-1.2745 -1.309,1.7742 v 0.369 l -1.3229,0.33203 v 0.46247 l 0.43041,0.16516 0.43041,0.16517 0.36334,-0.30155 0.36334,-0.30154 v 0.61056 l -0.79784,0.30616 -1.3276,-0.86984 -2.6369,0.78306 -3.2261,-1.8235 h -0.20016 l -0.42446,0.82082 -0.42447,0.82082 -4.1441,-0.1882 0.53798,0.33248 -0.5847,0.36137 -1.1916,-1.3541 -1.6498,-0.31617 -0.28579,0.81982 -0.2858,0.81983 h -0.20391 z m 12.938,-1.2581 0.37612,-0.37611 -2.1004,-1.6635 0.8381,2.0189 0.11944,0.19844 0.11943,0.19844 h 0.27116 z m 1.0413,0.11154 0.16352,-0.26459 h -0.52917 l -0.16352,0.26459 -0.16352,0.26458 h 0.52917 z m 2.22,-0.6766 0.14192,-0.14192 0.21484,-8.4419 h -0.40305 l -3.4966,1.0217 -2.249,0.58622 v 3.7024 l 0.85577,1.3061 1.612,1.2117 1.612,1.2117 1.5703,-0.31406 z m -12.46,-5.5962 -0.0785,-1.797 -1.4992,4.5711 1.4992,2.308 0.157,-3.2853 z m -0.79605,-0.47781 0.86994,-2.7717 -1.1345,-1.6097 -1.1345,-1.6097 -0.152,7.5824 0.14714,0.59531 0.14714,0.59532 0.3868,-0.01 z m 12.627,-2.7756 0.70868,-0.26944 -1.8546,-2.0475 -1.8546,-2.0475 -1.0811,-1.0459 -1.0811,-1.0459 v 7.98 l 4.454,-1.2544 z m -8.7306,-3.4428 2.4717,-2.7673 -0.139,-0.139 -3.6597,1.3054 -1.9182,0.54935 -1.9182,0.54934 v 0.20476 l 1.0773,1.6219 1.0773,1.6219 0.53702,-0.179 z m -5.9571,1.8782 v -0.24295 l 0.1606,-0.41851 0.1606,-0.41852 h -0.52409 l -0.12645,0.66146 -0.12644,0.66146 h 0.45578 z m 17.043,-4.2492 -0.71686,-1.3171 -0.94722,-0.85722 -0.6948,0.44871 -4.7625,0.52917 5.2917,1.9494 1.8521,0.51642 0.69448,0.0478 z m -7.871,-0.97596 -0.17639,-0.17639 -0.17638,0.17639 -0.17639,0.17639 h 0.70555 z m -0.17639,-1.5434 v -1.1906 h -0.22639 l -4.869,1.303 -0.23734,0.23734 2.8192,0.57109 1.0583,0.20841 1.4552,0.0614 z m 4.2333,-3.5719 v -0.79375 l -1.4552,-0.006 -1.9844,-0.328 v 1.6216 l 1.4552,0.22045 1.9844,0.0792 z m 4.7625,22.108 v -0.38126 l 0.56437,-0.3488 0.12092,0.12091 0.12091,0.12092 -0.16682,0.43475 -0.16683,0.43474 h -0.47255 z m -0.2437,-1.3606 0.0209,-0.50712 0.13897,0.34727 0.13896,0.34726 -0.15985,0.15985 -0.15985,0.15986 z m 2.1126,-5.7998 -0.58941,-1.9854 0.10267,-0.30803 0.10268,-0.30803 0.48349,1.7861 0.48348,1.7861 0.68975,0.26468 -0.1439,0.37498 -0.14389,0.37498 h -0.39547 z"
       fill="#90938d"
       id="path46" /><path
       d="m 122.77,131.89 -0.18538,-0.58407 0.1806,-0.1714 0.30447,0.33091 0.30447,0.33092 -0.4188,0.67763 z m 3.5671,0.24956 v -0.26458 h 0.82498 l -0.32704,0.52916 h -0.49794 z m 7.2474,-0.94197 -1.5588,-0.89409 -0.38329,-0.016 -0.41478,0.8021 -0.41479,0.80211 -4.7565,-0.2093 -0.19034,-0.19162 -0.19034,-0.19163 -1.8134,-0.75918 -0.42748,0.67356 -0.008,-0.72704 -2.4034,-2.1155 -1.0362,-2.0311 0.012,-2.0055 0.97372,-2.1167 2.0574,-1.8794 0.92604,-0.35295 v -1.3708 l -0.52916,0.32704 v -0.58667 l 0.42479,-0.82146 0.4248,-0.82146 1.1407,-1.7796 1.1407,-1.7796 2.8222,-0.63624 3.3073,-1.0578 0.0268,-0.83833 0.0268,-0.83832 -0.0495,-0.88785 -0.0495,-0.88784 1.4117,0.19969 1.4117,0.1997 1.8521,0.0724 0.0837,0.71808 0.0837,0.71809 h -0.56431 v -1.0583 l -1.4552,-0.006 -1.9844,-0.328 v 1.6243 l 2.386,0.35779 1.3182,-0.25199 v 0.77003 l -2.7781,-0.40048 -1.0583,-0.046 v 1.0521 l 5.8753,1.5938 0.79934,0.66632 0.93135,1.5189 0.93135,1.5189 0.5587,2.2282 0.55869,2.2282 -0.21169,0.21169 -0.17849,-0.81267 -0.1785,-0.81266 h -0.48712 v 6.9298 l -0.92604,1.6542 -1.1965,1.3379 -0.14721,0.46302 -0.1472,0.46302 -0.6258,0.008 -0.39687,0.26053 -0.39688,0.26053 0.39688,0.25854 0.39687,0.25855 1.0583,-0.31198 -0.33544,0.35195 -0.33545,0.35195 -1.7104,-0.90806 -1.2193,0.37247 -1.2193,0.37246 z m 3.488,-0.1483 0.14378,-0.23265 h -0.51712 l -0.83702,0.3212 v 0.42301 l 0.53329,-0.13946 0.53328,-0.13945 z m -1.2051,-0.10675 0.33469,-0.40327 -0.2077,-0.161 -1.9844,-1.4766 v 0.34847 l 0.53455,1.0478 0.53454,1.0478 h 0.45362 z m 2.9051,-0.38455 0.39688,-0.25055 0.0894,-4.2433 0.0894,-4.2433 h -0.51992 l -1.6815,0.51017 -1.6815,0.51016 -2.249,0.58757 v 3.8306 l 0.85728,1.2239 3.1697,2.3334 1.1324,-0.008 z m -12.19,-4.1731 -0.0196,-3.3734 -0.51563,1.0583 -0.51564,1.0583 0.0999,-0.39687 0.0998,-0.39688 0.90586,-2.7556 -2.284,-3.3298 -0.0732,4.2317 -0.0732,4.2317 0.80784,0.5907 v 0.48029 l 1.342,1.9749 h 0.24551 z m -1.5679,0.19844 v -0.35278 l 0.35278,0.35278 -0.35278,0.35278 z m 0.26458,-0.92604 V 125.525 h 0.26458 v 0.26458 h -0.26458 z m 11.968,-3.6875 1.5165,-0.44829 0.28251,-0.45711 -5.8078,-5.9905 -0.0212,8.0219 1.2568,-0.33887 1.2568,-0.33886 z m -5.4644,-6.1637 1.0791,-1.129 h -0.1006 l -3.3805,1.503 -4.4979,1.2243 -0.45508,0.40006 0.86346,1.2806 0.86345,1.2806 0.7545,0.88178 3.7945,-4.3122 z m 9.6284,1.0538 -0.008,-0.19844 -0.99318,-1.4552 -0.99318,-1.4552 -1.0402,0.1602 -4.7625,0.66473 3.0911,1.1701 2.9943,0.9956 1.0583,0.25525 0.66146,0.0614 z m -8.7232,-3.638 v -1.1906 h -0.3087 l -4.3126,1.1011 -0.38997,0.21824 -0.38997,0.21823 2.094,0.54702 1.5875,0.21736 1.7198,0.0792 z m 8.9958,18.686 v -0.23218 l 0.88038,-0.72626 -0.31721,0.59532 -0.31721,0.59531 h -0.24596 z m -0.26458,-1.6199 v -0.35278 l 0.17638,0.17639 0.17639,0.17639 -0.35277,0.35277 z m -0.26459,-0.79375 v -0.35278 l 0.35278,0.35278 -0.17639,0.17638 -0.17639,0.17639 z m 2.55,-4.5198 -0.47776,-1.6094 0.23604,-0.23604 0.67478,2.4101 0.45658,0.28218 v 0.76252 h -0.41189 z m -0.67698,-2.5137 0.0209,-0.50712 0.13897,0.34727 0.13896,0.34726 -0.15985,0.15985 -0.15985,0.15986 z m -19.865,-3.0207 v -0.35278 l 0.35278,0.35278 -0.35278,0.35278 z"
       fill="#828a7b"
       id="path47" /><path
       d="m 122.77,131.89 -0.18538,-0.58407 0.1806,-0.1714 0.30447,0.33091 0.30447,0.33092 -0.4188,0.67763 z m 3.3153,-0.1234 -0.32752,-0.61198 -1.9126,-0.587 -0.41038,0.6459 -0.008,-0.72704 -2.4572,-2.1629 -0.48539,-1.0686 -0.48539,-1.0686 -0.012,-1.7368 0.36449,-0.8514 0.3645,-0.8514 2.3137,-2.4351 0.92604,-0.32644 v -1.3708 l -0.29292,0.18104 -0.29293,0.18104 0.18642,-0.62845 0.18642,-0.62844 2.1647,-3.6363 0.8264,-0.99232 1.8521,-0.27126 -0.76013,0.35982 -0.76014,0.35981 2.314,0.57471 3.3073,0.3666 0.061,-1.259 -0.0563,-0.52917 -0.0563,-0.52916 -0.0992,-0.10304 -0.0992,-0.10303 -3.0918,0.86753 -0.75904,-0.0364 3.9438,-1.203 0.15484,-0.63703 0.15484,-0.63704 -0.0496,-2.266 2.1781,0.32662 2.1988,0.113 0.20762,0.2212 0.20762,0.22121 -4.101,-0.35792 v 1.563 l 1.9844,0.31369 1.7198,0.11 v 0.46627 l -2.7781,-0.40048 -1.0583,-0.046 v 1.0337 l 5.8208,1.6308 0.6676,0.4132 1.9267,3.0077 0.48001,1.8521 0.48,1.8521 0.1448,0.66146 0.14479,0.66146 -0.66894,-1.6818 -0.19844,-0.19537 -0.19844,-0.19538 v 7.2826 l -0.92604,1.6409 -1.0583,1.3224 -1.1402,1.087 -0.35592,0.26459 -0.35592,0.26458 -0.79375,0.018 -2.4841,0.43527 -2.872,-1.6432 h -0.31887 l -0.85658,1.6564 -1.4724,-0.15196 -1.4724,-0.15197 -0.71411,0.36929 -0.71411,0.36928 z m 0.97388,-0.0515 -0.15986,-0.15985 -0.34726,0.13897 -0.34727,0.13896 1.0142,0.0418 z m 9.0618,-1.1379 -0.006,-0.15743 -2.1054,-1.4895 v 0.28475 l 0.57963,1.193 0.57962,1.193 0.47871,-0.43323 0.47871,-0.43322 z m 0.96518,0.44984 0.15753,-0.2549 -1.2079,0.1768 -0.20396,0.61982 1.0968,-0.28681 z m 1.7997,-0.62617 0.41578,-0.41577 v -8.1643 l -0.39688,0.002 -2.1167,0.56554 -3.5719,1.0414 v 3.9279 l 0.80694,0.91904 0.80693,0.91905 2.4456,1.6199 h 1.1944 z m -12.309,-4.8098 -0.0583,-4.1672 -2.1658,-3.175 -0.0732,4.2317 -0.0732,4.2317 0.73084,0.5344 0.18169,0.57248 0.1817,0.57248 0.53747,0.68327 0.53746,0.68328 h 0.2596 z m -1.5626,1.1245 v -0.13229 h 0.26458 v 0.26458 h -0.26458 z m 0.52916,-1.8521 v -0.13229 h 0.26459 v 0.26458 h -0.26459 z m 0.28724,-0.66146 -0.0145,-0.39688 0.51296,-0.79375 -0.0145,0.26459 -0.0145,0.26458 -0.22739,0.52917 -0.22739,0.52916 z m 10.627,-2.0148 2.5797,-0.72965 v -0.4371 l -2.8926,-2.9733 -2.8926,-2.9733 -0.168,8.0643 0.79375,-0.22139 z m -6.6676,-4.2029 0.96358,-1.0583 2.136,-2.249 h -0.1292 l -3.3805,1.5137 -0.79375,0.1863 -0.79375,0.18629 -3.5618,1.0726 1.212,1.6713 0.71953,0.98452 0.71952,0.98452 1.9448,-2.2336 z m 11.628,-1.071 v -0.145 l -1.8082,-2.8266 -0.44078,-0.26565 -3.4396,0.72542 -2.0902,0.012 0.5027,0.45718 5.5562,1.8759 1.0583,0.25134 0.66146,0.0614 z m -2.7372,15.028 -0.12264,-0.19844 h 1.2218 l -0.24528,0.39688 h -0.73129 z m 3.0018,-0.0337 v -0.23218 l 0.88038,-0.72626 -0.31721,0.59532 -0.31721,0.59531 h -0.24596 z m -0.52917,-2.5459 v -0.13229 h 0.26459 v 0.26459 h -0.26459 z m 2.9104,-3.175 v -0.39687 h 0.52917 v 0.79375 h -0.52917 z m -0.52917,-1.7198 -0.29936,-1.1118 0.21458,-0.21458 0.32531,1.0858 0.32532,1.0858 -0.13324,0.13324 -0.13325,0.13324 z m -0.50828,-2.0064 0.0209,-0.50712 0.13897,0.34727 0.13896,0.34726 -0.15985,0.15985 -0.15985,0.15986 z m -19.865,-2.8884 v -0.13229 h 0.26459 v 0.26458 h -0.26459 z m 13.758,-10.054 v -0.39687 h 0.51256 l -0.1523,0.39687 -0.15229,0.39688 h -0.20797 z"
       fill="#798474"
       id="path48" /><path
       d="m 122.76,131.88 -0.18061,-0.56905 0.26458,-0.26458 0.18061,0.56904 0.18061,0.56905 -0.26458,0.26458 z m 3.3162,-0.1156 -0.3354,-0.62671 -2.3247,-0.65087 -2.4519,-2.1582 -0.48539,-1.0686 -0.48539,-1.0686 -0.012,-1.6853 0.26235,-0.69001 0.26234,-0.69001 0.72984,-0.92096 0.72985,-0.92096 1.9844,-1.3824 v -1.251 h -0.53626 l 0.37326,-0.89335 0.37327,-0.89335 1.2417,-1.8848 1.2417,-1.8848 0.61364,-0.008 1.3229,-0.28292 -1.583,0.72433 2.5124,0.63262 3.0986,0.32386 0.19045,-0.30817 0.19046,-0.30816 -0.3431,-2.0308 -3.1869,0.99187 -0.8789,-0.0364 3.7042,-1.1542 0.66146,-0.4281 v -3.15 l 2.249,0.37556 1.9844,0.016 v 0.47728 l -3.7042,-0.365 v 1.5807 l 0.92604,0.242 -1.1906,0.0614 v 1.0697 l 1.1906,0.4845 4.7625,1.1986 1.3229,1.4036 0.69732,1.163 0.69731,1.163 0.28999,1.3229 0.28999,1.3229 0.28928,1.3229 -0.3351,-0.66146 -0.33509,-0.66146 -0.27078,7.6729 -0.39687,0.62855 -0.39688,0.62856 -1.0583,1.3247 -1.1402,1.1223 -0.39387,0.31483 -0.39387,0.31482 -0.14485,-0.14484 -0.14484,-0.14485 -1.3698,0.35106 -1.3697,0.35105 -3.0752,-1.7035 h -0.28844 l -0.41286,0.79837 -0.41285,0.79838 -4.6118,-0.26249 0.71796,0.45167 -0.25296,0.15634 -0.25295,0.15633 z m 9.4955,-1.7278 -0.64092,-0.54682 -0.92604,-0.53886 v 0.26905 l 0.58388,1.2018 0.58387,1.2018 1.0401,-1.0401 z m 1.4955,1.0177 0.14378,-0.23265 h 1.2539 l 0.41577,-0.41577 0.41578,-0.41577 v -8.3814 l -1.0298,-1.2805 -1.0298,-1.2805 -4.0258,-3.9555 -0.016,0.7805 -0.1166,7.2761 0.0203,-4e-5 0.0203,-3e-5 5.7181,-1.6056 0.24792,0.24792 -2.3024,0.61102 -1.7198,0.46585 -1.7198,0.46584 -0.0769,2.0027 -0.0769,2.0027 1.5876,1.8082 1.0919,0.75669 1.0919,0.75669 -0.55205,0.20422 -0.55204,0.20421 v 0.49668 l 0.53329,-0.13946 0.53328,-0.13945 z m -10.492,-5.323 -0.0447,-4.2966 -2.1828,-3.1809 -0.0732,4.2317 -0.0732,4.2317 0.80784,0.5907 v 0.42434 l 1.3452,2.2954 h 0.26552 z m -0.7723,-1.7889 v -0.35278 l 0.35278,0.35278 -0.17639,0.17638 -0.17639,0.17639 z m 0.26458,-0.66146 v -0.13229 h 0.26458 v 0.26458 h -0.26458 z m 1.1024,-2.217 0.0882,-0.23262 1.9844,-2.1985 1.9844,-2.1985 0.83343,-0.87613 0.83344,-0.87613 H 132.661 l -1.9633,0.98579 -2.6458,0.83439 -3.8309,1.111 1.254,1.8304 1.254,1.8304 0.35278,0.0226 z m 14.243,-4.1344 v -0.13373 l -1.9844,-3.1913 -1.3229,0.34614 -4.4979,0.6533 0.79375,0.34804 6.0854,2.1089 0.92605,0.002 z m -2.3812,15.111 v -0.10399 l 0.41061,-0.15757 0.41062,-0.15757 -0.16165,0.26156 -0.16165,0.26155 h -0.49793 z m 2.6458,-0.12821 v -0.23218 l 0.88038,-0.72626 -0.31721,0.59532 -0.31721,0.59531 h -0.24596 z m -3.175,-0.16469 v -0.13229 h 0.26458 v 0.26459 h -0.26458 z m 2.6458,-2.3812 v -0.13229 h 0.26459 v 0.26459 h -0.26459 z m 2.9104,-3.175 v -0.39687 h 0.52917 v 0.79375 h -0.52917 z m -0.26458,-0.92604 v -0.35278 l 0.17638,0.17639 0.17639,0.17639 -0.17639,0.17639 -0.17638,0.17639 z m -0.37798,-1.2095 -0.17694,-0.705 0.11339,-0.11339 0.11339,-0.1134 0.17695,0.705 0.17694,0.705 -0.11339,0.1134 -0.1134,0.11339 z m -0.41577,-1.5686 v -0.13229 h 0.26458 v 0.26458 h -0.26458 z m -0.26459,-1.1906 v -0.35278 l 0.35278,0.35278 -0.35278,0.35278 z m -7.5406,-10.592 -0.79375,-0.21072 2.7284,0.0858 -0.12305,0.19909 -0.12305,0.1991 -0.89481,-0.0626 z"
       fill="#6f746c"
       id="path49" /><path
       d="m 122.79,131.98 -0.17121,-0.44616 0.13229,-0.13229 0.1323,-0.13229 0.1712,0.44616 0.17121,0.44615 -0.13229,0.13229 -0.1323,0.13229 z m 3.3144,-0.30427 -0.24965,-0.46302 -2.7671,-0.97367 -2.5358,-2.5358 -0.63156,-2.3114 0.29832,-1.1906 0.29831,-1.1906 3.5054,-3.3145 -0.14958,-0.92176 -0.14958,-0.92175 0.97544,-1.657 0.97545,-1.657 0.41307,-0.58025 0.41307,-0.58024 0.72863,-0.27703 0.72863,-0.27702 0.62701,0.0238 -1.5875,0.69326 2.1167,0.61209 3.8365,0.33593 v -2.3707 l -0.14629,-0.14628 -0.14628,-0.14629 -1.2203,0.36725 -1.2202,0.36724 -0.21658,-0.21658 2.9497,-0.85748 v -3.456 l 0.29744,0.18382 0.29744,0.18383 -0.16834,1.6431 -0.16835,1.6431 5.6949,1.4596 1.0583,0.67583 0.98213,1.7825 -1.36,-1.5875 -0.02,-0.46302 -1.7198,0.37806 -4.4713,0.62592 5.2651,1.9228 2.8911,0.8187 0.1938,-0.1938 -0.89883,-1.5011 1.0703,1.2956 0.15715,0.98273 0.15714,0.98272 0.17783,0.46341 0.17782,0.46341 -0.61909,-0.38262 v 7.4268 l -0.92604,1.4888 -1.7899,2.4654 -0.7982,0.27826 -0.7982,0.27825 h -0.4502 l 3.8e-4,-0.39688 1.334,-0.077 0.39113,-0.32462 0.39114,-0.32461 v -8.6389 l -1.6145,0.56282 -0.16289,-0.16288 -0.16288,-0.16288 h 0.58291 l 1.4002,-0.53234 -5.9396,-6.0665 -0.40086,0.24774 0.006,3.837 0.006,3.837 0.16672,-6.3e-4 0.16672,-6.2e-4 -0.0872,2.147 -0.0872,2.147 1.4974,1.5963 1.9797,1.4584 -0.39453,0.32744 -0.39453,0.32743 v 0.72896 h -0.80885 l -3.1448,-1.5875 h -0.26609 l -0.78288,1.5139 -3.7909,-0.165 -0.14526,-0.14525 -0.14525,-0.14526 h -0.49759 l 0.15229,0.39687 0.1523,0.39688 h -0.22936 z m 10.021,-1.1206 v -0.17872 l -2.4299,-1.745 0.42708,0.82587 0.42707,0.82586 0.26545,0.69818 0.26544,0.69817 1.0449,-0.9456 z m -9.4489,-7.4244 -0.22926,-2.0451 0.27504,0.082 0.27503,0.082 4.4979,-5.0767 1.5112,-1.4966 h -0.2547 l -2.844,1.2521 -4.8621,1.3937 h -0.82646 v 0.34693 l 0.61406,0.81872 0.61406,0.81873 0.21457,0.39687 0.21457,0.39688 -0.81788,-0.92604 -0.81788,-0.92605 -0.0216,8.4298 2.249,3.4564 0.2188,-2.4793 0.21881,-2.4793 z m -0.86981,0.9383 v -0.13229 h 0.26458 v 0.26458 h -0.26458 z m 0.10702,-3.6128 -0.18878,-0.30546 0.61092,0.37757 v 0.23336 h -0.23335 z m 13.519,11.418 0.16352,-0.26459 h 0.26459 l -0.32705,0.52917 h -0.26458 z m 2.5135,-0.24897 v -0.24897 l 0.26155,-0.16165 0.26156,-0.16165 -0.31514,0.82124 h -0.20797 z m -5.468,-0.19201 0.17639,-0.17638 0.35277,0.35277 h -0.70555 z m 7.717,-5.3799 0.16352,-0.26458 h 0.23336 v 0.52917 h -0.5604 z m -0.39687,-0.92604 v -0.13229 h 0.26458 v 0.26458 h -0.26458 z m -0.26459,-0.66146 v -0.35278 l 0.35278,0.35278 -0.35278,0.35278 z m -9.3927,-1.5875 0.52917,-0.22739 1.0583,0.016 -1.3229,0.42367 -0.79375,0.016 z m 1.7198,-0.39687 v -0.13229 h 0.26458 v 0.26458 h -0.26458 z m 6.6146,-2.1167 v -0.13229 h 0.26458 v 0.26458 h -0.26458 z m -13.406,-7.717 0.17639,-0.17639 0.35278,0.35278 h -0.70556 z m 7.0556,-1.7771 v -0.10143 l 1.0591,-0.27696 -0.29654,0.47982 h -0.76252 z m -1.1245,-0.33838 0.33073,-0.13345 0.66146,0.2669 h -1.3229 z m -0.33073,-1.9549 -0.79375,-0.21548 3.175,0.29523 0.11024,0.0992 0.11025,0.0992 -1.808,-0.0626 z"
       fill="#4d534a"
       id="path50" /><path
       d="m 122.9,132.14 v -0.35278 l 0.35278,0.35278 -0.35278,0.35278 z m 7.384,-0.37335 -0.10795,-0.10418 -3.9688,-0.244 -0.98369,-0.43298 -0.98369,-0.43299 h -0.31852 l -2.2461,-1.5454 -0.67724,-1.0234 -0.67723,-1.0234 -0.18178,-0.82765 -0.18179,-0.82765 0.5948,-2.2089 2.1825,-2.3677 0.51324,-0.27468 0.51325,-0.27468 0.21632,0.35002 0.21633,0.35002 -0.15452,2.5363 -0.15451,2.5363 0.66301,1.2935 1.9242,2.8457 0.21782,-1.8197 0.21783,-1.8197 -0.11675,-2.4845 -0.11676,-2.4845 2.6385,-2.7039 1.3294,-1.5875 1.3294,-1.5875 0.29296,-0.19439 0.29296,-0.19438 0.31275,-0.008 0.16571,6.0945 0.16571,6.0945 0.73382,1.0477 1.2292,0.95769 1.2292,0.95769 -0.012,0.32608 -1.0305,1.3229 -3.3234,-1.7347 -0.6258,0.014 -0.32074,1.0105 -0.68965,0.57237 z m 5.1816,-1.8844 -0.79159,-0.65984 -0.90128,-0.5274 0.8265,1.9897 0.52478,0.99051 1.1332,-1.1332 z m -12.83,1.5962 v -0.13229 h 0.26458 v 0.26458 h -0.26458 z m 13.758,0 v -0.13229 h 0.26459 v 0.26458 h -0.26459 z m 1.1906,-0.39687 0.52916,-0.22739 0.26459,-0.0146 0.26458,-0.0145 -0.39687,0.25648 -0.39688,0.25648 -0.39687,-0.0146 -0.39688,-0.0145 z m 4.6302,0.13229 v -0.13229 h 0.26458 v 0.26458 h -0.26458 z m -2.8461,-2.8468 0.21797,-2.4448 -0.075,-2.1167 -0.075,-2.1167 -1.0583,0.1454 0.90918,-0.5592 -0.90918,-0.95923 -5.2917,-5.6745 -0.13229,-1.5724 -0.13229,-1.5724 0.36288,0.13927 0.36288,0.13928 5.8263,1.561 0.21097,0.21097 -3.0589,0.59128 -3.0722,0.35082 0.42638,0.383 6.4614,2.2062 1.6074,0.1126 0.058,1.3229 -0.1084,8.444 -2.4214,3.4622 -0.16329,0.19589 -0.16329,0.19588 z m 4.9628,-2.1803 v -0.13229 h 0.26459 v 0.26459 h -0.26459 z m -0.79375,-1.8521 v -0.13229 h 0.26459 v 0.26458 h -0.26459 z m -9.7014,-1.367 0.17639,-0.17639 0.35278,0.35278 h -0.70556 z m 0.92053,-0.26894 0.34727,-0.13896 0.3197,0.3197 -1.0142,-0.0418 z m -8.8392,-2.2414 -0.18878,-0.30546 0.61092,0.37757 v 0.23336 h -0.23335 z m 16.562,-0.0914 v -0.13229 h 0.26458 v 0.26458 h -0.26458 z m -18.521,-1.0583 v -0.13229 h 0.26459 v 0.26458 h -0.26459 z m 0.76001,-0.59532 -0.36313,-0.46302 0.92604,0.72626 v 0.1998 h -0.1998 z m -1.0246,-0.55417 v -0.20684 l 2.1865,-3.6708 1.0807,-1.1906 0.8338,0.0372 -0.51499,0.20154 -0.515,0.20153 1.2946,0.38753 4.4979,0.67922 -2.7453,1.3154 -5.592,1.5432 0.11704,0.30884 0.11704,0.30883 -0.76034,0.29177 z m 17.462,-1.8932 -0.2832,-0.52917 h 0.26458 l 0.28321,0.52917 0.2832,0.52917 h -0.26459 z m -1.2159,-1.893 -0.18879,-0.30547 0.30547,0.18879 0.30546,0.18879 v 0.23335 h -0.23335 z m -9.8966,-1.9435 v -0.13229 h 0.26458 v 0.26458 h -0.26458 z m 0.74414,-0.31303 0.34727,-0.13897 0.15985,0.15986 0.15985,0.15985 -1.0142,-0.0418 z m 0.93156,-0.26023 0.17638,-0.17639 0.35278,0.35278 h -0.70555 z m 1.2347,-2.1608 v -1.367 h 0.58181 l -0.1193,1.1954 -0.1193,1.1954 -0.1716,0.17161 -0.17161,0.17161 z m 3.4396,1.1465 v -0.13229 h 0.26459 v 0.26458 h -0.26459 z m -1.4993,-0.30868 0.17639,-0.17639 0.17638,0.17639 0.17639,0.17639 h -0.70555 z m 2.0285,0.0441 v -0.13229 h 0.26458 v 0.26458 h -0.26458 z m -0.97014,-1.8962 0.17639,-0.17639 0.35278,0.35278 h -0.70556 z m 0.97014,0.0441 v -0.13229 h 0.26458 v 0.26459 h -0.26458 z m -2.5576,-0.30868 0.17639,-0.17639 0.35278,0.35278 h -0.70556 z"
       fill="#424b3c"
       id="path51" /><path
       d="m 122.9,132.01 v -0.13229 h 0.26458 v 0.26458 H 122.9 Z m 10.396,-1.0713 -1.6422,-0.93087 -0.42778,0.82725 -0.42778,0.82724 -4.5912,-0.23532 -2.1167,-0.89592 -0.60656,-0.30345 -0.60655,-0.30345 -1.1608,-1.241 -1.1608,-1.241 -0.29338,-1.0896 -0.29339,-1.0896 0.6041,-2.249 1.3877,-1.3891 1.3877,-1.3891 h 0.60969 v 6.2234 l 2.4874,3.6985 0.213,-0.92604 0.21301,-0.92604 -0.117,-6.5382 0.47155,-0.34481 0.47155,-0.3448 -0.0168,-0.22253 -0.0168,-0.22254 4.364,-4.9465 0.84262,-0.45144 0.33026,12.146 0.32966,0.5945 0.32967,0.59449 -0.058,0.20375 -0.058,0.20374 1.3611,2.6859 0.54934,-0.48837 0.54935,-0.48837 -0.73142,1.1906 -0.53417,-0.008 z m -3.2525,0.27756 v -0.13229 h -0.26458 v 0.26458 h 0.26458 z m -0.79375,-0.26459 v -0.13229 h -0.26458 v 0.26459 h 0.26458 z m 2.6458,-1.8521 v -0.13229 h -0.26458 v 0.26458 h 0.26458 z m -4.7625,-7.1438 v -0.13229 h -0.26458 v 0.26458 h 0.26458 z m -4.4979,9.525 v -0.13229 h 0.26458 v 0.26458 h -0.26458 z m 14.767,-0.31303 0.34726,-0.13897 0.15985,0.15986 0.15986,0.15985 -1.0142,-0.0418 z m 0.84336,-0.21614 v -0.13229 h 0.26458 v 0.26459 h -0.26458 z m 1.2489,-4.8195 0.15264,-4.5119 -2.5912,-2.8395 -3.9696,-4.1304 -0.13229,-1.5758 -0.13229,-1.5758 0.39687,0.16551 0.39688,0.16552 6.0383,1.6338 -1.2758,0.33923 -5.1541,0.70575 0.0836,0.0837 0.0837,0.0836 4.4576,1.6393 3.9688,1.0886 0.2138,0.1796 -0.0528,4.5674 -0.0528,4.5674 -1.2919,1.9629 -1.2919,1.9629 z m 2.1907,-7.3514 v -0.13229 h -0.26458 v 0.26458 h 0.26458 z m 0,-1.0583 v -0.13229 h -0.26458 v 0.26458 h 0.26458 z m -7.1438,-2.101 v -0.11668 l -0.30547,-0.18879 -0.30546,-0.18879 0.18879,0.30547 0.18878,0.30546 h 0.23336 z m 1.0583,14.272 v -0.13229 h 0.26459 v 0.26458 h -0.26459 z m 8.7312,-3.7042 v -0.13229 h 0.26459 v 0.26459 h -0.26459 z m -5.8208,-4.4979 v -0.13229 h 0.26458 v 0.26458 h -0.26458 z m -12.7,-1.3229 v -0.13229 h 0.26458 v 0.26458 h -0.26458 z m -1.0583,-1.5875 v -0.13229 h 0.26459 v 0.26458 h -0.26459 z m -0.30004,-2.0505 0.80197,-1.3891 h 0.51231 l 0.44097,-0.48172 -0.66146,0.38066 v -0.5198 l 1.37,-1.6281 h 0.58327 l -0.51359,0.38151 -0.51359,0.3815 1.0583,0.0304 4.959,0.66171 -2.0486,1.1319 -6.225,1.7749 0.1276,0.33255 0.12761,0.33254 h -0.82082 z m 0.75755,0.17088 -0.15985,-0.15986 -0.34726,0.13897 -0.34727,0.13896 1.0142,0.0418 z m 16.211,-0.23703 v -0.13229 h 0.26458 v 0.26459 h -0.26458 z m -1.3229,-2.1167 v -0.13229 h 0.26458 v 0.26458 h -0.26458 z m -9.1722,-2.4254 0.17638,-0.17639 0.35278,0.35278 h -0.70555 z m 0.97013,-0.22049 v -0.13229 h 0.26459 v 0.26459 h -0.26459 z m 1.0583,-2.3372 v -1.2347 h 0.41194 l -0.0609,1.0897 -0.0609,1.0897 -0.14505,0.14506 -0.14506,0.14505 z"
       fill="#2c6034"
       id="path52" /><path
       d="m 122.9,132.01 v -0.13229 h 0.26458 v 0.26458 H 122.9 Z m 10.396,-1.0713 -1.6422,-0.93087 -0.42778,0.82725 -0.42778,0.82724 -4.5912,-0.23532 -2.1167,-0.89592 -0.60656,-0.30345 -0.60655,-0.30345 -1.1608,-1.241 -1.1608,-1.241 -0.29338,-1.0896 -0.29339,-1.0896 0.6041,-2.249 1.3877,-1.3891 1.3877,-1.3891 h 0.60969 v 6.2234 l 2.4874,3.6985 0.213,-0.92604 0.21301,-0.92604 -0.059,-3.2894 -0.059,-3.2894 0.86913,-0.48555 0.86914,-0.48554 0.24674,0.15249 0.24675,0.1525 0.0338,-0.21405 0.0338,-0.21406 0.1286,-1.2713 -0.7634,0.87437 -0.7634,0.87436 -0.23168,-0.23168 2.3152,-2.596 2.3152,-2.596 0.40848,-0.2286 0.40849,-0.2286 0.1652,6.076 0.16521,6.076 0.32966,0.5945 0.32967,0.59449 -0.058,0.20375 -0.058,0.20374 1.3611,2.6859 0.54934,-0.48837 0.54935,-0.48837 -0.73142,1.1906 -0.53417,-0.008 z m -3.3848,0.14527 -0.16352,-0.26459 -0.89481,0.0372 1.0583,0.45478 0.1636,0.0372 z m 0.92604,-0.1323 v -0.13229 h -0.26458 v 0.26459 h 0.26458 z m 0.35509,-0.78027 0.14713,-0.3834 -0.7668,0.29425 v 0.47255 h 0.47255 z m -3.6183,-0.27806 v -0.39687 h -0.44098 v 0.79375 h 0.44098 z m 2.4618,-0.12196 0.38921,-0.24614 -0.12504,-0.12505 -0.12505,-0.12504 -0.51317,0.37524 -0.51318,0.37524 0.49802,-0.008 z m 0.80141,-0.67179 v -0.13229 h -0.26458 v 0.26458 h 0.26458 z m 1.0583,0 v -0.13229 h -0.26458 v 0.26458 h 0.26458 z m -4.4979,-3.7042 v -3.5719 l -0.19844,-4.5e-4 -0.19844,-4.4e-4 0.161,7.1446 h 0.23595 z m 4.6554,2.4681 0.50402,-0.57465 -0.61626,0.35884 -0.11867,-0.33238 -0.11866,-0.33238 -0.46932,0.46932 0.68354,0.2436 -0.30802,0.37115 -0.30803,0.37114 h 0.24737 z m -0.0251,-4.4524 -0.52917,-0.22739 -0.52917,-0.029 0.39688,0.25648 0.39687,0.25648 0.79375,-0.029 z m 0.66145,-0.79375 v -0.26458 l -1.1906,0.0372 0.52917,0.22739 0.52916,0.22739 0.1322,0.0372 z m -1.3229,-0.39688 v -0.13229 h -0.26459 v 0.26459 h 0.26459 z m 0.44097,-0.57326 -0.17639,-0.17639 v 0.70556 l 0.35278,-0.35278 z m -1.7645,-0.0221 -6.1e-4,-0.19844 -1.5863,-0.0564 v 0.45322 h 1.5875 z m 2.6201,-1.1906 -0.0264,-0.8599 -0.39306,1.3229 0.10622,0.19843 0.10623,0.19844 h 0.23335 z m -1.5611,-2.2521 v -0.67416 l -1.0226,0.92548 0.13634,0.35531 0.13635,0.35531 0.74995,-0.28778 z m 0.79375,-1.5182 v -0.13229 h -0.26458 v 0.26459 h 0.26458 z m 0.79375,-0.39687 v -0.52917 h -0.44097 l -0.15816,0.15816 -0.15815,0.15816 0.14236,0.37101 0.14237,0.37101 h 0.47255 z m -0.52916,-0.13229 v -0.13229 h 0.26458 v 0.26458 h -0.26458 z m -9.525,15.346 v -0.13229 h 0.26458 v 0.26458 h -0.26458 z m 14.767,-0.31303 0.34726,-0.13897 0.15985,0.15986 0.15986,0.15985 -1.0142,-0.0418 z m 0.84336,-0.21614 v -0.13229 h 0.26458 v 0.26459 h -0.26458 z m 1.2493,-4.8329 0.15219,-4.4984 -2.5912,-2.8395 -3.9696,-4.1304 -0.13229,-1.5758 -0.13229,-1.5758 0.39687,0.16551 0.39688,0.16552 6.0334,1.6325 -0.5251,0.175 -4.3673,0.69494 -1.308,-0.25005 0.0756,-0.8777 0.0756,-0.87769 -0.38116,-0.38116 v 2.6621 l 2.5135,0.90932 2.6458,0.9937 3.5719,0.92536 0.0237,0.53999 0.0237,0.53998 -0.0858,8.2021 -1.6042,2.5135 h -0.1206 l 0.21974,-2.7781 -0.46034,-1.2119 0.0353,2.1935 0.0353,2.1935 -0.33688,0.49419 -0.33689,0.4942 z m 1.5729,-0.50282 -0.17639,-0.17639 v 0.70556 l 0.35278,-0.35278 z m -0.56741,-3.9865 -0.16488,-0.87889 -0.53342,0.32967 0.12996,0.70241 0.12995,0.70242 0.41476,2.1167 0.1886,-2.0934 z m 1.0954,0.39259 -0.13345,-0.33073 v 1.3229 l 0.13345,-0.33073 0.13346,-0.33072 z m -1.981,-2.0857 -0.086,-0.36173 -0.55548,-0.59531 -0.55547,-0.59531 h -0.60251 l -1.5449,-1.6126 0.78446,-0.55404 -0.46302,0.14895 -0.46302,0.14894 -0.39536,-0.15171 -0.39535,-0.15171 0.14451,-0.23383 0.14452,-0.23383 -0.83616,0.32087 2.1176,1.989 2.1176,1.9891 -0.12701,0.2055 -0.12701,0.20551 0.92856,-0.1562 z m 1.8058,0.0469 v 0.34107 l 0.15654,-0.15654 0.15654,-0.15655 -0.22942,-0.40994 -0.22941,-0.40995 -0.73302,1.1771 0.43938,-0.36313 0.43939,-0.36312 z m -0.79375,-1.2179 v -0.38126 h -0.41578 v 1.0195 l 0.41578,-0.25696 z m 1.0583,0.0156 v -0.13229 h -0.26458 v 0.26458 h 0.26458 z m -0.10703,-0.96692 0.18879,-0.30547 -0.2515,0.15544 -0.2515,0.15543 -3.1005,-1.0228 h -0.49112 l 0.2188,0.6564 2.0743,0.62584 1.424,0.0406 z m -4.1263,-1.1498 v -0.13229 h -0.26459 v 0.26459 h 0.26459 z m -2.9104,-1.0427 v -0.11668 l -0.30547,-0.18879 -0.30546,-0.18879 0.18879,0.30547 0.18878,0.30546 h 0.23336 z m 0.52917,-0.0156 v -0.13229 h -0.26459 v 0.26458 h 0.26459 z m 0.52916,14.288 v -0.13229 h 0.26459 v 0.26458 h -0.26459 z m 8.7312,-3.7042 v -0.13229 h 0.26459 v 0.26459 H 144.331 Z m -5.8208,-4.4979 v -0.13229 h 0.26458 v 0.26458 h -0.26458 z m -12.7,-1.3229 v -0.13229 h 0.26458 v 0.26458 h -0.26458 z m -1.0583,-1.5875 v -0.13229 h 0.26459 v 0.26458 h -0.26459 z m -0.29553,-2.0505 0.80647,-1.3891 0.81198,0.1554 v -0.5836 l -0.52917,0.32705 v -0.5198 l 1.37,-1.6281 h 0.58327 l -0.51359,0.38151 -0.51359,0.3815 1.0583,0.0304 4.959,0.66171 -2.0486,1.1319 -6.225,1.7749 0.1276,0.33255 0.12761,0.33254 h -0.82082 z m 0.75304,0.17088 -0.15985,-0.15986 -0.34726,0.13897 -0.34727,0.13896 1.0142,0.0418 z m 1.7984,-0.84739 -0.14811,-0.14811 -0.32632,0.32877 -0.32632,0.32876 0.47443,-0.18065 0.47444,-0.18065 z m 3.5649,-0.84484 0.92604,-0.50699 -1.3229,-0.0294 -1.3229,-0.26312 1.4844,0.70564 -1.2198,0.58723 0.52917,0.014 z m -3.9688,-0.1323 v -0.13229 h -0.26459 v 0.26459 h 0.26459 z m -0.26459,-0.52916 v -0.13229 h -0.26458 v 0.26458 h 0.26458 z m 1.2513,-0.29215 -0.15985,-0.15985 -0.69453,0.27793 1.0142,0.0418 z m 13.83,2.4088 v -0.13229 h 0.26458 v 0.26459 h -0.26458 z m -1.3229,-2.1167 v -0.13229 h 0.26458 v 0.26458 h -0.26458 z m -9.1722,-2.4254 0.17638,-0.17639 0.35278,0.35278 h -0.70555 z m 0.97013,-0.22049 v -0.13229 h 0.26459 v 0.26459 h -0.26459 z m 1.0583,-2.3372 v -1.2347 h 0.41194 l -0.0609,1.0897 -0.0609,1.0897 -0.14505,0.14506 -0.14506,0.14505 z"
       fill="#295b32"
       id="path53" /><path
       d="m 122.9,132.01 v -0.13229 h 0.26458 v 0.26458 H 122.9 Z m 10.396,-1.0713 -1.6422,-0.93087 -0.42778,0.82725 -0.42778,0.82724 -4.5912,-0.23532 -2.1167,-0.89592 -0.60656,-0.30345 -0.60655,-0.30345 -1.1608,-1.241 -1.1608,-1.241 -0.29338,-1.0896 -0.29339,-1.0896 0.6041,-2.249 1.3877,-1.3891 1.3877,-1.3891 h 0.60969 v 6.2234 l 2.4233,3.6123 0.16232,-0.16233 0.16233,-0.16232 0.17779,-3.4988 0.17778,-3.4988 -0.0608,7.517 1.1844,0.53859 0.46615,-0.16431 0.46616,-0.16431 1.3999,-1.0598 1.3999,-1.0598 0.54745,-0.76883 0.54746,-0.76883 -0.17931,-1.6743 -0.1793,-1.6743 -3.0417,-0.85346 h -1.6851 l -0.108,-0.66146 -0.15655,3.4396 -0.15655,3.4396 -0.108,-7.0115 h -0.52917 l -0.0418,0.92604 -0.13642,-0.33962 -0.13642,-0.33963 0.2921,-0.35196 0.2921,-0.35195 4.6252,1.2087 0.46302,0.18166 0.46302,0.18167 0.0408,-3.9309 0.0408,-3.9309 0.42766,12.171 0.64138,1.3229 -0.0479,0.20375 -0.0479,0.20374 1.3611,2.6859 0.54934,-0.48837 0.54935,-0.48837 -0.73142,1.1906 -0.53417,-0.008 z m -3.3848,0.14527 -0.16352,-0.26459 -0.89481,0.0372 1.0583,0.45478 0.1636,0.0372 z m 1.3891,-0.92561 0.59531,-0.91906 v -0.31271 l -1.5875,1.5875 v 0.56988 l 0.39688,-0.006 z m -8.6651,1.3225 v -0.13229 h 0.26458 v 0.26458 h -0.26458 z m 14.767,-0.31303 0.34726,-0.13897 0.15985,0.15986 0.15986,0.15985 -1.0142,-0.0418 z m 0.84336,-0.21614 v -0.13229 h 0.26458 v 0.26459 h -0.26458 z m 1.2489,-4.8195 0.15264,-4.5119 -2.5912,-2.8395 -3.9696,-4.1304 -0.13229,-1.5758 -0.13229,-1.5758 0.39687,0.16551 0.39688,0.16552 6.0383,1.6338 -0.77021,0.2102 -0.7702,0.21019 -4.3011,0.29702 -0.11668,-0.79502 -0.11669,-0.79501 0.3264,0.20172 0.34242,-0.21163 0.34243,-0.21163 -1.3716,-0.26219 v 2.5314 l 1.976,0.65212 -0.91237,0.32005 4.4451,4.3842 0.14775,0.38504 0.14776,0.38504 0.41348,-0.004 0.66146,-0.97562 0.66146,-0.97561 -0.1322,-0.4264 h 0.73713 l 0.1411,-0.36771 0.1411,-0.3677 -1.6808,-0.32158 -4.7273,-1.6888 0.54374,-0.1812 2.3315,0.98689 3.8365,0.98378 0.0474,1.0886 -0.08,8.2021 -2.5754,3.9258 z m 1.1273,1.8136 -0.005,-0.43371 -0.36812,-1.3229 -0.36811,-1.3229 -0.0474,2.9766 -0.15172,0.89297 -0.15171,0.89297 0.54859,-0.62463 0.54859,-0.62462 z m 0.98011,-5.1523 0.0489,-4.1449 h -0.178 l -1.1167,1.8927 0.17777,0.31041 0.17777,0.31042 -0.43302,-0.39228 -0.34073,0.28278 -0.34074,0.28278 0.21023,0.57482 0.21022,0.57482 0.47987,2.3228 0.47986,2.3228 0.57552,-0.1922 z m -7.325,-7.4522 V 115.209 h -0.26459 v 0.26458 h 0.26459 z m 1.7639,-1.6316 -0.17638,-0.17639 -0.35278,0.35278 h 0.70555 z m 2.1167,-0.26458 -0.17639,-0.17639 -0.35278,0.35278 h 0.70556 z m -0.97014,-0.22049 v -0.13229 h -0.26458 v 0.26458 h 0.26458 z m -0.60082,-0.29214 -0.15986,-0.15986 -0.34726,0.13897 -0.34727,0.13896 1.0142,0.0418 z m -1.3395,-0.28112 -0.17638,-0.17639 -0.35278,0.35278 h 0.70555 z m 0.35278,17.242 v -0.13229 h 0.26459 v 0.26458 h -0.26459 z m 8.7312,-3.7042 v -0.13229 h 0.26459 v 0.26459 h -0.26459 z m -13.494,-4.4979 v -0.13229 h 0.26458 v 0.26458 h -0.26458 z m 7.6729,0 v -0.13229 h 0.26458 v 0.26458 h -0.26458 z m -9.7014,-0.57327 0.17639,-0.17639 0.35278,0.35278 h -0.70556 z m -0.39162,-1.2788 1.0831,-1.3229 1.3961,-1.4734 1.3961,-1.4734 -0.39688,0.53653 -0.39687,0.53654 -0.89966,1.0191 -0.42539,0.89645 -0.4254,0.89645 -0.23784,-0.14699 -0.23785,-0.147 -1.9385,2.0015 z m 1.3931,0.66146 0.3655,-0.66146 v -0.0704 l 1.7198,-0.36845 v 1.365 h -0.52916 v -0.79375 h -0.62735 l -1.2943,1.1906 z m -4.0001,-0.13229 v -0.13229 h 0.26458 v 0.26458 h -0.26458 z m 13.847,-1.1024 0.17639,-0.17639 0.17638,0.17639 0.17639,0.17639 h -0.70555 z m -14.905,-0.48507 v -0.13229 h 0.26459 v 0.26458 h -0.26459 z m 13.881,-0.2259 -0.53911,-0.30327 -1.8161,-1.4272 0.19313,-0.19313 0.19312,-0.19313 0.72485,0.68042 0.72484,0.68043 1.7478,0.36856 -0.0967,0.2901 -0.0967,0.29009 -0.49609,0.1104 z m -14.865,-0.634 0.10552,-0.19843 1.0095,-1.7198 1.0095,-1.7198 1.0684,-1.1906 h 0.41166 l -1.3509,1.4552 -0.40214,0.79375 -0.40215,0.79375 -0.81195,0.92604 h 0.9253 l 0.13542,-0.51786 0.13543,-0.51785 1.664,-0.50427 1.4552,-0.32219 v 0.53925 l -1.1906,0.0528 0.64702,0.18058 0.64703,0.18059 -4.6119,1.2936 0.25854,0.67374 h -0.80837 z m 3.233,-1.6536 0.52917,-0.22739 -0.79375,-0.029 -0.79375,0.51296 0.52917,-0.029 z m 14.42,0.39687 v -0.13229 h 0.26458 v 0.26459 h -0.26458 z m -11.906,-0.90465 0.39688,-0.27787 -0.71029,-0.008 -1.3185,-1.0371 1.235,-0.28858 1.6869,0.19982 1.6869,0.19983 -2.0508,1.1299 -1.3229,0.35997 z m 0.66334,-0.54752 -0.16165,-0.26156 0.78909,0.30281 0.95818,-0.55736 -1.0583,-0.022 -2.1167,-0.30164 1.3229,1.0894 0.4281,0.012 z m -3.5738,-0.66449 v -0.13229 h 0.26458 v 0.26458 h -0.26458 z m 13.494,0 v -0.13229 h 0.26458 v 0.26458 h -0.26458 z m -12.965,-0.65316 v -0.25628 l 0.79375,0.30459 v 0.20797 h -0.79375 z m 3.7924,-1.7722 0.17638,-0.17639 0.35278,0.35278 h -0.70555 z m 0.97013,-0.22049 v -0.13229 h 0.26459 v 0.26459 h -0.26459 z m 1.0583,-2.3372 v -1.2347 h 0.41194 l -0.0609,1.0897 -0.0609,1.0897 -0.14505,0.14506 -0.14506,0.14505 z"
       fill="#275a2d"
       id="path54" /><path
       d="m 122.9,132.01 v -0.13229 h 0.26458 v 0.26458 H 122.9 Z m 10.396,-1.0713 -1.6422,-0.93087 -0.42778,0.82725 -0.42778,0.82724 -4.5912,-0.23532 -2.1167,-0.89592 -0.60656,-0.30345 -0.60655,-0.30345 -1.1608,-1.241 -1.1608,-1.241 -0.29338,-1.0896 -0.29339,-1.0896 0.6041,-2.249 1.3877,-1.3891 1.3877,-1.3891 h 0.60969 v 6.2234 l 2.497,3.6985 0.35076,-1.5875 0.0644,0.59532 0.0644,0.59531 0.0662,0.62996 3.0303,0.89957 -0.24058,-0.44953 -0.24059,-0.44953 3.404,-3.0446 v -3.6983 l -1.7873,-0.74678 -4.0238,-1.0783 h -0.27431 l -0.0418,0.92604 -0.13642,-0.33962 -0.13642,-0.33963 0.63915,-0.77013 0.18628,0.11512 0.18627,0.11513 4.1977,1.148 0.92604,0.26517 0.0408,-3.9335 0.0408,-3.9335 0.42766,12.171 0.64138,1.3229 -0.0479,0.20375 -0.0479,0.20374 1.3611,2.6859 0.54934,-0.48837 0.54935,-0.48837 -0.73142,1.1906 -0.53417,-0.008 z m -1.9512,-0.74586 0.55074,-0.89113 v -0.35697 l -1.8005,1.4366 0.13481,0.35129 0.1348,0.35129 h 0.42939 z m -8.7097,1.288 v -0.13229 h 0.26458 v 0.26458 h -0.26458 z m 14.767,-0.31303 0.34726,-0.13897 0.15985,0.15986 0.15986,0.15985 -1.0142,-0.0418 z m 0.84336,-0.21614 v -0.13229 h 0.26458 v 0.26459 h -0.26458 z m 1.0916,-1.5875 0.0294,-1.3229 0.17063,0.79375 0.17064,0.79375 0.45952,-0.65419 0.45952,-0.65418 v -0.41142 l 0.52916,-0.52917 0.52917,-0.52917 v -8.2021 h -0.1766 l -1.9682,2.8577 -1.2423,-1.3627 -1.2423,-1.3627 -3.9696,-4.1304 -0.13229,-1.5758 -0.13229,-1.5758 0.79375,0.33286 2.3812,0.72566 -2.022,-0.2899 -0.37808,-0.14508 -0.37809,-0.14509 v 2.6306 l 1.9844,0.85108 -1.3229,-0.31238 5.2917,5.4862 0.33773,0.1566 1.0886,-1.5336 1.0886,-1.5335 -3.5734,-1.1358 0.44232,-0.0548 3.3941,0.90441 0.0237,0.53999 0.0237,0.53998 -0.08,8.2021 -1.3047,1.9844 -1.3047,1.9844 z m -3.7374,0.52917 v -0.13229 h 0.26459 v 0.26458 h -0.26459 z m -8.6359,-4.6302 v -2.5135 l 0.1982,2.5135 -0.1982,2.5135 z m 13.28,0.19552 -0.20573,-0.99511 -0.46918,-0.28997 0.0396,-1.2412 0.0396,-1.2412 0.10697,0.79375 0.10696,0.79375 0.40751,1.0957 0.4075,1.0957 -0.1138,0.49182 -0.11379,0.49182 z m 4.0876,0.73052 v -0.13229 h 0.26459 v 0.26459 h -0.26459 z m -4.7625,-0.92604 v -0.35278 l 0.35278,0.35278 -0.35278,0.35278 z m -1.0583,-3.5719 v -0.13229 h 0.26458 v 0.26458 h -0.26458 z m -10.33,-1.6536 0.89363,-1.1245 h 0.21205 l -0.53483,0.75111 -0.53483,0.7511 -0.92965,0.74675 z m -2.3699,0.33073 v -0.13229 h 0.26458 v 0.26458 h -0.26458 z m -1.0583,-1.5875 v -0.13229 h 0.26459 v 0.26458 h -0.26459 z m 6.0832,-1.7172 1.3775,-1.5901 h 0.29424 l -1.0081,1.1697 -0.59531,0.66921 -0.59532,0.6692 v 0.34567 l -0.85062,0.32642 z m -7.0672,0.85728 0.10552,-0.19843 1.0095,-1.7198 1.0095,-1.7198 1.0684,-1.1906 h 0.41166 l -1.3509,1.4552 -0.40214,0.79375 -0.40215,0.79375 -0.81195,0.92604 h 0.39674 l 3.6821,-1.1184 0.11899,0.119 0.119,0.119 -4.51,1.265 0.25854,0.67374 h -0.80837 z m 17.653,-1.2568 v -0.13229 h 0.26458 v 0.26459 h -0.26458 z m -4.2333,-0.32346 -0.39687,-0.14939 -1.264,-0.46799 0.26084,-0.26084 2.3261,1.032 -0.52916,-0.004 z m -7.8493,-0.51438 0.17638,-0.17639 0.35278,0.35278 h -0.70555 z m 0.70555,-0.19218 v -0.10399 l 0.82124,-0.31513 -0.3233,0.5231 h -0.49794 z m 0.92604,-0.97247 -0.79375,-0.18386 2.249,-0.0626 v 0.20796 l -0.66146,0.22236 z m 9.1281,-0.11417 v -0.13229 h 0.26458 v 0.26458 h -0.26458 z m -11.311,-0.31468 0.46302,-0.121 0.92604,0.242 h -1.8521 z m -1.5195,-0.34375 -0.16165,-0.26155 0.82123,0.31513 v 0.20797 h -0.49793 z m 8.9499,0.0852 0.17639,-0.17639 0.35278,0.35278 h -0.70556 z m 1.3059,-0.27155 0.46805,-0.12196 0.3257,0.13177 0.32569,0.13177 -1.5875,-0.02 z m 0.32569,-0.48804 -1.0583,-0.36615 0.92604,0.15622 0.92604,0.15623 1.0583,0.42697 -0.79375,-0.008 z m -1.6316,-0.56332 0.17639,-0.17639 0.35278,0.35278 h -0.70556 z m -5.2917,-0.52917 0.17638,-0.17639 0.35278,0.35278 h -0.70555 z m 0.97013,-0.22049 v -0.13229 h 0.26459 v 0.26459 h -0.26459 z m 1.0583,-2.3372 v -1.2347 h 0.41194 l -0.0609,1.0897 -0.0609,1.0897 -0.14505,0.14506 -0.14506,0.14505 z"
       fill="#273427"
       id="path55" /><path
       d="m 135.07,131.74 v -0.13229 h 0.26458 v 0.26459 H 135.07 Z m -8.3344,-0.346 -0.79375,-0.0977 -0.52917,-0.41338 -2.0298,-0.65415 -1.8694,-1.6414 -1.2232,-1.9378 -0.3285,-1.7888 1.4822,-2.9068 2.3812,-1.7942 0.1488,6.4468 2.46,3.5459 0.56618,0.38407 2.7901,0.88277 0.17481,-0.17481 0.17481,-0.1748 -0.57423,-0.57423 1.6675,-1.4899 0.1938,0.1938 -1.5113,1.3 1.0218,1.1291 -3.408,-0.1366 z m 6.5042,-0.59151 -1.4333,-0.75883 -0.21516,0.13298 -0.21517,0.13298 0.35934,-0.74002 0.35934,-0.74001 0.84758,-1.8521 0.1734,-3.4396 0.102,4.3344 0.2716,0.16785 0.2716,0.16786 -0.096,0.62156 1.1845,2.5575 -0.0883,0.0871 -0.0882,0.0871 z m 4.2996,0.36425 0.17639,-0.17639 0.35278,0.35278 h -0.70556 z m 1.7639,-1.7924 v -0.94166 h 0.20452 l 0.23642,1.6108 -0.44094,0.27252 z m 0.66146,-0.14791 0.16352,-0.26458 h 0.26458 l -0.16352,0.26458 -0.16352,0.26459 h -0.26458 z m -8.3344,-0.39687 v -0.13229 h 0.26458 v 0.26458 h -0.26458 z m 9.2604,-1.0259 v -0.0999 l 0.92604,-0.72626 -0.72625,0.92605 h -0.1998 z m 0.79375,-1.0907 v -0.13229 h 0.26458 v 0.26458 h -0.26458 z m -10.451,-3.8365 -0.52917,-0.22739 h 0.79375 l 0.52917,0.22739 0.52916,0.22739 h -0.79375 z m 8.3762,-0.26458 v -0.66146 l 0.2669,0.66146 -0.2669,0.66146 z m -6.8542,-0.66146 0.005,-1.0583 0.11506,0.59839 0.11507,0.5984 -0.12041,0.45994 -0.1204,0.45993 z m -2.448,0.52917 v -0.13229 h 0.26459 v 0.26458 h -0.26459 z m -1.0583,-0.26459 v -0.13229 h 0.26458 v 0.26459 h -0.26458 z m -1.0583,-0.26458 v -0.13229 h 0.26458 v 0.26458 h -0.26458 z m -1.1245,-0.30752 0.33073,-0.13345 0.66146,0.2669 h -1.3229 z m 12.237,-0.22165 v -0.13229 h 0.26458 v 0.26459 h -0.26458 z m -11.774,-0.66145 0.16352,-0.26459 h 0.26458 l -0.16352,0.26459 -0.16352,0.26458 h -0.26458 z m 12.295,-0.24985 0.27531,-0.51443 0.29061,-0.17961 0.2906,-0.1796 -0.45475,0.69403 -0.45474,0.69404 h -0.22235 z m -1.7286,-0.61005 -0.77711,-0.8599 1.7198,1.5542 v 0.1656 h -0.1656 z m 3.5885,0.46302 v -0.13229 h 0.26458 v 0.26458 h -0.26458 z m -12.965,-1.0583 v -0.13229 h 0.26459 v 0.26458 h -0.26459 z m 4.0595,-1.8521 0.002,-2.1167 0.10163,1.1315 0.10162,1.1315 -0.10337,0.9852 -0.10337,0.98519 z m 8.4151,1.1351 0.62229,-0.98156 0.0852,0.24496 0.0852,0.24495 -1.415,1.4732 z m -4.4299,-0.27522 -0.50403,-0.59531 1.1906,1.008 v 0.1826 h -0.1826 z m 5.1845,0.46302 v -0.13229 h 0.26459 v 0.26458 h -0.26459 z m -12.435,-0.23219 v -0.0999 l 0.92605,-0.72625 -0.72626,0.92604 h -0.1998 z m -5.5562,-0.69385 v -0.35278 l 0.35278,0.35278 -0.35278,0.35278 z m 6.7469,-0.52917 0.16352,-0.26458 h 0.26458 l -0.16352,0.26458 -0.16352,0.26459 h -0.26458 z m 10.451,0.13229 v -0.13229 h 0.26459 v 0.26459 h -0.26459 z m -16.933,-0.26458 v -0.13229 h 0.26458 v 0.26458 h -0.26458 z m 0.52916,0 v -0.13229 h 0.26459 v 0.26458 h -0.26459 z m 1.0583,-0.39687 0.39687,-0.25648 0.79375,0.029 -0.52916,0.2274 -0.52917,0.22739 -0.52917,0.029 z m 13.582,0.0882 0.17639,-0.17639 0.35278,0.35278 h -0.70556 z m -14.905,-0.22049 v -0.13229 h 0.26458 v 0.26459 h -0.26458 z m 2.6458,-0.26458 v -0.13229 h 0.26459 v 0.26458 h -0.26459 z m -2.249,-0.39687 0.16352,-0.26459 h 0.26458 l -0.16352,0.26459 -0.16352,0.26458 h -0.26459 z m 6.7469,0.16468 v -0.0999 l 0.46302,-0.36313 0.46302,-0.36312 -0.36312,0.46302 -0.36313,0.46302 h -0.1998 z m 4.5861,-0.34107 0.17639,-0.17639 0.35278,0.35278 h -0.70556 z m -6.1736,-0.22049 v -0.13229 h 0.26458 v 0.26458 h -0.26458 z m 5.5562,0 v -0.13229 h 0.26459 v 0.26458 h -0.26459 z m -9.7896,-1.0583 v -0.13229 h 0.26458 v 0.26458 h -0.26458 z m 4.8337,-0.0511 0.46806,-0.12196 0.65138,0.26354 -1.5875,-0.02 z m 1.2517,0.0511 v -0.13229 h 0.26459 v 0.26458 h -0.26459 z m 1.1403,-1.3229 0.003,-1.5875 0.10707,0.86463 0.10707,0.86464 -0.10977,0.72286 -0.10977,0.72287 z m 7.0618,1.3229 v -0.13229 h 0.26458 v 0.26458 h -0.26458 z m -13.626,-0.92604 0.16352,-0.26459 h 0.26458 l -0.16352,0.26459 -0.16352,0.26458 h -0.26459 z m 11.509,0.13229 v -0.13229 h 0.26459 v 0.26458 h -0.26459 z m 1.3229,-0.26459 v -0.13229 h 0.26458 v 0.26459 h -0.26458 z m -1.2347,-0.30868 0.17639,-0.17639 0.17638,0.17639 0.17639,0.17639 h -0.70555 z m -2.9104,-0.79375 0.17639,-0.17639 0.35278,0.35278 h -0.70556 z m -4.3215,-0.22048 v -0.13229 h 0.26458 v 0.26458 h -0.26458 z m 3.2632,-0.0441 0.17639,-0.17639 0.17638,0.17639 0.17639,0.17639 h -0.70555 z m -1.095,-2.0726 0.01,-0.79375 0.12197,0.46806 0.12197,0.46805 -0.13177,0.3257 -0.13178,0.32569 z m -0.0516,-1.4552 v -0.35278 l 0.35278,0.35278 -0.35278,0.35278 z"
       fill="#192d19"
       id="path56" /><path
       d="m 135.07,131.74 v -0.13229 h 0.26458 v 0.26459 H 135.07 Z m -8.3344,-0.346 -0.79375,-0.0977 -0.52917,-0.41338 -2.0298,-0.65415 -1.8694,-1.6414 -1.2232,-1.9378 -0.3285,-1.7888 1.4822,-2.9068 2.3812,-1.7948 0.13229,3.2768 0.1323,3.2768 2.5674,3.8118 2.4597,0.79494 0.92604,0.10704 0.92604,0.10705 -1.7198,-0.0211 -1.7198,-0.021 z m 6.4229,-0.66011 -1.4963,-0.84806 0.49257,-0.65302 0.49257,-0.65301 -0.13438,-0.21743 -0.13437,-0.21742 0.27245,-0.32829 0.27246,-0.32829 0.1944,-3.1567 0.1,3.4837 0.39013,0.39013 0.0191,0.31205 0.0191,0.31206 1.2034,2.5575 -0.1948,0.1948 z m 4.5573,0.47695 v -0.13229 h 0.26458 v 0.26458 h -0.26458 z m 1.5875,-1.1906 v -0.35278 l 0.35278,0.35278 -0.35278,0.35278 z m 2.6458,-11.245 v -0.13229 h 0.26459 v 0.26458 h -0.26459 z m -17.992,-0.92604 v -0.35278 l 0.35278,0.35278 -0.35278,0.35278 z m 17.727,0 v -0.35278 l 0.35278,0.35278 -0.35278,0.35278 z m -1.5875,-3.3073 v -0.13229 h 0.26458 v 0.26458 h -0.26458 z m -9.2604,-2.3812 v -0.13229 h 0.26458 v 0.26458 h -0.26458 z m 2.1584,-1.9844 v -0.66146 l 0.13346,0.33073 0.13345,0.33073 -0.13345,0.33073 -0.13346,0.33073 z m -0.0418,-1.5875 v -0.35278 l 0.35278,0.35278 -0.35278,0.35278 z"
       fill="#1a1b1a"
       id="path57" /></g></svg>
